# Blender 5.1.2
# www.blender.org
mtllib drill_9x9.mtl
o drill_9x9
v 0.500001 0.005000 -3.999999
v 0.500001 2.005000 -3.000999
v 1.377906 0.005000 -3.913534
v 1.183012 2.005000 -2.933728
v 2.222077 0.005000 -3.657458
v 1.839776 2.005000 -2.734501
v 3.000066 0.005000 -3.241613
v 2.445051 2.005000 -2.410975
v 3.681980 0.005000 -2.681979
v 2.975582 2.005000 -1.975580
v 4.241613 0.005000 -2.000065
v 3.410976 2.005000 -1.445051
v 4.657459 0.005000 -1.222075
v 3.734503 2.005000 -0.839774
v 4.913535 0.005000 -0.377905
v 3.933730 2.005000 -0.183010
v 5.000001 0.005000 0.500001
v 4.001000 2.005000 0.500001
v 4.913535 0.005000 1.377906
v 3.933730 2.005000 1.183012
v 4.657459 0.005000 2.222077
v 3.734503 2.005000 1.839776
v 4.241613 0.005000 3.000066
v 3.410976 2.005000 2.445051
v 3.681980 0.005000 3.681980
v 2.975582 2.005000 2.975582
v 3.000066 0.005000 4.241613
v 2.445051 2.005000 3.410976
v 2.222077 0.005000 4.657459
v 1.839776 2.005000 3.734503
v 1.377906 0.005000 4.913535
v 1.183012 2.005000 3.933730
v 0.500001 0.005000 5.000001
v 0.500001 2.005000 4.001000
v -0.377905 0.005000 4.913535
v -0.183010 2.005000 3.933730
v -1.222075 0.005000 4.657459
v -0.839774 2.005000 3.734503
v -2.000065 0.005000 4.241613
v -1.445051 2.005000 3.410976
v -2.681979 0.005000 3.681980
v -1.975580 2.005000 2.975582
v -3.241613 0.005000 3.000066
v -2.410975 2.005000 2.445051
v -3.657458 0.005000 2.222077
v -2.734501 2.005000 1.839776
v -3.913534 0.005000 1.377906
v -2.933728 2.005000 1.183012
v -3.999999 0.005000 0.500001
v -3.000999 2.005000 0.500001
v -3.913534 0.005000 -0.377905
v -2.933728 2.005000 -0.183010
v -3.657458 0.005000 -1.222075
v -2.734501 2.005000 -0.839774
v -3.241613 0.005000 -2.000065
v -2.410975 2.005000 -1.445051
v -2.681979 0.005000 -2.681979
v -1.975580 2.005000 -1.975580
v -2.000065 0.005000 -3.241613
v -1.445051 2.005000 -2.410975
v -1.222075 0.005000 -3.657458
v -0.839774 2.005000 -2.734501
v -0.377905 0.005000 -3.913534
v -0.183010 2.005000 -2.933728
v 2.659010 -0.145000 1.560331
v 2.659010 0.605000 1.560331
v 3.719670 -0.145000 2.620991
v 3.719670 0.605000 2.620991
v 5.840991 -0.145000 0.499671
v 5.840991 0.605000 0.499671
v 3.719670 -0.145000 0.499671
v 3.719670 0.605000 0.499671
v 1.985140 -0.145000 2.392085
v 1.985140 0.605000 2.392085
v 2.480560 -0.145000 3.807910
v 2.480560 0.605000 3.807910
v 5.312209 -0.145000 2.817073
v 5.312209 0.605000 2.817073
v 3.400965 -0.145000 1.896666
v 3.400965 0.605000 1.896666
v 1.017122 -0.145000 2.849087
v 1.017122 0.605000 2.849087
v 0.849175 -0.145000 4.339656
v 0.849175 0.605000 4.339656
v 3.830310 -0.145000 4.675550
v 3.830310 0.605000 4.675550
v 2.507690 -0.145000 3.017035
v 2.507690 0.605000 3.017035
v -0.053320 -0.145000 2.840825
v -0.053320 0.605000 2.840825
v -0.851369 -0.145000 4.110912
v -0.851369 0.605000 4.110912
v 1.688804 -0.145000 5.707007
v 1.688804 0.605000 5.707007
v 1.216766 -0.145000 3.638873
v 1.216766 0.605000 3.638873
v -1.014170 -0.145000 2.368933
v -1.014170 0.605000 2.368933
v -2.284257 -0.145000 3.166981
v -2.284257 0.605000 3.166981
v -0.688160 -0.145000 5.707154
v -0.688160 0.605000 5.707154
v -0.216122 -0.145000 3.639019
v -0.216122 0.605000 3.639019
v -1.675120 -0.145000 1.526876
v -1.675120 0.605000 1.526876
v -3.165688 -0.145000 1.694823
v -3.165688 0.605000 1.694823
v -2.829797 -0.145000 4.675959
v -2.829797 0.605000 4.675959
v -1.507173 -0.145000 3.017444
v -1.507173 0.605000 3.017444
v -1.905261 -0.145000 0.481435
v -1.905261 0.605000 0.481435
v -3.321086 -0.145000 -0.013984
v -3.321086 0.605000 -0.013984
v -4.311924 -0.145000 2.817665
v -4.311924 0.605000 2.817665
v -2.400679 -0.145000 1.897260
v -2.400679 0.605000 1.897260
v -1.659010 -0.145000 -0.560331
v -1.659010 0.605000 -0.560331
v -2.719669 -0.145000 -1.620992
v -2.719669 0.605000 -1.620992
v -4.840991 -0.145000 0.500330
v -4.840991 0.605000 0.500330
v -2.719670 -0.145000 0.500330
v -2.719670 0.605000 0.500330
v -0.985139 -0.145000 -1.392085
v -0.985139 0.605000 -1.392085
v -1.480558 -0.145000 -2.807910
v -1.480558 0.605000 -2.807910
v -4.312209 -0.145000 -1.817074
v -4.312209 0.605000 -1.817074
v -2.400965 -0.145000 -0.896667
v -2.400965 0.605000 -0.896667
v -0.017120 -0.145000 -1.849089
v -0.017120 0.605000 -1.849089
v 0.150827 -0.145000 -3.339656
v 0.150827 0.605000 -3.339656
v -2.830312 -0.145000 -3.675550
v -2.830312 0.605000 -3.675550
v -1.507688 -0.145000 -2.017034
v -1.507688 0.605000 -2.017034
v 1.053323 -0.145000 -1.840825
v 1.053323 0.605000 -1.840825
v 1.851372 -0.145000 -3.110911
v 1.851372 0.605000 -3.110911
v -0.688801 -0.145000 -4.707009
v -0.688801 0.605000 -4.707009
v -0.216764 -0.145000 -2.638873
v -0.216764 0.605000 -2.638873
v 2.014172 -0.145000 -1.368934
v 2.014172 0.605000 -1.368934
v 3.284258 -0.145000 -2.166981
v 3.284258 0.605000 -2.166981
v 1.688164 -0.145000 -4.707154
v 1.688164 0.605000 -4.707154
v 1.216124 -0.145000 -2.639020
v 1.216124 0.605000 -2.639020
v 2.675123 -0.145000 -0.526876
v 2.675123 0.605000 -0.526876
v 4.165691 -0.145000 -0.694822
v 4.165691 0.605000 -0.694822
v 3.829800 -0.145000 -3.675959
v 3.829800 0.605000 -3.675959
v 2.507176 -0.145000 -2.017446
v 2.507176 0.605000 -2.017446
v 2.905264 -0.145000 0.518567
v 2.905264 0.605000 0.518567
v 4.321087 -0.145000 1.013985
v 4.321087 0.605000 1.013985
v 5.311927 -0.145000 -1.817664
v 5.311927 0.605000 -1.817664
v 3.400682 -0.145000 -0.897259
v 3.400682 0.605000 -0.897259
v 1.700963 0.855000 1.975482
v 1.700963 1.605000 1.975482
v 2.450963 0.855000 3.274520
v 2.450963 1.605000 3.274520
v 5.049038 0.855000 1.774520
v 5.049038 1.605000 1.774520
v 3.000001 0.855000 1.225482
v 3.000001 1.605000 1.225482
v 0.941843 0.855000 2.350441
v 0.941843 1.605000 2.350441
v 1.053937 0.855000 3.846246
v 1.053937 1.605000 3.846246
v 4.045549 0.855000 3.622057
v 4.045549 1.605000 3.622057
v 2.437648 0.855000 2.238346
v 2.437648 1.605000 2.238346
v 0.095210 0.855000 2.358897
v 0.095210 1.605000 2.358897
v -0.452801 0.855000 3.755208
v -0.452801 1.605000 3.755208
v 2.339819 0.855000 4.851232
v 2.339819 1.605000 4.851232
v 1.491521 0.855000 2.906910
v 1.491521 1.605000 2.906910
v -0.671248 0.855000 1.999177
v -0.671248 1.605000 1.999177
v -1.770827 0.855000 3.019436
v -1.770827 1.605000 3.019436
v 0.269692 0.855000 5.218592
v 0.269692 1.605000 5.218592
v 0.349011 0.855000 3.098755
v 0.349011 1.605000 3.098755
v -1.205726 0.855000 1.342526
v -1.205726 1.605000 1.342526
v -2.639085 0.855000 1.784658
v -2.639085 1.605000 1.784658
v -1.754821 0.855000 4.651376
v -1.754821 1.605000 4.651376
v -0.763594 0.855000 2.775885
v -0.763594 1.605000 2.775885
v -1.402363 0.855000 0.519002
v -1.402363 1.605000 0.519002
v -2.885611 0.855000 0.295438
v -2.885611 1.605000 0.295438
v -3.332739 0.855000 3.261929
v -3.332739 1.605000 3.261929
v -1.625929 0.855000 2.002248
v -1.625929 1.605000 2.002248
v -1.222215 0.855000 -0.308285
v -1.222215 1.605000 -0.308285
v -2.461574 0.855000 -1.153266
v -2.461574 1.605000 -1.153266
v -4.151535 0.855000 1.325449
v -4.151535 1.605000 1.325449
v -2.067197 0.855000 0.931073
v -2.067197 1.605000 0.931073
v -0.700960 0.855000 -0.975481
v -0.700960 1.605000 -0.975481
v -1.450960 0.855000 -2.274522
v -1.450960 1.605000 -2.274522
v -4.049038 0.855000 -0.774520
v -4.049038 1.605000 -0.774520
v -1.999999 0.855000 -0.225482
v -1.999999 1.605000 -0.225482
v 0.058161 0.855000 -1.350441
v 0.058161 1.605000 -1.350441
v -0.053934 0.855000 -2.846248
v -0.053934 1.605000 -2.846248
v -3.045546 0.855000 -2.622057
v -3.045546 1.605000 -2.622057
v -1.437647 0.855000 -1.238347
v -1.437647 1.605000 -1.238347
v 0.904793 0.855000 -1.358897
v 0.904793 1.605000 -1.358897
v 1.452805 0.855000 -2.755208
v 1.452805 1.605000 -2.755208
v -1.339819 0.855000 -3.851232
v -1.339819 1.605000 -3.851232
v -0.491519 0.855000 -1.906910
v -0.491519 1.605000 -1.906910
v 1.671252 0.855000 -0.999176
v 1.671252 1.605000 -0.999176
v 2.770831 0.855000 -2.019435
v 2.770831 1.605000 -2.019435
v 0.730312 0.855000 -4.218594
v 0.730312 1.605000 -4.218594
v 0.650992 0.855000 -2.098755
v 0.650992 1.605000 -2.098755
v 2.205730 0.855000 -0.342525
v 2.205730 1.605000 -0.342525
v 3.639089 0.855000 -0.784658
v 3.639089 1.605000 -0.784658
v 2.754822 0.855000 -3.651379
v 2.754822 1.605000 -3.651379
v 1.763597 0.855000 -1.775886
v 1.763597 1.605000 -1.775886
v 2.402367 0.855000 0.481000
v 2.402367 1.605000 0.481000
v 3.885614 0.855000 0.704565
v 3.885614 1.605000 0.704565
v 4.332742 0.855000 -2.261931
v 4.332742 1.605000 -2.261931
v 2.625932 0.855000 -1.002248
v 2.625932 1.605000 -1.002248
v 2.222218 0.855000 1.308286
v 2.222218 1.605000 1.308286
v 3.461577 0.855000 2.153269
v 3.461577 1.605000 2.153269
v 5.151539 0.855000 -0.325451
v 5.151539 1.605000 -0.325451
v 3.067200 0.855000 0.068928
v 3.067200 1.605000 0.068928
vn 0.0878 0.4451 -0.8912
vn 0.2599 0.4451 -0.8569
vn 0.4221 0.4451 -0.7897
vn 0.5681 0.4451 -0.6922
vn 0.6922 0.4451 -0.5681
vn 0.7897 0.4451 -0.4221
vn 0.8569 0.4451 -0.2599
vn 0.8912 0.4451 -0.0878
vn 0.8912 0.4451 0.0878
vn 0.8569 0.4451 0.2599
vn 0.7897 0.4451 0.4221
vn 0.6922 0.4451 0.5681
vn 0.5681 0.4451 0.6922
vn 0.4221 0.4451 0.7897
vn 0.2599 0.4451 0.8569
vn 0.0878 0.4451 0.8912
vn -0.0878 0.4451 0.8912
vn -0.2599 0.4451 0.8569
vn -0.4221 0.4451 0.7897
vn -0.5681 0.4451 0.6922
vn -0.6922 0.4451 0.5681
vn -0.7897 0.4451 0.4221
vn -0.8569 0.4451 0.2599
vn -0.8912 0.4451 0.0878
vn -0.8912 0.4451 -0.0878
vn -0.8569 0.4451 -0.2599
vn -0.7897 0.4451 -0.4221
vn -0.6922 0.4451 -0.5681
vn -0.5681 0.4451 -0.6922
vn -0.4221 0.4451 -0.7897
vn -0.0000 1.0000 -0.0000
vn -0.2599 0.4451 -0.8569
vn -0.0878 0.4451 -0.8912
vn -0.0000 -1.0000 -0.0000
vn -0.7071 -0.0000 -0.7071
vn 0.7071 -0.0000 0.7071
vn -0.7071 -0.0000 0.7071
vn -0.0000 -0.0000 -1.0000
vn -0.3303 -0.0000 -0.9439
vn 0.3303 -0.0000 0.9439
vn -0.9439 -0.0000 0.3303
vn 0.4339 -0.0000 -0.9010
vn 0.1120 -0.0000 -0.9937
vn -0.1120 -0.0000 0.9937
vn -0.9937 -0.0000 -0.1120
vn 0.7818 -0.0000 -0.6235
vn 0.5320 -0.0000 -0.8467
vn -0.5320 -0.0000 0.8467
vn -0.8467 -0.0000 -0.5320
vn 0.9749 -0.0000 -0.2225
vn 0.8467 -0.0000 -0.5320
vn -0.8467 -0.0000 0.5320
vn -0.5320 -0.0000 -0.8467
vn 0.9749 -0.0000 0.2225
vn 0.9937 -0.0000 -0.1120
vn -0.9937 -0.0000 0.1120
vn -0.1120 -0.0000 -0.9937
vn 0.7818 -0.0000 0.6235
vn 0.9439 -0.0000 0.3303
vn -0.9439 -0.0000 -0.3303
vn 0.3303 -0.0000 -0.9439
vn 0.4339 -0.0000 0.9010
vn 0.7071 -0.0000 -0.7071
vn -0.0000 -0.0000 1.0000
vn 0.9439 -0.0000 -0.3303
vn -0.4339 -0.0000 0.9010
vn 0.9937 -0.0000 0.1120
vn -0.7818 -0.0000 0.6235
vn 0.8467 -0.0000 0.5320
vn -0.9749 -0.0000 0.2225
vn 0.5320 -0.0000 0.8467
vn -0.9749 -0.0000 -0.2225
vn 0.1120 -0.0000 0.9937
vn -0.7818 -0.0000 -0.6235
vn -0.3303 -0.0000 0.9439
vn -0.4339 -0.0000 -0.9010
vn -0.5000 -0.0000 -0.8660
vn 0.5000 -0.0000 0.8660
vn -0.8660 -0.0000 0.5000
vn 0.2588 -0.0000 -0.9659
vn -0.0747 -0.0000 -0.9972
vn 0.0747 -0.0000 0.9972
vn -0.9972 -0.0000 0.0747
vn 0.6523 -0.0000 -0.7580
vn 0.3653 -0.0000 -0.9309
vn -0.3653 -0.0000 0.9309
vn -0.9309 -0.0000 -0.3653
vn 0.9166 -0.0000 -0.3999
vn 0.7331 -0.0000 -0.6802
vn -0.7331 -0.0000 0.6802
vn -0.6802 -0.0000 -0.7331
vn 0.9993 -0.0000 0.0374
vn 0.9556 -0.0000 -0.2948
vn -0.9556 -0.0000 0.2948
vn -0.2948 -0.0000 -0.9556
vn 0.8841 -0.0000 0.4673
vn 0.9888 -0.0000 0.1490
vn -0.9888 -0.0000 -0.1490
vn 0.1490 -0.0000 -0.9888
vn 0.5938 -0.0000 0.8046
vn 0.8262 -0.0000 0.5633
vn -0.8262 -0.0000 -0.5633
vn 0.5633 -0.0000 -0.8262
vn 0.1859 -0.0000 0.9826
vn 0.8660 -0.0000 -0.5000
vn -0.2588 -0.0000 0.9659
vn 0.9972 -0.0000 -0.0747
vn -0.6523 -0.0000 0.7580
vn 0.9309 -0.0000 0.3653
vn -0.9166 -0.0000 0.3999
vn 0.6802 -0.0000 0.7331
vn -0.9993 -0.0000 -0.0374
vn 0.2948 -0.0000 0.9556
vn -0.8841 -0.0000 -0.4673
vn -0.1490 -0.0000 0.9888
vn -0.5938 -0.0000 -0.8046
vn -0.5633 -0.0000 0.8262
vn -0.1859 -0.0000 -0.9826
vt 0.310312 0.231132
vt 0.310178 0.000657
vt 0.327614 0.000614
vt 0.332723 0.231077
vt 0.344357 0.000486
vt 0.354243 0.230913
vt 0.359762 0.000279
vt 0.374045 0.230647
vt 0.373239 0.000000
vt 0.391367 0.230288
vt 0.228801 0.461432
vt 0.247519 0.231133
vt 0.260401 0.231421
vt 0.245359 0.461803
vt 0.275356 0.231636
vt 0.264581 0.462078
vt 0.291808 0.231768
vt 0.285728 0.462248
vt 0.309126 0.231812
vt 0.307988 0.462305
vt 0.326644 0.231768
vt 0.330505 0.462248
vt 0.343690 0.231636
vt 0.352414 0.462078
vt 0.359606 0.231421
vt 0.372873 0.461803
vt 0.373783 0.231133
vt 0.391095 0.461432
vt -0.000000 0.459090
vt 0.017962 0.228801
vt 0.031589 0.229080
vt 0.017516 0.459448
vt 0.047107 0.229287
vt 0.037462 0.459714
vt 0.063918 0.229415
vt 0.059070 0.459878
vt 0.081377 0.229458
vt 0.081511 0.459934
vt 0.098813 0.229415
vt 0.103922 0.459878
vt 0.115555 0.229287
vt 0.125442 0.459714
vt 0.130961 0.229080
vt 0.145243 0.459448
vt 0.144438 0.228801
vt 0.162566 0.459090
vt 0.391095 0.461432
vt 0.409813 0.231133
vt 0.422695 0.231421
vt 0.407653 0.461803
vt 0.437649 0.231636
vt 0.426875 0.462078
vt 0.454102 0.231768
vt 0.448022 0.462248
vt 0.471420 0.231812
vt 0.470282 0.462305
vt 0.488938 0.231768
vt 0.492799 0.462248
vt 0.505983 0.231636
vt 0.514708 0.462078
vt 0.521900 0.231421
vt 0.535166 0.461803
vt 0.536077 0.231132
vt 0.553389 0.461432
vt 0.228801 0.230288
vt 0.246763 0.000000
vt 0.260390 0.000279
vt 0.246317 0.230647
vt 0.275908 0.000486
vt 0.266263 0.230913
vt 0.401497 0.131163
vt 0.394788 0.114965
vt 0.391367 0.097770
vt 0.391367 0.080238
vt 0.394788 0.063042
vt 0.401497 0.046845
vt 0.411237 0.032267
vt 0.423634 0.019870
vt 0.438212 0.010130
vt 0.454410 0.003420
vt 0.471605 0.000000
vt 0.489137 0.000000
vt 0.506332 0.003420
vt 0.522530 0.010130
vt 0.537107 0.019870
vt 0.549505 0.032267
vt 0.559245 0.046845
vt 0.565954 0.063042
vt 0.569375 0.080238
vt 0.569375 0.097770
vt 0.565954 0.114965
vt 0.559245 0.131163
vt 0.549505 0.145740
vt 0.537107 0.158137
vt 0.522530 0.167878
vt 0.506332 0.174587
vt 0.489137 0.178007
vt 0.471605 0.178007
vt 0.454410 0.174587
vt 0.438212 0.167878
vt 0.423634 0.158137
vt 0.411237 0.145740
vt 0.292719 0.000614
vt 0.287871 0.231077
vt 0.025540 0.187327
vt 0.013020 0.168590
vt 0.004396 0.147770
vt 0.000000 0.125668
vt 0.000000 0.103133
vt 0.004396 0.081031
vt 0.013020 0.060212
vt 0.025540 0.041474
vt 0.041474 0.025540
vt 0.060212 0.013020
vt 0.081031 0.004396
vt 0.103133 0.000000
vt 0.125668 0.000000
vt 0.147770 0.004396
vt 0.168590 0.013020
vt 0.187327 0.025540
vt 0.203261 0.041474
vt 0.215781 0.060212
vt 0.224405 0.081031
vt 0.228801 0.103133
vt 0.228801 0.125668
vt 0.224405 0.147770
vt 0.215781 0.168590
vt 0.203261 0.187327
vt 0.187327 0.203261
vt 0.168590 0.215781
vt 0.147770 0.224405
vt 0.125668 0.228801
vt 0.103133 0.228801
vt 0.081031 0.224405
vt 0.060212 0.215781
vt 0.041475 0.203261
vt 0.113843 0.981483
vt 0.113843 0.895296
vt 0.142470 0.894637
vt 0.142470 0.980823
vt 0.718197 0.174238
vt 0.718197 0.088052
vt 0.775452 0.086732
vt 0.775452 0.172919
vt 0.962079 0.405344
vt 0.962079 0.319155
vt 0.988990 0.318472
vt 0.988990 0.404660
vt 0.999968 0.076636
vt 0.961650 0.038318
vt 0.961650 -0.000000
vt 0.999968 -0.000000
vt 1.000000 0.847650
vt 0.961682 0.885968
vt 0.961682 0.809332
vt 1.000000 0.809332
vt 0.773366 0.548494
vt 0.719178 0.548503
vt 0.719178 0.462315
vt 0.773366 0.462305
vt 0.484116 0.548781
vt 0.484116 0.462592
vt 0.520368 0.462903
vt 0.520368 0.549092
vt 0.075525 0.719548
vt 0.075525 0.633360
vt 0.148030 0.633982
vt 0.148030 0.720171
vt 0.850342 0.172919
vt 0.850342 0.086732
vt 0.885711 0.087114
vt 0.885711 0.173301
vt 0.267119 0.963004
vt 0.228801 0.924686
vt 0.228801 0.886368
vt 0.267119 0.886368
vt 0.504145 0.925474
vt 0.465827 0.963792
vt 0.465827 0.887155
vt 0.504145 0.887155
vt 0.569032 0.548494
vt 0.569032 0.462305
vt 0.807614 0.635394
vt 0.807614 0.549206
vt 0.845662 0.549092
vt 0.845662 0.635280
vt 0.635415 0.403966
vt 0.635415 0.317777
vt 0.711509 0.317549
vt 0.711509 0.403738
vt 0.769352 0.635332
vt 0.769352 0.549145
vt 0.807614 0.549092
vt 0.807614 0.635278
vt 0.504145 0.887155
vt 0.542463 0.925473
vt 0.542463 0.963791
vt 0.504145 0.963791
vt 0.145081 0.931560
vt 0.183399 0.893242
vt 0.183399 0.969878
vt 0.145081 0.969878
vt 0.546481 0.810519
vt 0.506154 0.809582
vt 0.506154 0.723395
vt 0.546481 0.724333
vt 0.267119 0.896437
vt 0.267119 0.810248
vt 0.299425 0.809732
vt 0.299425 0.895920
vt 0.710786 0.722837
vt 0.710786 0.636648
vt 0.775398 0.635615
vt 0.775398 0.721804
vt 0.038318 0.894168
vt 0.038318 0.807981
vt 0.071895 0.807503
vt 0.071895 0.893690
vt 0.299949 0.886603
vt 0.338267 0.924921
vt 0.338267 0.963239
vt 0.299949 0.963239
vt 0.923775 0.500624
vt 0.962093 0.462305
vt 0.962093 0.538942
vt 0.923775 0.538942
vt 0.691677 0.809096
vt 0.639638 0.808704
vt 0.639638 0.722518
vt 0.691677 0.722909
vt 0.000000 0.632784
vt 0.000000 0.546597
vt 0.031202 0.547173
vt 0.031202 0.633360
vt 0.711510 0.317319
vt 0.711510 0.231132
vt 0.773914 0.232285
vt 0.773914 0.318472
vt 0.366575 0.722196
vt 0.366575 0.636007
vt 0.399157 0.636513
vt 0.399157 0.722701
vt 0.923332 -0.000000
vt 0.961650 0.038318
vt 0.961650 0.076636
vt 0.923332 0.076636
vt 0.923364 0.847650
vt 0.961682 0.809332
vt 0.961682 0.885968
vt 0.923364 0.885968
vt 0.084646 0.633128
vt 0.084646 0.546941
vt 0.553389 0.317961
vt 0.553389 0.231774
vt 0.591151 0.231942
vt 0.591151 0.318129
vt 0.639638 0.635278
vt 0.639638 0.549092
vt 0.715163 0.549428
vt 0.715163 0.635615
vt 0.773914 0.404660
vt 0.773914 0.318472
vt 0.812019 0.318573
vt 0.812019 0.404761
vt 0.883152 0.722837
vt 0.921470 0.761155
vt 0.921470 0.799473
vt 0.883152 0.799473
vt 0.921470 0.761155
vt 0.959788 0.722837
vt 0.959788 0.799473
vt 0.921470 0.799473
vt 0.635415 0.317319
vt 0.635415 0.231133
vt 0.812072 0.317592
vt 0.812072 0.231405
vt 0.848916 0.231132
vt 0.848916 0.317319
vt 0.645490 0.549038
vt 0.645490 0.462851
vt 0.719178 0.462305
vt 0.719178 0.548492
vt 0.848932 0.086512
vt 0.848932 0.000323
vt 0.885014 -0.000000
vt 0.885014 0.086189
vt 0.563179 0.885507
vt 0.601497 0.923825
vt 0.601497 0.962143
vt 0.563179 0.962143
vt 0.885046 0.924286
vt 0.923364 0.885968
vt 0.923364 0.962604
vt 0.885046 0.962604
vt 0.808749 0.809606
vt 0.759767 0.809025
vt 0.759767 0.722837
vt 0.808749 0.723418
vt 0.113843 0.894637
vt 0.113843 0.808450
vt 0.142471 0.807790
vt 0.142471 0.893977
vt 0.171121 0.547440
vt 0.171121 0.461253
vt 0.228376 0.459934
vt 0.228376 0.546120
vt 0.962093 0.538942
vt 0.962093 0.452753
vt 0.989003 0.452069
vt 0.989003 0.538258
vt 0.885443 0.318472
vt 0.923761 0.356790
vt 0.923761 0.395108
vt 0.885443 0.395108
vt 0.923761 0.356790
vt 0.962079 0.318472
vt 0.962079 0.395108
vt 0.923761 0.395108
vt 0.769352 0.635280
vt 0.715163 0.635289
vt 0.715163 0.549101
vt 0.769352 0.549092
vt 0.399200 0.548781
vt 0.399200 0.462592
vt 0.435453 0.462903
vt 0.435453 0.549092
vt 0.645692 0.172921
vt 0.645692 0.086732
vt 0.718197 0.087354
vt 0.718197 0.173543
vt 0.148030 0.892860
vt 0.148030 0.806673
vt 0.183399 0.807055
vt 0.183399 0.893242
vt 0.506154 0.810519
vt 0.544472 0.848837
vt 0.544472 0.887155
vt 0.506154 0.887155
vt 0.885014 0.038318
vt 0.923332 0.000000
vt 0.923332 0.076636
vt 0.885014 0.076636
vt 0.484116 0.548494
vt 0.484116 0.462305
vt 0.775451 0.173035
vt 0.775451 0.086846
vt 0.813499 0.086732
vt 0.813499 0.172921
vt 0.635415 0.317549
vt 0.635415 0.231361
vt 0.711509 0.231132
vt 0.711509 0.317321
vt 0.772691 0.086240
vt 0.772691 0.000053
vt 0.810953 0.000000
vt 0.810953 0.086187
vt 0.923774 0.538942
vt 0.885456 0.500623
vt 0.885456 0.462305
vt 0.923774 0.462305
vt 0.924030 0.125050
vt 0.885711 0.163368
vt 0.885711 0.086732
vt 0.924030 0.086732
vt 0.506154 0.810519
vt 0.465827 0.809582
vt 0.465827 0.723395
vt 0.506154 0.724333
vt 0.677956 0.895801
vt 0.677956 0.809613
vt 0.710262 0.809096
vt 0.710262 0.895284
vt 0.465827 0.723395
vt 0.465827 0.637206
vt 0.530439 0.636173
vt 0.530439 0.722362
vt 0.601497 0.895535
vt 0.601497 0.809349
vt 0.635075 0.808870
vt 0.635075 0.895057
vt 0.386588 0.886769
vt 0.348270 0.848451
vt 0.348270 0.810133
vt 0.386588 0.810133
vt 0.885046 0.847650
vt 0.846728 0.885968
vt 0.846728 0.809332
vt 0.885046 0.809332
vt 0.615218 0.808870
vt 0.563179 0.808479
vt 0.563179 0.722292
vt 0.615218 0.722684
vt 0.084646 0.632784
vt 0.084646 0.546597
vt 0.115848 0.547173
vt 0.115848 0.633360
vt 0.711509 0.404658
vt 0.711509 0.318472
vt 0.773914 0.319624
vt 0.773914 0.405811
vt 0.563021 0.636679
vt 0.563021 0.722867
vt 0.961682 0.962604
vt 0.923364 0.924286
vt 0.923364 0.885968
vt 0.961682 0.885968
vt 0.749104 0.924561
vt 0.710786 0.962879
vt 0.710786 0.886243
vt 0.749104 0.886243
vt 0.169292 0.633128
vt 0.169292 0.546941
vt 0.553389 0.404957
vt 0.553389 0.318770
vt 0.591151 0.318939
vt 0.591151 0.405126
vt 0.000000 0.719546
vt 0.000000 0.633360
vt 0.075525 0.633697
vt 0.075525 0.719883
vt 0.775398 0.721804
vt 0.775398 0.635615
vt 0.813503 0.635716
vt 0.813503 0.721905
vt 0.924086 0.712251
vt 0.885768 0.673933
vt 0.885768 0.635615
vt 0.924086 0.635615
vt 0.958989 0.587410
vt 0.920671 0.625728
vt 0.920671 0.549092
vt 0.958989 0.549092
vt 0.635415 0.404316
vt 0.635415 0.318129
vt 0.813499 0.173192
vt 0.813499 0.087005
vt 0.645692 0.086732
vt 0.645692 0.000545
vt 0.719379 -0.000000
vt 0.719379 0.086187
vt 0.849375 0.548817
vt 0.849375 0.462629
vt 0.885456 0.462305
vt 0.885456 0.548494
vt 0.882353 0.587410
vt 0.882353 0.549092
vt 0.920671 0.549092
vt 0.885046 0.885968
vt 0.885046 0.809332
vt 0.923364 0.809332
vt 0.759767 0.809606
vt 0.710786 0.809025
vt 0.759767 0.723418
vt 0.085561 0.546122
vt 0.085561 0.459934
vt 0.118874 0.460408
vt 0.118874 0.546597
vt 0.399200 0.722362
vt 0.399200 0.636173
vt 0.465827 0.637123
vt 0.465827 0.723311
vt 0.267119 0.982623
vt 0.267119 0.896437
vt 0.299131 0.896982
vt 0.299131 0.983169
vt 0.962404 0.712251
vt 0.924086 0.673933
vt 0.962404 0.635615
vt 0.885046 0.924286
vt 0.846728 0.962604
vt 0.846728 0.885968
vt 0.171121 0.546236
vt 0.171121 0.460048
vt 0.484116 0.636108
vt 0.484116 0.549919
vt 0.522345 0.549985
vt 0.522345 0.636173
vt 0.569032 0.548494
vt 0.569032 0.462305
vt 0.645490 0.462436
vt 0.645490 0.548624
vt 0.810953 0.086187
vt 0.810953 0.000000
vt 0.848932 0.000132
vt 0.848932 0.086318
vt 0.386588 0.963405
vt 0.348270 0.925087
vt 0.348270 0.886769
vt 0.386588 0.886769
vt 0.437518 0.925253
vt 0.399200 0.963571
vt 0.399200 0.886935
vt 0.437518 0.886935
vt 0.563179 0.635280
vt 0.563179 0.549092
vt 0.850194 0.722161
vt 0.850194 0.635972
vt 0.885768 0.635615
vt 0.885768 0.721804
vt 0.228801 0.722910
vt 0.228801 0.636721
vt 0.299949 0.636007
vt 0.299949 0.722196
vt 0.848916 0.317627
vt 0.848916 0.231441
vt 0.885340 0.231133
vt 0.885340 0.317319
vt 0.958989 0.549092
vt 0.997307 0.587410
vt 0.997307 0.625728
vt 0.958989 0.625728
vt 0.959788 0.761155
vt 0.998106 0.722837
vt 0.998106 0.799473
vt 0.959788 0.799473
vt 0.348270 0.809967
vt 0.299949 0.809332
vt 0.299949 0.723145
vt 0.348270 0.723780
vt 0.314001 0.635261
vt 0.314001 0.549075
vt 0.340524 0.549791
vt 0.340524 0.635978
vt 0.075525 0.806357
vt 0.075525 0.720171
vt 0.128571 0.721603
vt 0.128571 0.807790
vt 0.437518 0.983324
vt 0.437518 0.897136
vt 0.465783 0.897784
vt 0.465783 0.983973
vt 0.749104 0.886243
vt 0.787422 0.924561
vt 0.787422 0.962879
vt 0.749104 0.962879
vt 0.787422 0.924561
vt 0.825740 0.886243
vt 0.825740 0.962879
vt 0.787422 0.962879
vt 0.394702 0.636007
vt 0.394702 0.549820
vt 0.314001 0.548727
vt 0.314001 0.462541
vt 0.349896 0.462888
vt 0.349896 0.549075
vt 0.563179 0.721597
vt 0.563179 0.635411
vt 0.634970 0.636105
vt 0.634970 0.722292
vt 0.845661 0.635280
vt 0.845661 0.549092
vt 0.882353 0.549369
vt 0.882353 0.635557
vt 0.924029 0.086732
vt 0.962348 0.125050
vt 0.962348 0.163368
vt 0.924029 0.163368
vt 0.639638 0.924050
vt 0.677956 0.885732
vt 0.677956 0.962368
vt 0.639638 0.962368
vt 0.399200 0.548492
vt 0.399200 0.462305
vt 0.773914 0.317410
vt 0.773914 0.231223
vt 0.812072 0.231132
vt 0.812072 0.317319
vt 0.569375 0.172735
vt 0.569375 0.086549
vt 0.645691 0.086368
vt 0.645691 0.172554
vt 0.811525 0.548644
vt 0.811525 0.462455
vt 0.849375 0.462305
vt 0.849375 0.548494
vt 0.183399 0.883309
vt 0.221717 0.921627
vt 0.221717 0.959945
vt 0.183399 0.959945
vt -0.000000 0.922457
vt 0.038318 0.884139
vt 0.038318 0.960775
vt -0.000000 0.960775
vt 0.443018 0.810299
vt 0.399200 0.809500
vt 0.399200 0.723311
vt 0.443018 0.724110
vt 0.601497 0.982233
vt 0.601497 0.896046
vt 0.634361 0.895535
vt 0.634361 0.981722
vt 0.162566 0.403216
vt 0.162566 0.317030
vt 0.228293 0.316009
vt 0.228293 0.402196
vt 0.961976 0.317867
vt 0.961976 0.231679
vt 0.993489 0.231132
vt 0.993489 0.317321
vt 0.075525 0.884426
vt 0.113843 0.922745
vt 0.113843 0.961063
vt 0.075525 0.961063
vt 0.923658 0.269451
vt 0.961976 0.231133
vt 0.961976 0.307769
vt 0.923658 0.307769
vt 0.201342 0.806673
vt 0.148030 0.806430
vt 0.148030 0.720241
vt 0.201342 0.720485
vt 0.000000 0.546122
vt 0.000000 0.459934
vt 0.033313 0.460408
vt 0.033313 0.546597
vt 0.366575 0.636956
vt 0.366575 0.723145
vt 0.677956 0.981988
vt 0.677956 0.895801
vt 0.709968 0.896347
vt 0.709968 0.982533
vt 0.885340 0.231132
vt 0.923658 0.269451
vt 0.923658 0.307769
vt 0.885340 0.307769
vt 0.399200 0.848617
vt 0.437518 0.810299
vt 0.437518 0.886935
vt 0.399200 0.886935
vt 0.085561 0.546236
vt 0.085561 0.460048
vt 0.399200 0.636108
vt 0.399200 0.549919
vt 0.437430 0.549985
vt 0.437430 0.636173
vt 0.563179 0.549092
vt 0.639638 0.549222
vt 0.639638 0.635411
vt 0.808749 0.809023
vt 0.808749 0.722837
vt 0.846728 0.722969
vt 0.846728 0.809155
vt 0.465827 0.810519
vt 0.504145 0.848837
vt 0.504145 0.887155
vt 0.465827 0.887155
vt 0.228801 0.848050
vt 0.267119 0.809732
vt 0.267119 0.886368
vt 0.228801 0.886368
vt 0.478264 0.635280
vt 0.478264 0.549092
vt 0.849869 0.405017
vt 0.849869 0.318829
vt 0.885443 0.318472
vt 0.885443 0.404660
vt 0.639638 0.636329
vt 0.710786 0.635615
vt 0.710786 0.721804
vt 0.846728 0.809332
vt 0.846728 0.723145
vt 0.883152 0.722837
vt 0.883152 0.809023
vt 0.749104 0.886243
vt 0.710786 0.847924
vt 0.710786 0.809606
vt 0.749104 0.809606
vt 0.787422 0.847924
vt 0.787422 0.809606
vt 0.277123 0.809732
vt 0.228801 0.809096
vt 0.228801 0.722910
vt 0.277123 0.723545
vt 0.228801 0.635261
vt 0.228801 0.549075
vt 0.255324 0.549791
vt 0.255324 0.635978
vt 0.000000 0.806070
vt 0.000000 0.719883
vt 0.053046 0.721316
vt 0.053046 0.807503
vt 0.437518 0.896487
vt 0.437518 0.810299
vt 0.465783 0.810947
vt 0.465783 0.897136
vt 0.338267 0.886603
vt 0.299949 0.848285
vt 0.299949 0.809967
vt 0.338267 0.809967
vt 0.825740 0.847924
vt 0.787422 0.886243
vt 0.787422 0.809606
vt 0.825740 0.809606
vt 0.309502 0.636007
vt 0.309502 0.549820
vt 0.228801 0.548727
vt 0.228801 0.462541
vt 0.264697 0.462888
vt 0.264697 0.549075
vt 0.148030 0.719546
vt 0.148030 0.633360
vt 0.219821 0.634055
vt 0.219821 0.720241
vt 0.813503 0.721804
vt 0.813503 0.635615
vt 0.850194 0.635892
vt 0.850194 0.722081
vt 0.038318 0.884139
vt 0.000000 0.845821
vt 0.000000 0.807503
vt 0.038318 0.807503
vt 0.113843 0.846108
vt 0.075525 0.884426
vt 0.075525 0.807790
vt 0.113843 0.807790
vt 0.314001 0.548492
vt 0.314001 0.462305
vt 0.773366 0.548583
vt 0.773366 0.462396
vt 0.811525 0.462305
vt 0.811525 0.548492
vt 0.569375 0.086368
vt 0.569375 0.000181
vt 0.645692 0.000000
vt 0.645692 0.086187
vt 0.812019 0.404810
vt 0.812019 0.318621
vt 0.849870 0.318472
vt 0.849870 0.404660
vt 0.601498 0.885507
vt 0.563179 0.847188
vt 0.563179 0.808870
vt 0.601498 0.808870
vt 0.677956 0.847414
vt 0.639638 0.885732
vt 0.639638 0.809096
vt 0.677956 0.809096
vt 0.392088 0.810133
vt 0.348270 0.809333
vt 0.348270 0.723145
vt 0.392088 0.723944
vt 0.038318 0.980865
vt 0.038318 0.894678
vt 0.071182 0.894168
vt 0.071182 0.980354
vt 0.162566 0.316009
vt 0.162566 0.229822
vt 0.228293 0.228801
vt 0.228293 0.314988
vt 0.961682 0.972703
vt 0.961682 0.886514
vt 0.993195 0.885968
vt 0.993195 0.972156
vt 0.209439 0.624076
vt 0.171121 0.585758
vt 0.171121 0.547440
vt 0.209439 0.547440
vt 0.221717 0.844991
vt 0.183399 0.883309
vt 0.183399 0.806673
vt 0.221717 0.806673
vt 0.772691 0.086432
vt 0.719379 0.086189
vt 0.719379 0.000000
vt 0.772691 0.000244
s 0
usemtl body
f 1/1/1 2/2/1 4/3/1 3/4/1
f 3/4/2 4/3/2 6/5/2 5/6/2
f 5/6/3 6/5/3 8/7/3 7/8/3
f 7/8/4 8/7/4 10/9/4 9/10/4
f 9/11/5 10/12/5 12/13/5 11/14/5
f 11/14/6 12/13/6 14/15/6 13/16/6
f 13/16/7 14/15/7 16/17/7 15/18/7
f 15/18/8 16/17/8 18/19/8 17/20/8
f 17/20/9 18/19/9 20/21/9 19/22/9
f 19/22/10 20/21/10 22/23/10 21/24/10
f 21/24/11 22/23/11 24/25/11 23/26/11
f 23/26/12 24/25/12 26/27/12 25/28/12
f 25/29/13 26/30/13 28/31/13 27/32/13
f 27/32/14 28/31/14 30/33/14 29/34/14
f 29/34/15 30/33/15 32/35/15 31/36/15
f 31/36/16 32/35/16 34/37/16 33/38/16
f 33/38/17 34/37/17 36/39/17 35/40/17
f 35/40/18 36/39/18 38/41/18 37/42/18
f 37/42/19 38/41/19 40/43/19 39/44/19
f 39/44/20 40/43/20 42/45/20 41/46/20
f 41/47/21 42/48/21 44/49/21 43/50/21
f 43/50/22 44/49/22 46/51/22 45/52/22
f 45/52/23 46/51/23 48/53/23 47/54/23
f 47/54/24 48/53/24 50/55/24 49/56/24
f 49/56/25 50/55/25 52/57/25 51/58/25
f 51/58/26 52/57/26 54/59/26 53/60/26
f 53/60/27 54/59/27 56/61/27 55/62/27
f 55/62/28 56/61/28 58/63/28 57/64/28
f 57/65/29 58/66/29 60/67/29 59/68/29
f 59/68/30 60/67/30 62/69/30 61/70/30
f 4/71/31 2/72/31 64/73/31
f 4/71/31 64/73/31 62/74/31
f 4/71/31 62/74/31 60/75/31
f 4/71/31 60/75/31 58/76/31
f 4/71/31 58/76/31 56/77/31
f 4/71/31 56/77/31 54/78/31
f 4/71/31 54/78/31 52/79/31
f 4/71/31 52/79/31 50/80/31
f 4/71/31 50/80/31 48/81/31
f 4/71/31 48/81/31 46/82/31
f 4/71/31 46/82/31 44/83/31
f 4/71/31 44/83/31 42/84/31
f 4/71/31 42/84/31 40/85/31
f 4/71/31 40/85/31 38/86/31
f 4/71/31 38/86/31 36/87/31
f 4/71/31 36/87/31 34/88/31
f 4/71/31 34/88/31 32/89/31
f 4/71/31 32/89/31 30/90/31
f 4/71/31 30/90/31 28/91/31
f 4/71/31 28/91/31 26/92/31
f 4/71/31 26/92/31 24/93/31
f 4/71/31 24/93/31 22/94/31
f 4/71/31 22/94/31 20/95/31
f 4/71/31 20/95/31 18/96/31
f 4/71/31 18/96/31 16/97/31
f 4/71/31 16/97/31 14/98/31
f 4/71/31 14/98/31 12/99/31
f 4/71/31 12/99/31 10/100/31
f 4/71/31 10/100/31 8/101/31
f 4/71/31 8/101/31 6/102/31
f 61/70/32 62/69/32 64/103/32 63/104/32
f 63/104/33 64/103/33 2/2/33 1/1/33
f 1/105/34 3/106/34 5/107/34
f 1/105/34 5/107/34 7/108/34
f 1/105/34 7/108/34 9/109/34
f 1/105/34 9/109/34 11/110/34
f 1/105/34 11/110/34 13/111/34
f 1/105/34 13/111/34 15/112/34
f 1/105/34 15/112/34 17/113/34
f 1/105/34 17/113/34 19/114/34
f 1/105/34 19/114/34 21/115/34
f 1/105/34 21/115/34 23/116/34
f 1/105/34 23/116/34 25/117/34
f 1/105/34 25/117/34 27/118/34
f 1/105/34 27/118/34 29/119/34
f 1/105/34 29/119/34 31/120/34
f 1/105/34 31/120/34 33/121/34
f 1/105/34 33/121/34 35/122/34
f 1/105/34 35/122/34 37/123/34
f 1/105/34 37/123/34 39/124/34
f 1/105/34 39/124/34 41/125/34
f 1/105/34 41/125/34 43/126/34
f 1/105/34 43/126/34 45/127/34
f 1/105/34 45/127/34 47/128/34
f 1/105/34 47/128/34 49/129/34
f 1/105/34 49/129/34 51/130/34
f 1/105/34 51/130/34 53/131/34
f 1/105/34 53/131/34 55/132/34
f 1/105/34 55/132/34 57/133/34
f 1/105/34 57/133/34 59/134/34
f 1/105/34 59/134/34 61/135/34
f 1/105/34 61/135/34 63/136/34
usemtl cutter
f 65/137/35 66/138/35 72/139/35 71/140/35
f 69/141/36 70/142/36 68/143/36 67/144/36
f 67/145/37 68/146/37 66/147/37 65/148/37
f 70/149/31 72/150/31 66/151/31 68/152/31
f 71/153/34 69/154/34 67/155/34 65/156/34
f 69/157/38 71/158/38 72/159/38 70/160/38
f 73/161/39 74/162/39 80/163/39 79/164/39
f 77/165/40 78/166/40 76/167/40 75/168/40
f 75/169/41 76/170/41 74/171/41 73/172/41
f 78/173/31 80/174/31 74/175/31 76/176/31
f 79/177/34 77/178/34 75/179/34 73/180/34
f 77/181/42 79/164/42 80/163/42 78/182/42
f 81/183/43 82/184/43 88/185/43 87/186/43
f 85/187/44 86/188/44 84/189/44 83/190/44
f 83/191/45 84/192/45 82/193/45 81/194/45
f 86/195/31 88/196/31 82/197/31 84/198/31
f 87/199/34 85/200/34 83/201/34 81/202/34
f 85/203/46 87/204/46 88/205/46 86/206/46
f 89/207/47 90/208/47 96/209/47 95/210/47
f 93/211/48 94/212/48 92/213/48 91/214/48
f 91/215/49 92/216/49 90/217/49 89/218/49
f 94/219/31 96/220/31 90/221/31 92/222/31
f 95/223/34 93/224/34 91/225/34 89/226/34
f 93/227/50 95/228/50 96/229/50 94/230/50
f 97/231/51 98/232/51 104/233/51 103/234/51
f 101/235/52 102/236/52 100/237/52 99/238/52
f 99/239/53 100/240/53 98/241/53 97/242/53
f 102/243/31 104/244/31 98/245/31 100/246/31
f 103/247/34 101/248/34 99/249/34 97/250/34
f 101/251/54 103/234/54 104/233/54 102/252/54
f 105/253/55 106/254/55 112/255/55 111/256/55
f 109/257/56 110/258/56 108/259/56 107/260/56
f 107/261/57 108/262/57 106/263/57 105/264/57
f 110/265/31 112/266/31 106/267/31 108/268/31
f 111/269/34 109/270/34 107/271/34 105/272/34
f 109/273/58 111/256/58 112/255/58 110/274/58
f 113/275/59 114/276/59 120/277/59 119/278/59
f 117/279/60 118/280/60 116/281/60 115/282/60
f 115/283/61 116/284/61 114/285/61 113/286/61
f 118/287/31 120/288/31 114/289/31 116/290/31
f 119/291/34 117/292/34 115/293/34 113/294/34
f 117/295/62 119/296/62 120/297/62 118/298/62
f 121/299/36 122/300/36 128/301/36 127/302/36
f 125/303/35 126/304/35 124/305/35 123/306/35
f 123/307/63 124/308/63 122/309/63 121/310/63
f 126/311/31 128/312/31 122/313/31 124/314/31
f 127/315/34 125/316/34 123/317/34 121/318/34
f 125/319/64 127/320/64 128/321/64 126/322/64
f 129/323/40 130/324/40 136/325/40 135/326/40
f 133/327/39 134/328/39 132/329/39 131/330/39
f 131/331/65 132/332/65 130/333/65 129/334/65
f 134/335/31 136/336/31 130/337/31 132/338/31
f 135/339/34 133/340/34 131/341/34 129/342/34
f 133/343/66 135/326/66 136/325/66 134/344/66
f 137/345/44 138/346/44 144/347/44 143/348/44
f 141/349/43 142/350/43 140/351/43 139/352/43
f 139/353/67 140/354/67 138/355/67 137/356/67
f 142/357/31 144/358/31 138/359/31 140/360/31
f 143/361/34 141/362/34 139/363/34 137/364/34
f 141/365/68 143/366/68 144/367/68 142/368/68
f 145/369/48 146/370/48 152/371/48 151/372/48
f 149/373/47 150/374/47 148/375/47 147/376/47
f 147/377/69 148/378/69 146/379/69 145/380/69
f 150/381/31 152/382/31 146/383/31 148/384/31
f 151/385/34 149/386/34 147/387/34 145/388/34
f 149/389/70 151/390/70 152/391/70 150/392/70
f 153/393/52 154/394/52 160/395/52 159/396/52
f 157/397/51 158/398/51 156/399/51 155/400/51
f 155/376/71 156/375/71 154/401/71 153/402/71
f 158/403/31 160/404/31 154/405/31 156/406/31
f 159/407/34 157/408/34 155/409/34 153/410/34
f 157/411/72 159/396/72 160/395/72 158/412/72
f 161/413/56 162/414/56 168/415/56 167/416/56
f 165/417/55 166/418/55 164/419/55 163/420/55
f 163/421/73 164/422/73 162/423/73 161/424/73
f 166/425/31 168/426/31 162/427/31 164/428/31
f 167/429/34 165/430/34 163/431/34 161/432/34
f 165/433/74 167/416/74 168/415/74 166/434/74
f 169/435/60 170/436/60 176/170/60 175/169/60
f 173/437/59 174/438/59 172/439/59 171/440/59
f 171/441/75 172/442/75 170/443/75 169/444/75
f 174/430/31 176/445/31 170/446/31 172/447/31
f 175/247/34 173/448/34 171/449/34 169/450/34
f 173/451/76 175/452/76 176/211/76 174/453/76
f 177/454/77 178/455/77 184/456/77 183/457/77
f 181/458/78 182/459/78 180/460/78 179/461/78
f 179/462/79 180/463/79 178/464/79 177/465/79
f 182/466/31 184/467/31 178/428/31 180/468/31
f 183/469/34 181/470/34 179/471/34 177/448/34
f 181/472/80 183/457/80 184/456/80 182/473/80
f 185/474/81 186/475/81 192/476/81 191/477/81
f 189/478/82 190/479/82 188/480/82 187/481/82
f 187/482/83 188/483/83 186/484/83 185/485/83
f 190/486/31 192/487/31 186/488/31 188/489/31
f 191/490/34 189/491/34 187/492/34 185/493/34
f 189/494/84 191/477/84 192/476/84 190/495/84
f 193/496/85 194/497/85 200/498/85 199/499/85
f 197/500/86 198/501/86 196/502/86 195/503/86
f 195/504/87 196/505/87 194/506/87 193/507/87
f 198/508/31 200/509/31 194/510/31 196/511/31
f 199/512/34 197/513/34 195/514/34 193/515/34
f 197/516/88 199/517/88 200/518/88 198/519/88
f 201/520/89 202/521/89 208/522/89 207/523/89
f 205/524/90 206/525/90 204/526/90 203/527/90
f 203/528/91 204/529/91 202/530/91 201/531/91
f 206/532/31 208/533/31 202/534/31 204/535/31
f 207/536/34 205/537/34 203/538/34 201/539/34
f 205/540/92 207/523/92 208/522/92 206/541/92
f 209/542/93 210/543/93 216/544/93 215/545/93
f 213/546/94 214/547/94 212/548/94 211/549/94
f 211/550/95 212/551/95 210/552/95 209/553/95
f 214/554/31 216/555/31 210/556/31 212/557/31
f 215/558/34 213/559/34 211/560/34 209/561/34
f 213/562/96 215/545/96 216/544/96 214/563/96
f 217/564/97 218/565/97 224/566/97 223/567/97
f 221/568/98 222/569/98 220/570/98 219/571/98
f 219/572/99 220/573/99 218/574/99 217/575/99
f 222/576/31 224/577/31 218/578/31 220/579/31
f 223/580/34 221/581/34 219/582/34 217/583/34
f 221/584/100 223/585/100 224/586/100 222/587/100
f 225/588/101 226/589/101 232/590/101 231/591/101
f 229/592/102 230/593/102 228/594/102 227/595/102
f 227/596/103 228/597/103 226/598/103 225/599/103
f 230/600/31 232/601/31 226/602/31 228/603/31
f 231/604/34 229/605/34 227/606/34 225/607/34
f 229/608/104 231/609/104 232/610/104 230/611/104
f 233/612/78 234/613/78 240/614/78 239/615/78
f 237/503/77 238/502/77 236/616/77 235/617/77
f 235/618/105 236/619/105 234/620/105 233/621/105
f 238/622/31 240/623/31 234/624/31 236/625/31
f 239/626/34 237/627/34 235/628/34 233/629/34
f 237/630/106 239/615/106 240/614/106 238/631/106
f 241/632/82 242/633/82 248/634/82 247/635/82
f 245/494/81 246/636/81 244/637/81 243/638/81
f 243/639/107 244/640/107 242/641/107 241/642/107
f 246/643/31 248/644/31 242/645/31 244/646/31
f 247/647/34 245/648/34 243/649/34 241/650/34
f 245/651/108 247/635/108 248/634/108 246/652/108
f 249/653/86 250/654/86 256/655/86 255/656/86
f 253/229/85 254/657/85 252/658/85 251/659/85
f 251/660/109 252/661/109 250/662/109 249/663/109
f 254/664/31 256/665/31 250/666/31 252/667/31
f 255/668/34 253/410/34 251/667/34 249/669/34
f 253/670/110 255/671/110 256/672/110 254/673/110
f 257/674/90 258/675/90 264/676/90 263/677/90
f 261/678/89 262/679/89 260/680/89 259/681/89
f 259/682/111 260/683/111 258/684/111 257/685/111
f 262/686/31 264/687/31 258/688/31 260/689/31
f 263/690/34 261/691/34 259/692/34 257/693/34
f 261/694/112 263/677/112 264/676/112 262/695/112
f 265/696/94 266/697/94 272/698/94 271/699/94
f 269/700/93 270/701/93 268/702/93 267/703/93
f 267/704/113 268/705/113 266/706/113 265/707/113
f 270/708/31 272/709/31 266/710/31 268/711/31
f 271/712/34 269/713/34 267/714/34 265/715/34
f 269/716/114 271/699/114 272/698/114 270/717/114
f 273/718/98 274/719/98 280/720/98 279/721/98
f 277/722/97 278/723/97 276/724/97 275/725/97
f 275/726/115 276/727/115 274/728/115 273/729/115
f 278/730/31 280/731/31 274/732/31 276/733/31
f 279/734/34 277/735/34 275/736/34 273/737/34
f 277/738/116 279/739/116 280/740/116 278/741/116
f 281/742/102 282/743/102 288/744/102 287/745/102
f 285/746/101 286/747/101 284/748/101 283/749/101
f 283/750/117 284/751/117 282/752/117 281/753/117
f 286/754/31 288/755/31 282/756/31 284/757/31
f 287/758/34 285/759/34 283/760/34 281/761/34
f 285/762/118 287/763/118 288/764/118 286/765/118

# Reversed faces (double-sided)
vn -0.087800 -0.445100 0.891200
vn -0.259900 -0.445100 0.856900
vn -0.422100 -0.445100 0.789700
vn -0.568100 -0.445100 0.692200
vn -0.692200 -0.445100 0.568100
vn -0.789700 -0.445100 0.422100
vn -0.856900 -0.445100 0.259900
vn -0.891200 -0.445100 0.087800
vn -0.891200 -0.445100 -0.087800
vn -0.856900 -0.445100 -0.259900
vn -0.789700 -0.445100 -0.422100
vn -0.692200 -0.445100 -0.568100
vn -0.568100 -0.445100 -0.692200
vn -0.422100 -0.445100 -0.789700
vn -0.259900 -0.445100 -0.856900
vn -0.087800 -0.445100 -0.891200
vn 0.087800 -0.445100 -0.891200
vn 0.259900 -0.445100 -0.856900
vn 0.422100 -0.445100 -0.789700
vn 0.568100 -0.445100 -0.692200
vn 0.692200 -0.445100 -0.568100
vn 0.789700 -0.445100 -0.422100
vn 0.856900 -0.445100 -0.259900
vn 0.891200 -0.445100 -0.087800
vn 0.891200 -0.445100 0.087800
vn 0.856900 -0.445100 0.259900
vn 0.789700 -0.445100 0.422100
vn 0.692200 -0.445100 0.568100
vn 0.568100 -0.445100 0.692200
vn 0.422100 -0.445100 0.789700
vn 0.000000 -1.000000 0.000000
vn 0.000000 -1.000000 0.000000
vn 0.000000 -1.000000 0.000000
vn 0.000000 -1.000000 0.000000
vn 0.000000 -1.000000 0.000000
vn 0.000000 -1.000000 0.000000
vn 0.000000 -1.000000 0.000000
vn 0.000000 -1.000000 0.000000
vn 0.000000 -1.000000 0.000000
vn 0.000000 -1.000000 0.000000
vn 0.000000 -1.000000 0.000000
vn 0.000000 -1.000000 0.000000
vn 0.000000 -1.000000 0.000000
vn 0.000000 -1.000000 0.000000
vn 0.000000 -1.000000 0.000000
vn 0.000000 -1.000000 0.000000
vn 0.000000 -1.000000 0.000000
vn 0.000000 -1.000000 0.000000
vn 0.000000 -1.000000 0.000000
vn 0.000000 -1.000000 0.000000
vn 0.000000 -1.000000 0.000000
vn 0.000000 -1.000000 0.000000
vn 0.000000 -1.000000 0.000000
vn 0.000000 -1.000000 0.000000
vn 0.000000 -1.000000 0.000000
vn 0.000000 -1.000000 0.000000
vn 0.000000 -1.000000 0.000000
vn 0.000000 -1.000000 0.000000
vn 0.000000 -1.000000 0.000000
vn 0.000000 -1.000000 0.000000
vn 0.259900 -0.445100 0.856900
vn 0.087800 -0.445100 0.891200
vn 0.000000 1.000000 0.000000
vn 0.000000 1.000000 0.000000
vn 0.000000 1.000000 0.000000
vn 0.000000 1.000000 0.000000
vn 0.000000 1.000000 0.000000
vn 0.000000 1.000000 0.000000
vn 0.000000 1.000000 0.000000
vn 0.000000 1.000000 0.000000
vn 0.000000 1.000000 0.000000
vn 0.000000 1.000000 0.000000
vn 0.000000 1.000000 0.000000
vn 0.000000 1.000000 0.000000
vn 0.000000 1.000000 0.000000
vn 0.000000 1.000000 0.000000
vn 0.000000 1.000000 0.000000
vn 0.000000 1.000000 0.000000
vn 0.000000 1.000000 0.000000
vn 0.000000 1.000000 0.000000
vn 0.000000 1.000000 0.000000
vn 0.000000 1.000000 0.000000
vn 0.000000 1.000000 0.000000
vn 0.000000 1.000000 0.000000
vn 0.000000 1.000000 0.000000
vn 0.000000 1.000000 0.000000
vn 0.000000 1.000000 0.000000
vn 0.000000 1.000000 0.000000
vn 0.000000 1.000000 0.000000
vn 0.000000 1.000000 0.000000
vn 0.000000 1.000000 0.000000
vn 0.000000 1.000000 0.000000
vn 0.707100 0.000000 0.707100
vn -0.707100 0.000000 -0.707100
vn 0.707100 0.000000 -0.707100
vn 0.000000 -1.000000 0.000000
vn 0.000000 1.000000 0.000000
vn 0.000000 0.000000 1.000000
vn 0.330300 0.000000 0.943900
vn -0.330300 0.000000 -0.943900
vn 0.943900 0.000000 -0.330300
vn 0.000000 -1.000000 0.000000
vn 0.000000 1.000000 0.000000
vn -0.433900 0.000000 0.901000
vn -0.112000 0.000000 0.993700
vn 0.112000 0.000000 -0.993700
vn 0.993700 0.000000 0.112000
vn 0.000000 -1.000000 0.000000
vn 0.000000 1.000000 0.000000
vn -0.781800 0.000000 0.623500
vn -0.532000 0.000000 0.846700
vn 0.532000 0.000000 -0.846700
vn 0.846700 0.000000 0.532000
vn 0.000000 -1.000000 0.000000
vn 0.000000 1.000000 0.000000
vn -0.974900 0.000000 0.222500
vn -0.846700 0.000000 0.532000
vn 0.846700 0.000000 -0.532000
vn 0.532000 0.000000 0.846700
vn 0.000000 -1.000000 0.000000
vn 0.000000 1.000000 0.000000
vn -0.974900 0.000000 -0.222500
vn -0.993700 0.000000 0.112000
vn 0.993700 0.000000 -0.112000
vn 0.112000 0.000000 0.993700
vn 0.000000 -1.000000 0.000000
vn 0.000000 1.000000 0.000000
vn -0.781800 0.000000 -0.623500
vn -0.943900 0.000000 -0.330300
vn 0.943900 0.000000 0.330300
vn -0.330300 0.000000 0.943900
vn 0.000000 -1.000000 0.000000
vn 0.000000 1.000000 0.000000
vn -0.433900 0.000000 -0.901000
vn -0.707100 0.000000 -0.707100
vn 0.707100 0.000000 0.707100
vn -0.707100 0.000000 0.707100
vn 0.000000 -1.000000 0.000000
vn 0.000000 1.000000 0.000000
vn 0.000000 0.000000 -1.000000
vn -0.330300 0.000000 -0.943900
vn 0.330300 0.000000 0.943900
vn -0.943900 0.000000 0.330300
vn 0.000000 -1.000000 0.000000
vn 0.000000 1.000000 0.000000
vn 0.433900 0.000000 -0.901000
vn 0.112000 0.000000 -0.993700
vn -0.112000 0.000000 0.993700
vn -0.993700 0.000000 -0.112000
vn 0.000000 -1.000000 0.000000
vn 0.000000 1.000000 0.000000
vn 0.781800 0.000000 -0.623500
vn 0.532000 0.000000 -0.846700
vn -0.532000 0.000000 0.846700
vn -0.846700 0.000000 -0.532000
vn 0.000000 -1.000000 0.000000
vn 0.000000 1.000000 0.000000
vn 0.974900 0.000000 -0.222500
vn 0.846700 0.000000 -0.532000
vn -0.846700 0.000000 0.532000
vn -0.532000 0.000000 -0.846700
vn 0.000000 -1.000000 0.000000
vn 0.000000 1.000000 0.000000
vn 0.974900 0.000000 0.222500
vn 0.993700 0.000000 -0.112000
vn -0.993700 0.000000 0.112000
vn -0.112000 0.000000 -0.993700
vn 0.000000 -1.000000 0.000000
vn 0.000000 1.000000 0.000000
vn 0.781800 0.000000 0.623500
vn 0.943900 0.000000 0.330300
vn -0.943900 0.000000 -0.330300
vn 0.330300 0.000000 -0.943900
vn 0.000000 -1.000000 0.000000
vn 0.000000 1.000000 0.000000
vn 0.433900 0.000000 0.901000
vn 0.500000 0.000000 0.866000
vn -0.500000 0.000000 -0.866000
vn 0.866000 0.000000 -0.500000
vn 0.000000 -1.000000 0.000000
vn 0.000000 1.000000 0.000000
vn -0.258800 0.000000 0.965900
vn 0.074700 0.000000 0.997200
vn -0.074700 0.000000 -0.997200
vn 0.997200 0.000000 -0.074700
vn 0.000000 -1.000000 0.000000
vn 0.000000 1.000000 0.000000
vn -0.652300 0.000000 0.758000
vn -0.365300 0.000000 0.930900
vn 0.365300 0.000000 -0.930900
vn 0.930900 0.000000 0.365300
vn 0.000000 -1.000000 0.000000
vn 0.000000 1.000000 0.000000
vn -0.916600 0.000000 0.399900
vn -0.733100 0.000000 0.680200
vn 0.733100 0.000000 -0.680200
vn 0.680200 0.000000 0.733100
vn 0.000000 -1.000000 0.000000
vn 0.000000 1.000000 0.000000
vn -0.999300 0.000000 -0.037400
vn -0.955600 0.000000 0.294800
vn 0.955600 0.000000 -0.294800
vn 0.294800 0.000000 0.955600
vn 0.000000 -1.000000 0.000000
vn 0.000000 1.000000 0.000000
vn -0.884100 0.000000 -0.467300
vn -0.988800 0.000000 -0.149000
vn 0.988800 0.000000 0.149000
vn -0.149000 0.000000 0.988800
vn 0.000000 -1.000000 0.000000
vn 0.000000 1.000000 0.000000
vn -0.593800 0.000000 -0.804600
vn -0.826200 0.000000 -0.563300
vn 0.826200 0.000000 0.563300
vn -0.563300 0.000000 0.826200
vn 0.000000 -1.000000 0.000000
vn 0.000000 1.000000 0.000000
vn -0.185900 0.000000 -0.982600
vn -0.500000 0.000000 -0.866000
vn 0.500000 0.000000 0.866000
vn -0.866000 0.000000 0.500000
vn 0.000000 -1.000000 0.000000
vn 0.000000 1.000000 0.000000
vn 0.258800 0.000000 -0.965900
vn -0.074700 0.000000 -0.997200
vn 0.074700 0.000000 0.997200
vn -0.997200 0.000000 0.074700
vn 0.000000 -1.000000 0.000000
vn 0.000000 1.000000 0.000000
vn 0.652300 0.000000 -0.758000
vn 0.365300 0.000000 -0.930900
vn -0.365300 0.000000 0.930900
vn -0.930900 0.000000 -0.365300
vn 0.000000 -1.000000 0.000000
vn 0.000000 1.000000 0.000000
vn 0.916600 0.000000 -0.399900
vn 0.733100 0.000000 -0.680200
vn -0.733100 0.000000 0.680200
vn -0.680200 0.000000 -0.733100
vn 0.000000 -1.000000 0.000000
vn 0.000000 1.000000 0.000000
vn 0.999300 0.000000 0.037400
vn 0.955600 0.000000 -0.294800
vn -0.955600 0.000000 0.294800
vn -0.294800 0.000000 -0.955600
vn 0.000000 -1.000000 0.000000
vn 0.000000 1.000000 0.000000
vn 0.884100 0.000000 0.467300
vn 0.988800 0.000000 0.149000
vn -0.988800 0.000000 -0.149000
vn 0.149000 0.000000 -0.988800
vn 0.000000 -1.000000 0.000000
vn 0.000000 1.000000 0.000000
vn 0.593800 0.000000 0.804600
vn 0.826200 0.000000 0.563300
vn -0.826200 0.000000 -0.563300
vn 0.563300 0.000000 -0.826200
vn 0.000000 -1.000000 0.000000
vn 0.000000 1.000000 0.000000
vn 0.185900 0.000000 0.982600
usemtl body
f 3/4/119 4/3/119 2/2/119 1/1/119
f 5/6/120 6/5/120 4/3/120 3/4/120
f 7/8/121 8/7/121 6/5/121 5/6/121
f 9/10/122 10/9/122 8/7/122 7/8/122
f 11/14/123 12/13/123 10/12/123 9/11/123
f 13/16/124 14/15/124 12/13/124 11/14/124
f 15/18/125 16/17/125 14/15/125 13/16/125
f 17/20/126 18/19/126 16/17/126 15/18/126
f 19/22/127 20/21/127 18/19/127 17/20/127
f 21/24/128 22/23/128 20/21/128 19/22/128
f 23/26/129 24/25/129 22/23/129 21/24/129
f 25/28/130 26/27/130 24/25/130 23/26/130
f 27/32/131 28/31/131 26/30/131 25/29/131
f 29/34/132 30/33/132 28/31/132 27/32/132
f 31/36/133 32/35/133 30/33/133 29/34/133
f 33/38/134 34/37/134 32/35/134 31/36/134
f 35/40/135 36/39/135 34/37/135 33/38/135
f 37/42/136 38/41/136 36/39/136 35/40/136
f 39/44/137 40/43/137 38/41/137 37/42/137
f 41/46/138 42/45/138 40/43/138 39/44/138
f 43/50/139 44/49/139 42/48/139 41/47/139
f 45/52/140 46/51/140 44/49/140 43/50/140
f 47/54/141 48/53/141 46/51/141 45/52/141
f 49/56/142 50/55/142 48/53/142 47/54/142
f 51/58/143 52/57/143 50/55/143 49/56/143
f 53/60/144 54/59/144 52/57/144 51/58/144
f 55/62/145 56/61/145 54/59/145 53/60/145
f 57/64/146 58/63/146 56/61/146 55/62/146
f 59/68/147 60/67/147 58/66/147 57/65/147
f 61/70/148 62/69/148 60/67/148 59/68/148
f 64/73/149 2/72/149 4/71/149
f 62/74/150 64/73/150 4/71/150
f 60/75/151 62/74/151 4/71/151
f 58/76/152 60/75/152 4/71/152
f 56/77/153 58/76/153 4/71/153
f 54/78/154 56/77/154 4/71/154
f 52/79/155 54/78/155 4/71/155
f 50/80/156 52/79/156 4/71/156
f 48/81/157 50/80/157 4/71/157
f 46/82/158 48/81/158 4/71/158
f 44/83/159 46/82/159 4/71/159
f 42/84/160 44/83/160 4/71/160
f 40/85/161 42/84/161 4/71/161
f 38/86/162 40/85/162 4/71/162
f 36/87/163 38/86/163 4/71/163
f 34/88/164 36/87/164 4/71/164
f 32/89/165 34/88/165 4/71/165
f 30/90/166 32/89/166 4/71/166
f 28/91/167 30/90/167 4/71/167
f 26/92/168 28/91/168 4/71/168
f 24/93/169 26/92/169 4/71/169
f 22/94/170 24/93/170 4/71/170
f 20/95/171 22/94/171 4/71/171
f 18/96/172 20/95/172 4/71/172
f 16/97/173 18/96/173 4/71/173
f 14/98/174 16/97/174 4/71/174
f 12/99/175 14/98/175 4/71/175
f 10/100/176 12/99/176 4/71/176
f 8/101/177 10/100/177 4/71/177
f 6/102/178 8/101/178 4/71/178
f 63/104/179 64/103/179 62/69/179 61/70/179
f 1/1/180 2/2/180 64/103/180 63/104/180
f 5/107/181 3/106/181 1/105/181
f 7/108/182 5/107/182 1/105/182
f 9/109/183 7/108/183 1/105/183
f 11/110/184 9/109/184 1/105/184
f 13/111/185 11/110/185 1/105/185
f 15/112/186 13/111/186 1/105/186
f 17/113/187 15/112/187 1/105/187
f 19/114/188 17/113/188 1/105/188
f 21/115/189 19/114/189 1/105/189
f 23/116/190 21/115/190 1/105/190
f 25/117/191 23/116/191 1/105/191
f 27/118/192 25/117/192 1/105/192
f 29/119/193 27/118/193 1/105/193
f 31/120/194 29/119/194 1/105/194
f 33/121/195 31/120/195 1/105/195
f 35/122/196 33/121/196 1/105/196
f 37/123/197 35/122/197 1/105/197
f 39/124/198 37/123/198 1/105/198
f 41/125/199 39/124/199 1/105/199
f 43/126/200 41/125/200 1/105/200
f 45/127/201 43/126/201 1/105/201
f 47/128/202 45/127/202 1/105/202
f 49/129/203 47/128/203 1/105/203
f 51/130/204 49/129/204 1/105/204
f 53/131/205 51/130/205 1/105/205
f 55/132/206 53/131/206 1/105/206
f 57/133/207 55/132/207 1/105/207
f 59/134/208 57/133/208 1/105/208
f 61/135/209 59/134/209 1/105/209
f 63/136/210 61/135/210 1/105/210
usemtl cutter
f 71/140/211 72/139/211 66/138/211 65/137/211
f 67/144/212 68/143/212 70/142/212 69/141/212
f 65/148/213 66/147/213 68/146/213 67/145/213
f 68/152/214 66/151/214 72/150/214 70/149/214
f 65/156/215 67/155/215 69/154/215 71/153/215
f 70/160/216 72/159/216 71/158/216 69/157/216
f 79/164/217 80/163/217 74/162/217 73/161/217
f 75/168/218 76/167/218 78/166/218 77/165/218
f 73/172/219 74/171/219 76/170/219 75/169/219
f 76/176/220 74/175/220 80/174/220 78/173/220
f 73/180/221 75/179/221 77/178/221 79/177/221
f 78/182/222 80/163/222 79/164/222 77/181/222
f 87/186/223 88/185/223 82/184/223 81/183/223
f 83/190/224 84/189/224 86/188/224 85/187/224
f 81/194/225 82/193/225 84/192/225 83/191/225
f 84/198/226 82/197/226 88/196/226 86/195/226
f 81/202/227 83/201/227 85/200/227 87/199/227
f 86/206/228 88/205/228 87/204/228 85/203/228
f 95/210/229 96/209/229 90/208/229 89/207/229
f 91/214/230 92/213/230 94/212/230 93/211/230
f 89/218/231 90/217/231 92/216/231 91/215/231
f 92/222/232 90/221/232 96/220/232 94/219/232
f 89/226/233 91/225/233 93/224/233 95/223/233
f 94/230/234 96/229/234 95/228/234 93/227/234
f 103/234/235 104/233/235 98/232/235 97/231/235
f 99/238/236 100/237/236 102/236/236 101/235/236
f 97/242/237 98/241/237 100/240/237 99/239/237
f 100/246/238 98/245/238 104/244/238 102/243/238
f 97/250/239 99/249/239 101/248/239 103/247/239
f 102/252/240 104/233/240 103/234/240 101/251/240
f 111/256/241 112/255/241 106/254/241 105/253/241
f 107/260/242 108/259/242 110/258/242 109/257/242
f 105/264/243 106/263/243 108/262/243 107/261/243
f 108/268/244 106/267/244 112/266/244 110/265/244
f 105/272/245 107/271/245 109/270/245 111/269/245
f 110/274/246 112/255/246 111/256/246 109/273/246
f 119/278/247 120/277/247 114/276/247 113/275/247
f 115/282/248 116/281/248 118/280/248 117/279/248
f 113/286/249 114/285/249 116/284/249 115/283/249
f 116/290/250 114/289/250 120/288/250 118/287/250
f 113/294/251 115/293/251 117/292/251 119/291/251
f 118/298/252 120/297/252 119/296/252 117/295/252
f 127/302/253 128/301/253 122/300/253 121/299/253
f 123/306/254 124/305/254 126/304/254 125/303/254
f 121/310/255 122/309/255 124/308/255 123/307/255
f 124/314/256 122/313/256 128/312/256 126/311/256
f 121/318/257 123/317/257 125/316/257 127/315/257
f 126/322/258 128/321/258 127/320/258 125/319/258
f 135/326/259 136/325/259 130/324/259 129/323/259
f 131/330/260 132/329/260 134/328/260 133/327/260
f 129/334/261 130/333/261 132/332/261 131/331/261
f 132/338/262 130/337/262 136/336/262 134/335/262
f 129/342/263 131/341/263 133/340/263 135/339/263
f 134/344/264 136/325/264 135/326/264 133/343/264
f 143/348/265 144/347/265 138/346/265 137/345/265
f 139/352/266 140/351/266 142/350/266 141/349/266
f 137/356/267 138/355/267 140/354/267 139/353/267
f 140/360/268 138/359/268 144/358/268 142/357/268
f 137/364/269 139/363/269 141/362/269 143/361/269
f 142/368/270 144/367/270 143/366/270 141/365/270
f 151/372/271 152/371/271 146/370/271 145/369/271
f 147/376/272 148/375/272 150/374/272 149/373/272
f 145/380/273 146/379/273 148/378/273 147/377/273
f 148/384/274 146/383/274 152/382/274 150/381/274
f 145/388/275 147/387/275 149/386/275 151/385/275
f 150/392/276 152/391/276 151/390/276 149/389/276
f 159/396/277 160/395/277 154/394/277 153/393/277
f 155/400/278 156/399/278 158/398/278 157/397/278
f 153/402/279 154/401/279 156/375/279 155/376/279
f 156/406/280 154/405/280 160/404/280 158/403/280
f 153/410/281 155/409/281 157/408/281 159/407/281
f 158/412/282 160/395/282 159/396/282 157/411/282
f 167/416/283 168/415/283 162/414/283 161/413/283
f 163/420/284 164/419/284 166/418/284 165/417/284
f 161/424/285 162/423/285 164/422/285 163/421/285
f 164/428/286 162/427/286 168/426/286 166/425/286
f 161/432/287 163/431/287 165/430/287 167/429/287
f 166/434/288 168/415/288 167/416/288 165/433/288
f 175/169/289 176/170/289 170/436/289 169/435/289
f 171/440/290 172/439/290 174/438/290 173/437/290
f 169/444/291 170/443/291 172/442/291 171/441/291
f 172/447/292 170/446/292 176/445/292 174/430/292
f 169/450/293 171/449/293 173/448/293 175/247/293
f 174/453/294 176/211/294 175/452/294 173/451/294
f 183/457/295 184/456/295 178/455/295 177/454/295
f 179/461/296 180/460/296 182/459/296 181/458/296
f 177/465/297 178/464/297 180/463/297 179/462/297
f 180/468/298 178/428/298 184/467/298 182/466/298
f 177/448/299 179/471/299 181/470/299 183/469/299
f 182/473/300 184/456/300 183/457/300 181/472/300
f 191/477/301 192/476/301 186/475/301 185/474/301
f 187/481/302 188/480/302 190/479/302 189/478/302
f 185/485/303 186/484/303 188/483/303 187/482/303
f 188/489/304 186/488/304 192/487/304 190/486/304
f 185/493/305 187/492/305 189/491/305 191/490/305
f 190/495/306 192/476/306 191/477/306 189/494/306
f 199/499/307 200/498/307 194/497/307 193/496/307
f 195/503/308 196/502/308 198/501/308 197/500/308
f 193/507/309 194/506/309 196/505/309 195/504/309
f 196/511/310 194/510/310 200/509/310 198/508/310
f 193/515/311 195/514/311 197/513/311 199/512/311
f 198/519/312 200/518/312 199/517/312 197/516/312
f 207/523/313 208/522/313 202/521/313 201/520/313
f 203/527/314 204/526/314 206/525/314 205/524/314
f 201/531/315 202/530/315 204/529/315 203/528/315
f 204/535/316 202/534/316 208/533/316 206/532/316
f 201/539/317 203/538/317 205/537/317 207/536/317
f 206/541/318 208/522/318 207/523/318 205/540/318
f 215/545/319 216/544/319 210/543/319 209/542/319
f 211/549/320 212/548/320 214/547/320 213/546/320
f 209/553/321 210/552/321 212/551/321 211/550/321
f 212/557/322 210/556/322 216/555/322 214/554/322
f 209/561/323 211/560/323 213/559/323 215/558/323
f 214/563/324 216/544/324 215/545/324 213/562/324
f 223/567/325 224/566/325 218/565/325 217/564/325
f 219/571/326 220/570/326 222/569/326 221/568/326
f 217/575/327 218/574/327 220/573/327 219/572/327
f 220/579/328 218/578/328 224/577/328 222/576/328
f 217/583/329 219/582/329 221/581/329 223/580/329
f 222/587/330 224/586/330 223/585/330 221/584/330
f 231/591/331 232/590/331 226/589/331 225/588/331
f 227/595/332 228/594/332 230/593/332 229/592/332
f 225/599/333 226/598/333 228/597/333 227/596/333
f 228/603/334 226/602/334 232/601/334 230/600/334
f 225/607/335 227/606/335 229/605/335 231/604/335
f 230/611/336 232/610/336 231/609/336 229/608/336
f 239/615/337 240/614/337 234/613/337 233/612/337
f 235/617/338 236/616/338 238/502/338 237/503/338
f 233/621/339 234/620/339 236/619/339 235/618/339
f 236/625/340 234/624/340 240/623/340 238/622/340
f 233/629/341 235/628/341 237/627/341 239/626/341
f 238/631/342 240/614/342 239/615/342 237/630/342
f 247/635/343 248/634/343 242/633/343 241/632/343
f 243/638/344 244/637/344 246/636/344 245/494/344
f 241/642/345 242/641/345 244/640/345 243/639/345
f 244/646/346 242/645/346 248/644/346 246/643/346
f 241/650/347 243/649/347 245/648/347 247/647/347
f 246/652/348 248/634/348 247/635/348 245/651/348
f 255/656/349 256/655/349 250/654/349 249/653/349
f 251/659/350 252/658/350 254/657/350 253/229/350
f 249/663/351 250/662/351 252/661/351 251/660/351
f 252/667/352 250/666/352 256/665/352 254/664/352
f 249/669/353 251/667/353 253/410/353 255/668/353
f 254/673/354 256/672/354 255/671/354 253/670/354
f 263/677/355 264/676/355 258/675/355 257/674/355
f 259/681/356 260/680/356 262/679/356 261/678/356
f 257/685/357 258/684/357 260/683/357 259/682/357
f 260/689/358 258/688/358 264/687/358 262/686/358
f 257/693/359 259/692/359 261/691/359 263/690/359
f 262/695/360 264/676/360 263/677/360 261/694/360
f 271/699/361 272/698/361 266/697/361 265/696/361
f 267/703/362 268/702/362 270/701/362 269/700/362
f 265/707/363 266/706/363 268/705/363 267/704/363
f 268/711/364 266/710/364 272/709/364 270/708/364
f 265/715/365 267/714/365 269/713/365 271/712/365
f 270/717/366 272/698/366 271/699/366 269/716/366
f 279/721/367 280/720/367 274/719/367 273/718/367
f 275/725/368 276/724/368 278/723/368 277/722/368
f 273/729/369 274/728/369 276/727/369 275/726/369
f 276/733/370 274/732/370 280/731/370 278/730/370
f 273/737/371 275/736/371 277/735/371 279/734/371
f 278/741/372 280/740/372 279/739/372 277/738/372
f 287/745/373 288/744/373 282/743/373 281/742/373
f 283/749/374 284/748/374 286/747/374 285/746/374
f 281/753/375 282/752/375 284/751/375 283/750/375
f 284/757/376 282/756/376 288/755/376 286/754/376
f 281/761/377 283/760/377 285/759/377 287/758/377
f 286/765/378 288/764/378 287/763/378 285/762/378
