# Blender 5.1.2
# www.blender.org
mtllib drill_11x11.mtl
o drill_11x11
v 3.025962 0.955000 2.350482
v 3.025962 1.705000 2.350482
v 3.775962 0.955000 3.649520
v 3.775962 1.705000 3.649520
v 6.374038 0.955000 2.149520
v 6.374038 1.705000 2.149520
v 4.325000 0.955000 1.600482
v 4.325000 1.705000 1.600482
v 1.972919 0.955000 3.263200
v 1.972919 1.705000 3.263200
v 2.085015 0.955000 4.759006
v 2.085015 1.705000 4.759006
v 5.076626 0.955000 4.534816
v 5.076626 1.705000 4.534816
v 3.468725 0.955000 3.151105
v 3.468725 1.705000 3.151105
v 0.628147 0.955000 3.628634
v 0.628147 1.705000 3.628634
v 0.080136 0.955000 5.024944
v 0.080136 1.705000 5.024944
v 2.872756 0.955000 6.120967
v 2.872756 1.705000 6.120967
v 2.024458 0.955000 4.176645
v 2.024458 1.705000 4.176645
v -0.742006 0.955000 3.374402
v -0.742006 1.705000 3.374402
v -1.841583 0.955000 4.394661
v -1.841583 1.705000 4.394661
v 0.198933 0.955000 6.593818
v 0.198933 1.705000 6.593818
v 0.278253 0.955000 4.473980
v 0.278253 1.705000 4.473980
v -1.866164 0.955000 2.550861
v -1.866164 1.705000 2.550861
v -3.299523 0.955000 2.992993
v -3.299523 1.705000 2.992993
v -2.415261 0.955000 5.859712
v -2.415261 1.705000 5.859712
v -1.424032 0.955000 3.984220
v -1.424032 1.705000 3.984220
v -2.521675 0.955000 1.321121
v -2.521675 1.705000 1.321121
v -4.004921 0.955000 1.097558
v -4.004921 1.705000 1.097558
v -4.452050 0.955000 4.064050
v -4.452050 1.705000 4.064050
v -2.745239 0.955000 2.804367
v -2.745239 1.705000 2.804367
v -2.578706 0.955000 -0.071251
v -2.578706 1.705000 -0.071251
v -3.818064 0.955000 -0.916231
v -3.818064 1.705000 -0.916231
v -5.508026 0.955000 1.562484
v -5.508026 1.705000 1.562484
v -3.423687 0.955000 1.168107
v -3.423687 1.705000 1.168107
v -2.025962 0.955000 -1.350480
v -2.025962 1.705000 -1.350480
v -2.775962 0.955000 -2.649518
v -2.775962 1.705000 -2.649518
v -5.374039 0.955000 -1.149519
v -5.374039 1.705000 -1.149519
v -3.325001 0.955000 -0.600480
v -3.325001 1.705000 -0.600480
v -0.972919 0.955000 -2.263199
v -0.972919 1.705000 -2.263199
v -1.085014 0.955000 -3.759006
v -1.085014 1.705000 -3.759006
v -4.076627 0.955000 -3.534817
v -4.076627 1.705000 -3.534817
v -2.468726 0.955000 -2.151105
v -2.468726 1.705000 -2.151105
v 0.371853 0.955000 -2.628633
v 0.371853 1.705000 -2.628633
v 0.919866 0.955000 -4.024944
v 0.919866 1.705000 -4.024944
v -1.872756 0.955000 -5.120969
v -1.872756 1.705000 -5.120969
v -1.024458 0.955000 -3.176646
v -1.024458 1.705000 -3.176646
v 1.742007 0.955000 -2.374402
v 1.742007 1.705000 -2.374402
v 2.841587 0.955000 -3.394660
v 2.841587 1.705000 -3.394660
v 0.801069 0.955000 -5.593819
v 0.801069 1.705000 -5.593819
v 0.721749 0.955000 -3.473981
v 0.721749 1.705000 -3.473981
v 2.866166 0.955000 -1.550861
v 2.866166 1.705000 -1.550861
v 4.299527 0.955000 -1.992992
v 4.299527 1.705000 -1.992992
v 3.415262 0.955000 -4.859714
v 3.415262 1.705000 -4.859714
v 2.424034 0.955000 -2.984221
v 2.424034 1.705000 -2.984221
v 3.521678 0.955000 -0.321120
v 3.521678 1.705000 -0.321120
v 5.004925 0.955000 -0.097555
v 5.004925 1.705000 -0.097555
v 5.452054 0.955000 -3.064050
v 5.452054 1.705000 -3.064050
v 3.745243 0.955000 -1.804367
v 3.745243 1.705000 -1.804367
v 3.578709 0.955000 1.071252
v 3.578709 1.705000 1.071252
v 4.818068 0.955000 1.916234
v 4.818068 1.705000 1.916234
v 6.508030 0.955000 -0.562484
v 6.508030 1.705000 -0.562484
v 4.423692 0.955000 -0.168107
v 4.423692 1.705000 -0.168107
v 0.500000 0.005000 -5.000000
v 0.500001 2.005000 -3.998999
v 1.572997 0.005000 -4.894318
v 1.377712 2.005000 -3.912552
v 2.604759 0.005000 -4.581337
v 2.221693 2.005000 -3.656533
v 3.555637 0.005000 -4.073082
v 2.999510 2.005000 -3.240781
v 4.389088 0.005000 -3.389086
v 3.681274 2.005000 -2.681272
v 5.073083 0.005000 -2.555635
v 4.240782 2.005000 -1.999510
v 5.581338 0.005000 -1.604758
v 4.656534 2.005000 -1.221692
v 5.894319 0.005000 -0.572996
v 4.912553 2.005000 -0.377710
v 6.000001 0.005000 0.500001
v 4.999000 2.005000 0.500001
v 5.894319 0.005000 1.572998
v 4.912553 2.005000 1.377712
v 5.581338 0.005000 2.604760
v 4.656534 2.005000 2.221694
v 5.073083 0.005000 3.555638
v 4.240782 2.005000 2.999511
v 4.389088 0.005000 4.389089
v 3.681274 2.005000 3.681274
v 3.555637 0.005000 5.073084
v 2.999511 2.005000 4.240783
v 2.604759 0.005000 5.581338
v 2.221693 2.005000 4.656535
v 1.572997 0.005000 5.894320
v 1.377711 2.005000 4.912554
v 0.500000 0.005000 6.000001
v 0.500001 2.005000 4.999001
v -0.572996 0.005000 5.894320
v -0.377711 2.005000 4.912554
v -1.604759 0.005000 5.581339
v -1.221693 2.005000 4.656535
v -2.555636 0.005000 5.073084
v -1.999511 2.005000 4.240783
v -3.389087 0.005000 4.389088
v -2.681273 2.005000 3.681274
v -4.073083 0.005000 3.555637
v -3.240781 2.005000 2.999511
v -4.581338 0.005000 2.604760
v -3.656533 2.005000 2.221694
v -4.894318 0.005000 1.572998
v -3.912553 2.005000 1.377712
v -5.000000 0.005000 0.500001
v -3.998999 2.005000 0.500001
v -4.894318 0.005000 -0.572996
v -3.912553 2.005000 -0.377711
v -4.581338 0.005000 -1.604758
v -3.656534 2.005000 -1.221692
v -4.073083 0.005000 -2.555635
v -3.240782 2.005000 -1.999510
v -3.389087 0.005000 -3.389087
v -2.681273 2.005000 -2.681272
v -2.555636 0.005000 -4.073082
v -1.999511 2.005000 -3.240781
v -1.604759 0.005000 -4.581337
v -1.221693 2.005000 -3.656532
v -0.572996 0.005000 -4.894318
v -0.377711 2.005000 -3.912552
v 3.909011 -0.062500 1.560331
v 3.909011 0.687500 1.560331
v 4.969671 -0.062500 2.620991
v 4.969671 0.687500 2.620991
v 7.090991 -0.062500 0.499671
v 7.090991 0.687500 0.499671
v 4.969671 -0.062500 0.499671
v 4.969671 0.687500 0.499671
v 3.111352 -0.062500 2.934440
v 3.111352 0.687500 2.934440
v 3.606771 -0.062500 4.350265
v 3.606771 0.687500 4.350265
v 6.438421 -0.062500 3.359427
v 6.438421 0.687500 3.359427
v 4.527178 -0.062500 2.439021
v 4.527178 0.687500 2.439021
v 1.796484 -0.062500 3.826378
v 1.796484 0.687500 3.826378
v 1.628537 -0.062500 5.316946
v 1.628537 0.687500 5.316946
v 4.609674 -0.062500 5.652839
v 4.609674 0.687500 5.652839
v 3.287052 -0.062500 3.994324
v 3.287052 0.687500 3.994324
v 0.224831 -0.062500 4.059486
v 0.224831 0.687500 4.059486
v -0.573218 -0.062500 5.329572
v -0.573218 0.687500 5.329572
v 1.966955 -0.062500 6.925668
v 1.966955 0.687500 6.925668
v 1.494917 -0.062500 4.857534
v 1.494917 0.687500 4.857534
v -1.292322 -0.062500 3.587594
v -1.292322 0.687500 3.587594
v -2.562410 -0.062500 4.385643
v -2.562410 0.687500 4.385643
v -0.966312 -0.062500 6.925815
v -0.966312 0.687500 6.925815
v -0.494274 -0.062500 4.857681
v -0.494274 0.687500 4.857681
v -2.454484 -0.062500 2.504167
v -2.454484 0.687500 2.504167
v -3.945053 -0.062500 2.672113
v -3.945053 0.687500 2.672113
v -3.609157 -0.062500 5.653250
v -3.609157 0.687500 5.653250
v -2.286537 -0.062500 3.994734
v -2.286537 0.687500 3.994734
v -3.031472 -0.062500 1.023790
v -3.031472 0.687500 1.023790
v -4.447298 -0.062500 0.528371
v -4.447298 0.687500 0.528371
v -5.438134 -0.062500 3.360021
v -5.438134 0.687500 3.360021
v -3.526891 -0.062500 2.439614
v -3.526891 0.687500 2.439614
v -2.909010 -0.062500 -0.560329
v -2.909010 0.687500 -0.560329
v -3.969671 -0.062500 -1.620991
v -3.969671 0.687500 -1.620991
v -6.090991 -0.062500 0.500330
v -6.090991 0.687500 0.500330
v -3.969670 -0.062500 0.500331
v -3.969670 0.687500 0.500331
v -2.111352 -0.062500 -1.934439
v -2.111352 0.687500 -1.934439
v -2.606770 -0.062500 -3.350265
v -2.606770 0.687500 -3.350265
v -5.438419 -0.062500 -2.359426
v -5.438419 0.687500 -2.359426
v -3.527176 -0.062500 -1.439021
v -3.527176 0.687500 -1.439021
v -0.796482 -0.062500 -2.826376
v -0.796482 0.687500 -2.826376
v -0.628535 -0.062500 -4.316946
v -0.628535 0.687500 -4.316946
v -3.609672 -0.062500 -4.652838
v -3.609672 0.687500 -4.652838
v -2.287051 -0.062500 -2.994323
v -2.287051 0.687500 -2.994323
v 0.775171 -0.062500 -3.059485
v 0.775171 0.687500 -3.059485
v 1.573222 -0.062500 -4.329571
v 1.573222 0.687500 -4.329571
v -0.966953 -0.062500 -5.925669
v -0.966953 0.687500 -5.925669
v -0.494915 -0.062500 -3.857534
v -0.494915 0.687500 -3.857534
v 2.292323 -0.062500 -2.587594
v 2.292323 0.687500 -2.587594
v 3.562411 -0.062500 -3.385641
v 3.562411 0.687500 -3.385641
v 1.966313 -0.062500 -5.925815
v 1.966313 0.687500 -5.925815
v 1.494276 -0.062500 -3.857680
v 1.494276 0.687500 -3.857680
v 3.454485 -0.062500 -1.504166
v 3.454485 0.687500 -1.504166
v 4.945055 -0.062500 -1.672111
v 4.945055 0.687500 -1.672111
v 4.609161 -0.062500 -4.653250
v 4.609161 0.687500 -4.653250
v 3.286539 -0.062500 -2.994735
v 3.286539 0.687500 -2.994735
v 4.031475 -0.062500 -0.023790
v 4.031475 0.687500 -0.023790
v 5.447300 -0.062500 0.471631
v 5.447300 0.687500 0.471631
v 6.438137 -0.062500 -2.360021
v 6.438137 0.687500 -2.360021
v 4.526894 -0.062500 -1.439614
v 4.526894 0.687500 -1.439614
vn -0.5000 -0.0000 -0.8660
vn 0.5000 -0.0000 0.8660
vn -0.8660 -0.0000 0.5000
vn -0.0000 1.0000 -0.0000
vn -0.0000 -1.0000 -0.0000
vn 0.2588 -0.0000 -0.9659
vn -0.0747 -0.0000 -0.9972
vn 0.0747 -0.0000 0.9972
vn -0.9972 -0.0000 0.0747
vn 0.6523 -0.0000 -0.7580
vn 0.3653 -0.0000 -0.9309
vn -0.3653 -0.0000 0.9309
vn -0.9309 -0.0000 -0.3653
vn 0.9166 -0.0000 -0.3999
vn 0.7331 -0.0000 -0.6802
vn -0.7331 -0.0000 0.6802
vn -0.6802 -0.0000 -0.7331
vn 0.9993 -0.0000 0.0374
vn 0.9556 -0.0000 -0.2948
vn -0.9556 -0.0000 0.2948
vn -0.2948 -0.0000 -0.9556
vn 0.8841 -0.0000 0.4673
vn 0.9888 -0.0000 0.1490
vn -0.9888 -0.0000 -0.1490
vn 0.1490 -0.0000 -0.9888
vn 0.5938 -0.0000 0.8046
vn 0.8262 -0.0000 0.5633
vn -0.8262 -0.0000 -0.5633
vn 0.5633 -0.0000 -0.8262
vn 0.1859 -0.0000 0.9826
vn 0.8660 -0.0000 -0.5000
vn -0.2588 -0.0000 0.9659
vn 0.9972 -0.0000 -0.0747
vn -0.6523 -0.0000 0.7580
vn 0.9309 -0.0000 0.3653
vn -0.9166 -0.0000 0.3999
vn 0.6802 -0.0000 0.7331
vn -0.9993 -0.0000 -0.0374
vn 0.2948 -0.0000 0.9556
vn -0.8841 -0.0000 -0.4673
vn -0.1490 -0.0000 0.9888
vn -0.5938 -0.0000 -0.8046
vn -0.5633 -0.0000 0.8262
vn -0.1859 -0.0000 -0.9826
vn 0.0877 0.4458 -0.8908
vn 0.2598 0.4458 -0.8566
vn 0.4220 0.4458 -0.7894
vn 0.5679 0.4458 -0.6919
vn 0.6919 0.4458 -0.5679
vn 0.7894 0.4458 -0.4220
vn 0.8566 0.4458 -0.2598
vn 0.8908 0.4458 -0.0877
vn 0.8908 0.4458 0.0877
vn 0.8566 0.4458 0.2598
vn 0.7894 0.4458 0.4220
vn 0.6919 0.4458 0.5679
vn 0.5679 0.4458 0.6919
vn 0.4220 0.4458 0.7894
vn 0.2598 0.4458 0.8566
vn 0.0877 0.4458 0.8908
vn -0.0877 0.4458 0.8908
vn -0.2598 0.4458 0.8566
vn -0.4220 0.4458 0.7894
vn -0.5679 0.4458 0.6919
vn -0.6919 0.4458 0.5679
vn -0.7894 0.4458 0.4220
vn -0.8566 0.4458 0.2598
vn -0.8908 0.4458 0.0877
vn -0.8908 0.4458 -0.0877
vn -0.8566 0.4458 -0.2598
vn -0.7894 0.4458 -0.4220
vn -0.6919 0.4458 -0.5679
vn -0.5679 0.4458 -0.6919
vn -0.4220 0.4458 -0.7894
vn -0.2598 0.4458 -0.8566
vn -0.0877 0.4458 -0.8908
vn -0.7071 -0.0000 -0.7071
vn 0.7071 -0.0000 0.7071
vn -0.7071 -0.0000 0.7071
vn -0.0000 -0.0000 -1.0000
vn -0.3303 -0.0000 -0.9439
vn 0.3303 -0.0000 0.9439
vn -0.9439 -0.0000 0.3303
vn 0.4339 -0.0000 -0.9010
vn 0.1120 -0.0000 -0.9937
vn -0.1120 -0.0000 0.9937
vn -0.9937 -0.0000 -0.1120
vn 0.7818 -0.0000 -0.6235
vn 0.5320 -0.0000 -0.8467
vn -0.5320 -0.0000 0.8467
vn -0.8467 -0.0000 -0.5320
vn 0.9749 -0.0000 -0.2225
vn 0.8467 -0.0000 -0.5320
vn -0.8467 -0.0000 0.5320
vn -0.5320 -0.0000 -0.8467
vn 0.9749 -0.0000 0.2225
vn 0.9937 -0.0000 -0.1120
vn -0.9937 -0.0000 0.1120
vn -0.1120 -0.0000 -0.9937
vn 0.7818 -0.0000 0.6235
vn 0.9439 -0.0000 0.3303
vn -0.9439 -0.0000 -0.3303
vn 0.3303 -0.0000 -0.9439
vn 0.4339 -0.0000 0.9010
vn 0.7071 -0.0000 -0.7071
vn -0.0000 -0.0000 1.0000
vn 0.9439 -0.0000 -0.3303
vn -0.4339 -0.0000 0.9010
vn 0.9937 -0.0000 0.1120
vn -0.7818 -0.0000 0.6235
vn 0.8467 -0.0000 0.5320
vn -0.9749 -0.0000 0.2225
vn 0.5320 -0.0000 0.8467
vn -0.9749 -0.0000 -0.2225
vn 0.1120 -0.0000 0.9937
vn -0.7818 -0.0000 -0.6235
vn -0.3303 -0.0000 0.9439
vn -0.4339 -0.0000 -0.9010
vt 0.353933 0.987012
vt 0.353933 0.928520
vt 0.383216 0.928495
vt 0.383216 0.986987
vt 0.723325 0.939598
vt 0.664833 0.939548
vt 0.664833 0.880981
vt 0.723325 0.881031
vt 0.864731 0.000016
vt 0.923277 -0.000000
vt 0.923277 0.058572
vt 0.864731 0.058588
vt 0.176882 0.835636
vt 0.147595 0.894210
vt 0.118308 0.894210
vt 0.118308 0.835636
vt 0.417934 0.837052
vt 0.447222 0.895626
vt 0.388647 0.895626
vt 0.388647 0.837052
vt 0.864731 0.059485
vt 0.806813 0.058547
vt 0.806813 0.000000
vt 0.864731 0.000938
vt 0.974027 0.438529
vt 0.974027 0.380037
vt 1.000000 0.378667
vt 1.000000 0.437160
vt 0.918691 0.947536
vt 0.918691 0.889044
vt 0.970638 0.886305
vt 0.970638 0.944797
vt 0.923277 0.058929
vt 0.923277 0.000384
vt 0.976161 0.000000
vt 0.976161 0.058546
vt 0.763589 0.108958
vt 0.763589 0.029582
vt 0.785201 0.000000
vt 0.806813 0.049794
vt 0.806811 0.245760
vt 0.806811 0.325136
vt 0.763586 0.265972
vt 0.785198 0.216178
vt 0.763589 0.187184
vt 0.763589 0.109313
vt 0.822135 0.108958
vt 0.822135 0.186828
vt 0.214237 0.509711
vt 0.272783 0.509480
vt 0.272371 0.554866
vt 0.213824 0.555097
vt 0.547749 0.378879
vt 0.606294 0.378667
vt 0.605454 0.469935
vt 0.546908 0.470147
vt 0.606294 0.506654
vt 0.547749 0.506866
vt 0.212571 0.683323
vt 0.177776 0.608579
vt 0.177776 0.559277
vt 0.212571 0.584720
vt 0.546908 0.680213
vt 0.512113 0.754957
vt 0.512113 0.656354
vt 0.546908 0.630911
vt 0.214237 0.637494
vt 0.272783 0.637263
vt 0.664421 0.634601
vt 0.605874 0.634422
vt 0.606287 0.577473
vt 0.664833 0.577653
vt 0.546908 0.635290
vt 0.605454 0.635064
vt 0.605454 0.749157
vt 0.546908 0.749383
vt 0.723380 0.995408
vt 0.723380 0.936916
vt 0.752139 0.937582
vt 0.752139 0.996074
vt 0.851981 0.187184
vt 0.822135 0.119995
vt 0.822135 0.062518
vt 0.851981 0.072231
vt 0.836657 0.273655
vt 0.806811 0.340843
vt 0.806811 0.225891
vt 0.836657 0.216178
vt 0.664421 0.507045
vt 0.605874 0.506866
vt 0.506261 0.760422
vt 0.447718 0.759729
vt 0.448234 0.702496
vt 0.506777 0.703189
vt 0.664419 0.749117
vt 0.605874 0.748924
vt 0.605874 0.634601
vt 0.664419 0.634794
vt 0.970638 0.945512
vt 0.970638 0.887020
vt 0.998977 0.886305
vt 0.998977 0.944797
vt 0.892233 0.378667
vt 0.922080 0.426431
vt 0.922080 0.483908
vt 0.892233 0.493620
vt 0.896219 0.754198
vt 0.926066 0.706434
vt 0.926066 0.821387
vt 0.896219 0.811675
vt 0.506261 0.658349
vt 0.447718 0.657657
vt 0.724261 0.414677
vt 0.782807 0.414677
vt 0.783337 0.460862
vt 0.724790 0.460862
vt 0.117397 0.768449
vt 0.058856 0.767736
vt 0.058856 0.675819
vt 0.117397 0.676532
vt 0.724988 0.378667
vt 0.783535 0.378667
vt 0.883896 0.825164
vt 0.918691 0.849023
vt 0.918691 0.898325
vt 0.883896 0.923767
vt 0.897179 0.240037
vt 0.931975 0.216178
vt 0.931975 0.314781
vt 0.897179 0.289339
vt 0.255127 0.975777
vt 0.213824 0.975320
vt 0.213824 0.916828
vt 0.255127 0.917285
vt 0.783907 0.640993
vt 0.842399 0.640993
vt 0.841074 0.667787
vt 0.782582 0.667787
vt 0.918692 0.883656
vt 0.918692 0.825164
vt 0.972279 0.827813
vt 0.972279 0.886305
vt 0.926066 0.823940
vt 0.926066 0.765393
vt 0.978548 0.765819
vt 0.978548 0.824366
vt 0.790245 0.833409
vt 0.837070 0.842587
vt 0.837070 0.879223
vt 0.790245 0.906680
vt 0.879782 0.630997
vt 0.926607 0.621819
vt 0.926607 0.695090
vt 0.879782 0.667632
vt 0.784066 0.706435
vt 0.842558 0.706435
vt 0.954373 0.373298
vt 0.954373 0.314806
vt 0.983657 0.314781
vt 0.983657 0.373273
vt 0.781872 0.936916
vt 0.723380 0.936866
vt 0.723380 0.878299
vt 0.781872 0.878349
vt 0.256348 0.864344
vt 0.314894 0.864304
vt 0.314894 0.922865
vt 0.256348 0.922904
vt 0.781954 0.819725
vt 0.752667 0.878299
vt 0.723380 0.878299
vt 0.723380 0.819725
vt 0.576196 0.826196
vt 0.605483 0.884771
vt 0.546908 0.884771
vt 0.546908 0.826196
vt 0.373207 0.864304
vt 0.314894 0.863369
vt 0.314894 0.804824
vt 0.373207 0.805759
vt 0.973277 0.276040
vt 0.973277 0.217548
vt 0.999250 0.216178
vt 0.999250 0.274670
vt 0.922080 0.439898
vt 0.922080 0.381406
vt 0.974027 0.378667
vt 0.974027 0.437160
vt 0.922080 0.498800
vt 0.922080 0.440253
vt 0.975120 0.439898
vt 0.975120 0.498445
vt 0.533027 0.378663
vt 0.533027 0.458039
vt 0.511415 0.487620
vt 0.489803 0.437826
vt 0.000000 0.755747
vt 0.000000 0.676371
vt 0.043224 0.735535
vt 0.021612 0.785329
vt 0.314894 0.804824
vt 0.314894 0.726758
vt 0.373439 0.726420
vt 0.373439 0.804486
vt 0.547329 0.507077
vt 0.605874 0.506866
vt 0.605454 0.552500
vt 0.546908 0.552711
vt 0.315718 0.481574
vt 0.374265 0.481343
vt 0.373441 0.572115
vt 0.314894 0.572346
vt 0.374265 0.609125
vt 0.315718 0.609356
vt 0.177257 0.428339
vt 0.212053 0.503083
vt 0.212053 0.552384
vt 0.177257 0.526942
vt 0.512113 0.581610
vt 0.546908 0.506866
vt 0.546908 0.605469
vt 0.512113 0.630911
vt 0.547329 0.635064
vt 0.605874 0.634852
vt 0.664840 0.506254
vt 0.606294 0.506046
vt 0.606717 0.449001
vt 0.665262 0.449209
vt 0.213824 0.637739
vt 0.272371 0.637494
vt 0.272371 0.751393
vt 0.213824 0.751638
vt 0.966138 0.565358
vt 0.966138 0.506866
vt 0.994897 0.507532
vt 0.994897 0.566024
vt 0.815139 0.506866
vt 0.844986 0.574055
vt 0.844986 0.631531
vt 0.815139 0.621819
vt 0.815561 0.445856
vt 0.845408 0.378667
vt 0.845408 0.493620
vt 0.815561 0.503333
vt 0.664840 0.378875
vt 0.606294 0.378667
vt 0.447188 0.760239
vt 0.388647 0.759503
vt 0.389177 0.702344
vt 0.447718 0.703079
vt 0.723380 0.738417
vt 0.664833 0.738252
vt 0.664833 0.623781
vt 0.723380 0.623947
vt 0.693431 0.998805
vt 0.693431 0.940313
vt 0.721769 0.939598
vt 0.721769 0.998090
vt 0.896220 0.821388
vt 0.866373 0.773624
vt 0.866373 0.716147
vt 0.896220 0.706435
vt 0.909628 0.574055
vt 0.879782 0.621819
vt 0.879782 0.506866
vt 0.909628 0.516578
vt 0.447188 0.658689
vt 0.388647 0.657953
vt 0.723839 0.543182
vt 0.782385 0.543182
vt 0.782945 0.589137
vt 0.724399 0.589137
vt 0.763586 0.309225
vt 0.705043 0.308554
vt 0.705043 0.216178
vt 0.763586 0.216849
vt 0.724567 0.506866
vt 0.783113 0.506866
vt 0.879782 0.605469
vt 0.844986 0.581610
vt 0.844986 0.532308
vt 0.879782 0.506866
vt 0.879782 0.680213
vt 0.844986 0.704072
vt 0.844986 0.605469
vt 0.879782 0.630911
vt 0.973277 0.275126
vt 0.931974 0.274670
vt 0.931974 0.216178
vt 0.973277 0.216634
vt 0.058746 0.768449
vt 0.117238 0.768449
vt 0.115913 0.795243
vt 0.057421 0.795243
vt 0.914420 0.179828
vt 0.914420 0.121336
vt 0.968007 0.123984
vt 0.968007 0.182476
vt 0.926066 0.764980
vt 0.926066 0.706435
vt 0.978725 0.706848
vt 0.978725 0.765393
vt 0.883896 0.898435
vt 0.837070 0.889257
vt 0.837070 0.852622
vt 0.883896 0.825164
vt 0.892233 0.442760
vt 0.845408 0.451939
vt 0.845408 0.378667
vt 0.892233 0.406125
vt 0.058905 0.833890
vt 0.117397 0.833890
vt 0.548636 0.000000
vt 0.705043 0.034031
vt 0.704604 0.053780
vt 0.548098 0.024143
vt 0.704230 0.078653
vt 0.547641 0.054549
vt 0.703936 0.107693
vt 0.547282 0.090051
vt 0.703734 0.139785
vt 0.547035 0.129283
vt 0.703631 0.173695
vt 0.546908 0.170738
vt 0.703631 0.208121
vt 0.546908 0.212824
vt 0.703734 0.241739
vt 0.547035 0.253922
vt 0.703936 0.273258
vt 0.547282 0.292453
vt 0.704230 0.301465
vt 0.547641 0.326937
vt 0.704604 0.325278
vt 0.548098 0.356048
vt 0.705043 0.343781
vt 0.548636 0.378667
vt 0.213824 0.508189
vt 0.222585 0.350381
vt 0.238892 0.351081
vt 0.233760 0.509044
vt 0.255969 0.351437
vt 0.254636 0.509480
vt 0.273160 0.351437
vt 0.275652 0.509480
vt 0.289804 0.351081
vt 0.295998 0.509044
vt 0.305260 0.350381
vt 0.314894 0.508189
vt 0.545144 0.378663
vt 0.388733 0.344689
vt 0.389182 0.324753
vt 0.545693 0.354291
vt 0.389564 0.299722
vt 0.546160 0.323690
vt 0.389864 0.270557
vt 0.546527 0.288036
vt 0.390071 0.238379
vt 0.546780 0.248699
vt 0.390177 0.204425
vt 0.546908 0.207191
vt 0.390177 0.170000
vt 0.546908 0.165106
vt 0.390071 0.136426
vt 0.546780 0.124062
vt 0.389864 0.104994
vt 0.546527 0.085637
vt 0.389564 0.076912
vt 0.546160 0.051307
vt 0.389182 0.053258
vt 0.545693 0.022391
vt 0.388733 0.034943
vt 0.545144 0.000000
vt 0.388733 0.536470
vt 0.397494 0.378663
vt 0.413801 0.379362
vt 0.408668 0.537326
vt 0.430878 0.379719
vt 0.429545 0.537762
vt 0.448068 0.379719
vt 0.450560 0.537762
vt 0.357027 0.308207
vt 0.342704 0.328036
vt 0.326788 0.341991
vt 0.309892 0.349536
vt 0.292665 0.350381
vt 0.275769 0.344493
vt 0.259854 0.332100
vt 0.245530 0.313676
vt 0.233349 0.289931
vt 0.223778 0.261776
vt 0.217185 0.230293
vt 0.213824 0.196693
vt 0.213824 0.162267
vt 0.217185 0.128338
vt 0.223778 0.096208
vt 0.233349 0.067115
vt 0.245530 0.042174
vt 0.259854 0.022345
vt 0.275769 0.008390
vt 0.292665 0.000845
vt 0.309892 -0.000000
vt 0.326788 0.005887
vt 0.342704 0.018281
vt 0.357027 0.036705
vt 0.369209 0.060450
vt 0.378780 0.088605
vt 0.385372 0.120088
vt 0.388733 0.153687
vt 0.388733 0.188114
vt 0.385372 0.222043
vt 0.378780 0.254173
vt 0.369209 0.283266
vt 0.464712 0.379362
vt 0.470907 0.537326
vt 0.480169 0.378663
vt 0.489803 0.536470
vt 0.056270 0.401022
vt 0.038760 0.376781
vt 0.023868 0.346292
vt 0.012168 0.310724
vt 0.004109 0.271447
vt -0.000000 0.229968
vt -0.000000 0.187882
vt 0.004109 0.146806
vt 0.012168 0.108319
vt 0.023868 0.073900
vt 0.038760 0.044871
vt 0.056270 0.022349
vt 0.075727 0.007197
vt 0.096382 -0.000000
vt 0.117442 0.001033
vt 0.138097 0.010257
vt 0.157554 0.027317
vt 0.175065 0.051557
vt 0.189956 0.082047
vt 0.201657 0.117614
vt 0.209716 0.156892
vt 0.213824 0.198371
vt 0.213824 0.240457
vt 0.209716 0.281532
vt 0.201657 0.320019
vt 0.189956 0.354438
vt 0.175065 0.383467
vt 0.157554 0.405990
vt 0.138097 0.421141
vt 0.117442 0.428339
vt 0.096382 0.427306
vt 0.075727 0.418082
vt 0.752139 0.995408
vt 0.752139 0.936916
vt 0.780670 0.937695
vt 0.780670 0.996187
vt 0.546908 0.943263
vt 0.546908 0.884771
vt 0.603969 0.886329
vt 0.603969 0.944821
vt 0.909628 0.565411
vt 0.909628 0.506866
vt 0.966138 0.507119
vt 0.966138 0.565665
vt 0.053449 0.913710
vt 0.000000 0.901658
vt 0.000000 0.869563
vt 0.053449 0.849519
vt 0.368344 0.916443
vt 0.314894 0.928495
vt 0.314894 0.864304
vt 0.368344 0.884348
vt 0.296969 0.982579
vt 0.256348 0.981451
vt 0.256348 0.922904
vt 0.296969 0.924032
vt 0.968007 0.180429
vt 0.968007 0.121937
vt 0.996604 0.121336
vt 0.996604 0.179828
vt 0.118308 0.953906
vt 0.118308 0.895414
vt 0.175502 0.894210
vt 0.175502 0.952702
vt 0.790245 0.965381
vt 0.790245 0.906835
vt 0.847844 0.906680
vt 0.847844 0.965226
vt 0.269580 0.828452
vt 0.213824 0.782407
vt 0.213824 0.751638
vt 0.269580 0.766916
vt 0.174063 0.789591
vt 0.118308 0.835636
vt 0.118308 0.774100
vt 0.174063 0.758823
vt 0.447718 0.828998
vt 0.447718 0.761079
vt 0.506261 0.760422
vt 0.506261 0.828341
vt 0.665716 0.379168
vt 0.724261 0.378667
vt 0.723807 0.412930
vt 0.665262 0.413430
vt 0.119232 0.559763
vt 0.177776 0.559277
vt 0.176851 0.628433
vt 0.118308 0.628918
vt 0.177776 0.675708
vt 0.119232 0.676193
vt 0.764212 0.819724
vt 0.723380 0.748448
vt 0.723380 0.706434
vt 0.764212 0.735698
vt 0.805044 0.748448
vt 0.764212 0.819725
vt 0.764212 0.735698
vt 0.805044 0.706435
vt 0.665716 0.495186
vt 0.724261 0.494686
vt 0.118710 0.428398
vt 0.177257 0.428339
vt 0.176855 0.479813
vt 0.118308 0.479873
vt 0.315716 0.350418
vt 0.374262 0.350381
vt 0.373440 0.453708
vt 0.314894 0.453745
vt 0.374262 0.481306
vt 0.315716 0.481343
vt 0.209802 0.810298
vt 0.177776 0.736887
vt 0.177776 0.683323
vt 0.209802 0.703169
vt 0.815139 0.560430
vt 0.783113 0.633840
vt 0.783113 0.526712
vt 0.815139 0.506866
vt 0.118710 0.559277
vt 0.177257 0.559218
vt 0.447278 0.657953
vt 0.388733 0.657586
vt 0.389172 0.599093
vt 0.447718 0.599459
vt 0.000000 0.559328
vt 0.058546 0.559278
vt 0.058546 0.676320
vt 0.000000 0.676371
vt 0.847844 0.965172
vt 0.847844 0.906680
vt 0.877142 0.906771
vt 0.877142 0.965263
vt 0.302085 0.854790
vt 0.272783 0.794604
vt 0.272783 0.736060
vt 0.302085 0.737702
vt 0.865960 0.274722
vt 0.836657 0.334908
vt 0.836657 0.217820
vt 0.865960 0.216178
vt 0.447278 0.538129
vt 0.388733 0.537762
vt 0.000000 0.972580
vt 0.000000 0.914034
vt 0.053931 0.913710
vt 0.053931 0.972257
vt 0.763588 0.216178
vt 0.705043 0.215794
vt 0.705043 0.108215
vt 0.763588 0.108599
vt 0.972279 0.884921
vt 0.972279 0.826429
vt 0.998741 0.825164
vt 0.998741 0.883656
vt 0.883200 0.062518
vt 0.914420 0.100304
vt 0.914420 0.155253
vt 0.883200 0.172417
vt 0.177776 0.848083
vt 0.208995 0.810298
vt 0.208995 0.920197
vt 0.177776 0.903033
vt 0.353933 0.988558
vt 0.314894 0.986987
vt 0.314894 0.928495
vt 0.353933 0.930066
vt 0.723380 0.667750
vt 0.781927 0.667750
vt 0.782582 0.706435
vt 0.724035 0.706435
vt 0.664410 0.826979
vt 0.605874 0.825934
vt 0.605874 0.749117
vt 0.664410 0.750162
vt 0.723996 0.623782
vt 0.782543 0.623782
vt 0.057421 0.833890
vt 0.096244 0.849287
vt 0.096244 0.893475
vt 0.057421 0.922266
vt 0.447718 0.844395
vt 0.486540 0.828998
vt 0.486540 0.917374
vt 0.447718 0.888583
vt 0.488915 0.975866
vt 0.447718 0.976230
vt 0.447718 0.917738
vt 0.488915 0.917374
vt 0.967707 0.680311
vt 0.967707 0.621819
vt 0.996237 0.622598
vt 0.996237 0.681090
vt 0.489848 0.943263
vt 0.489848 0.884771
vt 0.546908 0.886329
vt 0.546908 0.944821
vt 0.914420 0.121065
vt 0.914420 0.062518
vt 0.970819 0.062789
vt 0.970819 0.121336
vt 0.000000 0.785329
vt 0.053449 0.797381
vt 0.053449 0.829476
vt -0.000000 0.849520
vt 0.664833 0.828842
vt 0.718283 0.816790
vt 0.718283 0.880981
vt 0.664833 0.860937
vt 0.967707 0.681501
vt 0.926607 0.680364
vt 0.967707 0.622955
vt 0.664833 0.998692
vt 0.664833 0.940199
vt 0.693430 0.939598
vt 0.693430 0.998090
vt 0.897179 0.374477
vt 0.897179 0.315985
vt 0.954373 0.314781
vt 0.954373 0.373273
vt 0.388647 0.954302
vt 0.388647 0.895755
vt 0.446306 0.895626
vt 0.446306 0.954173
vt 0.546908 0.749383
vt 0.602663 0.795428
vt 0.602664 0.826196
vt 0.546908 0.810919
vt 0.388647 0.806284
vt 0.444402 0.760239
vt 0.444402 0.821775
vt 0.388647 0.837052
vt 0.705043 0.378107
vt 0.705043 0.309869
vt 0.763585 0.309225
vt 0.763585 0.377463
vt 0.665295 0.507351
vt 0.723839 0.506866
vt 0.723377 0.541444
vt 0.664833 0.541929
vt 0.059763 0.559801
vt 0.118308 0.559301
vt 0.117400 0.627826
vt 0.058856 0.628326
vt 0.118308 0.675319
vt 0.059763 0.675819
vt 0.272783 0.509480
vt 0.313615 0.580757
vt 0.313615 0.622770
vt 0.272783 0.593507
vt 0.272783 0.694047
vt 0.313615 0.622770
vt 0.313615 0.706797
vt 0.272783 0.736060
vt 0.665295 0.623782
vt 0.723839 0.623296
vt 0.059762 0.428376
vt 0.118308 0.428339
vt 0.117897 0.480002
vt 0.059351 0.480039
vt 0.000805 0.428398
vt 0.059351 0.428339
vt 0.058547 0.531287
vt -0.000000 0.531347
vt 0.059351 0.559218
vt 0.000805 0.559277
vt 0.783535 0.378667
vt 0.815561 0.452078
vt 0.815561 0.505642
vt 0.783535 0.485796
vt 0.805044 0.779845
vt 0.837070 0.706435
vt 0.837070 0.813563
vt 0.805044 0.833409
vt 0.059762 0.559300
vt 0.118308 0.559263
vt 0.506262 0.657657
vt 0.447718 0.657257
vt 0.448168 0.598737
vt 0.506712 0.599137
vt 0.314894 0.609430
vt 0.373441 0.609357
vt 0.373441 0.726347
vt 0.314894 0.726421
vt 0.177776 0.978689
vt 0.177776 0.920197
vt 0.207074 0.920288
vt 0.207074 0.978780
vt 0.512113 0.754957
vt 0.541415 0.815143
vt 0.541415 0.873686
vt 0.512113 0.872044
vt 0.837070 0.766621
vt 0.866373 0.706435
vt 0.866373 0.823522
vt 0.837070 0.825164
vt 0.506262 0.538162
vt 0.447718 0.537762
vt 0.605874 0.974253
vt 0.605874 0.915708
vt 0.659663 0.915355
vt 0.659663 0.973901
vt 0.763589 0.108215
vt 0.705043 0.107864
vt 0.705043 0.000000
vt 0.763589 0.000351
vt 0.970819 0.121336
vt 0.970819 0.062844
vt 0.997281 0.061579
vt 0.997281 0.120071
vt 0.883201 0.172418
vt 0.851982 0.134632
vt 0.851982 0.079682
vt 0.883201 0.062518
vt 0.897179 0.288292
vt 0.865960 0.326077
vt 0.865960 0.216178
vt 0.897179 0.233342
vt 0.918691 0.983830
vt 0.879653 0.982259
vt 0.879653 0.923767
vt 0.918691 0.925338
vt 0.118308 0.720420
vt 0.176853 0.720420
vt 0.177539 0.758823
vt 0.118994 0.758823
vt 0.723372 0.816790
vt 0.664833 0.815798
vt 0.664833 0.738417
vt 0.723372 0.739409
vt 0.118919 0.676193
vt 0.177465 0.676193
vt 0.644696 0.915355
vt 0.605874 0.899959
vt 0.605874 0.855770
vt 0.644696 0.826979
vt 0.252647 0.901432
vt 0.213824 0.916828
vt 0.213824 0.828452
vt 0.252647 0.857243
vt 0.098619 0.980758
vt 0.057421 0.981122
vt 0.057421 0.922630
vt 0.098619 0.922266
s 0
usemtl cutter
f 1/1/1 2/2/1 8/3/1 7/4/1
f 5/5/2 6/6/2 4/7/2 3/8/2
f 3/9/3 4/10/3 2/11/3 1/12/3
f 6/13/4 8/14/4 2/15/4 4/16/4
f 7/17/5 5/18/5 3/19/5 1/20/5
f 5/21/6 7/22/6 8/23/6 6/24/6
f 9/25/7 10/26/7 16/27/7 15/28/7
f 13/29/8 14/30/8 12/31/8 11/32/8
f 11/33/9 12/34/9 10/35/9 9/36/9
f 14/37/4 16/38/4 10/39/4 12/40/4
f 15/41/5 13/42/5 11/43/5 9/44/5
f 13/45/10 15/46/10 16/47/10 14/48/10
f 17/49/11 18/50/11 24/51/11 23/52/11
f 21/53/12 22/54/12 20/55/12 19/56/12
f 19/56/13 20/55/13 18/57/13 17/58/13
f 22/59/4 24/60/4 18/61/4 20/62/4
f 23/63/5 21/64/5 19/65/5 17/66/5
f 21/67/14 23/52/14 24/51/14 22/68/14
f 25/69/15 26/70/15 32/71/15 31/72/15
f 29/73/16 30/74/16 28/75/16 27/76/16
f 27/77/17 28/78/17 26/79/17 25/80/17
f 30/81/4 32/82/4 26/83/4 28/84/4
f 31/85/5 29/86/5 27/87/5 25/88/5
f 29/89/18 31/72/18 32/71/18 30/90/18
f 33/91/19 34/92/19 40/93/19 39/94/19
f 37/95/20 38/96/20 36/97/20 35/98/20
f 35/99/21 36/100/21 34/101/21 33/102/21
f 38/103/4 40/104/4 34/105/4 36/106/4
f 39/107/5 37/108/5 35/109/5 33/110/5
f 37/111/22 39/94/22 40/93/22 38/112/22
f 41/113/23 42/114/23 48/115/23 47/116/23
f 45/117/24 46/118/24 44/119/24 43/120/24
f 43/121/25 44/122/25 42/114/25 41/113/25
f 46/123/4 48/124/4 42/125/4 44/126/4
f 47/127/5 45/128/5 43/129/5 41/130/5
f 45/131/26 47/132/26 48/133/26 46/134/26
f 49/135/27 50/136/27 56/137/27 55/138/27
f 53/139/28 54/140/28 52/141/28 51/142/28
f 51/143/29 52/144/29 50/145/29 49/146/29
f 54/147/4 56/148/4 50/149/4 52/150/4
f 55/151/5 53/152/5 51/153/5 49/154/5
f 53/155/30 55/138/30 56/137/30 54/156/30
f 57/157/2 58/158/2 64/159/2 63/160/2
f 61/161/1 62/162/1 60/163/1 59/164/1
f 59/165/31 60/166/31 58/167/31 57/168/31
f 62/169/4 64/170/4 58/171/4 60/172/4
f 63/173/5 61/174/5 59/175/5 57/176/5
f 61/177/32 63/178/32 64/179/32 62/180/32
f 65/181/8 66/182/8 72/183/8 71/184/8
f 69/185/7 70/186/7 68/187/7 67/188/7
f 67/189/33 68/190/33 66/191/33 65/192/33
f 70/193/4 72/194/4 66/195/4 68/196/4
f 71/197/5 69/198/5 67/199/5 65/200/5
f 69/201/34 71/202/34 72/203/34 70/204/34
f 73/205/12 74/206/12 80/207/12 79/208/12
f 77/209/11 78/210/11 76/211/11 75/212/11
f 75/212/35 76/211/35 74/213/35 73/214/35
f 78/215/4 80/216/4 74/217/4 76/218/4
f 79/219/5 77/220/5 75/221/5 73/222/5
f 77/223/36 79/208/36 80/207/36 78/224/36
f 81/225/16 82/226/16 88/227/16 87/228/16
f 85/229/15 86/230/15 84/231/15 83/232/15
f 83/233/37 84/234/37 82/235/37 81/236/37
f 86/237/4 88/238/4 82/239/4 84/240/4
f 87/241/5 85/242/5 83/243/5 81/244/5
f 85/245/38 87/228/38 88/227/38 86/246/38
f 89/247/20 90/248/20 96/249/20 95/250/20
f 93/251/19 94/252/19 92/253/19 91/254/19
f 91/255/39 92/256/39 90/257/39 89/258/39
f 94/259/4 96/260/4 90/261/4 92/262/4
f 95/263/5 93/264/5 91/265/5 89/266/5
f 93/267/40 95/250/40 96/249/40 94/268/40
f 97/269/24 98/270/24 104/271/24 103/272/24
f 101/273/23 102/274/23 100/275/23 99/276/23
f 99/277/41 100/278/41 98/270/41 97/269/41
f 102/279/4 104/280/4 98/281/4 100/282/4
f 103/283/5 101/284/5 99/285/5 97/286/5
f 101/287/42 103/288/42 104/289/42 102/290/42
f 105/291/28 106/292/28 112/293/28 111/294/28
f 109/295/27 110/296/27 108/297/27 107/298/27
f 107/299/43 108/300/43 106/301/43 105/302/43
f 110/303/4 112/304/4 106/305/4 108/306/4
f 111/307/5 109/308/5 107/309/5 105/310/5
f 109/311/44 111/294/44 112/293/44 110/312/44
f 177/449/77 178/450/77 184/451/77 183/452/77
f 181/453/78 182/454/78 180/455/78 179/456/78
f 179/457/79 180/458/79 178/459/79 177/460/79
f 182/461/4 184/462/4 178/463/4 180/464/4
f 183/465/5 181/466/5 179/467/5 177/468/5
f 181/469/80 183/470/80 184/471/80 182/472/80
f 185/473/81 186/474/81 192/475/81 191/476/81
f 189/477/82 190/478/82 188/479/82 187/480/82
f 187/481/83 188/482/83 186/483/83 185/484/83
f 190/485/4 192/486/4 186/487/4 188/488/4
f 191/489/5 189/490/5 187/491/5 185/492/5
f 189/493/84 191/494/84 192/495/84 190/496/84
f 193/497/85 194/498/85 200/499/85 199/500/85
f 197/501/86 198/502/86 196/503/86 195/504/86
f 195/504/87 196/503/87 194/505/87 193/506/87
f 198/507/4 200/508/4 194/509/4 196/510/4
f 199/511/5 197/512/5 195/513/5 193/514/5
f 197/515/88 199/500/88 200/499/88 198/516/88
f 201/517/89 202/518/89 208/519/89 207/520/89
f 205/521/90 206/522/90 204/523/90 203/524/90
f 203/524/91 204/523/91 202/525/91 201/526/91
f 206/527/4 208/528/4 202/529/4 204/530/4
f 207/531/5 205/532/5 203/533/5 201/534/5
f 205/535/92 207/520/92 208/519/92 206/536/92
f 209/537/93 210/538/93 216/539/93 215/540/93
f 213/541/94 214/542/94 212/543/94 211/544/94
f 211/545/95 212/546/95 210/547/95 209/548/95
f 214/549/4 216/550/4 210/551/4 212/552/4
f 215/553/5 213/554/5 211/555/5 209/556/5
f 213/557/96 215/540/96 216/539/96 214/558/96
f 217/559/97 218/560/97 224/561/97 223/562/97
f 221/563/98 222/564/98 220/565/98 219/566/98
f 219/567/99 220/568/99 218/569/99 217/570/99
f 222/571/4 224/572/4 218/573/4 220/574/4
f 223/575/5 221/576/5 219/577/5 217/578/5
f 221/579/100 223/580/100 224/581/100 222/582/100
f 225/583/101 226/584/101 232/585/101 231/586/101
f 229/587/102 230/588/102 228/589/102 227/590/102
f 227/591/103 228/592/103 226/584/103 225/583/103
f 230/593/4 232/594/4 226/595/4 228/596/4
f 231/597/5 229/598/5 227/599/5 225/600/5
f 229/601/104 231/602/104 232/603/104 230/604/104
f 233/605/78 234/606/78 240/607/78 239/608/78
f 237/609/77 238/610/77 236/611/77 235/612/77
f 235/613/105 236/614/105 234/615/105 233/616/105
f 238/617/4 240/618/4 234/619/4 236/620/4
f 239/621/5 237/622/5 235/623/5 233/624/5
f 237/625/106 239/626/106 240/152/106 238/627/106
f 241/628/82 242/629/82 248/630/82 247/631/82
f 245/632/81 246/633/81 244/634/81 243/635/81
f 243/636/107 244/637/107 242/638/107 241/639/107
f 246/640/4 248/641/4 242/642/4 244/643/4
f 247/644/5 245/645/5 243/646/5 241/647/5
f 245/648/108 247/649/108 248/650/108 246/651/108
f 249/652/86 250/653/86 256/654/86 255/655/86
f 253/656/85 254/657/85 252/658/85 251/659/85
f 251/659/109 252/658/109 250/660/109 249/661/109
f 254/662/4 256/663/4 250/664/4 252/665/4
f 255/666/5 253/667/5 251/668/5 249/669/5
f 253/670/110 255/655/110 256/654/110 254/671/110
f 257/672/90 258/673/90 264/674/90 263/675/90
f 261/676/89 262/677/89 260/678/89 259/679/89
f 259/679/111 260/678/111 258/680/111 257/681/111
f 262/682/4 264/683/4 258/684/4 260/685/4
f 263/686/5 261/687/5 259/688/5 257/689/5
f 261/690/112 263/675/112 264/674/112 262/691/112
f 265/692/94 266/693/94 272/694/94 271/695/94
f 269/696/93 270/697/93 268/698/93 267/699/93
f 267/700/113 268/701/113 266/702/113 265/703/113
f 270/704/4 272/705/4 266/706/4 268/707/4
f 271/708/5 269/709/5 267/710/5 265/711/5
f 269/712/114 271/695/114 272/694/114 270/713/114
f 273/714/98 274/715/98 280/716/98 279/717/98
f 277/718/97 278/719/97 276/720/97 275/721/97
f 275/722/115 276/723/115 274/724/115 273/725/115
f 278/726/4 280/727/4 274/728/4 276/729/4
f 279/730/5 277/731/5 275/732/5 273/733/5
f 277/734/116 279/735/116 280/736/116 278/737/116
f 281/738/102 282/739/102 288/740/102 287/741/102
f 285/742/101 286/743/101 284/744/101 283/745/101
f 283/746/117 284/747/117 282/739/117 281/738/117
f 286/748/4 288/749/4 282/750/4 284/751/4
f 287/752/5 285/753/5 283/754/5 281/755/5
f 285/756/118 287/757/118 288/758/118 286/759/118
usemtl body
f 113/313/45 114/314/45 116/315/45 115/316/45
f 115/316/46 116/315/46 118/317/46 117/318/46
f 117/318/47 118/317/47 120/319/47 119/320/47
f 119/320/48 120/319/48 122/321/48 121/322/48
f 121/322/49 122/321/49 124/323/49 123/324/49
f 123/324/50 124/323/50 126/325/50 125/326/50
f 125/326/51 126/325/51 128/327/51 127/328/51
f 127/328/52 128/327/52 130/329/52 129/330/52
f 129/330/53 130/329/53 132/331/53 131/332/53
f 131/332/54 132/331/54 134/333/54 133/334/54
f 133/334/55 134/333/55 136/335/55 135/336/55
f 135/337/56 136/338/56 138/339/56 137/340/56
f 137/340/57 138/339/57 140/341/57 139/342/57
f 139/342/58 140/341/58 142/343/58 141/344/58
f 141/344/59 142/343/59 144/345/59 143/346/59
f 143/346/60 144/345/60 146/347/60 145/348/60
f 145/349/61 146/350/61 148/351/61 147/352/61
f 147/352/62 148/351/62 150/353/62 149/354/62
f 149/354/63 150/353/63 152/355/63 151/356/63
f 151/356/64 152/355/64 154/357/64 153/358/64
f 153/358/65 154/357/65 156/359/65 155/360/65
f 155/360/66 156/359/66 158/361/66 157/362/66
f 157/362/67 158/361/67 160/363/67 159/364/67
f 159/364/68 160/363/68 162/365/68 161/366/68
f 161/366/69 162/365/69 164/367/69 163/368/69
f 163/368/70 164/367/70 166/369/70 165/370/70
f 165/370/71 166/369/71 168/371/71 167/372/71
f 167/373/72 168/374/72 170/375/72 169/376/72
f 169/376/73 170/375/73 172/377/73 171/378/73
f 171/378/74 172/377/74 174/379/74 173/380/74
f 116/381/4 114/382/4 176/383/4
f 116/381/4 176/383/4 174/384/4
f 116/381/4 174/384/4 172/385/4
f 116/381/4 172/385/4 170/386/4
f 116/381/4 170/386/4 168/387/4
f 116/381/4 168/387/4 166/388/4
f 116/381/4 166/388/4 164/389/4
f 116/381/4 164/389/4 162/390/4
f 116/381/4 162/390/4 160/391/4
f 116/381/4 160/391/4 158/392/4
f 116/381/4 158/392/4 156/393/4
f 116/381/4 156/393/4 154/394/4
f 116/381/4 154/394/4 152/395/4
f 116/381/4 152/395/4 150/396/4
f 116/381/4 150/396/4 148/397/4
f 116/381/4 148/397/4 146/398/4
f 116/381/4 146/398/4 144/399/4
f 116/381/4 144/399/4 142/400/4
f 116/381/4 142/400/4 140/401/4
f 116/381/4 140/401/4 138/402/4
f 116/381/4 138/402/4 136/403/4
f 116/381/4 136/403/4 134/404/4
f 116/381/4 134/404/4 132/405/4
f 116/381/4 132/405/4 130/406/4
f 116/381/4 130/406/4 128/407/4
f 116/381/4 128/407/4 126/408/4
f 116/381/4 126/408/4 124/409/4
f 116/381/4 124/409/4 122/410/4
f 116/381/4 122/410/4 120/411/4
f 116/381/4 120/411/4 118/412/4
f 173/380/75 174/379/75 176/413/75 175/414/75
f 175/414/76 176/413/76 114/415/76 113/416/76
f 113/417/5 115/418/5 117/419/5
f 113/417/5 117/419/5 119/420/5
f 113/417/5 119/420/5 121/421/5
f 113/417/5 121/421/5 123/422/5
f 113/417/5 123/422/5 125/423/5
f 113/417/5 125/423/5 127/424/5
f 113/417/5 127/424/5 129/425/5
f 113/417/5 129/425/5 131/426/5
f 113/417/5 131/426/5 133/427/5
f 113/417/5 133/427/5 135/428/5
f 113/417/5 135/428/5 137/429/5
f 113/417/5 137/429/5 139/430/5
f 113/417/5 139/430/5 141/431/5
f 113/417/5 141/431/5 143/432/5
f 113/417/5 143/432/5 145/433/5
f 113/417/5 145/433/5 147/434/5
f 113/417/5 147/434/5 149/435/5
f 113/417/5 149/435/5 151/436/5
f 113/417/5 151/436/5 153/437/5
f 113/417/5 153/437/5 155/438/5
f 113/417/5 155/438/5 157/439/5
f 113/417/5 157/439/5 159/440/5
f 113/417/5 159/440/5 161/441/5
f 113/417/5 161/441/5 163/442/5
f 113/417/5 163/442/5 165/443/5
f 113/417/5 165/443/5 167/444/5
f 113/417/5 167/444/5 169/445/5
f 113/417/5 169/445/5 171/446/5
f 113/417/5 171/446/5 173/447/5
f 113/417/5 173/447/5 175/448/5

# Reversed faces (double-sided)
vn 0.500000 0.000000 0.866000
vn -0.500000 0.000000 -0.866000
vn 0.866000 0.000000 -0.500000
vn 0.000000 -1.000000 0.000000
vn 0.000000 1.000000 0.000000
vn -0.258800 0.000000 0.965900
vn 0.074700 0.000000 0.997200
vn -0.074700 0.000000 -0.997200
vn 0.997200 0.000000 -0.074700
vn 0.000000 -1.000000 0.000000
vn 0.000000 1.000000 0.000000
vn -0.652300 0.000000 0.758000
vn -0.365300 0.000000 0.930900
vn 0.365300 0.000000 -0.930900
vn 0.930900 0.000000 0.365300
vn 0.000000 -1.000000 0.000000
vn 0.000000 1.000000 0.000000
vn -0.916600 0.000000 0.399900
vn -0.733100 0.000000 0.680200
vn 0.733100 0.000000 -0.680200
vn 0.680200 0.000000 0.733100
vn 0.000000 -1.000000 0.000000
vn 0.000000 1.000000 0.000000
vn -0.999300 0.000000 -0.037400
vn -0.955600 0.000000 0.294800
vn 0.955600 0.000000 -0.294800
vn 0.294800 0.000000 0.955600
vn 0.000000 -1.000000 0.000000
vn 0.000000 1.000000 0.000000
vn -0.884100 0.000000 -0.467300
vn -0.988800 0.000000 -0.149000
vn 0.988800 0.000000 0.149000
vn -0.149000 0.000000 0.988800
vn 0.000000 -1.000000 0.000000
vn 0.000000 1.000000 0.000000
vn -0.593800 0.000000 -0.804600
vn -0.826200 0.000000 -0.563300
vn 0.826200 0.000000 0.563300
vn -0.563300 0.000000 0.826200
vn 0.000000 -1.000000 0.000000
vn 0.000000 1.000000 0.000000
vn -0.185900 0.000000 -0.982600
vn -0.500000 0.000000 -0.866000
vn 0.500000 0.000000 0.866000
vn -0.866000 0.000000 0.500000
vn 0.000000 -1.000000 0.000000
vn 0.000000 1.000000 0.000000
vn 0.258800 0.000000 -0.965900
vn -0.074700 0.000000 -0.997200
vn 0.074700 0.000000 0.997200
vn -0.997200 0.000000 0.074700
vn 0.000000 -1.000000 0.000000
vn 0.000000 1.000000 0.000000
vn 0.652300 0.000000 -0.758000
vn 0.365300 0.000000 -0.930900
vn -0.365300 0.000000 0.930900
vn -0.930900 0.000000 -0.365300
vn 0.000000 -1.000000 0.000000
vn 0.000000 1.000000 0.000000
vn 0.916600 0.000000 -0.399900
vn 0.733100 0.000000 -0.680200
vn -0.733100 0.000000 0.680200
vn -0.680200 0.000000 -0.733100
vn 0.000000 -1.000000 0.000000
vn 0.000000 1.000000 0.000000
vn 0.999300 0.000000 0.037400
vn 0.955600 0.000000 -0.294800
vn -0.955600 0.000000 0.294800
vn -0.294800 0.000000 -0.955600
vn 0.000000 -1.000000 0.000000
vn 0.000000 1.000000 0.000000
vn 0.884100 0.000000 0.467300
vn 0.988800 0.000000 0.149000
vn -0.988800 0.000000 -0.149000
vn 0.149000 0.000000 -0.988800
vn 0.000000 -1.000000 0.000000
vn 0.000000 1.000000 0.000000
vn 0.593800 0.000000 0.804600
vn 0.826200 0.000000 0.563300
vn -0.826200 0.000000 -0.563300
vn 0.563300 0.000000 -0.826200
vn 0.000000 -1.000000 0.000000
vn 0.000000 1.000000 0.000000
vn 0.185900 0.000000 0.982600
vn 0.707100 0.000000 0.707100
vn -0.707100 0.000000 -0.707100
vn 0.707100 0.000000 -0.707100
vn 0.000000 -1.000000 0.000000
vn 0.000000 1.000000 0.000000
vn 0.000000 0.000000 1.000000
vn 0.330300 0.000000 0.943900
vn -0.330300 0.000000 -0.943900
vn 0.943900 0.000000 -0.330300
vn 0.000000 -1.000000 0.000000
vn 0.000000 1.000000 0.000000
vn -0.433900 0.000000 0.901000
vn -0.112000 0.000000 0.993700
vn 0.112000 0.000000 -0.993700
vn 0.993700 0.000000 0.112000
vn 0.000000 -1.000000 0.000000
vn 0.000000 1.000000 0.000000
vn -0.781800 0.000000 0.623500
vn -0.532000 0.000000 0.846700
vn 0.532000 0.000000 -0.846700
vn 0.846700 0.000000 0.532000
vn 0.000000 -1.000000 0.000000
vn 0.000000 1.000000 0.000000
vn -0.974900 0.000000 0.222500
vn -0.846700 0.000000 0.532000
vn 0.846700 0.000000 -0.532000
vn 0.532000 0.000000 0.846700
vn 0.000000 -1.000000 0.000000
vn 0.000000 1.000000 0.000000
vn -0.974900 0.000000 -0.222500
vn -0.993700 0.000000 0.112000
vn 0.993700 0.000000 -0.112000
vn 0.112000 0.000000 0.993700
vn 0.000000 -1.000000 0.000000
vn 0.000000 1.000000 0.000000
vn -0.781800 0.000000 -0.623500
vn -0.943900 0.000000 -0.330300
vn 0.943900 0.000000 0.330300
vn -0.330300 0.000000 0.943900
vn 0.000000 -1.000000 0.000000
vn 0.000000 1.000000 0.000000
vn -0.433900 0.000000 -0.901000
vn -0.707100 0.000000 -0.707100
vn 0.707100 0.000000 0.707100
vn -0.707100 0.000000 0.707100
vn 0.000000 -1.000000 0.000000
vn 0.000000 1.000000 0.000000
vn 0.000000 0.000000 -1.000000
vn -0.330300 0.000000 -0.943900
vn 0.330300 0.000000 0.943900
vn -0.943900 0.000000 0.330300
vn 0.000000 -1.000000 0.000000
vn 0.000000 1.000000 0.000000
vn 0.433900 0.000000 -0.901000
vn 0.112000 0.000000 -0.993700
vn -0.112000 0.000000 0.993700
vn -0.993700 0.000000 -0.112000
vn 0.000000 -1.000000 0.000000
vn 0.000000 1.000000 0.000000
vn 0.781800 0.000000 -0.623500
vn 0.532000 0.000000 -0.846700
vn -0.532000 0.000000 0.846700
vn -0.846700 0.000000 -0.532000
vn 0.000000 -1.000000 0.000000
vn 0.000000 1.000000 0.000000
vn 0.974900 0.000000 -0.222500
vn 0.846700 0.000000 -0.532000
vn -0.846700 0.000000 0.532000
vn -0.532000 0.000000 -0.846700
vn 0.000000 -1.000000 0.000000
vn 0.000000 1.000000 0.000000
vn 0.974900 0.000000 0.222500
vn 0.993700 0.000000 -0.112000
vn -0.993700 0.000000 0.112000
vn -0.112000 0.000000 -0.993700
vn 0.000000 -1.000000 0.000000
vn 0.000000 1.000000 0.000000
vn 0.781800 0.000000 0.623500
vn 0.943900 0.000000 0.330300
vn -0.943900 0.000000 -0.330300
vn 0.330300 0.000000 -0.943900
vn 0.000000 -1.000000 0.000000
vn 0.000000 1.000000 0.000000
vn 0.433900 0.000000 0.901000
vn -0.087700 -0.445800 0.890800
vn -0.259800 -0.445800 0.856600
vn -0.422000 -0.445800 0.789400
vn -0.567900 -0.445800 0.691900
vn -0.691900 -0.445800 0.567900
vn -0.789400 -0.445800 0.422000
vn -0.856600 -0.445800 0.259800
vn -0.890800 -0.445800 0.087700
vn -0.890800 -0.445800 -0.087700
vn -0.856600 -0.445800 -0.259800
vn -0.789400 -0.445800 -0.422000
vn -0.691900 -0.445800 -0.567900
vn -0.567900 -0.445800 -0.691900
vn -0.422000 -0.445800 -0.789400
vn -0.259800 -0.445800 -0.856600
vn -0.087700 -0.445800 -0.890800
vn 0.087700 -0.445800 -0.890800
vn 0.259800 -0.445800 -0.856600
vn 0.422000 -0.445800 -0.789400
vn 0.567900 -0.445800 -0.691900
vn 0.691900 -0.445800 -0.567900
vn 0.789400 -0.445800 -0.422000
vn 0.856600 -0.445800 -0.259800
vn 0.890800 -0.445800 -0.087700
vn 0.890800 -0.445800 0.087700
vn 0.856600 -0.445800 0.259800
vn 0.789400 -0.445800 0.422000
vn 0.691900 -0.445800 0.567900
vn 0.567900 -0.445800 0.691900
vn 0.422000 -0.445800 0.789400
vn 0.000000 -1.000000 0.000000
vn 0.000000 -1.000000 0.000000
vn 0.000000 -1.000000 0.000000
vn 0.000000 -1.000000 0.000000
vn 0.000000 -1.000000 0.000000
vn 0.000000 -1.000000 0.000000
vn 0.000000 -1.000000 0.000000
vn 0.000000 -1.000000 0.000000
vn 0.000000 -1.000000 0.000000
vn 0.000000 -1.000000 0.000000
vn 0.000000 -1.000000 0.000000
vn 0.000000 -1.000000 0.000000
vn 0.000000 -1.000000 0.000000
vn 0.000000 -1.000000 0.000000
vn 0.000000 -1.000000 0.000000
vn 0.000000 -1.000000 0.000000
vn 0.000000 -1.000000 0.000000
vn 0.000000 -1.000000 0.000000
vn 0.000000 -1.000000 0.000000
vn 0.000000 -1.000000 0.000000
vn 0.000000 -1.000000 0.000000
vn 0.000000 -1.000000 0.000000
vn 0.000000 -1.000000 0.000000
vn 0.000000 -1.000000 0.000000
vn 0.000000 -1.000000 0.000000
vn 0.000000 -1.000000 0.000000
vn 0.000000 -1.000000 0.000000
vn 0.000000 -1.000000 0.000000
vn 0.000000 -1.000000 0.000000
vn 0.000000 -1.000000 0.000000
vn 0.259800 -0.445800 0.856600
vn 0.087700 -0.445800 0.890800
vn 0.000000 1.000000 0.000000
vn 0.000000 1.000000 0.000000
vn 0.000000 1.000000 0.000000
vn 0.000000 1.000000 0.000000
vn 0.000000 1.000000 0.000000
vn 0.000000 1.000000 0.000000
vn 0.000000 1.000000 0.000000
vn 0.000000 1.000000 0.000000
vn 0.000000 1.000000 0.000000
vn 0.000000 1.000000 0.000000
vn 0.000000 1.000000 0.000000
vn 0.000000 1.000000 0.000000
vn 0.000000 1.000000 0.000000
vn 0.000000 1.000000 0.000000
vn 0.000000 1.000000 0.000000
vn 0.000000 1.000000 0.000000
vn 0.000000 1.000000 0.000000
vn 0.000000 1.000000 0.000000
vn 0.000000 1.000000 0.000000
vn 0.000000 1.000000 0.000000
vn 0.000000 1.000000 0.000000
vn 0.000000 1.000000 0.000000
vn 0.000000 1.000000 0.000000
vn 0.000000 1.000000 0.000000
vn 0.000000 1.000000 0.000000
vn 0.000000 1.000000 0.000000
vn 0.000000 1.000000 0.000000
vn 0.000000 1.000000 0.000000
vn 0.000000 1.000000 0.000000
vn 0.000000 1.000000 0.000000
usemtl cutter
f 7/4/119 8/3/119 2/2/119 1/1/119
f 3/8/120 4/7/120 6/6/120 5/5/120
f 1/12/121 2/11/121 4/10/121 3/9/121
f 4/16/122 2/15/122 8/14/122 6/13/122
f 1/20/123 3/19/123 5/18/123 7/17/123
f 6/24/124 8/23/124 7/22/124 5/21/124
f 15/28/125 16/27/125 10/26/125 9/25/125
f 11/32/126 12/31/126 14/30/126 13/29/126
f 9/36/127 10/35/127 12/34/127 11/33/127
f 12/40/128 10/39/128 16/38/128 14/37/128
f 9/44/129 11/43/129 13/42/129 15/41/129
f 14/48/130 16/47/130 15/46/130 13/45/130
f 23/52/131 24/51/131 18/50/131 17/49/131
f 19/56/132 20/55/132 22/54/132 21/53/132
f 17/58/133 18/57/133 20/55/133 19/56/133
f 20/62/134 18/61/134 24/60/134 22/59/134
f 17/66/135 19/65/135 21/64/135 23/63/135
f 22/68/136 24/51/136 23/52/136 21/67/136
f 31/72/137 32/71/137 26/70/137 25/69/137
f 27/76/138 28/75/138 30/74/138 29/73/138
f 25/80/139 26/79/139 28/78/139 27/77/139
f 28/84/140 26/83/140 32/82/140 30/81/140
f 25/88/141 27/87/141 29/86/141 31/85/141
f 30/90/142 32/71/142 31/72/142 29/89/142
f 39/94/143 40/93/143 34/92/143 33/91/143
f 35/98/144 36/97/144 38/96/144 37/95/144
f 33/102/145 34/101/145 36/100/145 35/99/145
f 36/106/146 34/105/146 40/104/146 38/103/146
f 33/110/147 35/109/147 37/108/147 39/107/147
f 38/112/148 40/93/148 39/94/148 37/111/148
f 47/116/149 48/115/149 42/114/149 41/113/149
f 43/120/150 44/119/150 46/118/150 45/117/150
f 41/113/151 42/114/151 44/122/151 43/121/151
f 44/126/152 42/125/152 48/124/152 46/123/152
f 41/130/153 43/129/153 45/128/153 47/127/153
f 46/134/154 48/133/154 47/132/154 45/131/154
f 55/138/155 56/137/155 50/136/155 49/135/155
f 51/142/156 52/141/156 54/140/156 53/139/156
f 49/146/157 50/145/157 52/144/157 51/143/157
f 52/150/158 50/149/158 56/148/158 54/147/158
f 49/154/159 51/153/159 53/152/159 55/151/159
f 54/156/160 56/137/160 55/138/160 53/155/160
f 63/160/161 64/159/161 58/158/161 57/157/161
f 59/164/162 60/163/162 62/162/162 61/161/162
f 57/168/163 58/167/163 60/166/163 59/165/163
f 60/172/164 58/171/164 64/170/164 62/169/164
f 57/176/165 59/175/165 61/174/165 63/173/165
f 62/180/166 64/179/166 63/178/166 61/177/166
f 71/184/167 72/183/167 66/182/167 65/181/167
f 67/188/168 68/187/168 70/186/168 69/185/168
f 65/192/169 66/191/169 68/190/169 67/189/169
f 68/196/170 66/195/170 72/194/170 70/193/170
f 65/200/171 67/199/171 69/198/171 71/197/171
f 70/204/172 72/203/172 71/202/172 69/201/172
f 79/208/173 80/207/173 74/206/173 73/205/173
f 75/212/174 76/211/174 78/210/174 77/209/174
f 73/214/175 74/213/175 76/211/175 75/212/175
f 76/218/176 74/217/176 80/216/176 78/215/176
f 73/222/177 75/221/177 77/220/177 79/219/177
f 78/224/178 80/207/178 79/208/178 77/223/178
f 87/228/179 88/227/179 82/226/179 81/225/179
f 83/232/180 84/231/180 86/230/180 85/229/180
f 81/236/181 82/235/181 84/234/181 83/233/181
f 84/240/182 82/239/182 88/238/182 86/237/182
f 81/244/183 83/243/183 85/242/183 87/241/183
f 86/246/184 88/227/184 87/228/184 85/245/184
f 95/250/185 96/249/185 90/248/185 89/247/185
f 91/254/186 92/253/186 94/252/186 93/251/186
f 89/258/187 90/257/187 92/256/187 91/255/187
f 92/262/188 90/261/188 96/260/188 94/259/188
f 89/266/189 91/265/189 93/264/189 95/263/189
f 94/268/190 96/249/190 95/250/190 93/267/190
f 103/272/191 104/271/191 98/270/191 97/269/191
f 99/276/192 100/275/192 102/274/192 101/273/192
f 97/269/193 98/270/193 100/278/193 99/277/193
f 100/282/194 98/281/194 104/280/194 102/279/194
f 97/286/195 99/285/195 101/284/195 103/283/195
f 102/290/196 104/289/196 103/288/196 101/287/196
f 111/294/197 112/293/197 106/292/197 105/291/197
f 107/298/198 108/297/198 110/296/198 109/295/198
f 105/302/199 106/301/199 108/300/199 107/299/199
f 108/306/200 106/305/200 112/304/200 110/303/200
f 105/310/201 107/309/201 109/308/201 111/307/201
f 110/312/202 112/293/202 111/294/202 109/311/202
f 183/452/203 184/451/203 178/450/203 177/449/203
f 179/456/204 180/455/204 182/454/204 181/453/204
f 177/460/205 178/459/205 180/458/205 179/457/205
f 180/464/206 178/463/206 184/462/206 182/461/206
f 177/468/207 179/467/207 181/466/207 183/465/207
f 182/472/208 184/471/208 183/470/208 181/469/208
f 191/476/209 192/475/209 186/474/209 185/473/209
f 187/480/210 188/479/210 190/478/210 189/477/210
f 185/484/211 186/483/211 188/482/211 187/481/211
f 188/488/212 186/487/212 192/486/212 190/485/212
f 185/492/213 187/491/213 189/490/213 191/489/213
f 190/496/214 192/495/214 191/494/214 189/493/214
f 199/500/215 200/499/215 194/498/215 193/497/215
f 195/504/216 196/503/216 198/502/216 197/501/216
f 193/506/217 194/505/217 196/503/217 195/504/217
f 196/510/218 194/509/218 200/508/218 198/507/218
f 193/514/219 195/513/219 197/512/219 199/511/219
f 198/516/220 200/499/220 199/500/220 197/515/220
f 207/520/221 208/519/221 202/518/221 201/517/221
f 203/524/222 204/523/222 206/522/222 205/521/222
f 201/526/223 202/525/223 204/523/223 203/524/223
f 204/530/224 202/529/224 208/528/224 206/527/224
f 201/534/225 203/533/225 205/532/225 207/531/225
f 206/536/226 208/519/226 207/520/226 205/535/226
f 215/540/227 216/539/227 210/538/227 209/537/227
f 211/544/228 212/543/228 214/542/228 213/541/228
f 209/548/229 210/547/229 212/546/229 211/545/229
f 212/552/230 210/551/230 216/550/230 214/549/230
f 209/556/231 211/555/231 213/554/231 215/553/231
f 214/558/232 216/539/232 215/540/232 213/557/232
f 223/562/233 224/561/233 218/560/233 217/559/233
f 219/566/234 220/565/234 222/564/234 221/563/234
f 217/570/235 218/569/235 220/568/235 219/567/235
f 220/574/236 218/573/236 224/572/236 222/571/236
f 217/578/237 219/577/237 221/576/237 223/575/237
f 222/582/238 224/581/238 223/580/238 221/579/238
f 231/586/239 232/585/239 226/584/239 225/583/239
f 227/590/240 228/589/240 230/588/240 229/587/240
f 225/583/241 226/584/241 228/592/241 227/591/241
f 228/596/242 226/595/242 232/594/242 230/593/242
f 225/600/243 227/599/243 229/598/243 231/597/243
f 230/604/244 232/603/244 231/602/244 229/601/244
f 239/608/245 240/607/245 234/606/245 233/605/245
f 235/612/246 236/611/246 238/610/246 237/609/246
f 233/616/247 234/615/247 236/614/247 235/613/247
f 236/620/248 234/619/248 240/618/248 238/617/248
f 233/624/249 235/623/249 237/622/249 239/621/249
f 238/627/250 240/152/250 239/626/250 237/625/250
f 247/631/251 248/630/251 242/629/251 241/628/251
f 243/635/252 244/634/252 246/633/252 245/632/252
f 241/639/253 242/638/253 244/637/253 243/636/253
f 244/643/254 242/642/254 248/641/254 246/640/254
f 241/647/255 243/646/255 245/645/255 247/644/255
f 246/651/256 248/650/256 247/649/256 245/648/256
f 255/655/257 256/654/257 250/653/257 249/652/257
f 251/659/258 252/658/258 254/657/258 253/656/258
f 249/661/259 250/660/259 252/658/259 251/659/259
f 252/665/260 250/664/260 256/663/260 254/662/260
f 249/669/261 251/668/261 253/667/261 255/666/261
f 254/671/262 256/654/262 255/655/262 253/670/262
f 263/675/263 264/674/263 258/673/263 257/672/263
f 259/679/264 260/678/264 262/677/264 261/676/264
f 257/681/265 258/680/265 260/678/265 259/679/265
f 260/685/266 258/684/266 264/683/266 262/682/266
f 257/689/267 259/688/267 261/687/267 263/686/267
f 262/691/268 264/674/268 263/675/268 261/690/268
f 271/695/269 272/694/269 266/693/269 265/692/269
f 267/699/270 268/698/270 270/697/270 269/696/270
f 265/703/271 266/702/271 268/701/271 267/700/271
f 268/707/272 266/706/272 272/705/272 270/704/272
f 265/711/273 267/710/273 269/709/273 271/708/273
f 270/713/274 272/694/274 271/695/274 269/712/274
f 279/717/275 280/716/275 274/715/275 273/714/275
f 275/721/276 276/720/276 278/719/276 277/718/276
f 273/725/277 274/724/277 276/723/277 275/722/277
f 276/729/278 274/728/278 280/727/278 278/726/278
f 273/733/279 275/732/279 277/731/279 279/730/279
f 278/737/280 280/736/280 279/735/280 277/734/280
f 287/741/281 288/740/281 282/739/281 281/738/281
f 283/745/282 284/744/282 286/743/282 285/742/282
f 281/738/283 282/739/283 284/747/283 283/746/283
f 284/751/284 282/750/284 288/749/284 286/748/284
f 281/755/285 283/754/285 285/753/285 287/752/285
f 286/759/286 288/758/286 287/757/286 285/756/286
usemtl body
f 115/316/287 116/315/287 114/314/287 113/313/287
f 117/318/288 118/317/288 116/315/288 115/316/288
f 119/320/289 120/319/289 118/317/289 117/318/289
f 121/322/290 122/321/290 120/319/290 119/320/290
f 123/324/291 124/323/291 122/321/291 121/322/291
f 125/326/292 126/325/292 124/323/292 123/324/292
f 127/328/293 128/327/293 126/325/293 125/326/293
f 129/330/294 130/329/294 128/327/294 127/328/294
f 131/332/295 132/331/295 130/329/295 129/330/295
f 133/334/296 134/333/296 132/331/296 131/332/296
f 135/336/297 136/335/297 134/333/297 133/334/297
f 137/340/298 138/339/298 136/338/298 135/337/298
f 139/342/299 140/341/299 138/339/299 137/340/299
f 141/344/300 142/343/300 140/341/300 139/342/300
f 143/346/301 144/345/301 142/343/301 141/344/301
f 145/348/302 146/347/302 144/345/302 143/346/302
f 147/352/303 148/351/303 146/350/303 145/349/303
f 149/354/304 150/353/304 148/351/304 147/352/304
f 151/356/305 152/355/305 150/353/305 149/354/305
f 153/358/306 154/357/306 152/355/306 151/356/306
f 155/360/307 156/359/307 154/357/307 153/358/307
f 157/362/308 158/361/308 156/359/308 155/360/308
f 159/364/309 160/363/309 158/361/309 157/362/309
f 161/366/310 162/365/310 160/363/310 159/364/310
f 163/368/311 164/367/311 162/365/311 161/366/311
f 165/370/312 166/369/312 164/367/312 163/368/312
f 167/372/313 168/371/313 166/369/313 165/370/313
f 169/376/314 170/375/314 168/374/314 167/373/314
f 171/378/315 172/377/315 170/375/315 169/376/315
f 173/380/316 174/379/316 172/377/316 171/378/316
f 176/383/317 114/382/317 116/381/317
f 174/384/318 176/383/318 116/381/318
f 172/385/319 174/384/319 116/381/319
f 170/386/320 172/385/320 116/381/320
f 168/387/321 170/386/321 116/381/321
f 166/388/322 168/387/322 116/381/322
f 164/389/323 166/388/323 116/381/323
f 162/390/324 164/389/324 116/381/324
f 160/391/325 162/390/325 116/381/325
f 158/392/326 160/391/326 116/381/326
f 156/393/327 158/392/327 116/381/327
f 154/394/328 156/393/328 116/381/328
f 152/395/329 154/394/329 116/381/329
f 150/396/330 152/395/330 116/381/330
f 148/397/331 150/396/331 116/381/331
f 146/398/332 148/397/332 116/381/332
f 144/399/333 146/398/333 116/381/333
f 142/400/334 144/399/334 116/381/334
f 140/401/335 142/400/335 116/381/335
f 138/402/336 140/401/336 116/381/336
f 136/403/337 138/402/337 116/381/337
f 134/404/338 136/403/338 116/381/338
f 132/405/339 134/404/339 116/381/339
f 130/406/340 132/405/340 116/381/340
f 128/407/341 130/406/341 116/381/341
f 126/408/342 128/407/342 116/381/342
f 124/409/343 126/408/343 116/381/343
f 122/410/344 124/409/344 116/381/344
f 120/411/345 122/410/345 116/381/345
f 118/412/346 120/411/346 116/381/346
f 175/414/347 176/413/347 174/379/347 173/380/347
f 113/416/348 114/415/348 176/413/348 175/414/348
f 117/419/349 115/418/349 113/417/349
f 119/420/350 117/419/350 113/417/350
f 121/421/351 119/420/351 113/417/351
f 123/422/352 121/421/352 113/417/352
f 125/423/353 123/422/353 113/417/353
f 127/424/354 125/423/354 113/417/354
f 129/425/355 127/424/355 113/417/355
f 131/426/356 129/425/356 113/417/356
f 133/427/357 131/426/357 113/417/357
f 135/428/358 133/427/358 113/417/358
f 137/429/359 135/428/359 113/417/359
f 139/430/360 137/429/360 113/417/360
f 141/431/361 139/430/361 113/417/361
f 143/432/362 141/431/362 113/417/362
f 145/433/363 143/432/363 113/417/363
f 147/434/364 145/433/364 113/417/364
f 149/435/365 147/434/365 113/417/365
f 151/436/366 149/435/366 113/417/366
f 153/437/367 151/436/367 113/417/367
f 155/438/368 153/437/368 113/417/368
f 157/439/369 155/438/369 113/417/369
f 159/440/370 157/439/370 113/417/370
f 161/441/371 159/440/371 113/417/371
f 163/442/372 161/441/372 113/417/372
f 165/443/373 163/442/373 113/417/373
f 167/444/374 165/443/374 113/417/374
f 169/445/375 167/444/375 113/417/375
f 171/446/376 169/445/376 113/417/376
f 173/447/377 171/446/377 113/417/377
f 175/448/378 173/447/378 113/417/378
