# Blender 5.1.2
# www.blender.org
mtllib drill_3x3.mtl
o drill_3x3
v 0.500000 0.005000 -1.000000
v 0.500000 2.005000 0.000500
v 0.792636 0.005000 -0.971178
v 0.597448 2.005000 0.010098
v 1.074025 0.005000 -0.885818
v 0.691150 2.005000 0.038522
v 1.333354 0.005000 -0.747204
v 0.777507 2.005000 0.084681
v 1.560659 0.005000 -0.560659
v 0.853200 2.005000 0.146800
v 1.747203 0.005000 -0.333354
v 0.915319 2.005000 0.222493
v 1.885819 0.005000 -0.074025
v 0.961477 2.005000 0.308850
v 1.971178 0.005000 0.207364
v 0.989901 2.005000 0.402552
v 1.999999 0.005000 0.500000
v 0.999499 2.005000 0.500000
v 1.971178 0.005000 0.792636
v 0.989901 2.005000 0.597448
v 1.885819 0.005000 1.074025
v 0.961477 2.005000 0.691151
v 1.747203 0.005000 1.333355
v 0.915319 2.005000 0.777508
v 1.560659 0.005000 1.560661
v 0.853200 2.005000 0.853201
v 1.333354 0.005000 1.747205
v 0.777507 2.005000 0.915319
v 1.074025 0.005000 1.885819
v 0.691150 2.005000 0.961478
v 0.792636 0.005000 1.971179
v 0.597448 2.005000 0.989902
v 0.500000 0.005000 2.000001
v 0.500000 2.005000 0.999500
v 0.207364 0.005000 1.971179
v 0.402552 2.005000 0.989902
v -0.074025 0.005000 1.885819
v 0.308850 2.005000 0.961478
v -0.333355 0.005000 1.747205
v 0.222493 2.005000 0.915319
v -0.560660 0.005000 1.560661
v 0.146800 2.005000 0.853201
v -0.747204 0.005000 1.333355
v 0.084681 2.005000 0.777508
v -0.885819 0.005000 1.074025
v 0.038522 2.005000 0.691151
v -0.971179 0.005000 0.792636
v 0.010098 2.005000 0.597448
v -1.000001 0.005000 0.500000
v 0.000500 2.005000 0.500000
v -0.971179 0.005000 0.207364
v 0.010098 2.005000 0.402552
v -0.885819 0.005000 -0.074025
v 0.038522 2.005000 0.308850
v -0.747204 0.005000 -0.333354
v 0.084681 2.005000 0.222493
v -0.560660 0.005000 -0.560659
v 0.146800 2.005000 0.146800
v -0.333355 0.005000 -0.747204
v 0.222493 2.005000 0.084681
v -0.074025 0.005000 -0.885818
v 0.308850 2.005000 0.038522
v 0.207364 0.005000 -0.971178
v 0.402552 2.005000 0.010098
v 1.227606 -0.145000 0.897936
v 1.227606 0.605000 0.897936
v 1.492063 -0.145000 1.162394
v 1.492063 0.605000 1.162394
v 2.022394 -0.145000 0.632064
v 2.022394 0.605000 0.632064
v 1.492771 -0.145000 0.632771
v 1.492771 0.605000 0.632771
v 1.329093 -0.144999 0.480820
v 1.329093 0.605001 0.480820
v 1.690349 -0.144999 0.577618
v 1.690349 0.605001 0.577618
v 1.884463 -0.144999 -0.146826
v 1.884463 0.605001 -0.146826
v 1.426150 -0.144999 0.118598
v 1.426150 0.605001 0.118598
v 1.208426 -0.144998 0.068843
v 1.208426 0.605002 0.068843
v 1.569682 -0.144998 -0.027954
v 1.569682 0.605002 -0.027954
v 1.375568 -0.144998 -0.752399
v 1.375568 0.605002 -0.752399
v 1.111369 -0.144998 -0.293378
v 1.111369 0.605002 -0.293378
v 0.897935 -0.144997 -0.227606
v 0.897935 0.605003 -0.227606
v 1.162394 -0.144997 -0.492063
v 1.162394 0.605003 -0.492063
v 0.632064 -0.144997 -1.022394
v 0.632064 0.605003 -1.022394
v 0.632771 -0.144997 -0.492771
v 0.632771 0.605003 -0.492771
v 0.480820 -0.144997 -0.329093
v 0.480820 0.605003 -0.329093
v 0.577618 -0.144997 -0.690349
v 0.577618 0.605003 -0.690349
v -0.146826 -0.144997 -0.884463
v -0.146826 0.605003 -0.884463
v 0.118598 -0.144997 -0.426150
v 0.118598 0.605003 -0.426150
v 0.068843 -0.144996 -0.208426
v 0.068843 0.605004 -0.208426
v -0.027955 -0.144996 -0.569682
v -0.027955 0.605004 -0.569682
v -0.752399 -0.144996 -0.375567
v -0.752399 0.605004 -0.375567
v -0.293379 -0.144996 -0.111369
v -0.293379 0.605004 -0.111369
v -0.227606 -0.144995 0.102064
v -0.227606 0.605005 0.102064
v -0.492063 -0.144995 -0.162394
v -0.492063 0.605005 -0.162394
v -1.022394 -0.144995 0.367936
v -1.022394 0.605005 0.367936
v -0.492771 -0.144995 0.367229
v -0.492771 0.605005 0.367229
v -0.329093 -0.144995 0.519180
v -0.329093 0.605005 0.519180
v -0.690350 -0.144995 0.422382
v -0.690350 0.605005 0.422382
v -0.884463 -0.144995 1.146826
v -0.884463 0.605005 1.146826
v -0.426150 -0.144995 0.881402
v -0.426150 0.605005 0.881402
v -0.208425 -0.144994 0.931157
v -0.208425 0.605006 0.931157
v -0.569682 -0.144994 1.027956
v -0.569682 0.605006 1.027956
v -0.375567 -0.144994 1.752400
v -0.375567 0.605006 1.752400
v -0.111368 -0.144994 1.293379
v -0.111368 0.605006 1.293379
v 0.102064 -0.144993 1.227606
v 0.102064 0.605007 1.227606
v -0.162393 -0.144993 1.492063
v -0.162393 0.605007 1.492063
v 0.367936 -0.144993 2.022394
v 0.367936 0.605007 2.022394
v 0.367229 -0.144993 1.492771
v 0.367229 0.605007 1.492771
v 0.519180 -0.144992 1.329093
v 0.519180 0.605008 1.329093
v 0.422382 -0.144992 1.690349
v 0.422382 0.605008 1.690349
v 1.146826 -0.144992 1.884463
v 1.146826 0.605008 1.884463
v 0.881402 -0.144992 1.426150
v 0.881402 0.605008 1.426150
v 0.931158 -0.144992 1.208425
v 0.931158 0.605008 1.208425
v 1.027956 -0.144992 1.569682
v 1.027956 0.605008 1.569682
v 1.752400 -0.144992 1.375567
v 1.752400 0.605008 1.375567
v 1.293378 -0.144992 1.111368
v 1.293378 0.605008 1.111368
v 0.531740 0.880000 0.825553
v 0.531740 1.630000 0.825553
v 0.718740 0.880000 1.149447
v 0.718740 1.630000 1.149447
v 1.368260 0.880000 0.774447
v 1.368260 1.630000 0.774447
v 0.856499 0.880000 0.638053
v 0.856499 1.630000 0.638053
v 0.752645 0.880001 0.707757
v 0.752645 1.630001 0.707757
v 1.113901 0.880001 0.804555
v 1.113901 1.630001 0.804555
v 1.308015 0.880001 0.080111
v 1.308015 1.630001 0.080111
v 0.849702 0.880001 0.345535
v 0.849702 1.630001 0.345535
v 0.825553 0.880001 0.468260
v 0.825553 1.630001 0.468260
v 1.149447 0.880001 0.281260
v 1.149447 1.630001 0.281260
v 0.774447 0.880001 -0.368259
v 0.774447 1.630001 -0.368259
v 0.638053 0.880001 0.143500
v 0.638053 1.630001 0.143500
v 0.707757 0.880002 0.247355
v 0.707757 1.630002 0.247355
v 0.804555 0.880002 -0.113901
v 0.804555 1.630002 -0.113901
v 0.080111 0.880002 -0.308015
v 0.080111 1.630002 -0.308015
v 0.345535 0.880002 0.150298
v 0.345535 1.630002 0.150298
v 0.468260 0.880003 0.174447
v 0.468260 1.630003 0.174447
v 0.281260 0.880003 -0.149447
v 0.281260 1.630003 -0.149447
v -0.368259 0.880003 0.225553
v -0.368259 1.630003 0.225553
v 0.143500 0.880003 0.361947
v 0.143500 1.630003 0.361947
v 0.247355 0.880004 0.292243
v 0.247355 1.630004 0.292243
v -0.113901 0.880004 0.195445
v -0.113901 1.630004 0.195445
v -0.308015 0.880004 0.919890
v -0.308015 1.630004 0.919890
v 0.150298 0.880004 0.654465
v 0.150298 1.630004 0.654465
v 0.174447 0.880004 0.531740
v 0.174447 1.630004 0.531740
v -0.149446 0.880004 0.718741
v -0.149446 1.630004 0.718741
v 0.225553 0.880004 1.368259
v 0.225553 1.630004 1.368259
v 0.361947 0.880004 0.856500
v 0.361947 1.630004 0.856500
v 0.292243 0.880005 0.752645
v 0.292243 1.630005 0.752645
v 0.195445 0.880005 1.113901
v 0.195445 1.630005 1.113901
v 0.919889 0.880005 1.308015
v 0.919889 1.630005 1.308015
v 0.654465 0.880005 0.849703
v 0.654465 1.630005 0.849703
vn 0.0877 0.4457 -0.8909
vn 0.2599 0.4457 -0.8567
vn 0.4220 0.4457 -0.7895
vn 0.5679 0.4457 -0.6920
vn 0.6920 0.4457 -0.5679
vn 0.7895 0.4457 -0.4220
vn 0.8567 0.4457 -0.2599
vn 0.8909 0.4457 -0.0877
vn 0.8909 0.4457 0.0877
vn 0.8567 0.4457 0.2599
vn 0.7895 0.4457 0.4220
vn 0.6920 0.4457 0.5679
vn 0.5679 0.4457 0.6920
vn 0.4220 0.4457 0.7895
vn 0.2599 0.4457 0.8567
vn 0.0877 0.4457 0.8909
vn -0.0877 0.4457 0.8909
vn -0.2599 0.4457 0.8567
vn -0.4220 0.4457 0.7895
vn -0.5679 0.4457 0.6920
vn -0.6920 0.4457 0.5679
vn -0.7895 0.4457 0.4220
vn -0.8567 0.4457 0.2599
vn -0.8909 0.4457 0.0877
vn -0.8909 0.4457 -0.0877
vn -0.8567 0.4457 -0.2599
vn -0.7895 0.4457 -0.4220
vn -0.6920 0.4457 -0.5679
vn -0.5679 0.4457 -0.6920
vn -0.4220 0.4457 -0.7895
vn -0.0000 1.0000 -0.0000
vn -0.2599 0.4457 -0.8567
vn -0.0877 0.4457 -0.8909
vn -0.0000 -1.0000 -0.0000
vn -0.7071 -0.0000 -0.7071
vn 0.7071 -0.0000 0.7071
vn -0.7071 -0.0000 0.7071
vn -0.0013 -0.0000 -1.0000
vn -0.9659 -0.0000 -0.2588
vn 0.9659 -0.0000 0.2588
vn -0.2588 -0.0000 0.9659
vn -0.5012 -0.0000 -0.8654
vn -0.9659 -0.0000 0.2588
vn 0.9659 -0.0000 -0.2588
vn 0.2588 -0.0000 0.9659
vn -0.8667 -0.0000 -0.4988
vn 0.7071 -0.0000 -0.7071
vn -1.0000 -0.0000 0.0013
vn 0.2588 -0.0000 -0.9659
vn -0.8654 -0.0000 0.5012
vn -0.2588 -0.0000 -0.9659
vn -0.4988 -0.0000 0.8667
vn 0.0013 -0.0000 1.0000
vn 0.5012 -0.0000 0.8654
vn 0.8667 -0.0000 0.4988
vn 1.0000 -0.0000 -0.0013
vn 0.8654 -0.0000 -0.5012
vn 0.4988 -0.0000 -0.8667
vn -0.5000 -0.0000 -0.8660
vn 0.5000 -0.0000 0.8660
vn -0.8660 -0.0000 0.5000
vn 0.2575 -0.0000 -0.9663
vn 0.8660 -0.0000 -0.5000
vn -0.9663 -0.0000 -0.2575
vn -0.2575 -0.0000 0.9663
vn 0.9663 -0.0000 0.2575
vt 0.135955 0.603590
vt 0.114336 0.298455
vt 0.123588 0.298253
vt 0.163739 0.602983
vt 0.132058 0.297924
vt 0.189174 0.601998
vt 0.139420 0.297483
vt 0.211284 0.600672
vt 0.297483 0.302369
vt 0.376582 -0.000000
vt 0.383139 0.000443
vt 0.317175 0.303701
vt 0.390980 0.000792
vt 0.340720 0.304747
vt 0.399803 0.001032
vt 0.367215 0.305468
vt 0.409269 0.001154
vt 0.395642 0.305836
vt 0.419014 0.001154
vt 0.424907 0.305836
vt 0.428664 0.001032
vt 0.453886 0.305468
vt 0.437848 0.000792
vt 0.481466 0.304747
vt 0.446213 0.000443
vt 0.506586 0.303701
vt 0.453438 -0.000000
vt 0.528282 0.302369
vt 0.508767 0.609093
vt 0.574731 0.305836
vt 0.582572 0.306184
vt 0.532312 0.610140
vt 0.591395 0.306424
vt 0.558808 0.610860
vt 0.600861 0.306546
vt 0.587234 0.611228
vt 0.610606 0.306546
vt 0.616499 0.611228
vt 0.620256 0.306424
vt 0.645478 0.610860
vt 0.629440 0.306184
vt 0.673058 0.610140
vt 0.637805 0.305836
vt 0.698178 0.609093
vt 0.297483 0.609025
vt 0.366546 0.305836
vt 0.374261 0.306277
vt 0.320653 0.610351
vt 0.382993 0.306605
vt 0.346876 0.611336
vt 0.392407 0.306807
vt 0.375145 0.611943
vt 0.402140 0.306875
vt 0.404373 0.612147
vt 0.411819 0.306807
vt 0.433438 0.611943
vt 0.421071 0.306605
vt 0.461222 0.611336
vt 0.429541 0.306277
vt 0.486657 0.610351
vt 0.436903 0.305836
vt 0.508767 0.609025
vt 0.000000 0.600672
vt 0.069063 0.297483
vt 0.076778 0.297924
vt 0.023170 0.601998
vt 0.085510 0.298253
vt 0.049393 0.602983
vt 0.094924 0.298455
vt 0.077662 0.603590
vt 0.616286 0.081105
vt 0.609387 0.088004
vt 0.601274 0.093425
vt 0.592260 0.097158
vt 0.582691 0.099062
vt 0.572934 0.099062
vt 0.563365 0.097158
vt 0.554351 0.093425
vt 0.546238 0.088004
vt 0.539339 0.081105
vt 0.533919 0.072993
vt 0.530185 0.063979
vt 0.528282 0.054409
vt 0.528282 0.044653
vt 0.530185 0.035083
vt 0.533919 0.026069
vt 0.539339 0.017957
vt 0.546238 0.011058
vt 0.554351 0.005637
vt 0.563365 0.001903
vt 0.572934 -0.000000
vt 0.582691 -0.000000
vt 0.592260 0.001903
vt 0.601274 0.005637
vt 0.609387 0.011058
vt 0.616286 0.017957
vt 0.621706 0.026069
vt 0.625440 0.035083
vt 0.627343 0.044653
vt 0.627343 0.054409
vt 0.625440 0.063979
vt 0.621706 0.072993
vt 0.104657 0.298523
vt 0.106890 0.603795
vt 0.033206 0.243559
vt 0.016929 0.219197
vt 0.005716 0.192128
vt 0.000000 0.163391
vt 0.000000 0.134092
vt 0.005716 0.105355
vt 0.016929 0.078286
vt 0.033206 0.053924
vt 0.053924 0.033206
vt 0.078286 0.016929
vt 0.105355 0.005716
vt 0.134092 0.000000
vt 0.163391 0.000000
vt 0.192128 0.005716
vt 0.219197 0.016929
vt 0.243559 0.033206
vt 0.264277 0.053924
vt 0.280555 0.078286
vt 0.291767 0.105355
vt 0.297483 0.134092
vt 0.297483 0.163391
vt 0.291767 0.192128
vt 0.280555 0.219197
vt 0.264277 0.243559
vt 0.243559 0.264277
vt 0.219197 0.280555
vt 0.192128 0.291767
vt 0.163391 0.297483
vt 0.134092 0.297483
vt 0.105355 0.291767
vt 0.078286 0.280555
vt 0.053924 0.264277
vt 0.211284 0.635213
vt 0.211284 0.523402
vt 0.242934 0.524818
vt 0.242934 0.636629
vt 0.817266 0.836470
vt 0.817266 0.724606
vt 0.872663 0.727826
vt 0.872663 0.839691
vt 0.921886 0.417646
vt 0.921886 0.305836
vt 0.953452 0.307248
vt 0.953452 0.419058
vt 0.481207 0.915889
vt 0.443941 0.878523
vt 0.443941 0.841158
vt 0.481207 0.841158
vt 0.850937 0.037365
vt 0.813672 0.074731
vt 0.813672 -0.000000
vt 0.850937 -0.000000
vt 0.294391 0.635794
vt 0.294391 0.523984
vt 0.541924 0.951317
vt 0.541924 0.839507
vt 0.574948 0.838261
vt 0.574948 0.950071
vt 0.082386 0.830828
vt 0.082386 0.718963
vt 0.153523 0.717493
vt 0.153523 0.829358
vt 0.118003 0.943425
vt 0.118003 0.831561
vt 0.153477 0.830828
vt 0.153477 0.942692
vt 0.602813 0.287019
vt 0.565547 0.249654
vt 0.565547 0.212289
vt 0.602813 0.212289
vt 0.648655 0.249994
vt 0.611389 0.287359
vt 0.611389 0.212628
vt 0.648655 0.212628
vt 0.504359 0.725070
vt 0.453943 0.723958
vt 0.453943 0.612147
vt 0.504359 0.613259
vt 0.377892 0.726417
vt 0.377892 0.614607
vt 0.415232 0.614705
vt 0.415232 0.726515
vt 0.698178 0.417700
vt 0.698178 0.305836
vt 0.771232 0.306846
vt 0.771232 0.418711
vt 0.000000 0.942604
vt 0.000000 0.830739
vt 0.036430 0.831243
vt 0.036430 0.943108
vt 0.783395 0.611228
vt 0.746130 0.573862
vt 0.746130 0.536497
vt 0.783395 0.536497
vt 0.842987 0.250482
vt 0.805721 0.287847
vt 0.805721 0.213117
vt 0.842987 0.213117
vt 0.453943 0.723958
vt 0.453943 0.612147
vt 0.528282 0.210872
vt 0.528282 0.099062
vt 0.559932 0.100478
vt 0.559932 0.212289
vt 0.208920 0.720713
vt 0.208920 0.832578
vt 0.922604 0.210926
vt 0.922604 0.099062
vt 0.950228 0.100668
vt 0.950228 0.212532
vt 0.701875 0.074731
vt 0.664609 0.037365
vt 0.664609 0.000000
vt 0.701875 0.000000
vt 0.723186 0.249994
vt 0.685921 0.287359
vt 0.685921 0.212628
vt 0.723186 0.212628
vt 0.611389 0.211454
vt 0.611389 0.099643
vt 0.781698 0.950540
vt 0.781698 0.838675
vt 0.817266 0.837940
vt 0.817266 0.949805
vt 0.670079 0.839899
vt 0.670079 0.728088
vt 0.736128 0.725596
vt 0.736128 0.837406
vt 0.589670 0.950635
vt 0.589670 0.838770
vt 0.625143 0.838037
vt 0.625143 0.949902
vt 0.888203 0.074731
vt 0.850937 0.037365
vt 0.850937 0.000000
vt 0.888203 0.000000
vt 0.905236 0.573370
vt 0.867970 0.610735
vt 0.867970 0.536004
vt 0.905236 0.536004
vt 0.867970 0.724150
vt 0.817554 0.723038
vt 0.817554 0.611228
vt 0.867970 0.612339
vt 0.082386 0.716988
vt 0.082386 0.605123
vt 0.118914 0.605628
vt 0.118914 0.717493
vt 0.693776 0.210872
vt 0.693776 0.099062
vt 0.768456 0.099258
vt 0.768456 0.211068
vt 0.887698 0.531755
vt 0.887698 0.419890
vt 0.924128 0.420394
vt 0.924128 0.532259
vt 0.211284 0.863278
vt 0.248549 0.900643
vt 0.248549 0.938009
vt 0.211284 0.938009
vt 0.248549 0.900644
vt 0.285815 0.863278
vt 0.285815 0.938009
vt 0.248549 0.938009
vt 0.163290 0.715659
vt 0.163290 0.603795
vt 0.589670 0.723092
vt 0.589670 0.611228
vt 0.617368 0.612838
vt 0.617368 0.724703
vt 0.211284 0.860446
vt 0.211284 0.748635
vt 0.274584 0.751468
vt 0.274584 0.863278
vt 0.924127 0.531755
vt 0.924127 0.419890
vt 0.951752 0.421496
vt 0.951752 0.533361
vt 0.925469 0.000000
vt 0.962734 0.037365
vt 0.962734 0.074731
vt 0.925469 0.074731
vt 0.942501 0.573370
vt 0.979767 0.536004
vt 0.979767 0.610735
vt 0.942501 0.610735
vt 0.670079 0.724539
vt 0.670079 0.612674
vt 0.746130 0.950540
vt 0.746130 0.838675
vt 0.781698 0.837940
vt 0.781698 0.949805
vt 0.771232 0.534194
vt 0.771232 0.422383
vt 0.837282 0.419890
vt 0.837282 0.531701
vt 0.330420 0.952979
vt 0.330420 0.841168
vt 0.363356 0.839925
vt 0.363356 0.951736
vt 0.943610 0.838021
vt 0.980876 0.875386
vt 0.980876 0.912752
vt 0.943610 0.912752
vt 0.943610 0.950117
vt 0.980876 0.912752
vt 0.980876 0.987482
vt 0.943610 0.987482
vt 0.914891 0.724150
vt 0.867970 0.722600
vt 0.914891 0.612285
vt 0.508767 0.724421
vt 0.508767 0.612556
vt 0.545294 0.613061
vt 0.545294 0.724926
vt 0.211284 0.748439
vt 0.211284 0.636629
vt 0.285964 0.636825
vt 0.285964 0.748635
vt 0.885363 0.210872
vt 0.885363 0.099062
vt 0.922604 0.099160
vt 0.922604 0.210970
vt 0.951752 0.419890
vt 0.989018 0.457256
vt 0.989018 0.494621
vt 0.951752 0.494621
vt 0.952609 0.761971
vt 0.989875 0.724606
vt 0.989875 0.799336
vt 0.952609 0.799336
vt 0.589670 0.723092
vt 0.589670 0.611228
vt 0.297483 0.724012
vt 0.297483 0.612147
vt 0.325181 0.613758
vt 0.325181 0.725622
vt 0.443941 0.838326
vt 0.443941 0.726515
vt 0.507242 0.729347
vt 0.507242 0.841158
vt 0.410829 0.952629
vt 0.410829 0.840819
vt 0.442394 0.842231
vt 0.442394 0.954041
vt 0.954784 0.213117
vt 0.992050 0.250482
vt 0.992050 0.287847
vt 0.954784 0.287847
vt 0.962734 0.037365
vt 1.000000 -0.000000
vt 1.000000 0.074731
vt 0.962734 0.074731
vt 0.377892 0.725459
vt 0.377892 0.613594
vt 0.670079 0.952956
vt 0.670079 0.841145
vt 0.703103 0.839899
vt 0.703103 0.951710
vt 0.746130 0.837940
vt 0.746130 0.726076
vt 0.817266 0.724606
vt 0.817266 0.836470
vt 0.377892 0.953872
vt 0.377892 0.842062
vt 0.410829 0.840819
vt 0.410829 0.952629
vt 0.443941 0.915889
vt 0.481207 0.953254
vt 0.481207 0.990619
vt 0.443941 0.990619
vt 0.953451 0.343201
vt 0.990717 0.305836
vt 0.990717 0.380566
vt 0.953451 0.380566
vt 0.919585 0.838021
vt 0.872663 0.836470
vt 0.872663 0.724606
vt 0.919585 0.726156
vt 0.670079 0.725498
vt 0.670079 0.613687
vt 0.707419 0.613785
vt 0.707419 0.725596
vt 0.698178 0.530575
vt 0.698178 0.418711
vt 0.771232 0.419721
vt 0.771232 0.531586
vt 0.884645 0.417646
vt 0.884645 0.305836
vt 0.921886 0.305933
vt 0.921886 0.417744
vt 0.987494 0.173792
vt 0.950228 0.136427
vt 0.950228 0.099062
vt 0.987494 0.099062
vt 0.987725 0.648100
vt 0.950460 0.685466
vt 0.950460 0.610735
vt 0.987725 0.610735
vt 0.746130 0.723038
vt 0.746130 0.611228
vt 0.611389 0.211845
vt 0.611389 0.100034
vt 0.647101 0.100818
vt 0.647101 0.212628
vt 0.771232 0.417700
vt 0.771232 0.305836
vt 0.837724 0.308026
vt 0.837724 0.419890
vt 0.036430 0.942550
vt 0.036430 0.830739
vt 0.072046 0.831521
vt 0.072046 0.943331
vt 0.735444 0.606316
vt 0.698178 0.568951
vt 0.698178 0.531586
vt 0.735444 0.531586
vt 0.565547 0.249654
vt 0.528282 0.287019
vt 0.528282 0.212288
vt 0.565547 0.212288
vt 0.693776 0.210872
vt 0.693776 0.099062
vt 0.919585 0.837663
vt 0.919585 0.725852
vt 0.952609 0.724606
vt 0.952609 0.836416
vt 0.589670 0.838037
vt 0.589670 0.726172
vt 0.660806 0.724702
vt 0.660806 0.836567
vt 0.908137 0.950619
vt 0.908137 0.838754
vt 0.943610 0.838021
vt 0.943610 0.949886
vt 0.739141 0.074731
vt 0.701875 0.037365
vt 0.701875 0.000000
vt 0.739141 0.000000
vt 0.805721 0.250482
vt 0.768456 0.287847
vt 0.768456 0.213117
vt 0.805721 0.213116
vt 0.887698 0.532812
vt 0.837282 0.531701
vt 0.887698 0.421002
vt 0.000000 0.716577
vt 0.000000 0.604767
vt 0.035712 0.605551
vt 0.035712 0.717361
vt 0.768456 0.210926
vt 0.768456 0.099062
vt 0.834947 0.101252
vt 0.834947 0.213117
vt 0.508767 0.950125
vt 0.508767 0.838261
vt 0.541924 0.839353
vt 0.541924 0.951217
vt 0.776406 0.074731
vt 0.739140 0.037365
vt 0.739140 0.000000
vt 0.776406 0.000000
vt 0.813672 0.037365
vt 0.776406 0.074731
vt 0.776406 -0.000000
vt 0.813672 -0.000000
vt 0.082386 0.715605
vt 0.082386 0.603795
vt 0.914891 0.723334
vt 0.914891 0.611470
vt 0.950460 0.610735
vt 0.950460 0.722600
vt 0.377892 0.840819
vt 0.377892 0.729008
vt 0.443941 0.726515
vt 0.443941 0.838326
vt 0.872663 0.950619
vt 0.872663 0.838754
vt 0.908137 0.838021
vt 0.908137 0.949886
vt 0.664609 0.074731
vt 0.627343 0.037365
vt 0.627343 -0.000000
vt 0.664609 0.000000
vt 0.685921 0.249993
vt 0.648655 0.287359
vt 0.648655 0.212628
vt 0.685921 0.212628
vt 0.885363 0.211984
vt 0.834947 0.210872
vt 0.834947 0.099062
vt 0.885363 0.100174
vt 0.211284 0.409348
vt 0.211284 0.297483
vt 0.244529 0.298578
vt 0.244529 0.410443
vt 0.000000 0.829172
vt 0.000000 0.717361
vt 0.071424 0.718929
vt 0.071424 0.830739
vt 0.625143 0.949902
vt 0.625143 0.838037
vt 0.658300 0.839129
vt 0.658300 0.950994
vt 0.723186 0.212628
vt 0.760452 0.249993
vt 0.760452 0.287359
vt 0.723186 0.287359
vt 0.783395 0.573862
vt 0.820661 0.536497
vt 0.820661 0.611228
vt 0.783395 0.611228
vt 0.294785 0.409409
vt 0.294785 0.297544
vt 0.153523 0.945178
vt 0.153523 0.833313
vt 0.189091 0.832578
vt 0.189091 0.944443
vt 0.297483 0.839925
vt 0.297483 0.728115
vt 0.363532 0.725622
vt 0.363532 0.837433
vt 0.703103 0.952953
vt 0.703103 0.841142
vt 0.736040 0.839899
vt 0.736040 0.951710
vt 0.857927 0.573862
vt 0.857927 0.611228
vt 0.820661 0.611228
vt 0.842987 0.250482
vt 0.880253 0.213116
vt 0.880253 0.287847
vt 0.842987 0.287847
vt 0.884645 0.419251
vt 0.837724 0.417700
vt 0.837724 0.305836
vt 0.884645 0.307386
vt 0.211284 0.522307
vt 0.211284 0.410443
vt 0.244529 0.411538
vt 0.244529 0.523402
vt 0.746130 0.723038
vt 0.746130 0.611228
vt 0.817554 0.612795
vt 0.817554 0.724606
vt 0.082386 0.942638
vt 0.082386 0.830828
vt 0.118003 0.831609
vt 0.118003 0.943420
vt 0.888203 -0.000000
vt 0.925469 0.037365
vt 0.925469 0.074731
vt 0.888203 0.074731
vt 0.880253 0.250482
vt 0.917518 0.213116
vt 0.917518 0.287847
vt 0.880253 0.287847
vt 0.294785 0.522369
vt 0.294785 0.410504
vt 0.817266 0.952748
vt 0.817266 0.840937
vt 0.850291 0.839691
vt 0.850291 0.951501
vt 0.508767 0.838261
vt 0.508767 0.726396
vt 0.579903 0.724926
vt 0.579903 0.836791
vt 0.297483 0.952979
vt 0.297483 0.841168
vt 0.330419 0.839925
vt 0.330419 0.951736
vt 0.905236 0.536004
vt 0.942501 0.573370
vt 0.942501 0.610735
vt 0.905236 0.610735
vt 0.917518 0.250482
vt 0.954784 0.213117
vt 0.954784 0.287847
vt 0.917518 0.287847
vt 0.210211 0.717210
vt 0.163290 0.715659
vt 0.163290 0.603795
vt 0.210211 0.605345
s 0
usemtl body
f 1/1/1 2/2/1 4/3/1 3/4/1
f 3/4/2 4/3/2 6/5/2 5/6/2
f 5/6/3 6/5/3 8/7/3 7/8/3
f 7/9/4 8/10/4 10/11/4 9/12/4
f 9/12/5 10/11/5 12/13/5 11/14/5
f 11/14/6 12/13/6 14/15/6 13/16/6
f 13/16/7 14/15/7 16/17/7 15/18/7
f 15/18/8 16/17/8 18/19/8 17/20/8
f 17/20/9 18/19/9 20/21/9 19/22/9
f 19/22/10 20/21/10 22/23/10 21/24/10
f 21/24/11 22/23/11 24/25/11 23/26/11
f 23/26/12 24/25/12 26/27/12 25/28/12
f 25/29/13 26/30/13 28/31/13 27/32/13
f 27/32/14 28/31/14 30/33/14 29/34/14
f 29/34/15 30/33/15 32/35/15 31/36/15
f 31/36/16 32/35/16 34/37/16 33/38/16
f 33/38/17 34/37/17 36/39/17 35/40/17
f 35/40/18 36/39/18 38/41/18 37/42/18
f 37/42/19 38/41/19 40/43/19 39/44/19
f 39/45/20 40/46/20 42/47/20 41/48/20
f 41/48/21 42/47/21 44/49/21 43/50/21
f 43/50/22 44/49/22 46/51/22 45/52/22
f 45/52/23 46/51/23 48/53/23 47/54/23
f 47/54/24 48/53/24 50/55/24 49/56/24
f 49/56/25 50/55/25 52/57/25 51/58/25
f 51/58/26 52/57/26 54/59/26 53/60/26
f 53/60/27 54/59/27 56/61/27 55/62/27
f 55/63/28 56/64/28 58/65/28 57/66/28
f 57/66/29 58/65/29 60/67/29 59/68/29
f 59/68/30 60/67/30 62/69/30 61/70/30
f 4/71/31 2/72/31 64/73/31
f 4/71/31 64/73/31 62/74/31
f 4/71/31 62/74/31 60/75/31
f 4/71/31 60/75/31 58/76/31
f 4/71/31 58/76/31 56/77/31
f 4/71/31 56/77/31 54/78/31
f 4/71/31 54/78/31 52/79/31
f 4/71/31 52/79/31 50/80/31
f 4/71/31 50/80/31 48/81/31
f 4/71/31 48/81/31 46/82/31
f 4/71/31 46/82/31 44/83/31
f 4/71/31 44/83/31 42/84/31
f 4/71/31 42/84/31 40/85/31
f 4/71/31 40/85/31 38/86/31
f 4/71/31 38/86/31 36/87/31
f 4/71/31 36/87/31 34/88/31
f 4/71/31 34/88/31 32/89/31
f 4/71/31 32/89/31 30/90/31
f 4/71/31 30/90/31 28/91/31
f 4/71/31 28/91/31 26/92/31
f 4/71/31 26/92/31 24/93/31
f 4/71/31 24/93/31 22/94/31
f 4/71/31 22/94/31 20/95/31
f 4/71/31 20/95/31 18/96/31
f 4/71/31 18/96/31 16/97/31
f 4/71/31 16/97/31 14/98/31
f 4/71/31 14/98/31 12/99/31
f 4/71/31 12/99/31 10/100/31
f 4/71/31 10/100/31 8/101/31
f 4/71/31 8/101/31 6/102/31
f 61/70/32 62/69/32 64/103/32 63/104/32
f 63/104/33 64/103/33 2/2/33 1/1/33
f 1/105/34 3/106/34 5/107/34
f 1/105/34 5/107/34 7/108/34
f 1/105/34 7/108/34 9/109/34
f 1/105/34 9/109/34 11/110/34
f 1/105/34 11/110/34 13/111/34
f 1/105/34 13/111/34 15/112/34
f 1/105/34 15/112/34 17/113/34
f 1/105/34 17/113/34 19/114/34
f 1/105/34 19/114/34 21/115/34
f 1/105/34 21/115/34 23/116/34
f 1/105/34 23/116/34 25/117/34
f 1/105/34 25/117/34 27/118/34
f 1/105/34 27/118/34 29/119/34
f 1/105/34 29/119/34 31/120/34
f 1/105/34 31/120/34 33/121/34
f 1/105/34 33/121/34 35/122/34
f 1/105/34 35/122/34 37/123/34
f 1/105/34 37/123/34 39/124/34
f 1/105/34 39/124/34 41/125/34
f 1/105/34 41/125/34 43/126/34
f 1/105/34 43/126/34 45/127/34
f 1/105/34 45/127/34 47/128/34
f 1/105/34 47/128/34 49/129/34
f 1/105/34 49/129/34 51/130/34
f 1/105/34 51/130/34 53/131/34
f 1/105/34 53/131/34 55/132/34
f 1/105/34 55/132/34 57/133/34
f 1/105/34 57/133/34 59/134/34
f 1/105/34 59/134/34 61/135/34
f 1/105/34 61/135/34 63/136/34
usemtl cutter
f 65/137/35 66/138/35 72/139/35 71/140/35
f 69/141/36 70/142/36 68/143/36 67/144/36
f 67/145/37 68/146/37 66/147/37 65/148/37
f 70/149/31 72/150/31 66/151/31 68/152/31
f 71/153/34 69/154/34 67/155/34 65/156/34
f 69/157/38 71/140/38 72/139/38 70/158/38
f 73/159/39 74/160/39 80/161/39 79/162/39
f 77/163/40 78/164/40 76/165/40 75/166/40
f 75/167/41 76/168/41 74/169/41 73/170/41
f 78/171/31 80/172/31 74/173/31 76/174/31
f 79/175/34 77/176/34 75/177/34 73/178/34
f 77/179/42 79/180/42 80/181/42 78/182/42
f 81/183/43 82/184/43 88/185/43 87/186/43
f 85/187/44 86/188/44 84/189/44 83/190/44
f 83/191/45 84/192/45 82/193/45 81/194/45
f 86/195/31 88/196/31 82/197/31 84/198/31
f 87/199/34 85/200/34 83/201/34 81/202/34
f 85/203/46 87/186/46 88/185/46 86/204/46
f 89/205/37 90/206/37 96/207/37 95/208/37
f 93/166/47 94/165/47 92/209/47 91/210/47
f 91/211/36 92/212/36 90/213/36 89/214/36
f 94/215/31 96/216/31 90/217/31 92/218/31
f 95/219/34 93/220/34 91/221/34 89/222/34
f 93/223/48 95/208/48 96/207/48 94/224/48
f 97/225/41 98/226/41 104/227/41 103/228/41
f 101/229/49 102/230/49 100/231/49 99/232/49
f 99/233/40 100/234/40 98/235/40 97/236/40
f 102/237/31 104/238/31 98/239/31 100/240/31
f 103/241/34 101/242/34 99/243/34 97/244/34
f 101/245/50 103/246/50 104/247/50 102/248/50
f 105/249/45 106/250/45 112/251/45 111/252/45
f 109/253/51 110/254/51 108/255/51 107/256/51
f 107/257/44 108/258/44 106/259/44 105/260/44
f 110/261/31 112/262/31 106/263/31 108/264/31
f 111/265/34 109/266/34 107/267/34 105/268/34
f 109/269/52 111/252/52 112/251/52 110/270/52
f 113/271/36 114/272/36 120/273/36 119/274/36
f 117/275/35 118/276/35 116/277/35 115/278/35
f 115/279/47 116/280/47 114/281/47 113/282/47
f 118/283/31 120/284/31 114/285/31 116/286/31
f 119/287/34 117/288/34 115/289/34 113/290/34
f 117/291/53 119/274/53 120/273/53 118/292/53
f 121/293/40 122/294/40 128/295/40 127/296/40
f 125/297/39 126/298/39 124/299/39 123/300/39
f 123/301/49 124/302/49 122/303/49 121/304/49
f 126/305/31 128/306/31 122/307/31 124/308/31
f 127/309/34 125/310/34 123/311/34 121/312/34
f 125/313/54 127/314/54 128/242/54 126/315/54
f 129/316/44 130/317/44 136/318/44 135/319/44
f 133/320/43 134/321/43 132/322/43 131/323/43
f 131/324/51 132/325/51 130/326/51 129/327/51
f 134/328/31 136/329/31 130/330/31 132/331/31
f 135/332/34 133/333/34 131/334/34 129/335/34
f 133/336/55 135/319/55 136/318/55 134/337/55
f 137/338/47 138/339/47 144/340/47 143/341/47
f 141/342/37 142/343/37 140/344/37 139/345/37
f 139/346/35 140/347/35 138/348/35 137/349/35
f 142/350/31 144/351/31 138/352/31 140/353/31
f 143/354/34 141/355/34 139/356/34 137/357/34
f 141/358/56 143/341/56 144/340/56 142/359/56
f 145/360/49 146/361/49 152/362/49 151/363/49
f 149/364/41 150/365/41 148/366/41 147/367/41
f 147/368/39 148/369/39 146/370/39 145/371/39
f 150/372/31 152/373/31 146/374/31 148/375/31
f 151/376/34 149/377/34 147/378/34 145/379/34
f 149/380/57 151/381/57 152/382/57 150/383/57
f 153/384/51 154/385/51 160/386/51 159/387/51
f 157/388/45 158/389/45 156/390/45 155/391/45
f 155/392/43 156/393/43 154/394/43 153/395/43
f 158/396/31 160/397/31 154/398/31 156/399/31
f 159/400/34 157/401/34 155/402/34 153/403/34
f 157/404/58 159/387/58 160/386/58 158/405/58
f 161/406/59 162/407/59 168/408/59 167/409/59
f 165/410/60 166/411/60 164/412/60 163/413/60
f 163/414/61 164/415/61 162/416/61 161/417/61
f 166/418/31 168/419/31 162/420/31 164/421/31
f 167/422/34 165/423/34 163/424/34 161/425/34
f 165/426/62 167/409/62 168/408/62 166/427/62
f 169/428/39 170/429/39 176/430/39 175/431/39
f 173/432/40 174/433/40 172/434/40 171/435/40
f 171/436/41 172/437/41 170/438/41 169/439/41
f 174/440/31 176/441/31 170/442/31 172/443/31
f 175/444/34 173/445/34 171/446/34 169/447/34
f 173/448/42 175/449/42 176/299/42 174/450/42
f 177/451/61 178/452/61 184/453/61 183/454/61
f 181/455/63 182/456/63 180/457/63 179/458/63
f 179/459/60 180/460/60 178/461/60 177/462/60
f 182/463/31 184/464/31 178/465/31 180/466/31
f 183/467/34 181/468/34 179/469/34 177/470/34
f 181/471/64 183/454/64 184/453/64 182/472/64
f 185/473/41 186/474/41 192/475/41 191/476/41
f 189/477/49 190/478/49 188/479/49 187/480/49
f 187/481/40 188/482/40 186/483/40 185/484/40
f 190/485/31 192/486/31 186/487/31 188/488/31
f 191/489/34 189/490/34 187/491/34 185/492/34
f 189/493/50 191/494/50 192/495/50 190/496/50
f 193/497/60 194/498/60 200/499/60 199/500/60
f 197/501/59 198/502/59 196/503/59 195/504/59
f 195/505/63 196/506/63 194/507/63 193/508/63
f 198/509/31 200/510/31 194/511/31 196/512/31
f 199/513/34 197/514/34 195/515/34 193/516/34
f 197/517/65 199/500/65 200/499/65 198/518/65
f 201/519/40 202/520/40 208/521/40 207/522/40
f 205/523/39 206/524/39 204/525/39 203/526/39
f 203/527/49 204/528/49 202/529/49 201/530/49
f 206/514/31 208/531/31 202/532/31 204/533/31
f 207/534/34 205/535/34 203/536/34 201/537/34
f 205/538/54 207/539/54 208/540/54 206/541/54
f 209/542/63 210/543/63 216/544/63 215/545/63
f 213/546/61 214/547/61 212/548/61 211/549/61
f 211/550/59 212/551/59 210/552/59 209/553/59
f 214/554/31 216/555/31 210/556/31 212/557/31
f 215/558/34 213/559/34 211/560/34 209/561/34
f 213/562/66 215/545/66 216/544/66 214/563/66
f 217/564/49 218/565/49 224/566/49 223/567/49
f 221/568/41 222/569/41 220/570/41 219/571/41
f 219/572/39 220/573/39 218/574/39 217/575/39
f 222/576/31 224/577/31 218/578/31 220/579/31
f 223/580/34 221/581/34 219/582/34 217/583/34
f 221/584/57 223/585/57 224/586/57 222/587/57

# Reversed faces (double-sided)
vn -0.087700 -0.445700 0.890900
vn -0.259900 -0.445700 0.856700
vn -0.422000 -0.445700 0.789500
vn -0.567900 -0.445700 0.692000
vn -0.692000 -0.445700 0.567900
vn -0.789500 -0.445700 0.422000
vn -0.856700 -0.445700 0.259900
vn -0.890900 -0.445700 0.087700
vn -0.890900 -0.445700 -0.087700
vn -0.856700 -0.445700 -0.259900
vn -0.789500 -0.445700 -0.422000
vn -0.692000 -0.445700 -0.567900
vn -0.567900 -0.445700 -0.692000
vn -0.422000 -0.445700 -0.789500
vn -0.259900 -0.445700 -0.856700
vn -0.087700 -0.445700 -0.890900
vn 0.087700 -0.445700 -0.890900
vn 0.259900 -0.445700 -0.856700
vn 0.422000 -0.445700 -0.789500
vn 0.567900 -0.445700 -0.692000
vn 0.692000 -0.445700 -0.567900
vn 0.789500 -0.445700 -0.422000
vn 0.856700 -0.445700 -0.259900
vn 0.890900 -0.445700 -0.087700
vn 0.890900 -0.445700 0.087700
vn 0.856700 -0.445700 0.259900
vn 0.789500 -0.445700 0.422000
vn 0.692000 -0.445700 0.567900
vn 0.567900 -0.445700 0.692000
vn 0.422000 -0.445700 0.789500
vn 0.000000 -1.000000 0.000000
vn 0.000000 -1.000000 0.000000
vn 0.000000 -1.000000 0.000000
vn 0.000000 -1.000000 0.000000
vn 0.000000 -1.000000 0.000000
vn 0.000000 -1.000000 0.000000
vn 0.000000 -1.000000 0.000000
vn 0.000000 -1.000000 0.000000
vn 0.000000 -1.000000 0.000000
vn 0.000000 -1.000000 0.000000
vn 0.000000 -1.000000 0.000000
vn 0.000000 -1.000000 0.000000
vn 0.000000 -1.000000 0.000000
vn 0.000000 -1.000000 0.000000
vn 0.000000 -1.000000 0.000000
vn 0.000000 -1.000000 0.000000
vn 0.000000 -1.000000 0.000000
vn 0.000000 -1.000000 0.000000
vn 0.000000 -1.000000 0.000000
vn 0.000000 -1.000000 0.000000
vn 0.000000 -1.000000 0.000000
vn 0.000000 -1.000000 0.000000
vn 0.000000 -1.000000 0.000000
vn 0.000000 -1.000000 0.000000
vn 0.000000 -1.000000 0.000000
vn 0.000000 -1.000000 0.000000
vn 0.000000 -1.000000 0.000000
vn 0.000000 -1.000000 0.000000
vn 0.000000 -1.000000 0.000000
vn 0.000000 -1.000000 0.000000
vn 0.259900 -0.445700 0.856700
vn 0.087700 -0.445700 0.890900
vn 0.000000 1.000000 0.000000
vn 0.000000 1.000000 0.000000
vn 0.000000 1.000000 0.000000
vn 0.000000 1.000000 0.000000
vn 0.000000 1.000000 0.000000
vn 0.000000 1.000000 0.000000
vn 0.000000 1.000000 0.000000
vn 0.000000 1.000000 0.000000
vn 0.000000 1.000000 0.000000
vn 0.000000 1.000000 0.000000
vn 0.000000 1.000000 0.000000
vn 0.000000 1.000000 0.000000
vn 0.000000 1.000000 0.000000
vn 0.000000 1.000000 0.000000
vn 0.000000 1.000000 0.000000
vn 0.000000 1.000000 0.000000
vn 0.000000 1.000000 0.000000
vn 0.000000 1.000000 0.000000
vn 0.000000 1.000000 0.000000
vn 0.000000 1.000000 0.000000
vn 0.000000 1.000000 0.000000
vn 0.000000 1.000000 0.000000
vn 0.000000 1.000000 0.000000
vn 0.000000 1.000000 0.000000
vn 0.000000 1.000000 0.000000
vn 0.000000 1.000000 0.000000
vn 0.000000 1.000000 0.000000
vn 0.000000 1.000000 0.000000
vn 0.000000 1.000000 0.000000
vn 0.000000 1.000000 0.000000
vn 0.707100 0.000000 0.707100
vn -0.707100 0.000000 -0.707100
vn 0.707100 0.000000 -0.707100
vn 0.000000 -1.000000 0.000000
vn 0.000000 1.000000 0.000000
vn 0.001300 0.000000 1.000000
vn 0.965900 0.000000 0.258800
vn -0.965900 0.000000 -0.258800
vn 0.258800 0.000000 -0.965900
vn 0.000000 -1.000000 0.000000
vn 0.000000 1.000000 0.000000
vn 0.501200 0.000000 0.865400
vn 0.965900 0.000000 -0.258800
vn -0.965900 0.000000 0.258800
vn -0.258800 0.000000 -0.965900
vn 0.000000 -1.000000 0.000000
vn 0.000000 1.000000 0.000000
vn 0.866700 0.000000 0.498800
vn 0.707100 0.000000 -0.707100
vn -0.707100 0.000000 0.707100
vn -0.707100 0.000000 -0.707100
vn 0.000000 -1.000000 0.000000
vn 0.000000 1.000000 0.000000
vn 1.000000 0.000000 -0.001300
vn 0.258800 0.000000 -0.965900
vn -0.258800 0.000000 0.965900
vn -0.965900 0.000000 -0.258800
vn 0.000000 -1.000000 0.000000
vn 0.000000 1.000000 0.000000
vn 0.865400 0.000000 -0.501200
vn -0.258800 0.000000 -0.965900
vn 0.258800 0.000000 0.965900
vn -0.965900 0.000000 0.258800
vn 0.000000 -1.000000 0.000000
vn 0.000000 1.000000 0.000000
vn 0.498800 0.000000 -0.866700
vn -0.707100 0.000000 -0.707100
vn 0.707100 0.000000 0.707100
vn -0.707100 0.000000 0.707100
vn 0.000000 -1.000000 0.000000
vn 0.000000 1.000000 0.000000
vn -0.001300 0.000000 -1.000000
vn -0.965900 0.000000 -0.258800
vn 0.965900 0.000000 0.258800
vn -0.258800 0.000000 0.965900
vn 0.000000 -1.000000 0.000000
vn 0.000000 1.000000 0.000000
vn -0.501200 0.000000 -0.865400
vn -0.965900 0.000000 0.258800
vn 0.965900 0.000000 -0.258800
vn 0.258800 0.000000 0.965900
vn 0.000000 -1.000000 0.000000
vn 0.000000 1.000000 0.000000
vn -0.866700 0.000000 -0.498800
vn -0.707100 0.000000 0.707100
vn 0.707100 0.000000 -0.707100
vn 0.707100 0.000000 0.707100
vn 0.000000 -1.000000 0.000000
vn 0.000000 1.000000 0.000000
vn -1.000000 0.000000 0.001300
vn -0.258800 0.000000 0.965900
vn 0.258800 0.000000 -0.965900
vn 0.965900 0.000000 0.258800
vn 0.000000 -1.000000 0.000000
vn 0.000000 1.000000 0.000000
vn -0.865400 0.000000 0.501200
vn 0.258800 0.000000 0.965900
vn -0.258800 0.000000 -0.965900
vn 0.965900 0.000000 -0.258800
vn 0.000000 -1.000000 0.000000
vn 0.000000 1.000000 0.000000
vn -0.498800 0.000000 0.866700
vn 0.500000 0.000000 0.866000
vn -0.500000 0.000000 -0.866000
vn 0.866000 0.000000 -0.500000
vn 0.000000 -1.000000 0.000000
vn 0.000000 1.000000 0.000000
vn -0.257500 0.000000 0.966300
vn 0.965900 0.000000 0.258800
vn -0.965900 0.000000 -0.258800
vn 0.258800 0.000000 -0.965900
vn 0.000000 -1.000000 0.000000
vn 0.000000 1.000000 0.000000
vn 0.501200 0.000000 0.865400
vn 0.866000 0.000000 -0.500000
vn -0.866000 0.000000 0.500000
vn -0.500000 0.000000 -0.866000
vn 0.000000 -1.000000 0.000000
vn 0.000000 1.000000 0.000000
vn 0.966300 0.000000 0.257500
vn 0.258800 0.000000 -0.965900
vn -0.258800 0.000000 0.965900
vn -0.965900 0.000000 -0.258800
vn 0.000000 -1.000000 0.000000
vn 0.000000 1.000000 0.000000
vn 0.865400 0.000000 -0.501200
vn -0.500000 0.000000 -0.866000
vn 0.500000 0.000000 0.866000
vn -0.866000 0.000000 0.500000
vn 0.000000 -1.000000 0.000000
vn 0.000000 1.000000 0.000000
vn 0.257500 0.000000 -0.966300
vn -0.965900 0.000000 -0.258800
vn 0.965900 0.000000 0.258800
vn -0.258800 0.000000 0.965900
vn 0.000000 -1.000000 0.000000
vn 0.000000 1.000000 0.000000
vn -0.501200 0.000000 -0.865400
vn -0.866000 0.000000 0.500000
vn 0.866000 0.000000 -0.500000
vn 0.500000 0.000000 0.866000
vn 0.000000 -1.000000 0.000000
vn 0.000000 1.000000 0.000000
vn -0.966300 0.000000 -0.257500
vn -0.258800 0.000000 0.965900
vn 0.258800 0.000000 -0.965900
vn 0.965900 0.000000 0.258800
vn 0.000000 -1.000000 0.000000
vn 0.000000 1.000000 0.000000
vn -0.865400 0.000000 0.501200
usemtl body
f 3/4/67 4/3/67 2/2/67 1/1/67
f 5/6/68 6/5/68 4/3/68 3/4/68
f 7/8/69 8/7/69 6/5/69 5/6/69
f 9/12/70 10/11/70 8/10/70 7/9/70
f 11/14/71 12/13/71 10/11/71 9/12/71
f 13/16/72 14/15/72 12/13/72 11/14/72
f 15/18/73 16/17/73 14/15/73 13/16/73
f 17/20/74 18/19/74 16/17/74 15/18/74
f 19/22/75 20/21/75 18/19/75 17/20/75
f 21/24/76 22/23/76 20/21/76 19/22/76
f 23/26/77 24/25/77 22/23/77 21/24/77
f 25/28/78 26/27/78 24/25/78 23/26/78
f 27/32/79 28/31/79 26/30/79 25/29/79
f 29/34/80 30/33/80 28/31/80 27/32/80
f 31/36/81 32/35/81 30/33/81 29/34/81
f 33/38/82 34/37/82 32/35/82 31/36/82
f 35/40/83 36/39/83 34/37/83 33/38/83
f 37/42/84 38/41/84 36/39/84 35/40/84
f 39/44/85 40/43/85 38/41/85 37/42/85
f 41/48/86 42/47/86 40/46/86 39/45/86
f 43/50/87 44/49/87 42/47/87 41/48/87
f 45/52/88 46/51/88 44/49/88 43/50/88
f 47/54/89 48/53/89 46/51/89 45/52/89
f 49/56/90 50/55/90 48/53/90 47/54/90
f 51/58/91 52/57/91 50/55/91 49/56/91
f 53/60/92 54/59/92 52/57/92 51/58/92
f 55/62/93 56/61/93 54/59/93 53/60/93
f 57/66/94 58/65/94 56/64/94 55/63/94
f 59/68/95 60/67/95 58/65/95 57/66/95
f 61/70/96 62/69/96 60/67/96 59/68/96
f 64/73/97 2/72/97 4/71/97
f 62/74/98 64/73/98 4/71/98
f 60/75/99 62/74/99 4/71/99
f 58/76/100 60/75/100 4/71/100
f 56/77/101 58/76/101 4/71/101
f 54/78/102 56/77/102 4/71/102
f 52/79/103 54/78/103 4/71/103
f 50/80/104 52/79/104 4/71/104
f 48/81/105 50/80/105 4/71/105
f 46/82/106 48/81/106 4/71/106
f 44/83/107 46/82/107 4/71/107
f 42/84/108 44/83/108 4/71/108
f 40/85/109 42/84/109 4/71/109
f 38/86/110 40/85/110 4/71/110
f 36/87/111 38/86/111 4/71/111
f 34/88/112 36/87/112 4/71/112
f 32/89/113 34/88/113 4/71/113
f 30/90/114 32/89/114 4/71/114
f 28/91/115 30/90/115 4/71/115
f 26/92/116 28/91/116 4/71/116
f 24/93/117 26/92/117 4/71/117
f 22/94/118 24/93/118 4/71/118
f 20/95/119 22/94/119 4/71/119
f 18/96/120 20/95/120 4/71/120
f 16/97/121 18/96/121 4/71/121
f 14/98/122 16/97/122 4/71/122
f 12/99/123 14/98/123 4/71/123
f 10/100/124 12/99/124 4/71/124
f 8/101/125 10/100/125 4/71/125
f 6/102/126 8/101/126 4/71/126
f 63/104/127 64/103/127 62/69/127 61/70/127
f 1/1/128 2/2/128 64/103/128 63/104/128
f 5/107/129 3/106/129 1/105/129
f 7/108/130 5/107/130 1/105/130
f 9/109/131 7/108/131 1/105/131
f 11/110/132 9/109/132 1/105/132
f 13/111/133 11/110/133 1/105/133
f 15/112/134 13/111/134 1/105/134
f 17/113/135 15/112/135 1/105/135
f 19/114/136 17/113/136 1/105/136
f 21/115/137 19/114/137 1/105/137
f 23/116/138 21/115/138 1/105/138
f 25/117/139 23/116/139 1/105/139
f 27/118/140 25/117/140 1/105/140
f 29/119/141 27/118/141 1/105/141
f 31/120/142 29/119/142 1/105/142
f 33/121/143 31/120/143 1/105/143
f 35/122/144 33/121/144 1/105/144
f 37/123/145 35/122/145 1/105/145
f 39/124/146 37/123/146 1/105/146
f 41/125/147 39/124/147 1/105/147
f 43/126/148 41/125/148 1/105/148
f 45/127/149 43/126/149 1/105/149
f 47/128/150 45/127/150 1/105/150
f 49/129/151 47/128/151 1/105/151
f 51/130/152 49/129/152 1/105/152
f 53/131/153 51/130/153 1/105/153
f 55/132/154 53/131/154 1/105/154
f 57/133/155 55/132/155 1/105/155
f 59/134/156 57/133/156 1/105/156
f 61/135/157 59/134/157 1/105/157
f 63/136/158 61/135/158 1/105/158
usemtl cutter
f 71/140/159 72/139/159 66/138/159 65/137/159
f 67/144/160 68/143/160 70/142/160 69/141/160
f 65/148/161 66/147/161 68/146/161 67/145/161
f 68/152/162 66/151/162 72/150/162 70/149/162
f 65/156/163 67/155/163 69/154/163 71/153/163
f 70/158/164 72/139/164 71/140/164 69/157/164
f 79/162/165 80/161/165 74/160/165 73/159/165
f 75/166/166 76/165/166 78/164/166 77/163/166
f 73/170/167 74/169/167 76/168/167 75/167/167
f 76/174/168 74/173/168 80/172/168 78/171/168
f 73/178/169 75/177/169 77/176/169 79/175/169
f 78/182/170 80/181/170 79/180/170 77/179/170
f 87/186/171 88/185/171 82/184/171 81/183/171
f 83/190/172 84/189/172 86/188/172 85/187/172
f 81/194/173 82/193/173 84/192/173 83/191/173
f 84/198/174 82/197/174 88/196/174 86/195/174
f 81/202/175 83/201/175 85/200/175 87/199/175
f 86/204/176 88/185/176 87/186/176 85/203/176
f 95/208/177 96/207/177 90/206/177 89/205/177
f 91/210/178 92/209/178 94/165/178 93/166/178
f 89/214/179 90/213/179 92/212/179 91/211/179
f 92/218/180 90/217/180 96/216/180 94/215/180
f 89/222/181 91/221/181 93/220/181 95/219/181
f 94/224/182 96/207/182 95/208/182 93/223/182
f 103/228/183 104/227/183 98/226/183 97/225/183
f 99/232/184 100/231/184 102/230/184 101/229/184
f 97/236/185 98/235/185 100/234/185 99/233/185
f 100/240/186 98/239/186 104/238/186 102/237/186
f 97/244/187 99/243/187 101/242/187 103/241/187
f 102/248/188 104/247/188 103/246/188 101/245/188
f 111/252/189 112/251/189 106/250/189 105/249/189
f 107/256/190 108/255/190 110/254/190 109/253/190
f 105/260/191 106/259/191 108/258/191 107/257/191
f 108/264/192 106/263/192 112/262/192 110/261/192
f 105/268/193 107/267/193 109/266/193 111/265/193
f 110/270/194 112/251/194 111/252/194 109/269/194
f 119/274/195 120/273/195 114/272/195 113/271/195
f 115/278/196 116/277/196 118/276/196 117/275/196
f 113/282/197 114/281/197 116/280/197 115/279/197
f 116/286/198 114/285/198 120/284/198 118/283/198
f 113/290/199 115/289/199 117/288/199 119/287/199
f 118/292/200 120/273/200 119/274/200 117/291/200
f 127/296/201 128/295/201 122/294/201 121/293/201
f 123/300/202 124/299/202 126/298/202 125/297/202
f 121/304/203 122/303/203 124/302/203 123/301/203
f 124/308/204 122/307/204 128/306/204 126/305/204
f 121/312/205 123/311/205 125/310/205 127/309/205
f 126/315/206 128/242/206 127/314/206 125/313/206
f 135/319/207 136/318/207 130/317/207 129/316/207
f 131/323/208 132/322/208 134/321/208 133/320/208
f 129/327/209 130/326/209 132/325/209 131/324/209
f 132/331/210 130/330/210 136/329/210 134/328/210
f 129/335/211 131/334/211 133/333/211 135/332/211
f 134/337/212 136/318/212 135/319/212 133/336/212
f 143/341/213 144/340/213 138/339/213 137/338/213
f 139/345/214 140/344/214 142/343/214 141/342/214
f 137/349/215 138/348/215 140/347/215 139/346/215
f 140/353/216 138/352/216 144/351/216 142/350/216
f 137/357/217 139/356/217 141/355/217 143/354/217
f 142/359/218 144/340/218 143/341/218 141/358/218
f 151/363/219 152/362/219 146/361/219 145/360/219
f 147/367/220 148/366/220 150/365/220 149/364/220
f 145/371/221 146/370/221 148/369/221 147/368/221
f 148/375/222 146/374/222 152/373/222 150/372/222
f 145/379/223 147/378/223 149/377/223 151/376/223
f 150/383/224 152/382/224 151/381/224 149/380/224
f 159/387/225 160/386/225 154/385/225 153/384/225
f 155/391/226 156/390/226 158/389/226 157/388/226
f 153/395/227 154/394/227 156/393/227 155/392/227
f 156/399/228 154/398/228 160/397/228 158/396/228
f 153/403/229 155/402/229 157/401/229 159/400/229
f 158/405/230 160/386/230 159/387/230 157/404/230
f 167/409/231 168/408/231 162/407/231 161/406/231
f 163/413/232 164/412/232 166/411/232 165/410/232
f 161/417/233 162/416/233 164/415/233 163/414/233
f 164/421/234 162/420/234 168/419/234 166/418/234
f 161/425/235 163/424/235 165/423/235 167/422/235
f 166/427/236 168/408/236 167/409/236 165/426/236
f 175/431/237 176/430/237 170/429/237 169/428/237
f 171/435/238 172/434/238 174/433/238 173/432/238
f 169/439/239 170/438/239 172/437/239 171/436/239
f 172/443/240 170/442/240 176/441/240 174/440/240
f 169/447/241 171/446/241 173/445/241 175/444/241
f 174/450/242 176/299/242 175/449/242 173/448/242
f 183/454/243 184/453/243 178/452/243 177/451/243
f 179/458/244 180/457/244 182/456/244 181/455/244
f 177/462/245 178/461/245 180/460/245 179/459/245
f 180/466/246 178/465/246 184/464/246 182/463/246
f 177/470/247 179/469/247 181/468/247 183/467/247
f 182/472/248 184/453/248 183/454/248 181/471/248
f 191/476/249 192/475/249 186/474/249 185/473/249
f 187/480/250 188/479/250 190/478/250 189/477/250
f 185/484/251 186/483/251 188/482/251 187/481/251
f 188/488/252 186/487/252 192/486/252 190/485/252
f 185/492/253 187/491/253 189/490/253 191/489/253
f 190/496/254 192/495/254 191/494/254 189/493/254
f 199/500/255 200/499/255 194/498/255 193/497/255
f 195/504/256 196/503/256 198/502/256 197/501/256
f 193/508/257 194/507/257 196/506/257 195/505/257
f 196/512/258 194/511/258 200/510/258 198/509/258
f 193/516/259 195/515/259 197/514/259 199/513/259
f 198/518/260 200/499/260 199/500/260 197/517/260
f 207/522/261 208/521/261 202/520/261 201/519/261
f 203/526/262 204/525/262 206/524/262 205/523/262
f 201/530/263 202/529/263 204/528/263 203/527/263
f 204/533/264 202/532/264 208/531/264 206/514/264
f 201/537/265 203/536/265 205/535/265 207/534/265
f 206/541/266 208/540/266 207/539/266 205/538/266
f 215/545/267 216/544/267 210/543/267 209/542/267
f 211/549/268 212/548/268 214/547/268 213/546/268
f 209/553/269 210/552/269 212/551/269 211/550/269
f 212/557/270 210/556/270 216/555/270 214/554/270
f 209/561/271 211/560/271 213/559/271 215/558/271
f 214/563/272 216/544/272 215/545/272 213/562/272
f 223/567/273 224/566/273 218/565/273 217/564/273
f 219/571/274 220/570/274 222/569/274 221/568/274
f 217/575/275 218/574/275 220/573/275 219/572/275
f 220/579/276 218/578/276 224/577/276 222/576/276
f 217/583/277 219/582/277 221/581/277 223/580/277
f 222/587/278 224/586/278 223/585/278 221/584/278
