# Blender 5.1.2
# www.blender.org
mtllib drill_5x5.mtl
o drill_5x5
v 0.500000 0.005000 -1.999999
v 0.500000 2.005000 -0.999999
v 0.987726 0.005000 -1.951962
v 0.792635 2.005000 -0.971177
v 1.456709 0.005000 -1.809698
v 1.074025 2.005000 -0.885818
v 1.888926 0.005000 -1.578673
v 1.333355 2.005000 -0.747203
v 2.267767 0.005000 -1.267766
v 1.560660 2.005000 -0.560659
v 2.578674 0.005000 -0.888925
v 1.747204 2.005000 -0.333354
v 2.809699 0.005000 -0.456708
v 1.885819 2.005000 -0.074024
v 2.951963 0.005000 0.012275
v 1.971178 2.005000 0.207365
v 3.000000 0.005000 0.500001
v 2.000000 2.005000 0.500001
v 2.951963 0.005000 0.987727
v 1.971178 2.005000 0.792636
v 2.809699 0.005000 1.456710
v 1.885819 2.005000 1.074026
v 2.578674 0.005000 1.888927
v 1.747204 2.005000 1.333356
v 2.267767 0.005000 2.267768
v 1.560660 2.005000 1.560661
v 1.888926 0.005000 2.578675
v 1.333355 2.005000 1.747205
v 1.456709 0.005000 2.809700
v 1.074025 2.005000 1.885820
v 0.987726 0.005000 2.951964
v 0.792635 2.005000 1.971179
v 0.500000 0.005000 3.000001
v 0.500000 2.005000 2.000001
v 0.012274 0.005000 2.951964
v 0.207364 2.005000 1.971179
v -0.456709 0.005000 2.809700
v -0.074025 2.005000 1.885820
v -0.888926 0.005000 2.578675
v -0.333355 2.005000 1.747205
v -1.267767 0.005000 2.267768
v -0.560660 2.005000 1.560661
v -1.578674 0.005000 1.888927
v -0.747204 2.005000 1.333356
v -1.809699 0.005000 1.456710
v -0.885819 2.005000 1.074026
v -1.951963 0.005000 0.987727
v -0.971178 2.005000 0.792636
v -2.000000 0.005000 0.500001
v -1.000000 2.005000 0.500001
v -1.951963 0.005000 0.012275
v -0.971178 2.005000 0.207365
v -1.809699 0.005000 -0.456708
v -0.885819 2.005000 -0.074024
v -1.578674 0.005000 -0.888925
v -0.747204 2.005000 -0.333354
v -1.267767 0.005000 -1.267766
v -0.560660 2.005000 -0.560659
v -0.888926 0.005000 -1.578673
v -0.333355 2.005000 -0.747203
v -0.456709 0.005000 -1.809698
v -0.074025 2.005000 -0.885818
v 0.012274 0.005000 -1.951962
v 0.207364 2.005000 -0.971177
v 1.772005 -0.145000 1.030166
v 1.772005 0.605000 1.030166
v 2.302335 -0.145000 1.560496
v 2.302335 0.605000 1.560496
v 3.362996 -0.145000 0.499836
v 3.362996 0.605000 0.499836
v 2.302335 -0.145000 0.499836
v 2.302335 0.605000 0.499836
v 1.416007 -0.145000 1.529565
v 1.416007 0.605000 1.529565
v 1.663716 -0.145000 2.237478
v 1.663716 0.605000 2.237478
v 3.079541 -0.145000 1.742059
v 3.079541 0.605000 1.742059
v 2.123919 -0.145000 1.281856
v 2.123919 0.605000 1.281856
v 0.878582 -0.145000 1.825047
v 0.878582 0.605000 1.825047
v 0.794609 -0.145000 2.570331
v 0.794609 0.605000 2.570331
v 2.285177 -0.145000 2.738278
v 2.285177 0.605000 2.738278
v 1.623866 -0.145000 1.909020
v 1.623866 0.605000 1.909020
v 0.266175 -0.145000 1.858087
v 0.266175 0.605000 1.858087
v -0.132849 -0.145000 2.493130
v -0.132849 0.605000 2.493130
v 1.137237 -0.145000 3.291178
v 1.137237 0.605000 3.291178
v 0.901218 -0.145000 2.257111
v 0.901218 0.605000 2.257111
v -0.299921 -0.145000 1.622141
v -0.299921 0.605000 1.622141
v -0.934965 -0.145000 2.021165
v -0.934965 0.605000 2.021165
v -0.136916 -0.145000 3.291251
v -0.136916 0.605000 3.291251
v 0.099103 -0.145000 2.257185
v 0.099103 0.605000 2.257185
v -0.707583 -0.145000 1.163941
v -0.707583 0.605000 1.163941
v -1.452867 -0.145000 1.247915
v -1.452867 0.605000 1.247915
v -1.284920 -0.145000 2.738483
v -1.284920 0.605000 2.738483
v -0.623610 -0.145000 1.909226
v -0.623610 0.605000 1.909226
v -0.876067 -0.145000 0.574241
v -0.876067 0.605000 0.574241
v -1.583980 -0.145000 0.326531
v -1.583980 0.605000 0.326531
v -2.079397 -0.145000 1.742356
v -2.079397 0.605000 1.742356
v -1.123777 -0.145000 1.282153
v -1.123777 0.605000 1.282153
v -0.772005 -0.145000 -0.030164
v -0.772005 0.605000 -0.030164
v -1.302335 -0.145000 -0.560495
v -1.302335 0.605000 -0.560495
v -2.362996 -0.145000 0.500165
v -2.362996 0.605000 0.500165
v -1.302335 -0.145000 0.500166
v -1.302335 0.605000 0.500166
v -0.416007 -0.145000 -0.529564
v -0.416007 0.605000 -0.529564
v -0.663716 -0.145000 -1.237477
v -0.663716 0.605000 -1.237477
v -2.079541 -0.145000 -0.742059
v -2.079541 0.605000 -0.742059
v -1.123919 -0.145000 -0.281855
v -1.123919 0.605000 -0.281855
v 0.121418 -0.145000 -0.825046
v 0.121418 0.605000 -0.825046
v 0.205392 -0.145000 -1.570330
v 0.205392 0.605000 -1.570330
v -1.285177 -0.145000 -1.738277
v -1.285177 0.605000 -1.738277
v -0.623866 -0.145000 -0.909019
v -0.623866 0.605000 -0.909019
v 0.733825 -0.145000 -0.858086
v 0.733825 0.605000 -0.858086
v 1.132850 -0.145000 -1.493129
v 1.132850 0.605000 -1.493129
v -0.137236 -0.145000 -2.291177
v -0.137236 0.605000 -2.291177
v 0.098783 -0.145000 -1.257109
v 0.098783 0.605000 -1.257109
v 1.299921 -0.145000 -0.622140
v 1.299921 0.605000 -0.622140
v 1.934965 -0.145000 -1.021164
v 1.934965 0.605000 -1.021164
v 1.136916 -0.145000 -2.291251
v 1.136916 0.605000 -2.291251
v 0.900897 -0.145000 -1.257183
v 0.900897 0.605000 -1.257183
v 1.707582 -0.145000 -0.163940
v 1.707582 0.605000 -0.163940
v 2.452867 -0.145000 -0.247913
v 2.452867 0.605000 -0.247913
v 2.284921 -0.145000 -1.738482
v 2.284921 0.605000 -1.738482
v 1.623609 -0.145000 -0.909224
v 1.623609 0.605000 -0.909224
v 1.876067 -0.145000 0.425761
v 1.876067 0.605000 0.425761
v 2.583981 -0.145000 0.673471
v 2.583981 0.605000 0.673471
v 3.079400 -0.145000 -0.742355
v 3.079400 0.605000 -0.742355
v 2.123778 -0.145000 -0.282151
v 2.123778 0.605000 -0.282151
v 0.912981 0.880000 1.200241
v 0.912981 1.630000 1.200241
v 1.287981 0.880000 1.849760
v 1.287981 1.630000 1.849760
v 2.587020 0.880000 1.099760
v 2.587020 1.630000 1.099760
v 1.562500 0.880000 0.825241
v 1.562500 1.630000 0.825241
v 1.175906 0.880000 0.951710
v 1.175906 1.630000 0.951710
v 1.795585 0.880000 1.374200
v 1.795585 1.630000 1.374200
v 2.640566 0.880000 0.134842
v 2.640566 1.630000 0.134842
v 1.598396 0.880000 0.332031
v 1.598396 1.630000 0.332031
v 1.304959 0.880000 0.613712
v 1.304959 1.630000 0.613712
v 2.046582 0.880000 0.725494
v 2.046582 1.630000 0.725494
v 2.270147 0.880000 -0.757753
v 2.270147 1.630000 -0.757753
v 1.416741 0.880000 -0.127911
v 1.416741 1.630000 -0.127911
v 1.274581 0.880000 0.253192
v 1.274581 1.630000 0.253192
v 1.991260 0.880000 0.032126
v 1.991260 1.630000 0.032126
v 1.549127 0.880000 -1.401233
v 1.549127 1.630000 -1.401233
v 1.053514 0.880000 -0.463487
v 1.053514 1.630000 -0.463487
v 1.090787 0.880000 -0.058444
v 1.090787 1.630000 -0.058444
v 1.640576 0.880000 -0.568574
v 1.640576 1.630000 -0.568574
v 0.620316 0.880000 -1.668152
v 0.620316 1.630000 -1.668152
v 0.580657 0.880000 -0.608233
v 0.580657 1.630000 -0.608233
v 0.789980 0.880000 -0.259473
v 0.789980 1.630000 -0.259473
v 1.063986 0.880000 -0.957629
v 1.063986 1.630000 -0.957629
v -0.332326 0.880000 -1.505640
v -0.332326 1.630000 -1.505640
v 0.091825 0.880000 -0.533479
v 0.091825 1.630000 -0.533479
v 0.431739 0.880000 -0.310080
v 0.431739 1.630000 -0.310080
v 0.375692 0.880000 -1.057982
v 0.375692 1.630000 -1.057982
v -1.120114 0.880000 -0.945887
v -1.120114 1.630000 -0.945887
v -0.316163 0.880000 -0.254032
v -0.316163 1.630000 -0.254032
v 0.087019 0.880000 -0.200239
v 0.087019 1.630000 -0.200239
v -0.287981 0.880000 -0.849758
v -0.287981 1.630000 -0.849758
v -1.587020 0.880000 -0.099758
v -1.587020 1.630000 -0.099758
v -0.562500 0.880000 0.174761
v -0.562500 1.630000 0.174761
v -0.175906 0.880000 0.048292
v -0.175906 1.630000 0.048292
v -0.795585 0.880000 -0.374198
v -0.795585 1.630000 -0.374198
v -1.640566 0.880000 0.865161
v -1.640566 1.630000 0.865161
v -0.598396 0.880000 0.667971
v -0.598396 1.630000 0.667971
v -0.304960 0.880000 0.386290
v -0.304960 1.630000 0.386290
v -1.046583 0.880000 0.274509
v -1.046583 1.630000 0.274509
v -1.270146 0.880000 1.757756
v -1.270146 1.630000 1.757756
v -0.416741 0.880000 1.127913
v -0.416741 1.630000 1.127913
v -0.274581 0.880000 0.746810
v -0.274581 1.630000 0.746810
v -0.991261 0.880000 0.967877
v -0.991261 1.630000 0.967877
v -0.549127 0.880000 2.401237
v -0.549127 1.630000 2.401237
v -0.053514 0.880000 1.463489
v -0.053514 1.630000 1.463489
v -0.090787 0.880000 1.058446
v -0.090787 1.630000 1.058446
v -0.640576 0.880000 1.568576
v -0.640576 1.630000 1.568576
v 0.379684 0.880000 2.668154
v 0.379684 1.630000 2.668154
v 0.419343 0.880000 1.608235
v 0.419343 1.630000 1.608235
v 0.210020 0.880000 1.259476
v 0.210020 1.630000 1.259476
v -0.063986 0.880000 1.957631
v -0.063986 1.630000 1.957631
v 1.332326 0.880000 2.505642
v 1.332326 1.630000 2.505642
v 0.908175 0.880000 1.533481
v 0.908175 1.630000 1.533481
v 0.568260 0.880000 1.310082
v 0.568260 1.630000 1.310082
v 0.624308 0.880000 2.057985
v 0.624308 1.630000 2.057985
v 2.120115 0.880000 1.945890
v 2.120115 1.630000 1.945890
v 1.316163 0.880000 1.254034
v 1.316163 1.630000 1.254034
vn 0.0878 0.4455 -0.8910
vn 0.2599 0.4455 -0.8567
vn 0.4220 0.4455 -0.7896
vn 0.5680 0.4455 -0.6921
vn 0.6921 0.4455 -0.5680
vn 0.7896 0.4455 -0.4220
vn 0.8567 0.4455 -0.2599
vn 0.8910 0.4455 -0.0878
vn 0.8910 0.4455 0.0878
vn 0.8567 0.4455 0.2599
vn 0.7896 0.4455 0.4220
vn 0.6921 0.4455 0.5680
vn 0.5680 0.4455 0.6921
vn 0.4220 0.4455 0.7896
vn 0.2599 0.4455 0.8567
vn 0.0878 0.4455 0.8910
vn -0.0878 0.4455 0.8910
vn -0.2599 0.4455 0.8567
vn -0.4220 0.4455 0.7896
vn -0.5680 0.4455 0.6921
vn -0.6921 0.4455 0.5680
vn -0.7896 0.4455 0.4220
vn -0.8567 0.4455 0.2599
vn -0.8910 0.4455 0.0878
vn -0.8910 0.4455 -0.0878
vn -0.8567 0.4455 -0.2599
vn -0.7896 0.4455 -0.4220
vn -0.6921 0.4455 -0.5680
vn -0.5680 0.4455 -0.6921
vn -0.4220 0.4455 -0.7896
vn -0.0000 1.0000 -0.0000
vn -0.2599 0.4455 -0.8567
vn -0.0878 0.4455 -0.8910
vn -0.0000 -1.0000 -0.0000
vn -0.7071 -0.0000 -0.7071
vn 0.7071 -0.0000 0.7071
vn -0.7071 -0.0000 0.7071
vn -0.0000 -0.0000 -1.0000
vn -0.3303 -0.0000 -0.9439
vn 0.3303 -0.0000 0.9439
vn -0.9439 -0.0000 0.3303
vn 0.4339 -0.0000 -0.9010
vn 0.1120 -0.0000 -0.9937
vn -0.1120 -0.0000 0.9937
vn -0.9937 -0.0000 -0.1120
vn 0.7818 -0.0000 -0.6235
vn 0.5320 -0.0000 -0.8467
vn -0.5320 -0.0000 0.8467
vn -0.8467 -0.0000 -0.5320
vn 0.9749 -0.0000 -0.2225
vn 0.8467 -0.0000 -0.5320
vn -0.8467 -0.0000 0.5320
vn -0.5320 -0.0000 -0.8467
vn 0.9749 -0.0000 0.2225
vn 0.9937 -0.0000 -0.1120
vn -0.9937 -0.0000 0.1120
vn -0.1120 -0.0000 -0.9937
vn 0.7818 -0.0000 0.6235
vn 0.9439 -0.0000 0.3303
vn -0.9439 -0.0000 -0.3303
vn 0.3303 -0.0000 -0.9439
vn 0.4339 -0.0000 0.9010
vn 0.7071 -0.0000 -0.7071
vn -0.0000 -0.0000 1.0000
vn 0.9439 -0.0000 -0.3303
vn -0.4339 -0.0000 0.9010
vn 0.9937 -0.0000 0.1120
vn -0.7818 -0.0000 0.6235
vn 0.8467 -0.0000 0.5320
vn -0.9749 -0.0000 0.2225
vn 0.5320 -0.0000 0.8467
vn -0.9749 -0.0000 -0.2225
vn 0.1120 -0.0000 0.9937
vn -0.7818 -0.0000 -0.6235
vn -0.3303 -0.0000 0.9439
vn -0.4339 -0.0000 -0.9010
vn -0.5000 -0.0000 -0.8660
vn 0.5000 -0.0000 0.8660
vn -0.8660 -0.0000 0.5000
vn 0.2588 -0.0000 -0.9659
vn -0.8262 -0.0000 -0.5633
vn 0.8262 -0.0000 0.5633
vn -0.5633 -0.0000 0.8262
vn -0.1859 -0.0000 -0.9826
vn -0.9888 -0.0000 -0.1490
vn 0.9888 -0.0000 0.1490
vn -0.1490 -0.0000 0.9888
vn -0.5938 -0.0000 -0.8046
vn -0.9556 -0.0000 0.2948
vn 0.9556 -0.0000 -0.2948
vn 0.2948 -0.0000 0.9556
vn -0.8841 -0.0000 -0.4673
vn -0.7331 -0.0000 0.6802
vn 0.7331 -0.0000 -0.6802
vn 0.6802 -0.0000 0.7331
vn -0.9993 -0.0000 -0.0374
vn -0.3653 -0.0000 0.9309
vn 0.3653 -0.0000 -0.9309
vn 0.9309 -0.0000 0.3653
vn -0.9166 -0.0000 0.3999
vn 0.0747 -0.0000 0.9972
vn -0.0747 -0.0000 -0.9972
vn 0.9972 -0.0000 -0.0747
vn -0.6523 -0.0000 0.7580
vn 0.8660 -0.0000 -0.5000
vn -0.2588 -0.0000 0.9659
vn 0.5633 -0.0000 -0.8262
vn 0.1859 -0.0000 0.9826
vn 0.1490 -0.0000 -0.9888
vn 0.5938 -0.0000 0.8046
vn -0.2948 -0.0000 -0.9556
vn 0.8841 -0.0000 0.4673
vn -0.6802 -0.0000 -0.7331
vn 0.9993 -0.0000 0.0374
vn -0.9309 -0.0000 -0.3653
vn 0.9166 -0.0000 -0.3999
vn -0.9972 -0.0000 0.0747
vn 0.6523 -0.0000 -0.7580
vt 0.325752 0.244210
vt 0.325498 0.000947
vt 0.339614 0.000885
vt 0.349278 0.244106
vt 0.353168 0.000701
vt 0.371868 0.243800
vt 0.365640 0.000402
vt 0.392655 0.243301
vt 0.376551 0.000000
vt 0.410840 0.242631
vt 0.240185 0.486877
vt 0.275597 0.244210
vt 0.286026 0.244626
vt 0.257566 0.487571
vt 0.298132 0.244936
vt 0.277743 0.488087
vt 0.311451 0.245126
vt 0.299941 0.488404
vt 0.325471 0.245190
vt 0.323308 0.488512
vt 0.339654 0.245126
vt 0.346946 0.488404
vt 0.353453 0.244936
vt 0.369945 0.488087
vt 0.366340 0.244626
vt 0.391422 0.487571
vt 0.377818 0.244210
vt 0.410553 0.486877
vt 0.410553 0.486762
vt 0.446932 0.244210
vt 0.456946 0.244582
vt 0.427242 0.487383
vt 0.468730 0.244859
vt 0.446882 0.487844
vt 0.481831 0.245029
vt 0.468717 0.488128
vt 0.495745 0.245087
vt 0.491908 0.488224
vt 0.509939 0.245029
vt 0.515564 0.488128
vt 0.523866 0.244859
vt 0.538775 0.487844
vt 0.536991 0.244582
vt 0.560651 0.487383
vt 0.548810 0.244210
vt 0.580350 0.486762
vt 0.000000 0.482853
vt 0.035412 0.240185
vt 0.045840 0.240602
vt 0.017380 0.483547
vt 0.057947 0.240911
vt 0.037558 0.484062
vt 0.071266 0.241101
vt 0.059756 0.484380
vt 0.085286 0.241166
vt 0.083123 0.484487
vt 0.099468 0.241101
vt 0.106760 0.484380
vt 0.113268 0.240911
vt 0.129760 0.484062
vt 0.126154 0.240602
vt 0.151237 0.483547
vt 0.137633 0.240185
vt 0.170367 0.482853
vt 0.240185 0.242631
vt 0.274158 0.000000
vt 0.285191 0.000402
vt 0.258573 0.243301
vt 0.297753 0.000701
vt 0.279511 0.243800
vt 0.436962 0.128025
vt 0.426926 0.117988
vt 0.419040 0.106187
vt 0.413609 0.093073
vt 0.410840 0.079152
vt 0.410840 0.064959
vt 0.413609 0.051038
vt 0.419040 0.037924
vt 0.426926 0.026123
vt 0.436962 0.016086
vt 0.448764 0.008201
vt 0.461877 0.002769
vt 0.475798 -0.000000
vt 0.489992 -0.000000
vt 0.503913 0.002769
vt 0.517026 0.008201
vt 0.528828 0.016086
vt 0.538864 0.026123
vt 0.546750 0.037924
vt 0.552182 0.051038
vt 0.554951 0.064959
vt 0.554951 0.079152
vt 0.552182 0.093073
vt 0.546750 0.106187
vt 0.538864 0.117988
vt 0.528828 0.128025
vt 0.517026 0.135910
vt 0.503913 0.141342
vt 0.489992 0.144111
vt 0.475798 0.144111
vt 0.461877 0.141342
vt 0.448764 0.135910
vt 0.311364 0.000885
vt 0.302195 0.244106
vt 0.026811 0.196647
vt 0.013668 0.176978
vt 0.004615 0.155122
vt 0.000000 0.131921
vt 0.000000 0.108265
vt 0.004615 0.085063
vt 0.013668 0.063207
vt 0.026811 0.043538
vt 0.043538 0.026811
vt 0.063207 0.013668
vt 0.085063 0.004615
vt 0.108265 0.000000
vt 0.131921 0.000000
vt 0.155122 0.004615
vt 0.176978 0.013668
vt 0.196647 0.026811
vt 0.213375 0.043538
vt 0.226517 0.063207
vt 0.235570 0.085063
vt 0.240185 0.108265
vt 0.240185 0.131921
vt 0.235570 0.155122
vt 0.226517 0.176978
vt 0.213375 0.196647
vt 0.196647 0.213375
vt 0.176978 0.226517
vt 0.155122 0.235570
vt 0.131921 0.240185
vt 0.108265 0.240185
vt 0.085063 0.235570
vt 0.063207 0.226517
vt 0.043538 0.213375
vt 0.966866 0.835714
vt 0.966866 0.745305
vt 0.993916 0.744195
vt 0.993916 0.834604
vt 0.696203 0.763952
vt 0.696203 0.673543
vt 0.750304 0.671322
vt 0.750304 0.761731
vt 0.606951 0.945245
vt 0.606951 0.854816
vt 0.634991 0.853874
vt 0.634991 0.944302
vt 0.197044 0.994468
vt 0.160842 0.958266
vt 0.160842 0.922064
vt 0.197044 0.922064
vt 0.988745 0.279451
vt 0.952543 0.315653
vt 0.952543 0.243249
vt 0.988745 0.243249
vt 0.767378 0.578639
vt 0.716182 0.578655
vt 0.716182 0.488240
vt 0.767378 0.488224
vt 0.410553 0.579122
vt 0.410553 0.488707
vt 0.444804 0.489230
vt 0.444804 0.579645
vt 0.656590 0.334613
vt 0.656590 0.244184
vt 0.722184 0.245446
vt 0.722184 0.335875
vt 0.642101 0.854361
vt 0.642101 0.763952
vt 0.675515 0.764595
vt 0.675515 0.855004
vt 0.036202 0.994744
vt -0.000000 0.958542
vt 0.000000 0.922340
vt 0.036202 0.922340
vt 0.786506 0.961628
vt 0.750304 0.997830
vt 0.750304 0.925426
vt 0.786506 0.925426
vt 0.490779 0.578639
vt 0.490779 0.488224
vt 0.813951 0.333856
vt 0.813951 0.243441
vt 0.849897 0.243249
vt 0.849897 0.333664
vt 0.000000 0.666339
vt 0.000000 0.575911
vt 0.072399 0.575876
vt 0.072399 0.666305
vt 0.813028 0.578723
vt 0.813028 0.488314
vt 0.849177 0.488224
vt 0.849177 0.578633
vt 0.952226 0.144111
vt 0.988428 0.180313
vt 0.988428 0.216515
vt 0.952226 0.216515
vt 0.952365 0.524426
vt 0.988567 0.488224
vt 0.988567 0.560629
vt 0.952365 0.560629
vt 0.848213 0.091988
vt 0.810119 0.090409
vt 0.810119 0.000000
vt 0.848213 0.001579
vt 0.849300 0.235396
vt 0.849300 0.144981
vt 0.879822 0.144111
vt 0.879822 0.234526
vt 0.000000 0.758092
vt 0.000000 0.667663
vt 0.064865 0.666339
vt 0.064865 0.756768
vt 0.837561 0.762536
vt 0.837561 0.672127
vt 0.869288 0.671322
vt 0.869288 0.761731
vt 0.526540 0.925591
vt 0.562742 0.961793
vt 0.562742 0.997995
vt 0.526540 0.997995
vt 0.409549 0.961982
vt 0.445751 0.925780
vt 0.445751 0.998184
vt 0.409549 0.998184
vt 0.799467 0.762391
vt 0.750304 0.761731
vt 0.750304 0.671322
vt 0.799467 0.671982
vt 0.240185 0.578920
vt 0.240185 0.488512
vt 0.269661 0.489482
vt 0.269661 0.579890
vt 0.320155 0.761196
vt 0.320155 0.670787
vt 0.379106 0.672728
vt 0.379106 0.763136
vt 0.849177 0.578639
vt 0.849177 0.488224
vt 0.879961 0.489075
vt 0.879961 0.579490
vt 0.953618 0.335875
vt 0.989820 0.372077
vt 0.989820 0.408279
vt 0.953618 0.408279
vt 0.953618 0.444481
vt 0.989820 0.408279
vt 0.989820 0.480683
vt 0.953618 0.480683
vt 0.320155 0.579500
vt 0.320155 0.489091
vt 0.160992 0.575975
vt 0.160992 0.485566
vt 0.196668 0.485850
vt 0.196668 0.576259
vt 0.320155 0.670220
vt 0.320155 0.579811
vt 0.391507 0.580378
vt 0.391507 0.670787
vt 0.197044 0.849514
vt 0.197044 0.759099
vt 0.233045 0.759269
vt 0.233045 0.849684
vt 0.900891 0.854645
vt 0.937093 0.890847
vt 0.937093 0.927049
vt 0.900891 0.927049
vt 0.941692 0.707524
vt 0.977894 0.671322
vt 0.977894 0.743726
vt 0.941692 0.743726
vt 0.238493 0.574896
vt 0.238493 0.484487
vt 0.570749 0.853874
vt 0.570749 0.763465
vt 0.605560 0.763006
vt 0.605560 0.853415
vt 0.170367 0.422745
vt 0.170367 0.332336
vt 0.239989 0.331418
vt 0.239989 0.421827
vt 0.240185 0.854197
vt 0.240185 0.763782
vt 0.274274 0.763237
vt 0.274274 0.853652
vt 0.570749 0.853874
vt 0.606951 0.890076
vt 0.606951 0.926278
vt 0.570749 0.926278
vt 0.318618 0.890220
vt 0.354820 0.854017
vt 0.354820 0.926422
vt 0.318618 0.926422
vt 0.815091 0.427403
vt 0.771428 0.426303
vt 0.771428 0.335875
vt 0.815091 0.336975
vt 0.681811 0.946480
vt 0.681811 0.856071
vt 0.708862 0.854961
vt 0.708862 0.945369
vt 0.642101 0.763952
vt 0.642101 0.673543
vt 0.696203 0.671322
vt 0.696203 0.761731
vt 0.135348 0.758077
vt 0.135348 0.667662
vt 0.160772 0.666511
vt 0.160772 0.756926
vt 0.905490 0.671322
vt 0.941692 0.707524
vt 0.941692 0.743726
vt 0.905490 0.743726
vt 0.916163 0.524426
vt 0.952365 0.488224
vt 0.952365 0.560629
vt 0.916163 0.560629
vt 0.767599 0.234751
vt 0.716660 0.234540
vt 0.716660 0.144111
vt 0.767599 0.144323
vt 0.410840 0.234628
vt 0.410840 0.144199
vt 0.443637 0.144830
vt 0.443637 0.235259
vt 0.642101 0.670275
vt 0.642101 0.579860
vt 0.710603 0.580907
vt 0.710603 0.671322
vt 0.799467 0.853719
vt 0.799467 0.763310
vt 0.832881 0.763953
vt 0.832881 0.854362
vt 0.864689 0.854645
vt 0.900891 0.890847
vt 0.900891 0.927049
vt 0.864689 0.927049
vt 0.642101 0.891206
vt 0.678303 0.855004
vt 0.678303 0.927408
vt 0.642101 0.927408
vt 0.491762 0.234540
vt 0.491762 0.144111
vt 0.808067 0.670306
vt 0.808067 0.579877
vt 0.844266 0.579860
vt 0.844266 0.670289
vt 0.410553 0.670444
vt 0.410553 0.580029
vt 0.482445 0.579645
vt 0.482445 0.670060
vt 0.108558 0.849022
vt 0.108558 0.758613
vt 0.144708 0.758524
vt 0.144708 0.848933
vt 0.952543 0.315653
vt 0.916340 0.279451
vt 0.916340 0.243249
vt 0.952543 0.243249
vt 0.745064 0.891245
vt 0.708862 0.927447
vt 0.708862 0.855043
vt 0.745064 0.855043
vt 0.837561 0.763310
vt 0.799467 0.761731
vt 0.799467 0.671322
vt 0.837561 0.672901
vt 0.708862 0.855043
vt 0.708862 0.764614
vt 0.741295 0.763952
vt 0.741295 0.854381
vt 0.410553 0.762598
vt 0.410553 0.672184
vt 0.471596 0.670444
vt 0.471596 0.760859
vt 0.844266 0.671074
vt 0.844266 0.580665
vt 0.875992 0.579860
vt 0.875992 0.670269
vt 0.233246 0.922088
vt 0.197044 0.885886
vt 0.197044 0.849684
vt 0.233246 0.849684
vt 0.930664 0.799512
vt 0.894462 0.835714
vt 0.894462 0.763310
vt 0.930664 0.763310
vt 0.771428 0.426943
vt 0.722265 0.426283
vt 0.722265 0.335875
vt 0.771428 0.336534
vt 0.490779 0.578633
vt 0.520255 0.489195
vt 0.520255 0.579603
vt 0.702073 0.090409
vt 0.702073 0.000000
vt 0.761024 0.001940
vt 0.761024 0.092349
vt 0.037932 0.939448
vt 0.037932 0.849019
vt 0.066496 0.849934
vt 0.066496 0.940363
vt 0.391022 0.926468
vt 0.354820 0.890266
vt 0.354820 0.854064
vt 0.391022 0.854064
vt 0.274274 0.890399
vt 0.238072 0.926601
vt 0.238072 0.854197
vt 0.274274 0.854197
vt 0.570749 0.579213
vt 0.570749 0.488804
vt 0.554951 0.091488
vt 0.554951 0.001079
vt 0.590627 0.001363
vt 0.590627 0.091772
vt 0.570749 0.670269
vt 0.570749 0.579860
vt 0.642101 0.580428
vt 0.642101 0.670836
vt 0.526539 0.852872
vt 0.526539 0.762443
vt 0.561925 0.762758
vt 0.561925 0.853186
vt 0.310476 0.926657
vt 0.274274 0.890455
vt 0.274274 0.854253
vt 0.310476 0.854253
vt 0.036202 0.886137
vt 0.000000 0.922339
vt 0.000000 0.849935
vt 0.036202 0.849935
vt 0.632451 0.090409
vt 0.632451 0.000000
vt 0.605560 0.853874
vt 0.605560 0.763465
vt 0.640370 0.763006
vt 0.640370 0.853415
vt 0.632451 0.091326
vt 0.632451 0.000918
vt 0.702073 -0.000000
vt 0.702073 0.090409
vt 0.410553 0.853375
vt 0.410553 0.762947
vt 0.445751 0.762599
vt 0.445751 0.853027
vt 0.786506 0.925426
vt 0.750304 0.889224
vt 0.750304 0.853021
vt 0.786506 0.853021
vt 0.481953 0.889631
vt 0.445751 0.925834
vt 0.445751 0.853429
vt 0.481953 0.853429
vt 0.808067 0.671253
vt 0.761789 0.670275
vt 0.761789 0.579860
vt 0.808067 0.580838
vt 0.491762 0.234526
vt 0.491762 0.144111
vt 0.523236 0.144910
vt 0.523236 0.235325
vt 0.570749 0.761265
vt 0.570749 0.670836
vt 0.629500 0.672578
vt 0.629500 0.763006
vt 0.849898 0.333658
vt 0.849898 0.243249
vt 0.880138 0.244168
vt 0.880138 0.334576
vt 0.526539 0.997918
vt 0.490337 0.961716
vt 0.490337 0.925514
vt 0.526539 0.925514
vt 0.233246 0.958290
vt 0.197044 0.994492
vt 0.197044 0.922088
vt 0.233246 0.922088
vt 0.572598 0.234718
vt 0.572598 0.144303
vt 0.848213 0.091268
vt 0.848213 0.000859
vt 0.879265 0.000000
vt 0.879265 0.090409
vt 0.490779 0.762443
vt 0.490779 0.672034
vt 0.552883 0.670316
vt 0.552883 0.760725
vt 0.832881 0.854450
vt 0.832881 0.764021
vt 0.864689 0.763310
vt 0.864689 0.853738
vt 0.144760 0.993831
vt 0.108558 0.957629
vt 0.108558 0.921427
vt 0.144760 0.921427
vt 0.108558 0.957632
vt 0.072356 0.993834
vt 0.072356 0.921430
vt 0.108558 0.921430
vt 0.772552 0.335009
vt 0.722184 0.334599
vt 0.722184 0.244184
vt 0.772552 0.244594
vt 0.813248 0.234672
vt 0.813248 0.144263
vt 0.849300 0.144111
vt 0.849300 0.234520
vt 0.490779 0.670316
vt 0.490779 0.579907
vt 0.562883 0.579603
vt 0.562883 0.670012
vt 0.072399 0.849025
vt 0.072399 0.758597
vt 0.108558 0.758524
vt 0.108558 0.848952
vt 0.953618 0.480683
vt 0.917415 0.444481
vt 0.917415 0.408279
vt 0.953618 0.408279
vt 0.966866 0.799512
vt 0.930664 0.835714
vt 0.930664 0.763310
vt 0.966866 0.763310
vt 0.813951 0.335009
vt 0.772552 0.333664
vt 0.772552 0.243249
vt 0.813951 0.244594
vt 0.080496 0.575291
vt 0.080496 0.484882
vt 0.114407 0.485467
vt 0.114407 0.575876
vt 0.648838 0.234520
vt 0.648838 0.144111
vt 0.716660 0.145281
vt 0.716660 0.235690
vt 0.675515 0.854381
vt 0.675515 0.763952
vt 0.708862 0.764532
vt 0.917415 0.372077
vt 0.917415 0.335875
vt 0.953618 0.335875
vt 0.973295 0.890847
vt 0.937093 0.927049
vt 0.937093 0.854645
vt 0.973295 0.854645
vt 0.160992 0.574896
vt 0.160992 0.484487
vt 0.832881 0.945863
vt 0.832881 0.855435
vt 0.860045 0.854450
vt 0.860045 0.944878
vt 0.572598 0.234520
vt 0.572598 0.144111
vt 0.622706 0.146524
vt 0.622706 0.236932
vt 0.648838 0.145367
vt 0.648838 0.235776
vt 0.984599 0.652264
vt 0.948397 0.616062
vt 0.948397 0.579860
vt 0.984599 0.579860
vt 0.987872 0.036202
vt 0.951669 0.072404
vt 0.951669 -0.000000
vt 0.987872 -0.000000
vt 0.761790 0.670318
vt 0.710603 0.670269
vt 0.710603 0.579860
vt 0.761790 0.579910
vt 0.445751 0.853429
vt 0.445751 0.763001
vt 0.480609 0.762598
vt 0.480609 0.853027
vt 0.655047 0.427492
vt 0.655047 0.337077
vt 0.722265 0.335875
vt 0.722265 0.426290
vt 0.354820 0.854064
vt 0.354820 0.763655
vt 0.389235 0.763136
vt 0.389235 0.853545
vt 0.948397 0.652264
vt 0.912195 0.616062
vt 0.912195 0.579860
vt 0.948397 0.579860
vt 0.951669 0.036202
vt 0.915467 0.072404
vt 0.915467 -0.000000
vt 0.951669 0.000000
vt 0.813248 0.235590
vt 0.767599 0.234520
vt 0.767599 0.144111
vt 0.813248 0.145181
vt 0.570749 0.579600
vt 0.570749 0.489171
vt 0.606396 0.489431
vt 0.606396 0.579860
vt 0.072399 0.666291
vt 0.072399 0.575876
vt 0.144636 0.576096
vt 0.144636 0.666511
vt 0.750304 0.852799
vt 0.750304 0.762391
vt 0.786185 0.762613
vt 0.786185 0.853021
vt 0.796678 0.854362
vt 0.832881 0.890564
vt 0.832881 0.926766
vt 0.796678 0.926766
vt 0.916024 0.180313
vt 0.952226 0.144111
vt 0.952226 0.216515
vt 0.916024 0.216515
vt 0.648359 0.578653
vt 0.648359 0.488224
vt 0.320155 0.578940
vt 0.320155 0.488512
vt 0.349531 0.489382
vt 0.349531 0.579811
vt 0.072399 0.756926
vt 0.072399 0.666511
vt 0.135348 0.668109
vt 0.135348 0.758524
vt 0.850972 0.426283
vt 0.850972 0.335875
vt 0.881213 0.336793
vt 0.881213 0.427202
vt 0.490337 0.853110
vt 0.526540 0.889312
vt 0.526540 0.925514
vt 0.490337 0.925514
vt 0.526539 0.889389
vt 0.562742 0.853186
vt 0.562742 0.925591
vt 0.526539 0.925591
vt 0.400064 0.579473
vt 0.400064 0.489044
vt 0.379106 0.762055
vt 0.379106 0.671646
vt 0.410158 0.670787
vt 0.410158 0.761196
vt 0.160992 0.759099
vt 0.160992 0.668690
vt 0.223096 0.666972
vt 0.223096 0.757380
vt 0.864689 0.854645
vt 0.864689 0.764230
vt 0.894461 0.763310
vt 0.894461 0.853725
vt 0.409549 0.853375
vt 0.445751 0.889578
vt 0.409549 0.925780
vt 0.072356 0.885227
vt 0.108558 0.849025
vt 0.108558 0.921430
vt 0.072356 0.921430
vt 0.810119 0.091026
vt 0.761024 0.090429
vt 0.761024 0.000000
vt 0.810119 0.000598
vt 0.160992 0.849660
vt 0.160992 0.759251
vt 0.197044 0.759099
vt 0.197044 0.849507
vt 0.160992 0.666972
vt 0.160992 0.576563
vt 0.233096 0.576259
vt 0.233096 0.666668
vt 0.490779 0.853110
vt 0.490779 0.762695
vt 0.526539 0.852858
vt 0.108558 0.849022
vt 0.144760 0.885224
vt 0.144760 0.921426
vt 0.108558 0.921426
vt 0.160842 0.885862
vt 0.197044 0.849659
vt 0.197044 0.922064
vt 0.160842 0.922064
vt 0.037932 0.849935
vt 0.000000 0.848520
vt 0.037932 0.759507
vt 0.000000 0.575291
vt 0.000000 0.484882
vt 0.033911 0.485467
vt 0.033911 0.575876
vt 0.648359 0.578633
vt 0.648359 0.488224
vt 0.716182 0.489394
vt 0.716182 0.579803
vt 0.320155 0.853551
vt 0.320155 0.763136
vt 0.354820 0.763603
vt 0.875992 0.579860
vt 0.912195 0.616062
vt 0.912195 0.652264
vt 0.875992 0.652264
vt 0.881213 0.372077
vt 0.917415 0.335875
vt 0.917415 0.408279
vt 0.881213 0.408279
vt 0.080496 0.574896
vt 0.080496 0.484487
vt 0.580350 0.334619
vt 0.580350 0.244210
vt 0.605404 0.245416
vt 0.605404 0.335825
vt 0.240185 0.763237
vt 0.240185 0.672809
vt 0.294514 0.670839
vt 0.294514 0.761268
vt 0.973295 0.945060
vt 0.973295 0.854645
vt 1.000000 0.855737
vt 1.000000 0.946151
vt 0.879265 -0.000000
vt 0.915467 0.036202
vt 0.915467 0.072404
vt 0.879265 0.072404
vt 0.881213 0.444481
vt 0.917415 0.408279
vt 0.917415 0.480683
vt 0.881213 0.480683
vt 0.656590 0.335875
vt 0.656590 0.245466
vt 0.274274 0.854253
vt 0.274274 0.763838
vt 0.307883 0.763237
vt 0.307883 0.853652
vt 0.170367 0.331418
vt 0.170367 0.240990
vt 0.240082 0.240185
vt 0.240082 0.330614
vt 0.037932 0.849019
vt 0.037932 0.758610
vt 0.072347 0.758092
vt 0.072347 0.848500
vt 0.869288 0.671322
vt 0.905490 0.707524
vt 0.905490 0.743727
vt 0.869288 0.743727
vt 0.879822 0.180313
vt 0.916024 0.144111
vt 0.916024 0.216515
vt 0.879822 0.216515
vt 0.813028 0.579703
vt 0.767378 0.578633
vt 0.767378 0.488224
vt 0.813028 0.489294
vt 0.580350 0.427683
vt 0.580350 0.337268
vt 0.616468 0.337378
vt 0.616468 0.427793
vt 0.240185 0.670319
vt 0.240185 0.579891
vt 0.311479 0.580410
vt 0.311479 0.670839
vt 0.815091 0.426283
vt 0.815091 0.335875
vt 0.850973 0.336097
vt 0.850973 0.426505
vt 0.916163 0.560629
vt 0.879961 0.524426
vt 0.879961 0.488224
vt 0.916163 0.488224
vt 0.916340 0.279451
vt 0.880138 0.315653
vt 0.880138 0.243249
vt 0.916340 0.243249
vt 0.655047 0.426290
vt 0.655047 0.335875
s 0
usemtl body
f 1/1/1 2/2/1 4/3/1 3/4/1
f 3/4/2 4/3/2 6/5/2 5/6/2
f 5/6/3 6/5/3 8/7/3 7/8/3
f 7/8/4 8/7/4 10/9/4 9/10/4
f 9/11/5 10/12/5 12/13/5 11/14/5
f 11/14/6 12/13/6 14/15/6 13/16/6
f 13/16/7 14/15/7 16/17/7 15/18/7
f 15/18/8 16/17/8 18/19/8 17/20/8
f 17/20/9 18/19/9 20/21/9 19/22/9
f 19/22/10 20/21/10 22/23/10 21/24/10
f 21/24/11 22/23/11 24/25/11 23/26/11
f 23/26/12 24/25/12 26/27/12 25/28/12
f 25/29/13 26/30/13 28/31/13 27/32/13
f 27/32/14 28/31/14 30/33/14 29/34/14
f 29/34/15 30/33/15 32/35/15 31/36/15
f 31/36/16 32/35/16 34/37/16 33/38/16
f 33/38/17 34/37/17 36/39/17 35/40/17
f 35/40/18 36/39/18 38/41/18 37/42/18
f 37/42/19 38/41/19 40/43/19 39/44/19
f 39/44/20 40/43/20 42/45/20 41/46/20
f 41/47/21 42/48/21 44/49/21 43/50/21
f 43/50/22 44/49/22 46/51/22 45/52/22
f 45/52/23 46/51/23 48/53/23 47/54/23
f 47/54/24 48/53/24 50/55/24 49/56/24
f 49/56/25 50/55/25 52/57/25 51/58/25
f 51/58/26 52/57/26 54/59/26 53/60/26
f 53/60/27 54/59/27 56/61/27 55/62/27
f 55/62/28 56/61/28 58/63/28 57/64/28
f 57/65/29 58/66/29 60/67/29 59/68/29
f 59/68/30 60/67/30 62/69/30 61/70/30
f 4/71/31 2/72/31 64/73/31
f 4/71/31 64/73/31 62/74/31
f 4/71/31 62/74/31 60/75/31
f 4/71/31 60/75/31 58/76/31
f 4/71/31 58/76/31 56/77/31
f 4/71/31 56/77/31 54/78/31
f 4/71/31 54/78/31 52/79/31
f 4/71/31 52/79/31 50/80/31
f 4/71/31 50/80/31 48/81/31
f 4/71/31 48/81/31 46/82/31
f 4/71/31 46/82/31 44/83/31
f 4/71/31 44/83/31 42/84/31
f 4/71/31 42/84/31 40/85/31
f 4/71/31 40/85/31 38/86/31
f 4/71/31 38/86/31 36/87/31
f 4/71/31 36/87/31 34/88/31
f 4/71/31 34/88/31 32/89/31
f 4/71/31 32/89/31 30/90/31
f 4/71/31 30/90/31 28/91/31
f 4/71/31 28/91/31 26/92/31
f 4/71/31 26/92/31 24/93/31
f 4/71/31 24/93/31 22/94/31
f 4/71/31 22/94/31 20/95/31
f 4/71/31 20/95/31 18/96/31
f 4/71/31 18/96/31 16/97/31
f 4/71/31 16/97/31 14/98/31
f 4/71/31 14/98/31 12/99/31
f 4/71/31 12/99/31 10/100/31
f 4/71/31 10/100/31 8/101/31
f 4/71/31 8/101/31 6/102/31
f 61/70/32 62/69/32 64/103/32 63/104/32
f 63/104/33 64/103/33 2/2/33 1/1/33
f 1/105/34 3/106/34 5/107/34
f 1/105/34 5/107/34 7/108/34
f 1/105/34 7/108/34 9/109/34
f 1/105/34 9/109/34 11/110/34
f 1/105/34 11/110/34 13/111/34
f 1/105/34 13/111/34 15/112/34
f 1/105/34 15/112/34 17/113/34
f 1/105/34 17/113/34 19/114/34
f 1/105/34 19/114/34 21/115/34
f 1/105/34 21/115/34 23/116/34
f 1/105/34 23/116/34 25/117/34
f 1/105/34 25/117/34 27/118/34
f 1/105/34 27/118/34 29/119/34
f 1/105/34 29/119/34 31/120/34
f 1/105/34 31/120/34 33/121/34
f 1/105/34 33/121/34 35/122/34
f 1/105/34 35/122/34 37/123/34
f 1/105/34 37/123/34 39/124/34
f 1/105/34 39/124/34 41/125/34
f 1/105/34 41/125/34 43/126/34
f 1/105/34 43/126/34 45/127/34
f 1/105/34 45/127/34 47/128/34
f 1/105/34 47/128/34 49/129/34
f 1/105/34 49/129/34 51/130/34
f 1/105/34 51/130/34 53/131/34
f 1/105/34 53/131/34 55/132/34
f 1/105/34 55/132/34 57/133/34
f 1/105/34 57/133/34 59/134/34
f 1/105/34 59/134/34 61/135/34
f 1/105/34 61/135/34 63/136/34
usemtl cutter
f 65/137/35 66/138/35 72/139/35 71/140/35
f 69/141/36 70/142/36 68/143/36 67/144/36
f 67/145/37 68/146/37 66/147/37 65/148/37
f 70/149/31 72/150/31 66/151/31 68/152/31
f 71/153/34 69/154/34 67/155/34 65/156/34
f 69/157/38 71/158/38 72/159/38 70/160/38
f 73/161/39 74/162/39 80/163/39 79/164/39
f 77/165/40 78/166/40 76/167/40 75/168/40
f 75/169/41 76/170/41 74/171/41 73/172/41
f 78/173/31 80/174/31 74/175/31 76/176/31
f 79/177/34 77/178/34 75/179/34 73/180/34
f 77/181/42 79/164/42 80/163/42 78/182/42
f 81/183/43 82/184/43 88/185/43 87/186/43
f 85/187/44 86/188/44 84/189/44 83/190/44
f 83/191/45 84/192/45 82/193/45 81/194/45
f 86/195/31 88/196/31 82/197/31 84/198/31
f 87/199/34 85/200/34 83/201/34 81/202/34
f 85/203/46 87/204/46 88/205/46 86/206/46
f 89/207/47 90/208/47 96/209/47 95/210/47
f 93/211/48 94/212/48 92/213/48 91/214/48
f 91/215/49 92/216/49 90/217/49 89/218/49
f 94/219/31 96/220/31 90/221/31 92/222/31
f 95/223/34 93/224/34 91/225/34 89/226/34
f 93/227/50 95/228/50 96/229/50 94/230/50
f 97/231/51 98/232/51 104/233/51 103/234/51
f 101/235/52 102/236/52 100/237/52 99/238/52
f 99/239/53 100/240/53 98/241/53 97/242/53
f 102/243/31 104/244/31 98/245/31 100/246/31
f 103/247/34 101/248/34 99/249/34 97/250/34
f 101/251/54 103/234/54 104/233/54 102/252/54
f 105/253/55 106/254/55 112/255/55 111/256/55
f 109/257/56 110/258/56 108/259/56 107/260/56
f 107/261/57 108/262/57 106/263/57 105/264/57
f 110/265/31 112/266/31 106/267/31 108/268/31
f 111/269/34 109/270/34 107/271/34 105/272/34
f 109/273/58 111/256/58 112/255/58 110/274/58
f 113/275/59 114/276/59 120/277/59 119/278/59
f 117/279/60 118/280/60 116/281/60 115/282/60
f 115/283/61 116/284/61 114/285/61 113/286/61
f 118/287/31 120/288/31 114/289/31 116/290/31
f 119/291/34 117/292/34 115/293/34 113/294/34
f 117/295/62 119/296/62 120/297/62 118/298/62
f 121/299/36 122/300/36 128/301/36 127/302/36
f 125/303/35 126/304/35 124/305/35 123/306/35
f 123/307/63 124/308/63 122/309/63 121/310/63
f 126/311/31 128/312/31 122/313/31 124/314/31
f 127/315/34 125/316/34 123/317/34 121/318/34
f 125/319/64 127/320/64 128/321/64 126/322/64
f 129/323/40 130/324/40 136/325/40 135/326/40
f 133/327/39 134/328/39 132/329/39 131/330/39
f 131/331/65 132/332/65 130/333/65 129/334/65
f 134/335/31 136/336/31 130/337/31 132/338/31
f 135/339/34 133/340/34 131/341/34 129/342/34
f 133/343/66 135/326/66 136/325/66 134/344/66
f 137/345/44 138/346/44 144/347/44 143/348/44
f 141/349/43 142/350/43 140/351/43 139/352/43
f 139/353/67 140/354/67 138/355/67 137/356/67
f 142/357/31 144/358/31 138/359/31 140/360/31
f 143/361/34 141/362/34 139/363/34 137/364/34
f 141/365/68 143/366/68 144/367/68 142/368/68
f 145/369/48 146/370/48 152/371/48 151/372/48
f 149/373/47 150/374/47 148/375/47 147/376/47
f 147/377/69 148/378/69 146/379/69 145/380/69
f 150/381/31 152/382/31 146/383/31 148/384/31
f 151/385/34 149/386/34 147/387/34 145/388/34
f 149/389/70 151/390/70 152/391/70 150/392/70
f 153/393/52 154/182/52 160/394/52 159/395/52
f 157/396/51 158/397/51 156/398/51 155/399/51
f 155/400/71 156/401/71 154/402/71 153/403/71
f 158/404/31 160/405/31 154/406/31 156/407/31
f 159/408/34 157/409/34 155/410/34 153/411/34
f 157/412/72 159/395/72 160/394/72 158/413/72
f 161/414/56 162/415/56 168/416/56 167/417/56
f 165/418/55 166/419/55 164/420/55 163/421/55
f 163/422/73 164/423/73 162/424/73 161/425/73
f 166/426/31 168/427/31 162/428/31 164/429/31
f 167/430/34 165/431/34 163/432/34 161/433/34
f 165/434/74 167/417/74 168/416/74 166/435/74
f 169/436/60 170/437/60 176/438/60 175/439/60
f 173/440/59 174/441/59 172/442/59 171/443/59
f 171/444/75 172/445/75 170/446/75 169/447/75
f 174/448/31 176/449/31 170/450/31 172/451/31
f 175/452/34 173/453/34 171/454/34 169/455/34
f 173/456/76 175/457/76 176/458/76 174/459/76
f 177/460/77 178/461/77 184/462/77 183/463/77
f 181/464/78 182/465/78 180/466/78 179/467/78
f 179/468/79 180/469/79 178/470/79 177/471/79
f 182/472/31 184/473/31 178/474/31 180/475/31
f 183/476/34 181/477/34 179/478/34 177/479/34
f 181/480/80 183/463/80 184/462/80 182/481/80
f 185/482/81 186/483/81 192/484/81 191/485/81
f 189/486/82 190/487/82 188/488/82 187/489/82
f 187/490/83 188/491/83 186/492/83 185/493/83
f 190/494/31 192/495/31 186/496/31 188/497/31
f 191/498/34 189/499/34 187/500/34 185/501/34
f 189/502/84 191/503/84 192/504/84 190/505/84
f 193/506/85 194/507/85 200/508/85 199/509/85
f 197/510/86 198/511/86 196/512/86 195/513/86
f 195/514/87 196/515/87 194/516/87 193/517/87
f 198/518/31 200/519/31 194/520/31 196/521/31
f 199/522/34 197/523/34 195/524/34 193/525/34
f 197/526/88 199/527/88 200/528/88 198/529/88
f 201/530/89 202/531/89 208/532/89 207/533/89
f 205/534/90 206/535/90 204/536/90 203/537/90
f 203/538/91 204/539/91 202/540/91 201/301/91
f 206/246/31 208/541/31 202/542/31 204/543/31
f 207/544/34 205/545/34 203/546/34 201/547/34
f 205/548/92 207/533/92 208/532/92 206/549/92
f 209/550/93 210/551/93 216/552/93 215/553/93
f 213/554/94 214/555/94 212/556/94 211/557/94
f 211/557/95 212/556/95 210/558/95 209/559/95
f 214/560/31 216/561/31 210/562/31 212/563/31
f 215/564/34 213/565/34 211/566/34 209/567/34
f 213/568/96 215/569/96 216/570/96 214/571/96
f 217/572/97 218/573/97 224/574/97 223/575/97
f 221/576/98 222/577/98 220/578/98 219/579/98
f 219/580/99 220/581/99 218/582/99 217/583/99
f 222/584/31 224/585/31 218/586/31 220/587/31
f 223/588/34 221/589/34 219/590/34 217/591/34
f 221/592/100 223/593/100 224/594/100 222/595/100
f 225/596/101 226/597/101 232/598/101 231/599/101
f 229/600/102 230/601/102 228/602/102 227/603/102
f 227/604/103 228/605/103 226/606/103 225/607/103
f 230/608/31 232/609/31 226/610/31 228/611/31
f 231/612/34 229/613/34 227/614/34 225/615/34
f 229/616/104 231/599/104 232/598/104 230/617/104
f 233/618/78 234/619/78 240/620/78 239/621/78
f 237/622/77 238/623/77 236/624/77 235/625/77
f 235/626/105 236/627/105 234/628/105 233/629/105
f 238/630/31 240/631/31 234/632/31 236/633/31
f 239/634/34 237/635/34 235/636/34 233/637/34
f 237/638/106 239/621/106 240/620/106 238/639/106
f 241/640/82 242/641/82 248/642/82 247/643/82
f 245/644/81 246/645/81 244/646/81 243/647/81
f 243/648/107 244/649/107 242/650/107 241/651/107
f 246/652/31 248/653/31 242/224/31 244/654/31
f 247/655/34 245/656/34 243/657/34 241/658/34
f 245/659/108 247/660/108 248/661/108 246/662/108
f 249/663/86 250/664/86 256/665/86 255/666/86
f 253/667/85 254/668/85 252/669/85 251/670/85
f 251/671/109 252/672/109 250/423/109 249/673/109
f 254/674/31 256/675/31 250/676/31 252/677/31
f 255/678/34 253/679/34 251/680/34 249/681/34
f 253/682/110 255/683/110 256/211/110 254/684/110
f 257/685/90 258/686/90 264/687/90 263/688/90
f 261/689/89 262/690/89 260/691/89 259/692/89
f 259/693/111 260/694/111 258/695/111 257/292/111
f 262/696/31 264/697/31 258/698/31 260/699/31
f 263/700/34 261/701/34 259/702/34 257/703/34
f 261/704/112 263/688/112 264/687/112 262/705/112
f 265/706/94 266/707/94 272/708/94 271/709/94
f 269/710/93 270/711/93 268/712/93 267/713/93
f 267/714/113 268/715/113 266/716/113 265/717/113
f 270/718/31 272/719/31 266/720/31 268/721/31
f 271/722/34 269/723/34 267/724/34 265/725/34
f 269/726/114 271/709/114 272/708/114 270/727/114
f 273/728/98 274/729/98 280/730/98 279/731/98
f 277/732/97 278/733/97 276/734/97 275/735/97
f 275/736/115 276/737/115 274/738/115 273/739/115
f 278/740/31 280/741/31 274/742/31 276/743/31
f 279/744/34 277/745/34 275/746/34 273/747/34
f 277/748/116 279/749/116 280/750/116 278/751/116
f 281/752/102 282/753/102 288/754/102 287/755/102
f 285/756/101 286/757/101 284/758/101 283/759/101
f 283/760/117 284/761/117 282/762/117 281/763/117
f 286/764/31 288/765/31 282/766/31 284/767/31
f 287/768/34 285/769/34 283/770/34 281/771/34
f 285/772/118 287/755/118 288/754/118 286/773/118

# Reversed faces (double-sided)
vn -0.087800 -0.445500 0.891000
vn -0.259900 -0.445500 0.856700
vn -0.422000 -0.445500 0.789600
vn -0.568000 -0.445500 0.692100
vn -0.692100 -0.445500 0.568000
vn -0.789600 -0.445500 0.422000
vn -0.856700 -0.445500 0.259900
vn -0.891000 -0.445500 0.087800
vn -0.891000 -0.445500 -0.087800
vn -0.856700 -0.445500 -0.259900
vn -0.789600 -0.445500 -0.422000
vn -0.692100 -0.445500 -0.568000
vn -0.568000 -0.445500 -0.692100
vn -0.422000 -0.445500 -0.789600
vn -0.259900 -0.445500 -0.856700
vn -0.087800 -0.445500 -0.891000
vn 0.087800 -0.445500 -0.891000
vn 0.259900 -0.445500 -0.856700
vn 0.422000 -0.445500 -0.789600
vn 0.568000 -0.445500 -0.692100
vn 0.692100 -0.445500 -0.568000
vn 0.789600 -0.445500 -0.422000
vn 0.856700 -0.445500 -0.259900
vn 0.891000 -0.445500 -0.087800
vn 0.891000 -0.445500 0.087800
vn 0.856700 -0.445500 0.259900
vn 0.789600 -0.445500 0.422000
vn 0.692100 -0.445500 0.568000
vn 0.568000 -0.445500 0.692100
vn 0.422000 -0.445500 0.789600
vn 0.000000 -1.000000 0.000000
vn 0.000000 -1.000000 0.000000
vn 0.000000 -1.000000 0.000000
vn 0.000000 -1.000000 0.000000
vn 0.000000 -1.000000 0.000000
vn 0.000000 -1.000000 0.000000
vn 0.000000 -1.000000 0.000000
vn 0.000000 -1.000000 0.000000
vn 0.000000 -1.000000 0.000000
vn 0.000000 -1.000000 0.000000
vn 0.000000 -1.000000 0.000000
vn 0.000000 -1.000000 0.000000
vn 0.000000 -1.000000 0.000000
vn 0.000000 -1.000000 0.000000
vn 0.000000 -1.000000 0.000000
vn 0.000000 -1.000000 0.000000
vn 0.000000 -1.000000 0.000000
vn 0.000000 -1.000000 0.000000
vn 0.000000 -1.000000 0.000000
vn 0.000000 -1.000000 0.000000
vn 0.000000 -1.000000 0.000000
vn 0.000000 -1.000000 0.000000
vn 0.000000 -1.000000 0.000000
vn 0.000000 -1.000000 0.000000
vn 0.000000 -1.000000 0.000000
vn 0.000000 -1.000000 0.000000
vn 0.000000 -1.000000 0.000000
vn 0.000000 -1.000000 0.000000
vn 0.000000 -1.000000 0.000000
vn 0.000000 -1.000000 0.000000
vn 0.259900 -0.445500 0.856700
vn 0.087800 -0.445500 0.891000
vn 0.000000 1.000000 0.000000
vn 0.000000 1.000000 0.000000
vn 0.000000 1.000000 0.000000
vn 0.000000 1.000000 0.000000
vn 0.000000 1.000000 0.000000
vn 0.000000 1.000000 0.000000
vn 0.000000 1.000000 0.000000
vn 0.000000 1.000000 0.000000
vn 0.000000 1.000000 0.000000
vn 0.000000 1.000000 0.000000
vn 0.000000 1.000000 0.000000
vn 0.000000 1.000000 0.000000
vn 0.000000 1.000000 0.000000
vn 0.000000 1.000000 0.000000
vn 0.000000 1.000000 0.000000
vn 0.000000 1.000000 0.000000
vn 0.000000 1.000000 0.000000
vn 0.000000 1.000000 0.000000
vn 0.000000 1.000000 0.000000
vn 0.000000 1.000000 0.000000
vn 0.000000 1.000000 0.000000
vn 0.000000 1.000000 0.000000
vn 0.000000 1.000000 0.000000
vn 0.000000 1.000000 0.000000
vn 0.000000 1.000000 0.000000
vn 0.000000 1.000000 0.000000
vn 0.000000 1.000000 0.000000
vn 0.000000 1.000000 0.000000
vn 0.000000 1.000000 0.000000
vn 0.000000 1.000000 0.000000
vn 0.707100 0.000000 0.707100
vn -0.707100 0.000000 -0.707100
vn 0.707100 0.000000 -0.707100
vn 0.000000 -1.000000 0.000000
vn 0.000000 1.000000 0.000000
vn 0.000000 0.000000 1.000000
vn 0.330300 0.000000 0.943900
vn -0.330300 0.000000 -0.943900
vn 0.943900 0.000000 -0.330300
vn 0.000000 -1.000000 0.000000
vn 0.000000 1.000000 0.000000
vn -0.433900 0.000000 0.901000
vn -0.112000 0.000000 0.993700
vn 0.112000 0.000000 -0.993700
vn 0.993700 0.000000 0.112000
vn 0.000000 -1.000000 0.000000
vn 0.000000 1.000000 0.000000
vn -0.781800 0.000000 0.623500
vn -0.532000 0.000000 0.846700
vn 0.532000 0.000000 -0.846700
vn 0.846700 0.000000 0.532000
vn 0.000000 -1.000000 0.000000
vn 0.000000 1.000000 0.000000
vn -0.974900 0.000000 0.222500
vn -0.846700 0.000000 0.532000
vn 0.846700 0.000000 -0.532000
vn 0.532000 0.000000 0.846700
vn 0.000000 -1.000000 0.000000
vn 0.000000 1.000000 0.000000
vn -0.974900 0.000000 -0.222500
vn -0.993700 0.000000 0.112000
vn 0.993700 0.000000 -0.112000
vn 0.112000 0.000000 0.993700
vn 0.000000 -1.000000 0.000000
vn 0.000000 1.000000 0.000000
vn -0.781800 0.000000 -0.623500
vn -0.943900 0.000000 -0.330300
vn 0.943900 0.000000 0.330300
vn -0.330300 0.000000 0.943900
vn 0.000000 -1.000000 0.000000
vn 0.000000 1.000000 0.000000
vn -0.433900 0.000000 -0.901000
vn -0.707100 0.000000 -0.707100
vn 0.707100 0.000000 0.707100
vn -0.707100 0.000000 0.707100
vn 0.000000 -1.000000 0.000000
vn 0.000000 1.000000 0.000000
vn 0.000000 0.000000 -1.000000
vn -0.330300 0.000000 -0.943900
vn 0.330300 0.000000 0.943900
vn -0.943900 0.000000 0.330300
vn 0.000000 -1.000000 0.000000
vn 0.000000 1.000000 0.000000
vn 0.433900 0.000000 -0.901000
vn 0.112000 0.000000 -0.993700
vn -0.112000 0.000000 0.993700
vn -0.993700 0.000000 -0.112000
vn 0.000000 -1.000000 0.000000
vn 0.000000 1.000000 0.000000
vn 0.781800 0.000000 -0.623500
vn 0.532000 0.000000 -0.846700
vn -0.532000 0.000000 0.846700
vn -0.846700 0.000000 -0.532000
vn 0.000000 -1.000000 0.000000
vn 0.000000 1.000000 0.000000
vn 0.974900 0.000000 -0.222500
vn 0.846700 0.000000 -0.532000
vn -0.846700 0.000000 0.532000
vn -0.532000 0.000000 -0.846700
vn 0.000000 -1.000000 0.000000
vn 0.000000 1.000000 0.000000
vn 0.974900 0.000000 0.222500
vn 0.993700 0.000000 -0.112000
vn -0.993700 0.000000 0.112000
vn -0.112000 0.000000 -0.993700
vn 0.000000 -1.000000 0.000000
vn 0.000000 1.000000 0.000000
vn 0.781800 0.000000 0.623500
vn 0.943900 0.000000 0.330300
vn -0.943900 0.000000 -0.330300
vn 0.330300 0.000000 -0.943900
vn 0.000000 -1.000000 0.000000
vn 0.000000 1.000000 0.000000
vn 0.433900 0.000000 0.901000
vn 0.500000 0.000000 0.866000
vn -0.500000 0.000000 -0.866000
vn 0.866000 0.000000 -0.500000
vn 0.000000 -1.000000 0.000000
vn 0.000000 1.000000 0.000000
vn -0.258800 0.000000 0.965900
vn 0.826200 0.000000 0.563300
vn -0.826200 0.000000 -0.563300
vn 0.563300 0.000000 -0.826200
vn 0.000000 -1.000000 0.000000
vn 0.000000 1.000000 0.000000
vn 0.185900 0.000000 0.982600
vn 0.988800 0.000000 0.149000
vn -0.988800 0.000000 -0.149000
vn 0.149000 0.000000 -0.988800
vn 0.000000 -1.000000 0.000000
vn 0.000000 1.000000 0.000000
vn 0.593800 0.000000 0.804600
vn 0.955600 0.000000 -0.294800
vn -0.955600 0.000000 0.294800
vn -0.294800 0.000000 -0.955600
vn 0.000000 -1.000000 0.000000
vn 0.000000 1.000000 0.000000
vn 0.884100 0.000000 0.467300
vn 0.733100 0.000000 -0.680200
vn -0.733100 0.000000 0.680200
vn -0.680200 0.000000 -0.733100
vn 0.000000 -1.000000 0.000000
vn 0.000000 1.000000 0.000000
vn 0.999300 0.000000 0.037400
vn 0.365300 0.000000 -0.930900
vn -0.365300 0.000000 0.930900
vn -0.930900 0.000000 -0.365300
vn 0.000000 -1.000000 0.000000
vn 0.000000 1.000000 0.000000
vn 0.916600 0.000000 -0.399900
vn -0.074700 0.000000 -0.997200
vn 0.074700 0.000000 0.997200
vn -0.997200 0.000000 0.074700
vn 0.000000 -1.000000 0.000000
vn 0.000000 1.000000 0.000000
vn 0.652300 0.000000 -0.758000
vn -0.500000 0.000000 -0.866000
vn 0.500000 0.000000 0.866000
vn -0.866000 0.000000 0.500000
vn 0.000000 -1.000000 0.000000
vn 0.000000 1.000000 0.000000
vn 0.258800 0.000000 -0.965900
vn -0.826200 0.000000 -0.563300
vn 0.826200 0.000000 0.563300
vn -0.563300 0.000000 0.826200
vn 0.000000 -1.000000 0.000000
vn 0.000000 1.000000 0.000000
vn -0.185900 0.000000 -0.982600
vn -0.988800 0.000000 -0.149000
vn 0.988800 0.000000 0.149000
vn -0.149000 0.000000 0.988800
vn 0.000000 -1.000000 0.000000
vn 0.000000 1.000000 0.000000
vn -0.593800 0.000000 -0.804600
vn -0.955600 0.000000 0.294800
vn 0.955600 0.000000 -0.294800
vn 0.294800 0.000000 0.955600
vn 0.000000 -1.000000 0.000000
vn 0.000000 1.000000 0.000000
vn -0.884100 0.000000 -0.467300
vn -0.733100 0.000000 0.680200
vn 0.733100 0.000000 -0.680200
vn 0.680200 0.000000 0.733100
vn 0.000000 -1.000000 0.000000
vn 0.000000 1.000000 0.000000
vn -0.999300 0.000000 -0.037400
vn -0.365300 0.000000 0.930900
vn 0.365300 0.000000 -0.930900
vn 0.930900 0.000000 0.365300
vn 0.000000 -1.000000 0.000000
vn 0.000000 1.000000 0.000000
vn -0.916600 0.000000 0.399900
vn 0.074700 0.000000 0.997200
vn -0.074700 0.000000 -0.997200
vn 0.997200 0.000000 -0.074700
vn 0.000000 -1.000000 0.000000
vn 0.000000 1.000000 0.000000
vn -0.652300 0.000000 0.758000
usemtl body
f 3/4/119 4/3/119 2/2/119 1/1/119
f 5/6/120 6/5/120 4/3/120 3/4/120
f 7/8/121 8/7/121 6/5/121 5/6/121
f 9/10/122 10/9/122 8/7/122 7/8/122
f 11/14/123 12/13/123 10/12/123 9/11/123
f 13/16/124 14/15/124 12/13/124 11/14/124
f 15/18/125 16/17/125 14/15/125 13/16/125
f 17/20/126 18/19/126 16/17/126 15/18/126
f 19/22/127 20/21/127 18/19/127 17/20/127
f 21/24/128 22/23/128 20/21/128 19/22/128
f 23/26/129 24/25/129 22/23/129 21/24/129
f 25/28/130 26/27/130 24/25/130 23/26/130
f 27/32/131 28/31/131 26/30/131 25/29/131
f 29/34/132 30/33/132 28/31/132 27/32/132
f 31/36/133 32/35/133 30/33/133 29/34/133
f 33/38/134 34/37/134 32/35/134 31/36/134
f 35/40/135 36/39/135 34/37/135 33/38/135
f 37/42/136 38/41/136 36/39/136 35/40/136
f 39/44/137 40/43/137 38/41/137 37/42/137
f 41/46/138 42/45/138 40/43/138 39/44/138
f 43/50/139 44/49/139 42/48/139 41/47/139
f 45/52/140 46/51/140 44/49/140 43/50/140
f 47/54/141 48/53/141 46/51/141 45/52/141
f 49/56/142 50/55/142 48/53/142 47/54/142
f 51/58/143 52/57/143 50/55/143 49/56/143
f 53/60/144 54/59/144 52/57/144 51/58/144
f 55/62/145 56/61/145 54/59/145 53/60/145
f 57/64/146 58/63/146 56/61/146 55/62/146
f 59/68/147 60/67/147 58/66/147 57/65/147
f 61/70/148 62/69/148 60/67/148 59/68/148
f 64/73/149 2/72/149 4/71/149
f 62/74/150 64/73/150 4/71/150
f 60/75/151 62/74/151 4/71/151
f 58/76/152 60/75/152 4/71/152
f 56/77/153 58/76/153 4/71/153
f 54/78/154 56/77/154 4/71/154
f 52/79/155 54/78/155 4/71/155
f 50/80/156 52/79/156 4/71/156
f 48/81/157 50/80/157 4/71/157
f 46/82/158 48/81/158 4/71/158
f 44/83/159 46/82/159 4/71/159
f 42/84/160 44/83/160 4/71/160
f 40/85/161 42/84/161 4/71/161
f 38/86/162 40/85/162 4/71/162
f 36/87/163 38/86/163 4/71/163
f 34/88/164 36/87/164 4/71/164
f 32/89/165 34/88/165 4/71/165
f 30/90/166 32/89/166 4/71/166
f 28/91/167 30/90/167 4/71/167
f 26/92/168 28/91/168 4/71/168
f 24/93/169 26/92/169 4/71/169
f 22/94/170 24/93/170 4/71/170
f 20/95/171 22/94/171 4/71/171
f 18/96/172 20/95/172 4/71/172
f 16/97/173 18/96/173 4/71/173
f 14/98/174 16/97/174 4/71/174
f 12/99/175 14/98/175 4/71/175
f 10/100/176 12/99/176 4/71/176
f 8/101/177 10/100/177 4/71/177
f 6/102/178 8/101/178 4/71/178
f 63/104/179 64/103/179 62/69/179 61/70/179
f 1/1/180 2/2/180 64/103/180 63/104/180
f 5/107/181 3/106/181 1/105/181
f 7/108/182 5/107/182 1/105/182
f 9/109/183 7/108/183 1/105/183
f 11/110/184 9/109/184 1/105/184
f 13/111/185 11/110/185 1/105/185
f 15/112/186 13/111/186 1/105/186
f 17/113/187 15/112/187 1/105/187
f 19/114/188 17/113/188 1/105/188
f 21/115/189 19/114/189 1/105/189
f 23/116/190 21/115/190 1/105/190
f 25/117/191 23/116/191 1/105/191
f 27/118/192 25/117/192 1/105/192
f 29/119/193 27/118/193 1/105/193
f 31/120/194 29/119/194 1/105/194
f 33/121/195 31/120/195 1/105/195
f 35/122/196 33/121/196 1/105/196
f 37/123/197 35/122/197 1/105/197
f 39/124/198 37/123/198 1/105/198
f 41/125/199 39/124/199 1/105/199
f 43/126/200 41/125/200 1/105/200
f 45/127/201 43/126/201 1/105/201
f 47/128/202 45/127/202 1/105/202
f 49/129/203 47/128/203 1/105/203
f 51/130/204 49/129/204 1/105/204
f 53/131/205 51/130/205 1/105/205
f 55/132/206 53/131/206 1/105/206
f 57/133/207 55/132/207 1/105/207
f 59/134/208 57/133/208 1/105/208
f 61/135/209 59/134/209 1/105/209
f 63/136/210 61/135/210 1/105/210
usemtl cutter
f 71/140/211 72/139/211 66/138/211 65/137/211
f 67/144/212 68/143/212 70/142/212 69/141/212
f 65/148/213 66/147/213 68/146/213 67/145/213
f 68/152/214 66/151/214 72/150/214 70/149/214
f 65/156/215 67/155/215 69/154/215 71/153/215
f 70/160/216 72/159/216 71/158/216 69/157/216
f 79/164/217 80/163/217 74/162/217 73/161/217
f 75/168/218 76/167/218 78/166/218 77/165/218
f 73/172/219 74/171/219 76/170/219 75/169/219
f 76/176/220 74/175/220 80/174/220 78/173/220
f 73/180/221 75/179/221 77/178/221 79/177/221
f 78/182/222 80/163/222 79/164/222 77/181/222
f 87/186/223 88/185/223 82/184/223 81/183/223
f 83/190/224 84/189/224 86/188/224 85/187/224
f 81/194/225 82/193/225 84/192/225 83/191/225
f 84/198/226 82/197/226 88/196/226 86/195/226
f 81/202/227 83/201/227 85/200/227 87/199/227
f 86/206/228 88/205/228 87/204/228 85/203/228
f 95/210/229 96/209/229 90/208/229 89/207/229
f 91/214/230 92/213/230 94/212/230 93/211/230
f 89/218/231 90/217/231 92/216/231 91/215/231
f 92/222/232 90/221/232 96/220/232 94/219/232
f 89/226/233 91/225/233 93/224/233 95/223/233
f 94/230/234 96/229/234 95/228/234 93/227/234
f 103/234/235 104/233/235 98/232/235 97/231/235
f 99/238/236 100/237/236 102/236/236 101/235/236
f 97/242/237 98/241/237 100/240/237 99/239/237
f 100/246/238 98/245/238 104/244/238 102/243/238
f 97/250/239 99/249/239 101/248/239 103/247/239
f 102/252/240 104/233/240 103/234/240 101/251/240
f 111/256/241 112/255/241 106/254/241 105/253/241
f 107/260/242 108/259/242 110/258/242 109/257/242
f 105/264/243 106/263/243 108/262/243 107/261/243
f 108/268/244 106/267/244 112/266/244 110/265/244
f 105/272/245 107/271/245 109/270/245 111/269/245
f 110/274/246 112/255/246 111/256/246 109/273/246
f 119/278/247 120/277/247 114/276/247 113/275/247
f 115/282/248 116/281/248 118/280/248 117/279/248
f 113/286/249 114/285/249 116/284/249 115/283/249
f 116/290/250 114/289/250 120/288/250 118/287/250
f 113/294/251 115/293/251 117/292/251 119/291/251
f 118/298/252 120/297/252 119/296/252 117/295/252
f 127/302/253 128/301/253 122/300/253 121/299/253
f 123/306/254 124/305/254 126/304/254 125/303/254
f 121/310/255 122/309/255 124/308/255 123/307/255
f 124/314/256 122/313/256 128/312/256 126/311/256
f 121/318/257 123/317/257 125/316/257 127/315/257
f 126/322/258 128/321/258 127/320/258 125/319/258
f 135/326/259 136/325/259 130/324/259 129/323/259
f 131/330/260 132/329/260 134/328/260 133/327/260
f 129/334/261 130/333/261 132/332/261 131/331/261
f 132/338/262 130/337/262 136/336/262 134/335/262
f 129/342/263 131/341/263 133/340/263 135/339/263
f 134/344/264 136/325/264 135/326/264 133/343/264
f 143/348/265 144/347/265 138/346/265 137/345/265
f 139/352/266 140/351/266 142/350/266 141/349/266
f 137/356/267 138/355/267 140/354/267 139/353/267
f 140/360/268 138/359/268 144/358/268 142/357/268
f 137/364/269 139/363/269 141/362/269 143/361/269
f 142/368/270 144/367/270 143/366/270 141/365/270
f 151/372/271 152/371/271 146/370/271 145/369/271
f 147/376/272 148/375/272 150/374/272 149/373/272
f 145/380/273 146/379/273 148/378/273 147/377/273
f 148/384/274 146/383/274 152/382/274 150/381/274
f 145/388/275 147/387/275 149/386/275 151/385/275
f 150/392/276 152/391/276 151/390/276 149/389/276
f 159/395/277 160/394/277 154/182/277 153/393/277
f 155/399/278 156/398/278 158/397/278 157/396/278
f 153/403/279 154/402/279 156/401/279 155/400/279
f 156/407/280 154/406/280 160/405/280 158/404/280
f 153/411/281 155/410/281 157/409/281 159/408/281
f 158/413/282 160/394/282 159/395/282 157/412/282
f 167/417/283 168/416/283 162/415/283 161/414/283
f 163/421/284 164/420/284 166/419/284 165/418/284
f 161/425/285 162/424/285 164/423/285 163/422/285
f 164/429/286 162/428/286 168/427/286 166/426/286
f 161/433/287 163/432/287 165/431/287 167/430/287
f 166/435/288 168/416/288 167/417/288 165/434/288
f 175/439/289 176/438/289 170/437/289 169/436/289
f 171/443/290 172/442/290 174/441/290 173/440/290
f 169/447/291 170/446/291 172/445/291 171/444/291
f 172/451/292 170/450/292 176/449/292 174/448/292
f 169/455/293 171/454/293 173/453/293 175/452/293
f 174/459/294 176/458/294 175/457/294 173/456/294
f 183/463/295 184/462/295 178/461/295 177/460/295
f 179/467/296 180/466/296 182/465/296 181/464/296
f 177/471/297 178/470/297 180/469/297 179/468/297
f 180/475/298 178/474/298 184/473/298 182/472/298
f 177/479/299 179/478/299 181/477/299 183/476/299
f 182/481/300 184/462/300 183/463/300 181/480/300
f 191/485/301 192/484/301 186/483/301 185/482/301
f 187/489/302 188/488/302 190/487/302 189/486/302
f 185/493/303 186/492/303 188/491/303 187/490/303
f 188/497/304 186/496/304 192/495/304 190/494/304
f 185/501/305 187/500/305 189/499/305 191/498/305
f 190/505/306 192/504/306 191/503/306 189/502/306
f 199/509/307 200/508/307 194/507/307 193/506/307
f 195/513/308 196/512/308 198/511/308 197/510/308
f 193/517/309 194/516/309 196/515/309 195/514/309
f 196/521/310 194/520/310 200/519/310 198/518/310
f 193/525/311 195/524/311 197/523/311 199/522/311
f 198/529/312 200/528/312 199/527/312 197/526/312
f 207/533/313 208/532/313 202/531/313 201/530/313
f 203/537/314 204/536/314 206/535/314 205/534/314
f 201/301/315 202/540/315 204/539/315 203/538/315
f 204/543/316 202/542/316 208/541/316 206/246/316
f 201/547/317 203/546/317 205/545/317 207/544/317
f 206/549/318 208/532/318 207/533/318 205/548/318
f 215/553/319 216/552/319 210/551/319 209/550/319
f 211/557/320 212/556/320 214/555/320 213/554/320
f 209/559/321 210/558/321 212/556/321 211/557/321
f 212/563/322 210/562/322 216/561/322 214/560/322
f 209/567/323 211/566/323 213/565/323 215/564/323
f 214/571/324 216/570/324 215/569/324 213/568/324
f 223/575/325 224/574/325 218/573/325 217/572/325
f 219/579/326 220/578/326 222/577/326 221/576/326
f 217/583/327 218/582/327 220/581/327 219/580/327
f 220/587/328 218/586/328 224/585/328 222/584/328
f 217/591/329 219/590/329 221/589/329 223/588/329
f 222/595/330 224/594/330 223/593/330 221/592/330
f 231/599/331 232/598/331 226/597/331 225/596/331
f 227/603/332 228/602/332 230/601/332 229/600/332
f 225/607/333 226/606/333 228/605/333 227/604/333
f 228/611/334 226/610/334 232/609/334 230/608/334
f 225/615/335 227/614/335 229/613/335 231/612/335
f 230/617/336 232/598/336 231/599/336 229/616/336
f 239/621/337 240/620/337 234/619/337 233/618/337
f 235/625/338 236/624/338 238/623/338 237/622/338
f 233/629/339 234/628/339 236/627/339 235/626/339
f 236/633/340 234/632/340 240/631/340 238/630/340
f 233/637/341 235/636/341 237/635/341 239/634/341
f 238/639/342 240/620/342 239/621/342 237/638/342
f 247/643/343 248/642/343 242/641/343 241/640/343
f 243/647/344 244/646/344 246/645/344 245/644/344
f 241/651/345 242/650/345 244/649/345 243/648/345
f 244/654/346 242/224/346 248/653/346 246/652/346
f 241/658/347 243/657/347 245/656/347 247/655/347
f 246/662/348 248/661/348 247/660/348 245/659/348
f 255/666/349 256/665/349 250/664/349 249/663/349
f 251/670/350 252/669/350 254/668/350 253/667/350
f 249/673/351 250/423/351 252/672/351 251/671/351
f 252/677/352 250/676/352 256/675/352 254/674/352
f 249/681/353 251/680/353 253/679/353 255/678/353
f 254/684/354 256/211/354 255/683/354 253/682/354
f 263/688/355 264/687/355 258/686/355 257/685/355
f 259/692/356 260/691/356 262/690/356 261/689/356
f 257/292/357 258/695/357 260/694/357 259/693/357
f 260/699/358 258/698/358 264/697/358 262/696/358
f 257/703/359 259/702/359 261/701/359 263/700/359
f 262/705/360 264/687/360 263/688/360 261/704/360
f 271/709/361 272/708/361 266/707/361 265/706/361
f 267/713/362 268/712/362 270/711/362 269/710/362
f 265/717/363 266/716/363 268/715/363 267/714/363
f 268/721/364 266/720/364 272/719/364 270/718/364
f 265/725/365 267/724/365 269/723/365 271/722/365
f 270/727/366 272/708/366 271/709/366 269/726/366
f 279/731/367 280/730/367 274/729/367 273/728/367
f 275/735/368 276/734/368 278/733/368 277/732/368
f 273/739/369 274/738/369 276/737/369 275/736/369
f 276/743/370 274/742/370 280/741/370 278/740/370
f 273/747/371 275/746/371 277/745/371 279/744/371
f 278/751/372 280/750/372 279/749/372 277/748/372
f 287/755/373 288/754/373 282/753/373 281/752/373
f 283/759/374 284/758/374 286/757/374 285/756/374
f 281/763/375 282/762/375 284/761/375 283/760/375
f 284/767/376 282/766/376 288/765/376 286/764/376
f 281/771/377 283/770/377 285/769/377 287/768/377
f 286/773/378 288/754/378 287/755/378 285/772/378
