# Blender 5.1.2
# www.blender.org
mtllib drill_7x7.mtl
o drill_7x7
v 0.500000 0.005000 -2.999999
v 0.500000 2.005000 -1.999000
v 1.182816 0.005000 -2.932748
v 0.987531 2.005000 -1.950982
v 1.839392 0.005000 -2.733577
v 1.456326 2.005000 -1.808774
v 2.444496 0.005000 -2.410143
v 1.888370 2.005000 -1.577841
v 2.974874 0.005000 -1.974873
v 2.267060 2.005000 -1.267060
v 3.410144 0.005000 -1.444495
v 2.577842 2.005000 -0.888370
v 3.733578 0.005000 -0.839391
v 2.808775 2.005000 -0.456325
v 3.932748 0.005000 -0.182815
v 2.950982 2.005000 0.012470
v 4.000000 0.005000 0.500001
v 2.999000 2.005000 0.500001
v 3.932748 0.005000 1.182816
v 2.950982 2.005000 0.987532
v 3.733578 0.005000 1.839392
v 2.808775 2.005000 1.456327
v 3.410144 0.005000 2.444497
v 2.577842 2.005000 1.888371
v 2.974874 0.005000 2.974874
v 2.267060 2.005000 2.267061
v 2.444496 0.005000 3.410144
v 1.888370 2.005000 2.577843
v 1.839392 0.005000 3.733579
v 1.456326 2.005000 2.808775
v 1.182816 0.005000 3.932749
v 0.987531 2.005000 2.950983
v 0.500000 0.005000 4.000001
v 0.500000 2.005000 2.999001
v -0.182816 0.005000 3.932749
v 0.012469 2.005000 2.950983
v -0.839392 0.005000 3.733579
v -0.456326 2.005000 2.808775
v -1.444496 0.005000 3.410144
v -0.888370 2.005000 2.577843
v -1.974874 0.005000 2.974874
v -1.267060 2.005000 2.267061
v -2.410144 0.005000 2.444497
v -1.577842 2.005000 1.888371
v -2.733578 0.005000 1.839392
v -1.808775 2.005000 1.456327
v -2.932748 0.005000 1.182816
v -1.950982 2.005000 0.987532
v -3.000000 0.005000 0.500001
v -1.999000 2.005000 0.500001
v -2.932748 0.005000 -0.182815
v -1.950982 2.005000 0.012470
v -2.733578 0.005000 -0.839391
v -1.808775 2.005000 -0.456325
v -2.410144 0.005000 -1.444495
v -1.577842 2.005000 -0.888370
v -1.974874 0.005000 -1.974873
v -1.267060 2.005000 -1.267060
v -1.444496 0.005000 -2.410143
v -0.888370 2.005000 -1.577841
v -0.839392 0.005000 -2.733577
v -0.456326 2.005000 -1.808774
v -0.182816 0.005000 -2.932748
v 0.012469 2.005000 -1.950982
v 1.534010 -0.062500 1.560331
v 1.534010 0.687500 1.560331
v 2.594670 -0.062500 2.620991
v 2.594670 0.687500 2.620991
v 4.715990 -0.062500 0.499671
v 4.715990 0.687500 0.499671
v 2.594670 -0.062500 0.499671
v 2.594670 0.687500 0.499671
v 0.971551 -0.062500 1.903965
v 0.971551 0.687500 1.903965
v 1.466969 -0.062500 3.319790
v 1.466969 0.687500 3.319790
v 4.298619 -0.062500 2.328952
v 4.298619 0.687500 2.328952
v 2.387375 -0.062500 1.408546
v 2.387375 0.687500 1.408546
v 0.315695 -0.062499 1.969527
v 0.315695 0.687501 1.969527
v 0.147749 -0.062499 3.460094
v 0.147749 0.687501 3.460094
v 3.128885 -0.062499 3.795988
v 3.128885 0.687501 3.795988
v 1.806263 -0.062499 2.137474
v 1.806263 0.687501 2.137474
v -0.303657 -0.062499 1.744032
v -0.303657 0.687501 1.744032
v -1.101704 -0.062499 3.014118
v -1.101704 0.687501 3.014118
v 1.438468 -0.062499 4.610214
v 1.438468 0.687501 4.610214
v 0.966429 -0.062499 2.542079
v 0.966429 0.687501 2.542079
v -0.763834 -0.062499 1.272140
v -0.763834 0.687501 1.272140
v -2.033920 -0.062499 2.070188
v -2.033920 0.687501 2.070188
v -0.437825 -0.062499 4.610361
v -0.437825 0.687501 4.610361
v 0.034214 -0.062499 2.542226
v 0.034214 0.687501 2.542226
v -0.973694 -0.062498 0.647317
v -0.973694 0.687502 0.647317
v -2.464262 -0.062498 0.815263
v -2.464262 0.687502 0.815263
v -2.128370 -0.062498 3.796400
v -2.128370 0.687502 3.796400
v -0.805748 -0.062498 2.137885
v -0.805748 0.687502 2.137885
v -0.891671 -0.062498 -0.006684
v -0.891671 0.687502 -0.006684
v -2.307495 -0.062498 -0.502102
v -2.307495 0.687502 -0.502102
v -3.298333 -0.062498 2.329548
v -3.298333 0.687502 2.329548
v -1.387089 -0.062498 1.409140
v -1.387089 0.687502 1.409140
v -0.534010 -0.062498 -0.560330
v -0.534010 0.687502 -0.560330
v -1.594670 -0.062498 -1.620989
v -1.594670 0.687502 -1.620989
v -3.715990 -0.062498 0.500331
v -3.715990 0.687502 0.500331
v -1.594670 -0.062498 0.500330
v -1.594670 0.687502 0.500330
v 0.028450 -0.062497 -0.903964
v 0.028450 0.687503 -0.903964
v -0.466969 -0.062497 -2.319789
v -0.466969 0.687503 -2.319789
v -3.298619 -0.062497 -1.328953
v -3.298619 0.687503 -1.328953
v -1.387375 -0.062497 -0.408546
v -1.387375 0.687503 -0.408546
v 0.684306 -0.062497 -0.969526
v 0.684306 0.687503 -0.969526
v 0.852252 -0.062497 -2.460093
v 0.852252 0.687503 -2.460093
v -2.128885 -0.062497 -2.795988
v -2.128885 0.687503 -2.795988
v -0.806263 -0.062497 -1.137474
v -0.806263 0.687503 -1.137474
v 1.303658 -0.062497 -0.744031
v 1.303658 0.687503 -0.744031
v 2.101706 -0.062497 -2.014115
v 2.101706 0.687503 -2.014115
v -0.438467 -0.062497 -3.610213
v -0.438467 0.687503 -3.610213
v 0.033572 -0.062497 -1.542079
v 0.033572 0.687503 -1.542079
v 1.763835 -0.062496 -0.272139
v 1.763835 0.687504 -0.272139
v 3.033921 -0.062496 -1.070186
v 3.033921 0.687504 -1.070186
v 1.437825 -0.062496 -3.610361
v 1.437825 0.687504 -3.610361
v 0.965788 -0.062496 -1.542225
v 0.965788 0.687504 -1.542225
v 1.973695 -0.062496 0.352685
v 1.973695 0.687504 0.352685
v 3.464263 -0.062496 0.184738
v 3.464263 0.687504 0.184738
v 3.128371 -0.062496 -2.796400
v 3.128371 0.687504 -2.796400
v 1.805749 -0.062496 -1.137884
v 1.805749 0.687504 -1.137884
v 1.891672 -0.062495 1.006686
v 1.891672 0.687505 1.006686
v 3.307496 -0.062495 1.502104
v 3.307496 0.687505 1.502104
v 4.298334 -0.062495 -1.329547
v 4.298334 0.687505 -1.329547
v 2.387091 -0.062495 -0.409140
v 2.387091 0.687505 -0.409140
v 0.450962 0.855000 1.700481
v 0.450962 1.605000 1.700481
v 1.200962 0.855000 2.999519
v 1.200962 1.605000 2.999519
v 3.799038 0.855000 1.499520
v 3.799038 1.605000 1.499520
v 1.750000 0.855000 0.950482
v 1.750000 1.605000 0.950482
v 0.976687 0.855000 1.602874
v 0.976687 1.605000 1.602874
v 2.216045 0.855000 2.447853
v 2.216045 1.605000 2.447853
v 3.906006 0.855000 -0.030863
v 3.906006 1.605000 -0.030863
v 1.821667 0.855000 0.363516
v 1.821667 1.605000 0.363516
v 1.407999 0.855000 1.286828
v 1.407999 1.605000 1.286828
v 2.891245 0.855000 1.510392
v 2.891245 1.605000 1.510392
v 3.338372 0.855000 -1.456101
v 3.338372 1.605000 -1.456101
v 1.631562 0.855000 -0.196418
v 1.631562 1.605000 -0.196418
v 1.659470 0.855000 0.814942
v 1.659470 1.605000 0.814942
v 3.092830 0.855000 0.372809
v 3.092830 1.605000 0.372809
v 2.208564 0.855000 -2.493911
v 2.208564 1.605000 -2.493911
v 1.217337 0.855000 -0.618418
v 1.217337 1.605000 -0.618418
v 1.681294 0.855000 0.280677
v 1.681294 1.605000 0.280677
v 2.780872 0.855000 -0.739583
v 2.780872 1.605000 -0.739583
v 0.740353 0.855000 -2.938738
v 0.740353 1.605000 -2.938738
v 0.661035 0.855000 -0.818901
v 0.661035 1.605000 -0.818901
v 1.469149 0.855000 -0.210147
v 1.469149 1.605000 -0.210147
v 2.017160 0.855000 -1.606459
v 2.017160 1.605000 -1.606459
v -0.775462 0.855000 -2.702481
v -0.775462 1.605000 -2.702481
v 0.072837 0.855000 -0.758159
v 0.072837 1.605000 -0.758159
v 1.065051 0.855000 -0.560319
v 1.065051 1.605000 -0.560319
v 0.952955 0.855000 -2.056125
v 0.952955 1.605000 -2.056125
v -2.038656 0.855000 -1.831933
v -2.038656 1.605000 -1.831933
v -0.430755 0.855000 -0.448223
v -0.430755 1.605000 -0.448223
v 0.549038 0.855000 -0.700480
v 0.549038 1.605000 -0.700480
v -0.200963 0.855000 -1.999519
v -0.200963 1.605000 -1.999519
v -2.799038 0.855000 -0.499518
v -2.799038 1.605000 -0.499518
v -0.750000 0.855000 0.049521
v -0.750000 1.605000 0.049521
v 0.023312 0.855000 -0.602872
v 0.023312 1.605000 -0.602872
v -1.216047 0.855000 -1.447852
v -1.216047 1.605000 -1.447852
v -2.906006 0.855000 1.030865
v -2.906006 1.605000 1.030865
v -0.821668 0.855000 0.636487
v -0.821668 1.605000 0.636487
v -0.408000 0.855000 -0.286827
v -0.408000 1.605000 -0.286827
v -1.891247 0.855000 -0.510389
v -1.891247 1.605000 -0.510389
v -2.338372 0.855000 2.456104
v -2.338372 1.605000 2.456104
v -0.631562 0.855000 1.196421
v -0.631562 1.605000 1.196421
v -0.659471 0.855000 0.185060
v -0.659471 1.605000 0.185060
v -2.092830 0.855000 0.627194
v -2.092830 1.605000 0.627194
v -1.208563 0.855000 3.493912
v -1.208563 1.605000 3.493912
v -0.217337 0.855000 1.618420
v -0.217337 1.605000 1.618420
v -0.681295 0.855000 0.719324
v -0.681295 1.605000 0.719324
v -1.780873 0.855000 1.739584
v -1.780873 1.605000 1.739584
v 0.259647 0.855000 3.938740
v 0.259647 1.605000 3.938740
v 0.338966 0.855000 1.818903
v 0.338966 1.605000 1.818903
v -0.469149 0.855000 1.210149
v -0.469149 1.605000 1.210149
v -1.017160 0.855000 2.606461
v -1.017160 1.605000 2.606461
v 1.775463 0.855000 3.702482
v 1.775463 1.605000 3.702482
v 0.927163 0.855000 1.758161
v 0.927163 1.605000 1.758161
v -0.065052 0.855000 1.560320
v -0.065052 1.605000 1.560320
v 0.047044 0.855000 3.056126
v 0.047044 1.605000 3.056126
v 3.038657 0.855000 2.831936
v 3.038657 1.605000 2.831936
v 1.430755 0.855000 1.448225
v 1.430755 1.605000 1.448225
vn 0.0877 0.4458 -0.8908
vn 0.2598 0.4458 -0.8566
vn 0.4220 0.4458 -0.7894
vn 0.5679 0.4458 -0.6919
vn 0.6919 0.4458 -0.5679
vn 0.7894 0.4458 -0.4220
vn 0.8566 0.4458 -0.2598
vn 0.8908 0.4458 -0.0877
vn 0.8908 0.4458 0.0877
vn 0.8566 0.4458 0.2598
vn 0.7894 0.4458 0.4220
vn 0.6919 0.4458 0.5679
vn 0.5679 0.4458 0.6919
vn 0.4220 0.4458 0.7894
vn 0.2598 0.4458 0.8566
vn 0.0877 0.4458 0.8908
vn -0.0877 0.4458 0.8908
vn -0.2598 0.4458 0.8566
vn -0.4220 0.4458 0.7894
vn -0.5679 0.4458 0.6919
vn -0.6919 0.4458 0.5679
vn -0.7894 0.4458 0.4220
vn -0.8566 0.4458 0.2598
vn -0.8908 0.4458 0.0877
vn -0.8908 0.4458 -0.0877
vn -0.8566 0.4458 -0.2598
vn -0.7894 0.4458 -0.4220
vn -0.6919 0.4458 -0.5679
vn -0.5679 0.4458 -0.6919
vn -0.4220 0.4458 -0.7894
vn -0.0000 1.0000 -0.0000
vn -0.2598 0.4458 -0.8566
vn -0.0877 0.4458 -0.8908
vn -0.0000 -1.0000 -0.0000
vn -0.7071 -0.0000 -0.7071
vn 0.7071 -0.0000 0.7071
vn -0.7071 -0.0000 0.7071
vn -0.0000 -0.0000 -1.0000
vn -0.3303 -0.0000 -0.9439
vn 0.3303 -0.0000 0.9439
vn -0.9439 -0.0000 0.3303
vn 0.4339 -0.0000 -0.9010
vn 0.1120 -0.0000 -0.9937
vn -0.1120 -0.0000 0.9937
vn -0.9937 -0.0000 -0.1120
vn 0.7818 -0.0000 -0.6235
vn 0.5320 -0.0000 -0.8467
vn -0.5320 -0.0000 0.8467
vn -0.8467 -0.0000 -0.5320
vn 0.9749 -0.0000 -0.2225
vn 0.8467 -0.0000 -0.5320
vn -0.8467 -0.0000 0.5320
vn -0.5320 -0.0000 -0.8467
vn 0.9749 -0.0000 0.2225
vn 0.9937 -0.0000 -0.1120
vn -0.9937 -0.0000 0.1120
vn -0.1120 -0.0000 -0.9937
vn 0.7818 -0.0000 0.6235
vn 0.9439 -0.0000 0.3303
vn -0.9439 -0.0000 -0.3303
vn 0.3303 -0.0000 -0.9439
vn 0.4339 -0.0000 0.9010
vn 0.7071 -0.0000 -0.7071
vn -0.0000 -0.0000 1.0000
vn 0.9439 -0.0000 -0.3303
vn -0.4339 -0.0000 0.9010
vn 0.9937 -0.0000 0.1120
vn -0.7818 -0.0000 0.6235
vn 0.8467 -0.0000 0.5320
vn -0.9749 -0.0000 0.2225
vn 0.5320 -0.0000 0.8467
vn -0.9749 -0.0000 -0.2225
vn 0.1120 -0.0000 0.9937
vn -0.7818 -0.0000 -0.6235
vn -0.3303 -0.0000 0.9439
vn -0.4339 -0.0000 -0.9010
vn -0.5000 -0.0000 -0.8660
vn 0.5000 -0.0000 0.8660
vn -0.8660 -0.0000 0.5000
vn 0.2588 -0.0000 -0.9659
vn -0.8262 -0.0000 -0.5633
vn 0.8262 -0.0000 0.5633
vn -0.5633 -0.0000 0.8262
vn -0.1859 -0.0000 -0.9826
vn -0.9888 -0.0000 -0.1490
vn 0.9888 -0.0000 0.1490
vn -0.1490 -0.0000 0.9888
vn -0.5938 -0.0000 -0.8046
vn -0.9556 -0.0000 0.2948
vn 0.9556 -0.0000 -0.2948
vn 0.2948 -0.0000 0.9556
vn -0.8841 -0.0000 -0.4673
vn -0.7331 -0.0000 0.6802
vn 0.7331 -0.0000 -0.6802
vn 0.6802 -0.0000 0.7331
vn -0.9993 -0.0000 -0.0374
vn -0.3653 -0.0000 0.9309
vn 0.3653 -0.0000 -0.9309
vn 0.9309 -0.0000 0.3653
vn -0.9166 -0.0000 0.3999
vn 0.0747 -0.0000 0.9972
vn -0.0747 -0.0000 -0.9972
vn 0.9972 -0.0000 -0.0747
vn -0.6523 -0.0000 0.7580
vn 0.8660 -0.0000 -0.5000
vn -0.2588 -0.0000 0.9659
vn 0.5633 -0.0000 -0.8262
vn 0.1859 -0.0000 0.9826
vn 0.1490 -0.0000 -0.9888
vn 0.5938 -0.0000 0.8046
vn -0.2948 -0.0000 -0.9556
vn 0.8841 -0.0000 0.4673
vn -0.6802 -0.0000 -0.7331
vn 0.9993 -0.0000 0.0374
vn -0.9309 -0.0000 -0.3653
vn 0.9166 -0.0000 -0.3999
vn -0.9972 -0.0000 0.0747
vn 0.6523 -0.0000 -0.7580
vt 0.200525 0.201993
vt 0.221765 -0.000000
vt 0.232527 0.000332
vt 0.215599 0.202458
vt 0.244861 0.000593
vt 0.232872 0.202823
vt 0.258291 0.000773
vt 0.251682 0.203075
vt 0.272301 0.000865
vt 0.271305 0.203204
vt 0.286354 0.000865
vt 0.290987 0.203204
vt 0.299910 0.000773
vt 0.309972 0.203075
vt 0.312446 0.000593
vt 0.327530 0.202823
vt 0.323482 0.000332
vt 0.342987 0.202458
vt 0.332594 -0.000000
vt 0.355748 0.201993
vt 0.200525 0.405265
vt 0.221392 0.203204
vt 0.231954 0.203501
vt 0.215318 0.405681
vt 0.244135 0.203722
vt 0.232379 0.405991
vt 0.257469 0.203858
vt 0.251053 0.406181
vt 0.271442 0.203904
vt 0.270623 0.406246
vt 0.285517 0.203858
vt 0.290336 0.406181
vt 0.299153 0.203722
vt 0.309435 0.405991
vt 0.311827 0.203501
vt 0.327186 0.405681
vt 0.323052 0.203204
vt 0.342906 0.405265
vt 0.342906 0.405239
vt 0.361258 0.203204
vt 0.372949 0.203421
vt 0.359279 0.405543
vt 0.385953 0.203571
vt 0.377492 0.405753
vt 0.399771 0.203647
vt 0.396846 0.405860
vt 0.413873 0.203647
vt 0.416596 0.405860
vt 0.427715 0.203571
vt 0.435983 0.405753
vt 0.440767 0.203421
vt 0.454262 0.405543
vt 0.452526 0.203204
vt 0.470732 0.405239
vt -0.000000 0.402601
vt 0.020260 0.200525
vt 0.031236 0.200832
vt 0.015373 0.403032
vt 0.043728 0.201061
vt 0.032869 0.403352
vt 0.057257 0.201201
vt 0.051816 0.403549
vt 0.071301 0.201249
vt 0.071487 0.403615
vt 0.085323 0.201201
vt 0.091125 0.403549
vt 0.098782 0.201061
vt 0.109975 0.403352
vt 0.358499 0.092469
vt 0.355748 0.078638
vt 0.355748 0.064537
vt 0.358499 0.050706
vt 0.363895 0.037678
vt 0.371730 0.025953
vt 0.381701 0.015982
vt 0.393426 0.008147
vt 0.406454 0.002751
vt 0.420284 0.000000
vt 0.434386 0.000000
vt 0.448216 0.002751
vt 0.461245 0.008147
vt 0.472970 0.015982
vt 0.482941 0.025953
vt 0.490775 0.037678
vt 0.496172 0.050706
vt 0.498923 0.064537
vt 0.498923 0.078638
vt 0.496172 0.092469
vt 0.490775 0.105497
vt 0.482941 0.117222
vt 0.472970 0.127193
vt 0.461245 0.135027
vt 0.448216 0.140424
vt 0.434386 0.143175
vt 0.420284 0.143175
vt 0.406454 0.140424
vt 0.393426 0.135027
vt 0.381701 0.127193
vt 0.371730 0.117222
vt 0.363895 0.105497
vt 0.111161 0.200832
vt 0.127313 0.403032
vt 0.121986 0.200525
vt 0.142474 0.402601
vt 0.022384 0.164176
vt 0.011411 0.147755
vt 0.003853 0.129508
vt 0.000000 0.110138
vt 0.000000 0.090388
vt 0.003853 0.071017
vt 0.011411 0.052770
vt 0.022384 0.036349
vt 0.036349 0.022384
vt 0.052770 0.011411
vt 0.071017 0.003853
vt 0.090388 0.000000
vt 0.110138 0.000000
vt 0.129508 0.003853
vt 0.147755 0.011411
vt 0.164176 0.022384
vt 0.178142 0.036349
vt 0.189114 0.052770
vt 0.196672 0.071017
vt 0.200525 0.090388
vt 0.200525 0.110138
vt 0.196672 0.129508
vt 0.189114 0.147755
vt 0.178142 0.164176
vt 0.164176 0.178142
vt 0.147755 0.189114
vt 0.129508 0.196672
vt 0.110138 0.200525
vt 0.090388 0.200525
vt 0.071017 0.196672
vt 0.052770 0.189114
vt 0.036349 0.178142
vt 0.624564 0.384469
vt 0.549048 0.384447
vt 0.549048 0.341271
vt 0.624564 0.341293
vt 0.200525 0.591205
vt 0.276042 0.590609
vt 0.276042 0.674625
vt 0.200525 0.675221
vt 0.895573 0.481391
vt 0.895573 0.405860
vt 0.938524 0.405982
vt 0.938524 0.481514
vt 0.860744 0.924257
vt 0.817566 0.881079
vt 0.817566 0.837902
vt 0.860744 0.837902
vt 0.903922 0.881079
vt 0.860744 0.924257
vt 0.860744 0.837902
vt 0.903922 0.837902
vt 0.623081 0.298484
vt 0.547564 0.298462
vt 0.268523 0.990616
vt 0.268523 0.915100
vt 0.307264 0.914445
vt 0.307264 0.989961
vt 0.495267 0.673586
vt 0.419750 0.673037
vt 0.419750 0.588675
vt 0.495267 0.589224
vt 0.941605 0.170189
vt 0.941605 0.094657
vt 0.982221 0.094251
vt 0.982221 0.169783
vt 0.903922 0.751546
vt 0.860744 0.708369
vt 0.860744 0.665191
vt 0.903922 0.665191
vt 0.903922 0.794724
vt 0.860744 0.837902
vt 0.860744 0.751547
vt 0.903922 0.751547
vt 0.199796 0.352949
vt 0.142474 0.352250
vt 0.142474 0.276731
vt 0.199796 0.277430
vt 0.496180 0.499995
vt 0.571699 0.499995
vt 0.570788 0.533339
vt 0.495269 0.533339
vt 0.200525 0.752508
vt 0.200525 0.676989
vt 0.268523 0.675221
vt 0.268523 0.750740
vt 0.453749 0.999085
vt 0.453749 0.923569
vt 0.487734 0.924484
vt 0.487734 1.000000
vt 0.076226 0.752806
vt 0.119403 0.795984
vt 0.119403 0.839162
vt 0.076226 0.839162
vt 0.722412 0.871341
vt 0.765590 0.828164
vt 0.765590 0.914519
vt 0.722412 0.914519
vt 0.495466 0.594114
vt 0.570985 0.594114
vt 0.495609 0.405860
vt 0.571128 0.405860
vt 0.570788 0.447804
vt 0.495269 0.447804
vt 0.495269 0.594825
vt 0.570798 0.594114
vt 0.570798 0.675898
vt 0.495269 0.676608
vt 0.903922 0.881802
vt 0.903922 0.806286
vt 0.946097 0.806604
vt 0.946097 0.882120
vt 0.647214 0.828255
vt 0.690391 0.871433
vt 0.690391 0.914611
vt 0.647214 0.914611
vt 0.855919 0.043178
vt 0.899096 0.000000
vt 0.899096 0.086355
vt 0.855919 0.086355
vt 0.496322 0.499995
vt 0.571841 0.499995
vt 0.903922 0.730460
vt 0.903922 0.654941
vt 0.946158 0.654643
vt 0.946158 0.730162
vt 0.651036 0.180223
vt 0.575505 0.179966
vt 0.575505 0.094251
vt 0.651036 0.094507
vt 0.903922 0.957978
vt 0.903922 0.882462
vt 0.945934 0.882120
vt 0.945934 0.957636
vt 0.856077 0.094251
vt 0.899255 0.137429
vt 0.899255 0.180606
vt 0.856077 0.180606
vt 0.860744 0.622014
vt 0.903922 0.578836
vt 0.903922 0.665191
vt 0.860744 0.665191
vt 0.243312 0.915829
vt 0.200525 0.914382
vt 0.200525 0.838863
vt 0.243312 0.840310
vt 0.034347 0.997899
vt 0.034347 0.922380
vt 0.068510 0.921503
vt 0.068510 0.997022
vt 0.571699 0.747705
vt 0.571699 0.672173
vt 0.644372 0.670880
vt 0.644372 0.746411
vt 0.386084 0.827989
vt 0.386084 0.752473
vt 0.419611 0.751538
vt 0.419611 0.827054
vt 0.795664 0.298462
vt 0.838841 0.341639
vt 0.838841 0.384817
vt 0.795664 0.384817
vt 0.200525 0.795686
vt 0.243703 0.752508
vt 0.243703 0.838863
vt 0.200525 0.838863
vt 0.199925 0.276731
vt 0.142474 0.276044
vt 0.142474 0.200525
vt 0.199925 0.201212
vt 0.499827 0.000000
vt 0.575346 -0.000000
vt 0.574442 0.033513
vt 0.498923 0.033513
vt 0.647357 0.407082
vt 0.722863 0.405860
vt 0.722863 0.483989
vt 0.647357 0.485211
vt 0.647214 0.990129
vt 0.647214 0.914610
vt 0.685826 0.915252
vt 0.685826 0.990771
vt 0.419750 0.837214
vt 0.462928 0.880391
vt 0.462928 0.923569
vt 0.419750 0.923569
vt 0.342906 0.881071
vt 0.386084 0.837893
vt 0.386083 0.924248
vt 0.342906 0.924248
vt 0.499132 0.094251
vt 0.574651 0.094251
vt 0.499254 0.094251
vt 0.574773 0.094251
vt 0.574442 0.136258
vt 0.498923 0.136258
vt 0.647357 0.492234
vt 0.571841 0.492212
vt 0.571841 0.405860
vt 0.647357 0.405882
vt 0.268523 0.914423
vt 0.268523 0.838904
vt 0.311695 0.838926
vt 0.311695 0.914445
vt 0.571699 0.834060
vt 0.614877 0.877237
vt 0.614877 0.920415
vt 0.571699 0.920415
vt 0.774389 0.881079
vt 0.817567 0.837902
vt 0.817567 0.924257
vt 0.774389 0.924257
vt 0.499986 0.188251
vt 0.575505 0.188251
vt 0.903922 0.806286
vt 0.903922 0.730767
vt 0.946102 0.730460
vt 0.946102 0.805979
vt 0.724158 0.578764
vt 0.648652 0.577488
vt 0.648652 0.499995
vt 0.724158 0.501271
vt 0.946102 0.806582
vt 0.946102 0.731062
vt 0.985284 0.730460
vt 0.985284 0.805979
vt 0.812741 -0.000000
vt 0.855919 0.043178
vt 0.855919 0.086355
vt 0.812741 0.086355
vt 0.812900 0.137429
vt 0.856077 0.094251
vt 0.856077 0.180606
vt 0.812900 0.180606
vt 0.189994 0.752941
vt 0.134726 0.752221
vt 0.134726 0.676689
vt 0.189994 0.677409
vt 0.419750 0.999972
vt 0.419750 0.924453
vt 0.453749 0.923569
vt 0.453749 0.999088
vt 0.472047 0.299035
vt 0.546249 0.365162
vt 0.470732 0.365736
vt 0.547564 0.392584
vt 0.472047 0.393157
vt 0.043178 0.921503
vt 0.000000 0.878326
vt 0.000000 0.835148
vt 0.043178 0.835148
vt 0.860744 0.794724
vt 0.817567 0.837902
vt 0.817567 0.751547
vt 0.860744 0.751547
vt 0.341780 0.559247
vt 0.280721 0.559264
vt 0.280721 0.483732
vt 0.341780 0.483716
vt 0.200910 0.406245
vt 0.276441 0.406245
vt 0.276057 0.447136
vt 0.200525 0.447136
vt 0.342906 0.591914
vt 0.418423 0.591301
vt 0.418423 0.675192
vt 0.342906 0.675805
vt 0.722412 0.990038
vt 0.722412 0.914519
vt 0.761143 0.915152
vt 0.761143 0.990672
vt 0.924496 0.289559
vt 0.881319 0.246381
vt 0.881319 0.203204
vt 0.924496 0.203204
vt 0.538447 0.881971
vt 0.495269 0.925149
vt 0.495269 0.838794
vt 0.538447 0.838794
vt 0.201274 0.501893
vt 0.276806 0.501893
vt 0.896868 0.568087
vt 0.896868 0.492555
vt 0.939725 0.492409
vt 0.939725 0.567941
vt 0.075517 0.671535
vt 0.000000 0.671003
vt 0.000000 0.586529
vt 0.075517 0.587061
vt 0.134726 0.914815
vt 0.134726 0.839296
vt 0.177902 0.839309
vt 0.177902 0.914828
vt 0.860744 0.665191
vt 0.817567 0.622014
vt 0.817567 0.578836
vt 0.860744 0.578836
vt 0.177904 0.796118
vt 0.134726 0.839296
vt 0.134726 0.752941
vt 0.177904 0.752941
vt 0.774389 0.741808
vt 0.722412 0.740707
vt 0.722412 0.665191
vt 0.774389 0.666292
vt 0.685826 0.990789
vt 0.685826 0.915257
vt 0.722163 0.914611
vt 0.722163 0.990142
vt 0.419750 0.750859
vt 0.419750 0.675340
vt 0.488076 0.673586
vt 0.488076 0.749105
vt 0.946220 0.654966
vt 0.946220 0.579447
vt 0.985289 0.578836
vt 0.985289 0.654355
vt 0.860744 0.751547
vt 0.817567 0.708369
vt 0.817567 0.665191
vt 0.881319 0.246381
vt 0.838141 0.289559
vt 0.838141 0.203204
vt 0.881319 0.203204
vt 0.403640 0.751538
vt 0.342906 0.751321
vt 0.342906 0.675805
vt 0.403640 0.676022
vt 0.000632 0.403615
vt 0.076148 0.403615
vt 0.075516 0.442675
vt 0.000000 0.442675
vt 0.335550 0.677030
vt 0.335550 0.752549
vt 0.571699 0.995947
vt 0.571699 0.920415
vt 0.608478 0.921042
vt 0.608478 0.996574
vt 0.311701 0.838904
vt 0.268523 0.795726
vt 0.268523 0.752549
vt 0.311701 0.752549
vt 0.852396 0.449037
vt 0.809218 0.492215
vt 0.809218 0.405860
vt 0.852396 0.405860
vt 0.000710 0.500137
vt 0.076226 0.500137
vt 0.938524 0.481772
vt 0.938524 0.406256
vt 0.980134 0.405860
vt 0.980134 0.481376
vt 0.075519 0.586529
vt 0.000000 0.586457
vt 0.000000 0.500137
vt 0.075519 0.500208
vt 0.899096 0.075722
vt 0.899096 0.000190
vt 0.941727 0.000000
vt 0.941727 0.075532
vt 0.882019 0.384817
vt 0.838841 0.341639
vt 0.838841 0.298462
vt 0.882019 0.298462
vt 0.853690 0.535587
vt 0.810513 0.578764
vt 0.810513 0.492409
vt 0.853690 0.492409
vt 0.752486 0.375021
vt 0.700075 0.373981
vt 0.700075 0.298462
vt 0.752486 0.299502
vt 0.076489 0.500097
vt 0.152005 0.500097
vt 0.151742 0.542588
vt 0.076226 0.542588
vt 0.624564 0.299583
vt 0.700075 0.298462
vt 0.700075 0.377306
vt 0.624564 0.378427
vt 0.939726 0.567941
vt 0.939726 0.492409
vt 0.981106 0.492751
vt 0.981106 0.568283
vt 0.895573 0.492215
vt 0.852396 0.449037
vt 0.852396 0.405860
vt 0.895573 0.405860
vt 0.896868 0.535587
vt 0.853690 0.578764
vt 0.853690 0.492409
vt 0.896868 0.492409
vt 0.077422 0.592747
vt 0.152938 0.592747
vt 0.471603 0.203204
vt 0.547119 0.203204
vt 0.546248 0.238161
vt 0.470732 0.238161
vt 0.202716 0.501893
vt 0.278235 0.501893
vt 0.276044 0.557629
vt 0.200525 0.557629
vt 0.276970 0.590609
vt 0.201451 0.590609
vt 0.043178 0.835148
vt -0.000000 0.791971
vt -0.000000 0.748793
vt 0.043178 0.748793
vt 0.462928 0.794036
vt 0.419750 0.837214
vt 0.462928 0.750859
vt 0.471062 0.298462
vt 0.546578 0.298462
vt 0.941728 0.075980
vt 0.941728 0.000448
vt 0.981767 0.000000
vt 0.981767 0.075532
vt 0.726386 0.078240
vt 0.650878 0.076963
vt 0.650878 -0.000000
vt 0.726386 0.001277
vt 0.925151 0.374339
vt 0.925151 0.298820
vt 0.966956 0.298462
vt 0.966956 0.373981
vt 0.538447 0.838794
vt 0.495269 0.795616
vt 0.495269 0.752439
vt 0.538447 0.752439
vt 0.386084 0.794716
vt 0.342906 0.837893
vt 0.342906 0.751538
vt 0.386084 0.751538
vt 0.134726 0.752806
vt 0.076226 0.752205
vt 0.076226 0.676689
vt 0.134726 0.677290
vt 0.342984 0.502318
vt 0.418516 0.502318
vt 0.418438 0.545404
vt 0.342906 0.545404
vt 0.495269 0.588675
vt 0.419750 0.588619
vt 0.419750 0.502286
vt 0.495269 0.502341
vt 0.899255 0.169770
vt 0.899255 0.094251
vt 0.941605 0.094530
vt 0.941605 0.170049
vt 0.817567 0.837902
vt 0.774389 0.794724
vt 0.774389 0.751547
vt 0.817567 0.751547
vt 0.810513 0.535587
vt 0.767335 0.578764
vt 0.767335 0.492409
vt 0.810513 0.492409
vt 0.344023 0.591301
vt 0.419554 0.591301
vt 0.419737 0.405860
vt 0.495269 0.405860
vt 0.494681 0.443459
vt 0.419149 0.443459
vt 0.647214 0.586567
vt 0.722724 0.585427
vt 0.722724 0.664052
vt 0.647214 0.665191
vt 0.608478 0.995934
vt 0.608478 0.920415
vt 0.642986 0.921277
vt 0.642986 0.996796
vt 0.690392 0.828255
vt 0.647214 0.785078
vt 0.647214 0.741900
vt 0.690392 0.741900
vt 0.614877 0.790882
vt 0.571699 0.834060
vt 0.571699 0.747705
vt 0.614877 0.747705
vt 0.419603 0.502286
vt 0.495134 0.502286
vt 0.134726 0.991005
vt 0.134726 0.915486
vt 0.173080 0.914828
vt 0.173080 0.990347
vt 0.276806 0.483716
vt 0.276806 0.408200
vt 0.341780 0.406246
vt 0.341780 0.481762
vt 0.538447 0.828876
vt 0.538447 0.753357
vt 0.571599 0.752439
vt 0.571599 0.827958
vt 0.769563 0.000000
vt 0.812741 0.043178
vt 0.812741 0.086355
vt 0.769563 0.086355
vt 0.794964 0.246381
vt 0.838141 0.203204
vt 0.838141 0.289559
vt 0.794964 0.289559
vt 0.555373 0.752439
vt 0.495269 0.752140
vt 0.495269 0.676608
vt 0.555373 0.676907
vt 0.076226 0.914721
vt 0.076226 0.839202
vt 0.119386 0.839162
vt 0.119386 0.914681
vt 0.151738 0.676689
vt 0.076226 0.675970
vt 0.076226 0.592747
vt 0.151738 0.593465
vt 0.924496 0.279073
vt 0.924496 0.203554
vt 0.966368 0.203204
vt 0.966368 0.278723
vt 0.769722 0.094251
vt 0.812899 0.137429
vt 0.812899 0.180606
vt 0.769722 0.180606
vt 0.774389 0.708369
vt 0.817567 0.665191
vt 0.774389 0.751547
vt 0.772202 0.661951
vt 0.722724 0.660959
vt 0.722724 0.585427
vt 0.772202 0.586419
vt 0.343491 0.405860
vt 0.419010 0.405860
vt 0.418425 0.445277
vt 0.342906 0.445277
vt 0.571699 0.585895
vt 0.647214 0.585427
vt 0.647214 0.670412
vt 0.571699 0.670880
vt 0.903922 0.654355
vt 0.903922 0.578836
vt 0.946220 0.579124
vt 0.946220 0.654643
vt 0.774389 0.578836
vt 0.817567 0.622014
vt 0.817567 0.665191
vt 0.774389 0.665191
vt 0.722412 0.784986
vt 0.765590 0.741808
vt 0.765590 0.828164
vt 0.722412 0.828164
vt 0.343630 0.502318
vt 0.419149 0.502318
vt 0.548136 0.203414
vt 0.623655 0.203204
vt 0.622638 0.231075
vt 0.547119 0.231285
vt 0.000000 0.747052
vt 0.000000 0.671535
vt 0.069914 0.673277
vt 0.069914 0.748793
vt 0.000000 0.997022
vt 0.000000 0.921503
vt 0.034347 0.922372
vt 0.034347 0.997891
vt 0.724158 0.492409
vt 0.767335 0.535587
vt 0.767335 0.578764
vt 0.726544 0.137429
vt 0.769722 0.094251
vt 0.769722 0.180606
vt 0.726544 0.180606
vt 0.547119 0.292133
vt 0.622638 0.291923
vt 0.076226 0.990891
vt 0.076226 0.915372
vt 0.114702 0.914721
vt 0.114702 0.990240
vt 0.699182 0.284132
vt 0.623655 0.283287
vt 0.623655 0.203204
vt 0.699182 0.204049
vt 0.200525 0.992050
vt 0.200525 0.916533
vt 0.238526 0.915829
vt 0.238526 0.991345
vt 0.752486 0.298462
vt 0.795663 0.341639
vt 0.795663 0.384817
vt 0.752486 0.384817
vt 0.766041 0.449037
vt 0.809218 0.405860
vt 0.809218 0.492215
vt 0.766041 0.492215
vt 0.751786 0.279753
vt 0.699182 0.278723
vt 0.699182 0.203204
vt 0.751786 0.204233
vt 0.648652 0.585427
vt 0.573133 0.585371
vt 0.573133 0.542204
vt 0.648652 0.542260
vt 0.575346 0.000137
vt 0.650878 0.000000
vt 0.650878 0.086172
vt 0.575346 0.086309
vt 0.882019 0.374046
vt 0.882019 0.298530
vt 0.925151 0.298462
vt 0.925151 0.373978
vt 0.722863 0.405860
vt 0.766041 0.449037
vt 0.766041 0.492215
vt 0.722863 0.492215
vt 0.751786 0.246381
vt 0.794964 0.203204
vt 0.751786 0.289559
vt 0.647218 0.500050
vt 0.571699 0.499995
vt 0.076819 0.403615
vt 0.152338 0.403615
vt 0.151745 0.442923
vt 0.076226 0.442923
vt 0.647214 0.740723
vt 0.647214 0.665191
vt 0.722412 0.666368
vt 0.722412 0.741900
vt 0.945933 0.957636
vt 0.945933 0.882120
vt 0.985654 0.882701
vt 0.985654 0.958217
vt 0.156618 0.352949
vt 0.199796 0.396127
vt 0.199796 0.439304
vt 0.156618 0.439304
vt 0.726386 0.043178
vt 0.769563 -0.000000
vt 0.769563 0.086355
vt 0.726386 0.086355
vt 0.076938 0.500097
vt 0.152457 0.500097
vt 0.043178 0.825286
vt 0.043178 0.749770
vt 0.075665 0.748793
vt 0.075665 0.824309
vt 0.726544 0.172268
vt 0.651036 0.170971
vt 0.651036 0.094251
vt 0.726544 0.095548
vt 0.307264 0.990660
vt 0.307264 0.915128
vt 0.342703 0.914445
vt 0.342703 0.989976
vt 0.199796 0.525659
vt 0.156618 0.482482
vt 0.156618 0.439304
vt 0.199796 0.439304
vt 0.199796 0.568837
vt 0.156618 0.612015
vt 0.156618 0.525659
vt 0.199796 0.525659
vt 0.341536 0.634965
vt 0.280721 0.634783
vt 0.280721 0.559264
vt 0.341536 0.559446
s 0
usemtl body
f 1/1/1 2/2/1 4/3/1 3/4/1
f 3/4/2 4/3/2 6/5/2 5/6/2
f 5/6/3 6/5/3 8/7/3 7/8/3
f 7/8/4 8/7/4 10/9/4 9/10/4
f 9/10/5 10/9/5 12/11/5 11/12/5
f 11/12/6 12/11/6 14/13/6 13/14/6
f 13/14/7 14/13/7 16/15/7 15/16/7
f 15/16/8 16/15/8 18/17/8 17/18/8
f 17/18/9 18/17/9 20/19/9 19/20/9
f 19/21/10 20/22/10 22/23/10 21/24/10
f 21/24/11 22/23/11 24/25/11 23/26/11
f 23/26/12 24/25/12 26/27/12 25/28/12
f 25/28/13 26/27/13 28/29/13 27/30/13
f 27/30/14 28/29/14 30/31/14 29/32/14
f 29/32/15 30/31/15 32/33/15 31/34/15
f 31/34/16 32/33/16 34/35/16 33/36/16
f 33/36/17 34/35/17 36/37/17 35/38/17
f 35/39/18 36/40/18 38/41/18 37/42/18
f 37/42/19 38/41/19 40/43/19 39/44/19
f 39/44/20 40/43/20 42/45/20 41/46/20
f 41/46/21 42/45/21 44/47/21 43/48/21
f 43/48/22 44/47/22 46/49/22 45/50/22
f 45/50/23 46/49/23 48/51/23 47/52/23
f 47/52/24 48/51/24 50/53/24 49/54/24
f 49/55/25 50/56/25 52/57/25 51/58/25
f 51/58/26 52/57/26 54/59/26 53/60/26
f 53/60/27 54/59/27 56/61/27 55/62/27
f 55/62/28 56/61/28 58/63/28 57/64/28
f 57/64/29 58/63/29 60/65/29 59/66/29
f 59/66/30 60/65/30 62/67/30 61/68/30
f 4/69/31 2/70/31 64/71/31
f 4/69/31 64/71/31 62/72/31
f 4/69/31 62/72/31 60/73/31
f 4/69/31 60/73/31 58/74/31
f 4/69/31 58/74/31 56/75/31
f 4/69/31 56/75/31 54/76/31
f 4/69/31 54/76/31 52/77/31
f 4/69/31 52/77/31 50/78/31
f 4/69/31 50/78/31 48/79/31
f 4/69/31 48/79/31 46/80/31
f 4/69/31 46/80/31 44/81/31
f 4/69/31 44/81/31 42/82/31
f 4/69/31 42/82/31 40/83/31
f 4/69/31 40/83/31 38/84/31
f 4/69/31 38/84/31 36/85/31
f 4/69/31 36/85/31 34/86/31
f 4/69/31 34/86/31 32/87/31
f 4/69/31 32/87/31 30/88/31
f 4/69/31 30/88/31 28/89/31
f 4/69/31 28/89/31 26/90/31
f 4/69/31 26/90/31 24/91/31
f 4/69/31 24/91/31 22/92/31
f 4/69/31 22/92/31 20/93/31
f 4/69/31 20/93/31 18/94/31
f 4/69/31 18/94/31 16/95/31
f 4/69/31 16/95/31 14/96/31
f 4/69/31 14/96/31 12/97/31
f 4/69/31 12/97/31 10/98/31
f 4/69/31 10/98/31 8/99/31
f 4/69/31 8/99/31 6/100/31
f 61/68/32 62/67/32 64/101/32 63/102/32
f 63/102/33 64/101/33 2/103/33 1/104/33
f 1/105/34 3/106/34 5/107/34
f 1/105/34 5/107/34 7/108/34
f 1/105/34 7/108/34 9/109/34
f 1/105/34 9/109/34 11/110/34
f 1/105/34 11/110/34 13/111/34
f 1/105/34 13/111/34 15/112/34
f 1/105/34 15/112/34 17/113/34
f 1/105/34 17/113/34 19/114/34
f 1/105/34 19/114/34 21/115/34
f 1/105/34 21/115/34 23/116/34
f 1/105/34 23/116/34 25/117/34
f 1/105/34 25/117/34 27/118/34
f 1/105/34 27/118/34 29/119/34
f 1/105/34 29/119/34 31/120/34
f 1/105/34 31/120/34 33/121/34
f 1/105/34 33/121/34 35/122/34
f 1/105/34 35/122/34 37/123/34
f 1/105/34 37/123/34 39/124/34
f 1/105/34 39/124/34 41/125/34
f 1/105/34 41/125/34 43/126/34
f 1/105/34 43/126/34 45/127/34
f 1/105/34 45/127/34 47/128/34
f 1/105/34 47/128/34 49/129/34
f 1/105/34 49/129/34 51/130/34
f 1/105/34 51/130/34 53/131/34
f 1/105/34 53/131/34 55/132/34
f 1/105/34 55/132/34 57/133/34
f 1/105/34 57/133/34 59/134/34
f 1/105/34 59/134/34 61/135/34
f 1/105/34 61/135/34 63/136/34
usemtl cutter
f 65/137/35 66/138/35 72/139/35 71/140/35
f 69/141/36 70/142/36 68/143/36 67/144/36
f 67/145/37 68/146/37 66/147/37 65/148/37
f 70/149/31 72/150/31 66/151/31 68/152/31
f 71/153/34 69/154/34 67/155/34 65/156/34
f 69/157/38 71/140/38 72/139/38 70/158/38
f 73/159/39 74/160/39 80/161/39 79/162/39
f 77/163/40 78/164/40 76/165/40 75/166/40
f 75/167/41 76/168/41 74/169/41 73/170/41
f 78/171/31 80/172/31 74/173/31 76/174/31
f 79/175/34 77/176/34 75/177/34 73/178/34
f 77/179/42 79/180/42 80/181/42 78/182/42
f 81/183/43 82/184/43 88/185/43 87/186/43
f 85/187/44 86/188/44 84/189/44 83/190/44
f 83/191/45 84/192/45 82/193/45 81/194/45
f 86/195/31 88/196/31 82/197/31 84/198/31
f 87/199/34 85/200/34 83/201/34 81/202/34
f 85/203/46 87/186/46 88/185/46 86/204/46
f 89/205/47 90/206/47 96/207/47 95/208/47
f 93/209/48 94/210/48 92/211/48 91/212/48
f 91/213/49 92/214/49 90/215/49 89/216/49
f 94/217/31 96/218/31 90/219/31 92/220/31
f 95/221/34 93/222/34 91/223/34 89/224/34
f 93/225/50 95/208/50 96/207/50 94/226/50
f 97/227/51 98/228/51 104/229/51 103/230/51
f 101/231/52 102/232/52 100/233/52 99/234/52
f 99/235/53 100/236/53 98/237/53 97/238/53
f 102/239/31 104/240/31 98/241/31 100/242/31
f 103/243/34 101/244/34 99/245/34 97/246/34
f 101/247/54 103/248/54 104/249/54 102/250/54
f 105/251/55 106/252/55 112/253/55 111/254/55
f 109/255/56 110/256/56 108/257/56 107/258/56
f 107/259/57 108/260/57 106/261/57 105/262/57
f 110/263/31 112/264/31 106/265/31 108/266/31
f 111/267/34 109/268/34 107/269/34 105/270/34
f 109/271/58 111/272/58 112/273/58 110/274/58
f 113/275/59 114/276/59 120/277/59 119/278/59
f 117/279/60 118/280/60 116/281/60 115/282/60
f 115/283/61 116/284/61 114/285/61 113/286/61
f 118/287/31 120/288/31 114/289/31 116/290/31
f 119/291/34 117/292/34 115/293/34 113/294/34
f 117/295/62 119/278/62 120/277/62 118/296/62
f 121/297/36 122/298/36 128/299/36 127/300/36
f 125/301/35 126/302/35 124/303/35 123/304/35
f 123/305/63 124/306/63 122/307/63 121/308/63
f 126/309/31 128/310/31 122/311/31 124/312/31
f 127/313/34 125/314/34 123/315/34 121/316/34
f 125/317/64 127/300/64 128/299/64 126/318/64
f 129/319/40 130/320/40 136/321/40 135/322/40
f 133/323/39 134/324/39 132/325/39 131/326/39
f 131/327/65 132/328/65 130/329/65 129/330/65
f 134/331/31 136/332/31 130/333/31 132/334/31
f 135/335/34 133/336/34 131/337/34 129/338/34
f 133/339/66 135/340/66 136/341/66 134/342/66
f 137/343/44 138/344/44 144/345/44 143/346/44
f 141/347/43 142/158/43 140/348/43 139/349/43
f 139/349/67 140/348/67 138/350/67 137/351/67
f 142/352/31 144/353/31 138/354/31 140/355/31
f 143/356/34 141/357/34 139/358/34 137/359/34
f 141/360/68 143/361/68 144/362/68 142/363/68
f 145/364/48 146/365/48 152/366/48 151/367/48
f 149/368/47 150/369/47 148/370/47 147/371/47
f 147/372/69 148/373/69 146/374/69 145/375/69
f 150/376/31 152/377/31 146/378/31 148/379/31
f 151/380/34 149/381/34 147/382/34 145/383/34
f 149/384/70 151/367/70 152/366/70 150/385/70
f 153/386/52 154/387/52 160/388/52 159/389/52
f 157/390/51 158/391/51 156/392/51 155/393/51
f 155/394/71 156/395/71 154/396/71 153/397/71
f 158/398/31 160/399/31 154/400/31 156/401/31
f 159/402/34 157/403/34 155/404/34 153/405/34
f 157/406/72 159/407/72 160/408/72 158/409/72
f 161/410/56 162/411/56 168/412/56 167/413/56
f 165/414/55 166/415/55 164/416/55 163/417/55
f 163/418/73 164/419/73 162/420/73 161/421/73
f 166/422/31 168/423/31 162/424/31 164/398/31
f 167/425/34 165/426/34 163/427/34 161/428/34
f 165/429/74 167/430/74 168/431/74 166/432/74
f 169/433/60 170/434/60 176/435/60 175/436/60
f 173/190/59 174/189/59 172/437/59 171/438/59
f 171/439/75 172/440/75 170/441/75 169/442/75
f 174/443/31 176/444/31 170/445/31 172/446/31
f 175/447/34 173/448/34 171/449/34 169/450/34
f 173/451/76 175/436/76 176/435/76 174/452/76
f 177/453/77 178/454/77 184/455/77 183/456/77
f 181/457/78 182/458/78 180/459/78 179/460/78
f 179/461/79 180/462/79 178/463/79 177/464/79
f 182/465/31 184/466/31 178/467/31 180/468/31
f 183/469/34 181/470/34 179/471/34 177/472/34
f 181/473/80 183/474/80 184/475/80 182/476/80
f 185/477/81 186/478/81 192/479/81 191/480/81
f 189/481/82 190/482/82 188/483/82 187/484/82
f 187/485/83 188/486/83 186/487/83 185/488/83
f 190/489/31 192/490/31 186/491/31 188/492/31
f 191/493/34 189/494/34 187/495/34 185/496/34
f 189/497/84 191/480/84 192/479/84 190/498/84
f 193/499/85 194/500/85 200/501/85 199/502/85
f 197/503/86 198/504/86 196/505/86 195/506/86
f 195/506/87 196/505/87 194/507/87 193/508/87
f 198/509/31 200/510/31 194/511/31 196/512/31
f 199/513/34 197/514/34 195/414/34 193/515/34
f 197/516/88 199/502/88 200/501/88 198/517/88
f 201/518/89 202/519/89 208/520/89 207/521/89
f 205/522/90 206/523/90 204/524/90 203/525/90
f 203/526/91 204/527/91 202/528/91 201/529/91
f 206/530/31 208/531/31 202/532/31 204/533/31
f 207/534/34 205/535/34 203/536/34 201/537/34
f 205/538/92 207/539/92 208/540/92 206/541/92
f 209/542/93 210/543/93 216/544/93 215/545/93
f 213/546/94 214/547/94 212/548/94 211/549/94
f 211/550/95 212/551/95 210/552/95 209/553/95
f 214/554/31 216/555/31 210/556/31 212/557/31
f 215/558/34 213/559/34 211/560/34 209/561/34
f 213/562/96 215/545/96 216/544/96 214/563/96
f 217/564/97 218/565/97 224/566/97 223/567/97
f 221/568/98 222/569/98 220/570/98 219/571/98
f 219/572/99 220/573/99 218/574/99 217/575/99
f 222/576/31 224/577/31 218/578/31 220/579/31
f 223/580/34 221/581/34 219/582/34 217/583/34
f 221/584/100 223/567/100 224/566/100 222/585/100
f 225/586/101 226/587/101 232/588/101 231/589/101
f 229/590/102 230/591/102 228/592/102 227/593/102
f 227/594/103 228/595/103 226/596/103 225/597/103
f 230/598/31 232/599/31 226/600/31 228/601/31
f 231/602/34 229/603/34 227/604/34 225/605/34
f 229/606/104 231/607/104 232/608/104 230/609/104
f 233/610/78 234/611/78 240/612/78 239/613/78
f 237/614/77 238/615/77 236/616/77 235/617/77
f 235/618/105 236/619/105 234/620/105 233/621/105
f 238/622/31 240/623/31 234/624/31 236/625/31
f 239/626/34 237/627/34 235/358/34 233/628/34
f 237/629/106 239/630/106 240/631/106 238/632/106
f 241/633/82 242/634/82 248/635/82 247/636/82
f 245/637/81 246/638/81 244/639/81 243/640/81
f 243/641/107 244/642/107 242/643/107 241/644/107
f 246/645/31 248/646/31 242/647/31 244/648/31
f 247/649/34 245/650/34 243/651/34 241/652/34
f 245/653/108 247/636/108 248/635/108 246/654/108
f 249/655/86 250/656/86 256/657/86 255/658/86
f 253/659/85 254/660/85 252/661/85 251/662/85
f 251/663/109 252/664/109 250/665/109 249/666/109
f 254/667/31 256/668/31 250/669/31 252/323/31
f 255/670/34 253/671/34 251/672/34 249/673/34
f 253/674/110 255/658/110 256/657/110 254/675/110
f 257/676/90 258/677/90 264/678/90 263/679/90
f 261/680/89 262/681/89 260/682/89 259/683/89
f 259/684/111 260/685/111 258/686/111 257/687/111
f 262/688/31 264/689/31 258/690/31 260/691/31
f 263/692/34 261/693/34 259/694/34 257/695/34
f 261/696/112 263/697/112 264/698/112 262/699/112
f 265/700/94 266/701/94 272/702/94 271/703/94
f 269/704/93 270/705/93 268/706/93 267/707/93
f 267/708/113 268/709/113 266/710/113 265/711/113
f 270/712/31 272/713/31 266/714/31 268/715/31
f 271/716/34 269/717/34 267/605/34 265/718/34
f 269/719/114 271/703/114 272/702/114 270/720/114
f 273/721/98 274/722/98 280/723/98 279/724/98
f 277/725/97 278/726/97 276/727/97 275/728/97
f 275/729/115 276/730/115 274/731/115 273/732/115
f 278/733/31 280/734/31 274/735/31 276/736/31
f 279/737/34 277/738/34 275/739/34 273/740/34
f 277/741/116 279/724/116 280/723/116 278/742/116
f 281/743/102 282/744/102 288/745/102 287/746/102
f 285/747/101 286/748/101 284/749/101 283/750/101
f 283/751/117 284/752/117 282/753/117 281/754/117
f 286/755/31 288/756/31 282/757/31 284/758/31
f 287/759/34 285/760/34 283/761/34 281/762/34
f 285/763/118 287/764/118 288/765/118 286/766/118

# Reversed faces (double-sided)
vn -0.087700 -0.445800 0.890800
vn -0.259800 -0.445800 0.856600
vn -0.422000 -0.445800 0.789400
vn -0.567900 -0.445800 0.691900
vn -0.691900 -0.445800 0.567900
vn -0.789400 -0.445800 0.422000
vn -0.856600 -0.445800 0.259800
vn -0.890800 -0.445800 0.087700
vn -0.890800 -0.445800 -0.087700
vn -0.856600 -0.445800 -0.259800
vn -0.789400 -0.445800 -0.422000
vn -0.691900 -0.445800 -0.567900
vn -0.567900 -0.445800 -0.691900
vn -0.422000 -0.445800 -0.789400
vn -0.259800 -0.445800 -0.856600
vn -0.087700 -0.445800 -0.890800
vn 0.087700 -0.445800 -0.890800
vn 0.259800 -0.445800 -0.856600
vn 0.422000 -0.445800 -0.789400
vn 0.567900 -0.445800 -0.691900
vn 0.691900 -0.445800 -0.567900
vn 0.789400 -0.445800 -0.422000
vn 0.856600 -0.445800 -0.259800
vn 0.890800 -0.445800 -0.087700
vn 0.890800 -0.445800 0.087700
vn 0.856600 -0.445800 0.259800
vn 0.789400 -0.445800 0.422000
vn 0.691900 -0.445800 0.567900
vn 0.567900 -0.445800 0.691900
vn 0.422000 -0.445800 0.789400
vn 0.000000 -1.000000 0.000000
vn 0.000000 -1.000000 0.000000
vn 0.000000 -1.000000 0.000000
vn 0.000000 -1.000000 0.000000
vn 0.000000 -1.000000 0.000000
vn 0.000000 -1.000000 0.000000
vn 0.000000 -1.000000 0.000000
vn 0.000000 -1.000000 0.000000
vn 0.000000 -1.000000 0.000000
vn 0.000000 -1.000000 0.000000
vn 0.000000 -1.000000 0.000000
vn 0.000000 -1.000000 0.000000
vn 0.000000 -1.000000 0.000000
vn 0.000000 -1.000000 0.000000
vn 0.000000 -1.000000 0.000000
vn 0.000000 -1.000000 0.000000
vn 0.000000 -1.000000 0.000000
vn 0.000000 -1.000000 0.000000
vn 0.000000 -1.000000 0.000000
vn 0.000000 -1.000000 0.000000
vn 0.000000 -1.000000 0.000000
vn 0.000000 -1.000000 0.000000
vn 0.000000 -1.000000 0.000000
vn 0.000000 -1.000000 0.000000
vn 0.000000 -1.000000 0.000000
vn 0.000000 -1.000000 0.000000
vn 0.000000 -1.000000 0.000000
vn 0.000000 -1.000000 0.000000
vn 0.000000 -1.000000 0.000000
vn 0.000000 -1.000000 0.000000
vn 0.259800 -0.445800 0.856600
vn 0.087700 -0.445800 0.890800
vn 0.000000 1.000000 0.000000
vn 0.000000 1.000000 0.000000
vn 0.000000 1.000000 0.000000
vn 0.000000 1.000000 0.000000
vn 0.000000 1.000000 0.000000
vn 0.000000 1.000000 0.000000
vn 0.000000 1.000000 0.000000
vn 0.000000 1.000000 0.000000
vn 0.000000 1.000000 0.000000
vn 0.000000 1.000000 0.000000
vn 0.000000 1.000000 0.000000
vn 0.000000 1.000000 0.000000
vn 0.000000 1.000000 0.000000
vn 0.000000 1.000000 0.000000
vn 0.000000 1.000000 0.000000
vn 0.000000 1.000000 0.000000
vn 0.000000 1.000000 0.000000
vn 0.000000 1.000000 0.000000
vn 0.000000 1.000000 0.000000
vn 0.000000 1.000000 0.000000
vn 0.000000 1.000000 0.000000
vn 0.000000 1.000000 0.000000
vn 0.000000 1.000000 0.000000
vn 0.000000 1.000000 0.000000
vn 0.000000 1.000000 0.000000
vn 0.000000 1.000000 0.000000
vn 0.000000 1.000000 0.000000
vn 0.000000 1.000000 0.000000
vn 0.000000 1.000000 0.000000
vn 0.000000 1.000000 0.000000
vn 0.707100 0.000000 0.707100
vn -0.707100 0.000000 -0.707100
vn 0.707100 0.000000 -0.707100
vn 0.000000 -1.000000 0.000000
vn 0.000000 1.000000 0.000000
vn 0.000000 0.000000 1.000000
vn 0.330300 0.000000 0.943900
vn -0.330300 0.000000 -0.943900
vn 0.943900 0.000000 -0.330300
vn 0.000000 -1.000000 0.000000
vn 0.000000 1.000000 0.000000
vn -0.433900 0.000000 0.901000
vn -0.112000 0.000000 0.993700
vn 0.112000 0.000000 -0.993700
vn 0.993700 0.000000 0.112000
vn 0.000000 -1.000000 0.000000
vn 0.000000 1.000000 0.000000
vn -0.781800 0.000000 0.623500
vn -0.532000 0.000000 0.846700
vn 0.532000 0.000000 -0.846700
vn 0.846700 0.000000 0.532000
vn 0.000000 -1.000000 0.000000
vn 0.000000 1.000000 0.000000
vn -0.974900 0.000000 0.222500
vn -0.846700 0.000000 0.532000
vn 0.846700 0.000000 -0.532000
vn 0.532000 0.000000 0.846700
vn 0.000000 -1.000000 0.000000
vn 0.000000 1.000000 0.000000
vn -0.974900 0.000000 -0.222500
vn -0.993700 0.000000 0.112000
vn 0.993700 0.000000 -0.112000
vn 0.112000 0.000000 0.993700
vn 0.000000 -1.000000 0.000000
vn 0.000000 1.000000 0.000000
vn -0.781800 0.000000 -0.623500
vn -0.943900 0.000000 -0.330300
vn 0.943900 0.000000 0.330300
vn -0.330300 0.000000 0.943900
vn 0.000000 -1.000000 0.000000
vn 0.000000 1.000000 0.000000
vn -0.433900 0.000000 -0.901000
vn -0.707100 0.000000 -0.707100
vn 0.707100 0.000000 0.707100
vn -0.707100 0.000000 0.707100
vn 0.000000 -1.000000 0.000000
vn 0.000000 1.000000 0.000000
vn 0.000000 0.000000 -1.000000
vn -0.330300 0.000000 -0.943900
vn 0.330300 0.000000 0.943900
vn -0.943900 0.000000 0.330300
vn 0.000000 -1.000000 0.000000
vn 0.000000 1.000000 0.000000
vn 0.433900 0.000000 -0.901000
vn 0.112000 0.000000 -0.993700
vn -0.112000 0.000000 0.993700
vn -0.993700 0.000000 -0.112000
vn 0.000000 -1.000000 0.000000
vn 0.000000 1.000000 0.000000
vn 0.781800 0.000000 -0.623500
vn 0.532000 0.000000 -0.846700
vn -0.532000 0.000000 0.846700
vn -0.846700 0.000000 -0.532000
vn 0.000000 -1.000000 0.000000
vn 0.000000 1.000000 0.000000
vn 0.974900 0.000000 -0.222500
vn 0.846700 0.000000 -0.532000
vn -0.846700 0.000000 0.532000
vn -0.532000 0.000000 -0.846700
vn 0.000000 -1.000000 0.000000
vn 0.000000 1.000000 0.000000
vn 0.974900 0.000000 0.222500
vn 0.993700 0.000000 -0.112000
vn -0.993700 0.000000 0.112000
vn -0.112000 0.000000 -0.993700
vn 0.000000 -1.000000 0.000000
vn 0.000000 1.000000 0.000000
vn 0.781800 0.000000 0.623500
vn 0.943900 0.000000 0.330300
vn -0.943900 0.000000 -0.330300
vn 0.330300 0.000000 -0.943900
vn 0.000000 -1.000000 0.000000
vn 0.000000 1.000000 0.000000
vn 0.433900 0.000000 0.901000
vn 0.500000 0.000000 0.866000
vn -0.500000 0.000000 -0.866000
vn 0.866000 0.000000 -0.500000
vn 0.000000 -1.000000 0.000000
vn 0.000000 1.000000 0.000000
vn -0.258800 0.000000 0.965900
vn 0.826200 0.000000 0.563300
vn -0.826200 0.000000 -0.563300
vn 0.563300 0.000000 -0.826200
vn 0.000000 -1.000000 0.000000
vn 0.000000 1.000000 0.000000
vn 0.185900 0.000000 0.982600
vn 0.988800 0.000000 0.149000
vn -0.988800 0.000000 -0.149000
vn 0.149000 0.000000 -0.988800
vn 0.000000 -1.000000 0.000000
vn 0.000000 1.000000 0.000000
vn 0.593800 0.000000 0.804600
vn 0.955600 0.000000 -0.294800
vn -0.955600 0.000000 0.294800
vn -0.294800 0.000000 -0.955600
vn 0.000000 -1.000000 0.000000
vn 0.000000 1.000000 0.000000
vn 0.884100 0.000000 0.467300
vn 0.733100 0.000000 -0.680200
vn -0.733100 0.000000 0.680200
vn -0.680200 0.000000 -0.733100
vn 0.000000 -1.000000 0.000000
vn 0.000000 1.000000 0.000000
vn 0.999300 0.000000 0.037400
vn 0.365300 0.000000 -0.930900
vn -0.365300 0.000000 0.930900
vn -0.930900 0.000000 -0.365300
vn 0.000000 -1.000000 0.000000
vn 0.000000 1.000000 0.000000
vn 0.916600 0.000000 -0.399900
vn -0.074700 0.000000 -0.997200
vn 0.074700 0.000000 0.997200
vn -0.997200 0.000000 0.074700
vn 0.000000 -1.000000 0.000000
vn 0.000000 1.000000 0.000000
vn 0.652300 0.000000 -0.758000
vn -0.500000 0.000000 -0.866000
vn 0.500000 0.000000 0.866000
vn -0.866000 0.000000 0.500000
vn 0.000000 -1.000000 0.000000
vn 0.000000 1.000000 0.000000
vn 0.258800 0.000000 -0.965900
vn -0.826200 0.000000 -0.563300
vn 0.826200 0.000000 0.563300
vn -0.563300 0.000000 0.826200
vn 0.000000 -1.000000 0.000000
vn 0.000000 1.000000 0.000000
vn -0.185900 0.000000 -0.982600
vn -0.988800 0.000000 -0.149000
vn 0.988800 0.000000 0.149000
vn -0.149000 0.000000 0.988800
vn 0.000000 -1.000000 0.000000
vn 0.000000 1.000000 0.000000
vn -0.593800 0.000000 -0.804600
vn -0.955600 0.000000 0.294800
vn 0.955600 0.000000 -0.294800
vn 0.294800 0.000000 0.955600
vn 0.000000 -1.000000 0.000000
vn 0.000000 1.000000 0.000000
vn -0.884100 0.000000 -0.467300
vn -0.733100 0.000000 0.680200
vn 0.733100 0.000000 -0.680200
vn 0.680200 0.000000 0.733100
vn 0.000000 -1.000000 0.000000
vn 0.000000 1.000000 0.000000
vn -0.999300 0.000000 -0.037400
vn -0.365300 0.000000 0.930900
vn 0.365300 0.000000 -0.930900
vn 0.930900 0.000000 0.365300
vn 0.000000 -1.000000 0.000000
vn 0.000000 1.000000 0.000000
vn -0.916600 0.000000 0.399900
vn 0.074700 0.000000 0.997200
vn -0.074700 0.000000 -0.997200
vn 0.997200 0.000000 -0.074700
vn 0.000000 -1.000000 0.000000
vn 0.000000 1.000000 0.000000
vn -0.652300 0.000000 0.758000
usemtl body
f 3/4/119 4/3/119 2/2/119 1/1/119
f 5/6/120 6/5/120 4/3/120 3/4/120
f 7/8/121 8/7/121 6/5/121 5/6/121
f 9/10/122 10/9/122 8/7/122 7/8/122
f 11/12/123 12/11/123 10/9/123 9/10/123
f 13/14/124 14/13/124 12/11/124 11/12/124
f 15/16/125 16/15/125 14/13/125 13/14/125
f 17/18/126 18/17/126 16/15/126 15/16/126
f 19/20/127 20/19/127 18/17/127 17/18/127
f 21/24/128 22/23/128 20/22/128 19/21/128
f 23/26/129 24/25/129 22/23/129 21/24/129
f 25/28/130 26/27/130 24/25/130 23/26/130
f 27/30/131 28/29/131 26/27/131 25/28/131
f 29/32/132 30/31/132 28/29/132 27/30/132
f 31/34/133 32/33/133 30/31/133 29/32/133
f 33/36/134 34/35/134 32/33/134 31/34/134
f 35/38/135 36/37/135 34/35/135 33/36/135
f 37/42/136 38/41/136 36/40/136 35/39/136
f 39/44/137 40/43/137 38/41/137 37/42/137
f 41/46/138 42/45/138 40/43/138 39/44/138
f 43/48/139 44/47/139 42/45/139 41/46/139
f 45/50/140 46/49/140 44/47/140 43/48/140
f 47/52/141 48/51/141 46/49/141 45/50/141
f 49/54/142 50/53/142 48/51/142 47/52/142
f 51/58/143 52/57/143 50/56/143 49/55/143
f 53/60/144 54/59/144 52/57/144 51/58/144
f 55/62/145 56/61/145 54/59/145 53/60/145
f 57/64/146 58/63/146 56/61/146 55/62/146
f 59/66/147 60/65/147 58/63/147 57/64/147
f 61/68/148 62/67/148 60/65/148 59/66/148
f 64/71/149 2/70/149 4/69/149
f 62/72/150 64/71/150 4/69/150
f 60/73/151 62/72/151 4/69/151
f 58/74/152 60/73/152 4/69/152
f 56/75/153 58/74/153 4/69/153
f 54/76/154 56/75/154 4/69/154
f 52/77/155 54/76/155 4/69/155
f 50/78/156 52/77/156 4/69/156
f 48/79/157 50/78/157 4/69/157
f 46/80/158 48/79/158 4/69/158
f 44/81/159 46/80/159 4/69/159
f 42/82/160 44/81/160 4/69/160
f 40/83/161 42/82/161 4/69/161
f 38/84/162 40/83/162 4/69/162
f 36/85/163 38/84/163 4/69/163
f 34/86/164 36/85/164 4/69/164
f 32/87/165 34/86/165 4/69/165
f 30/88/166 32/87/166 4/69/166
f 28/89/167 30/88/167 4/69/167
f 26/90/168 28/89/168 4/69/168
f 24/91/169 26/90/169 4/69/169
f 22/92/170 24/91/170 4/69/170
f 20/93/171 22/92/171 4/69/171
f 18/94/172 20/93/172 4/69/172
f 16/95/173 18/94/173 4/69/173
f 14/96/174 16/95/174 4/69/174
f 12/97/175 14/96/175 4/69/175
f 10/98/176 12/97/176 4/69/176
f 8/99/177 10/98/177 4/69/177
f 6/100/178 8/99/178 4/69/178
f 63/102/179 64/101/179 62/67/179 61/68/179
f 1/104/180 2/103/180 64/101/180 63/102/180
f 5/107/181 3/106/181 1/105/181
f 7/108/182 5/107/182 1/105/182
f 9/109/183 7/108/183 1/105/183
f 11/110/184 9/109/184 1/105/184
f 13/111/185 11/110/185 1/105/185
f 15/112/186 13/111/186 1/105/186
f 17/113/187 15/112/187 1/105/187
f 19/114/188 17/113/188 1/105/188
f 21/115/189 19/114/189 1/105/189
f 23/116/190 21/115/190 1/105/190
f 25/117/191 23/116/191 1/105/191
f 27/118/192 25/117/192 1/105/192
f 29/119/193 27/118/193 1/105/193
f 31/120/194 29/119/194 1/105/194
f 33/121/195 31/120/195 1/105/195
f 35/122/196 33/121/196 1/105/196
f 37/123/197 35/122/197 1/105/197
f 39/124/198 37/123/198 1/105/198
f 41/125/199 39/124/199 1/105/199
f 43/126/200 41/125/200 1/105/200
f 45/127/201 43/126/201 1/105/201
f 47/128/202 45/127/202 1/105/202
f 49/129/203 47/128/203 1/105/203
f 51/130/204 49/129/204 1/105/204
f 53/131/205 51/130/205 1/105/205
f 55/132/206 53/131/206 1/105/206
f 57/133/207 55/132/207 1/105/207
f 59/134/208 57/133/208 1/105/208
f 61/135/209 59/134/209 1/105/209
f 63/136/210 61/135/210 1/105/210
usemtl cutter
f 71/140/211 72/139/211 66/138/211 65/137/211
f 67/144/212 68/143/212 70/142/212 69/141/212
f 65/148/213 66/147/213 68/146/213 67/145/213
f 68/152/214 66/151/214 72/150/214 70/149/214
f 65/156/215 67/155/215 69/154/215 71/153/215
f 70/158/216 72/139/216 71/140/216 69/157/216
f 79/162/217 80/161/217 74/160/217 73/159/217
f 75/166/218 76/165/218 78/164/218 77/163/218
f 73/170/219 74/169/219 76/168/219 75/167/219
f 76/174/220 74/173/220 80/172/220 78/171/220
f 73/178/221 75/177/221 77/176/221 79/175/221
f 78/182/222 80/181/222 79/180/222 77/179/222
f 87/186/223 88/185/223 82/184/223 81/183/223
f 83/190/224 84/189/224 86/188/224 85/187/224
f 81/194/225 82/193/225 84/192/225 83/191/225
f 84/198/226 82/197/226 88/196/226 86/195/226
f 81/202/227 83/201/227 85/200/227 87/199/227
f 86/204/228 88/185/228 87/186/228 85/203/228
f 95/208/229 96/207/229 90/206/229 89/205/229
f 91/212/230 92/211/230 94/210/230 93/209/230
f 89/216/231 90/215/231 92/214/231 91/213/231
f 92/220/232 90/219/232 96/218/232 94/217/232
f 89/224/233 91/223/233 93/222/233 95/221/233
f 94/226/234 96/207/234 95/208/234 93/225/234
f 103/230/235 104/229/235 98/228/235 97/227/235
f 99/234/236 100/233/236 102/232/236 101/231/236
f 97/238/237 98/237/237 100/236/237 99/235/237
f 100/242/238 98/241/238 104/240/238 102/239/238
f 97/246/239 99/245/239 101/244/239 103/243/239
f 102/250/240 104/249/240 103/248/240 101/247/240
f 111/254/241 112/253/241 106/252/241 105/251/241
f 107/258/242 108/257/242 110/256/242 109/255/242
f 105/262/243 106/261/243 108/260/243 107/259/243
f 108/266/244 106/265/244 112/264/244 110/263/244
f 105/270/245 107/269/245 109/268/245 111/267/245
f 110/274/246 112/273/246 111/272/246 109/271/246
f 119/278/247 120/277/247 114/276/247 113/275/247
f 115/282/248 116/281/248 118/280/248 117/279/248
f 113/286/249 114/285/249 116/284/249 115/283/249
f 116/290/250 114/289/250 120/288/250 118/287/250
f 113/294/251 115/293/251 117/292/251 119/291/251
f 118/296/252 120/277/252 119/278/252 117/295/252
f 127/300/253 128/299/253 122/298/253 121/297/253
f 123/304/254 124/303/254 126/302/254 125/301/254
f 121/308/255 122/307/255 124/306/255 123/305/255
f 124/312/256 122/311/256 128/310/256 126/309/256
f 121/316/257 123/315/257 125/314/257 127/313/257
f 126/318/258 128/299/258 127/300/258 125/317/258
f 135/322/259 136/321/259 130/320/259 129/319/259
f 131/326/260 132/325/260 134/324/260 133/323/260
f 129/330/261 130/329/261 132/328/261 131/327/261
f 132/334/262 130/333/262 136/332/262 134/331/262
f 129/338/263 131/337/263 133/336/263 135/335/263
f 134/342/264 136/341/264 135/340/264 133/339/264
f 143/346/265 144/345/265 138/344/265 137/343/265
f 139/349/266 140/348/266 142/158/266 141/347/266
f 137/351/267 138/350/267 140/348/267 139/349/267
f 140/355/268 138/354/268 144/353/268 142/352/268
f 137/359/269 139/358/269 141/357/269 143/356/269
f 142/363/270 144/362/270 143/361/270 141/360/270
f 151/367/271 152/366/271 146/365/271 145/364/271
f 147/371/272 148/370/272 150/369/272 149/368/272
f 145/375/273 146/374/273 148/373/273 147/372/273
f 148/379/274 146/378/274 152/377/274 150/376/274
f 145/383/275 147/382/275 149/381/275 151/380/275
f 150/385/276 152/366/276 151/367/276 149/384/276
f 159/389/277 160/388/277 154/387/277 153/386/277
f 155/393/278 156/392/278 158/391/278 157/390/278
f 153/397/279 154/396/279 156/395/279 155/394/279
f 156/401/280 154/400/280 160/399/280 158/398/280
f 153/405/281 155/404/281 157/403/281 159/402/281
f 158/409/282 160/408/282 159/407/282 157/406/282
f 167/413/283 168/412/283 162/411/283 161/410/283
f 163/417/284 164/416/284 166/415/284 165/414/284
f 161/421/285 162/420/285 164/419/285 163/418/285
f 164/398/286 162/424/286 168/423/286 166/422/286
f 161/428/287 163/427/287 165/426/287 167/425/287
f 166/432/288 168/431/288 167/430/288 165/429/288
f 175/436/289 176/435/289 170/434/289 169/433/289
f 171/438/290 172/437/290 174/189/290 173/190/290
f 169/442/291 170/441/291 172/440/291 171/439/291
f 172/446/292 170/445/292 176/444/292 174/443/292
f 169/450/293 171/449/293 173/448/293 175/447/293
f 174/452/294 176/435/294 175/436/294 173/451/294
f 183/456/295 184/455/295 178/454/295 177/453/295
f 179/460/296 180/459/296 182/458/296 181/457/296
f 177/464/297 178/463/297 180/462/297 179/461/297
f 180/468/298 178/467/298 184/466/298 182/465/298
f 177/472/299 179/471/299 181/470/299 183/469/299
f 182/476/300 184/475/300 183/474/300 181/473/300
f 191/480/301 192/479/301 186/478/301 185/477/301
f 187/484/302 188/483/302 190/482/302 189/481/302
f 185/488/303 186/487/303 188/486/303 187/485/303
f 188/492/304 186/491/304 192/490/304 190/489/304
f 185/496/305 187/495/305 189/494/305 191/493/305
f 190/498/306 192/479/306 191/480/306 189/497/306
f 199/502/307 200/501/307 194/500/307 193/499/307
f 195/506/308 196/505/308 198/504/308 197/503/308
f 193/508/309 194/507/309 196/505/309 195/506/309
f 196/512/310 194/511/310 200/510/310 198/509/310
f 193/515/311 195/414/311 197/514/311 199/513/311
f 198/517/312 200/501/312 199/502/312 197/516/312
f 207/521/313 208/520/313 202/519/313 201/518/313
f 203/525/314 204/524/314 206/523/314 205/522/314
f 201/529/315 202/528/315 204/527/315 203/526/315
f 204/533/316 202/532/316 208/531/316 206/530/316
f 201/537/317 203/536/317 205/535/317 207/534/317
f 206/541/318 208/540/318 207/539/318 205/538/318
f 215/545/319 216/544/319 210/543/319 209/542/319
f 211/549/320 212/548/320 214/547/320 213/546/320
f 209/553/321 210/552/321 212/551/321 211/550/321
f 212/557/322 210/556/322 216/555/322 214/554/322
f 209/561/323 211/560/323 213/559/323 215/558/323
f 214/563/324 216/544/324 215/545/324 213/562/324
f 223/567/325 224/566/325 218/565/325 217/564/325
f 219/571/326 220/570/326 222/569/326 221/568/326
f 217/575/327 218/574/327 220/573/327 219/572/327
f 220/579/328 218/578/328 224/577/328 222/576/328
f 217/583/329 219/582/329 221/581/329 223/580/329
f 222/585/330 224/566/330 223/567/330 221/584/330
f 231/589/331 232/588/331 226/587/331 225/586/331
f 227/593/332 228/592/332 230/591/332 229/590/332
f 225/597/333 226/596/333 228/595/333 227/594/333
f 228/601/334 226/600/334 232/599/334 230/598/334
f 225/605/335 227/604/335 229/603/335 231/602/335
f 230/609/336 232/608/336 231/607/336 229/606/336
f 239/613/337 240/612/337 234/611/337 233/610/337
f 235/617/338 236/616/338 238/615/338 237/614/338
f 233/621/339 234/620/339 236/619/339 235/618/339
f 236/625/340 234/624/340 240/623/340 238/622/340
f 233/628/341 235/358/341 237/627/341 239/626/341
f 238/632/342 240/631/342 239/630/342 237/629/342
f 247/636/343 248/635/343 242/634/343 241/633/343
f 243/640/344 244/639/344 246/638/344 245/637/344
f 241/644/345 242/643/345 244/642/345 243/641/345
f 244/648/346 242/647/346 248/646/346 246/645/346
f 241/652/347 243/651/347 245/650/347 247/649/347
f 246/654/348 248/635/348 247/636/348 245/653/348
f 255/658/349 256/657/349 250/656/349 249/655/349
f 251/662/350 252/661/350 254/660/350 253/659/350
f 249/666/351 250/665/351 252/664/351 251/663/351
f 252/323/352 250/669/352 256/668/352 254/667/352
f 249/673/353 251/672/353 253/671/353 255/670/353
f 254/675/354 256/657/354 255/658/354 253/674/354
f 263/679/355 264/678/355 258/677/355 257/676/355
f 259/683/356 260/682/356 262/681/356 261/680/356
f 257/687/357 258/686/357 260/685/357 259/684/357
f 260/691/358 258/690/358 264/689/358 262/688/358
f 257/695/359 259/694/359 261/693/359 263/692/359
f 262/699/360 264/698/360 263/697/360 261/696/360
f 271/703/361 272/702/361 266/701/361 265/700/361
f 267/707/362 268/706/362 270/705/362 269/704/362
f 265/711/363 266/710/363 268/709/363 267/708/363
f 268/715/364 266/714/364 272/713/364 270/712/364
f 265/718/365 267/605/365 269/717/365 271/716/365
f 270/720/366 272/702/366 271/703/366 269/719/366
f 279/724/367 280/723/367 274/722/367 273/721/367
f 275/728/368 276/727/368 278/726/368 277/725/368
f 273/732/369 274/731/369 276/730/369 275/729/369
f 276/736/370 274/735/370 280/734/370 278/733/370
f 273/740/371 275/739/371 277/738/371 279/737/371
f 278/742/372 280/723/372 279/724/372 277/741/372
f 287/746/373 288/745/373 282/744/373 281/743/373
f 283/750/374 284/749/374 286/748/374 285/747/374
f 281/754/375 282/753/375 284/752/375 283/751/375
f 284/758/376 282/757/376 288/756/376 286/755/376
f 281/762/377 283/761/377 285/760/377 287/759/377
f 286/766/378 288/765/378 287/764/378 285/763/378
