# Blender 5.1.2
# www.blender.org
mtllib drill_1x1.mtl
o drill_1x1
v 0.467506 0.005000 0.000000
v 0.565052 0.005000 0.009607
v 0.658848 0.005000 0.038060
v 0.745291 0.005000 0.084265
v 0.821060 0.005000 0.146447
v 0.883242 0.005000 0.222215
v 0.929447 0.005000 0.308658
v 0.957900 0.005000 0.402455
v 0.967507 0.005000 0.500000
v 0.957900 0.005000 0.597545
v 0.929447 0.005000 0.691342
v 0.883242 0.005000 0.777785
v 0.821060 0.005000 0.853553
v 0.745291 0.005000 0.915735
v 0.658848 0.005000 0.961940
v 0.565052 0.005000 0.990393
v 0.467506 0.005000 1.000000
v 0.369961 0.005000 0.990393
v 0.276164 0.005000 0.961940
v 0.189721 0.005000 0.915735
v 0.113953 0.005000 0.853553
v 0.051771 0.005000 0.777785
v 0.005566 0.005000 0.691342
v -0.022887 0.005000 0.597545
v -0.032494 0.005000 0.500000
v -0.022887 0.005000 0.402455
v 0.005566 0.005000 0.308658
v 0.051771 0.005000 0.222215
v 0.113953 0.005000 0.146447
v 0.189721 0.005000 0.084265
v 0.276164 0.005000 0.038060
v 0.369961 0.005000 0.009607
v 0.467506 1.005000 0.500000
v 0.422519 -0.057500 0.551747
v 0.422519 0.442500 0.551747
v 0.547519 -0.057500 0.768253
v 0.547519 0.442500 0.768253
v 1.032493 -0.057500 0.488253
v 1.032493 0.442500 0.488253
v 0.543763 0.442500 0.481747
v 0.543763 -0.057500 0.481747
v 0.534814 -0.057501 0.513087
v 0.534814 0.442499 0.513087
v 0.659814 -0.057501 0.296580
v 0.659814 0.442499 0.296580
v 0.174839 -0.057501 0.016580
v 0.174839 0.442499 0.016580
v 0.413571 0.442499 0.443087
v 0.413571 -0.057501 0.443087
v 0.445186 -0.057502 0.435167
v 0.445186 0.442498 0.435167
v 0.195186 -0.057502 0.435167
v 0.195186 0.442498 0.435167
v 0.195186 -0.057502 0.995167
v 0.195186 0.442498 0.995167
v 0.445186 0.442498 0.575167
v 0.445186 -0.057502 0.575167
vn 0.0878 0.4455 -0.8910
vn 0.2599 0.4455 -0.8567
vn 0.4220 0.4455 -0.7896
vn 0.5680 0.4455 -0.6921
vn 0.6921 0.4455 -0.5680
vn 0.7896 0.4455 -0.4220
vn 0.8567 0.4455 -0.2599
vn 0.8910 0.4455 -0.0878
vn 0.8910 0.4455 0.0878
vn 0.8567 0.4455 0.2599
vn 0.7896 0.4455 0.4220
vn 0.6921 0.4455 0.5680
vn 0.5680 0.4455 0.6921
vn 0.4220 0.4455 0.7896
vn 0.2599 0.4455 0.8567
vn 0.0878 0.4455 0.8910
vn -0.0878 0.4455 0.8910
vn -0.2599 0.4455 0.8567
vn -0.4220 0.4455 0.7896
vn -0.5680 0.4455 0.6921
vn -0.6921 0.4455 0.5680
vn -0.7896 0.4455 0.4220
vn -0.8567 0.4455 0.2599
vn -0.8910 0.4455 0.0878
vn -0.8910 0.4455 -0.0878
vn -0.8567 0.4455 -0.2599
vn -0.7896 0.4455 -0.4220
vn -0.6921 0.4455 -0.5680
vn -0.5680 0.4455 -0.6921
vn -0.4220 0.4455 -0.7896
vn -0.0000 -1.0000 -0.0000
vn -0.2599 0.4455 -0.8567
vn -0.0878 0.4455 -0.8910
vn -0.5000 -0.0000 -0.8660
vn 0.5000 -0.0000 0.8660
vn -0.8660 -0.0000 0.5000
vn -0.0000 1.0000 -0.0000
vn 0.0133 -0.0000 -0.9999
vn -0.5000 -0.0000 0.8660
vn 0.5000 -0.0000 -0.8660
vn 0.8660 -0.0000 0.5000
vn -0.8726 -0.0000 0.4884
vn 1.0000 -0.0000 -0.0000
vn -1.0000 -0.0000 -0.0000
vn -0.0000 -0.0000 -1.0000
vn 0.8593 -0.0000 0.5115
vt 0.500384 0.362817
vt 0.645929 0.000000
vt 0.533152 0.375059
vt 0.565285 0.385304
vt 0.595548 0.393158
vt 0.622778 0.398321
vt 0.645929 0.400594
vt 0.356714 0.691421
vt 0.632366 0.400594
vt 0.372402 0.703577
vt 0.393477 0.716762
vt 0.419131 0.730469
vt 0.448376 0.744172
vt 0.480090 0.757343
vt 0.513053 0.769478
vt 0.545999 0.780108
vt 0.577662 0.788827
vt 0.606825 0.795298
vt 0.632366 0.799273
vt -0.000000 0.756731
vt 0.000000 0.356715
vt 0.025203 0.753717
vt 0.054097 0.747989
vt 0.085571 0.739765
vt 0.118416 0.729363
vt 0.151369 0.717181
vt 0.183164 0.703688
vt 0.212579 0.689403
vt 0.238484 0.674874
vt 0.259883 0.660660
vt 0.275955 0.647306
vt 0.275955 0.535072
vt 0.293521 0.356715
vt 0.311088 0.535072
vt 0.356714 0.276719
vt 0.369279 0.289744
vt 0.387507 0.304051
vt 0.410696 0.319091
vt 0.437957 0.334285
vt 0.039818 0.292053
vt 0.020299 0.262841
vt 0.006854 0.230382
vt 0.000000 0.195924
vt 0.000000 0.160791
vt 0.006854 0.126332
vt 0.020299 0.093873
vt 0.039818 0.064661
vt 0.064661 0.039818
vt 0.093873 0.020299
vt 0.126332 0.006854
vt 0.160791 0.000000
vt 0.195924 0.000000
vt 0.230382 0.006854
vt 0.262841 0.020299
vt 0.292053 0.039818
vt 0.316896 0.064661
vt 0.336415 0.093873
vt 0.349860 0.126332
vt 0.356714 0.160791
vt 0.356714 0.195924
vt 0.349860 0.230382
vt 0.336415 0.262841
vt 0.316896 0.292053
vt 0.292053 0.316896
vt 0.262841 0.336415
vt 0.230382 0.349860
vt 0.195924 0.356714
vt 0.160791 0.356714
vt 0.126332 0.349860
vt 0.093873 0.336415
vt 0.064661 0.316896
vt 0.468241 0.349050
vt 0.638392 0.624536
vt 0.812401 0.624536
vt 0.806376 0.667948
vt 0.632366 0.667948
vt 0.172384 0.953125
vt 0.172384 0.777709
vt 0.345052 0.756731
vt 0.345052 0.932147
vt 0.825144 0.400335
vt 0.825144 0.226264
vt 0.909221 0.218887
vt 0.909221 0.392958
vt 0.446325 0.849455
vt 0.446325 0.799273
vt 0.535935 0.799273
vt 0.535935 1.000000
vt 0.625545 0.849455
vt 0.625545 0.799273
vt 0.632847 0.843133
vt 0.806857 0.843133
vt 0.806118 0.624536
vt 0.632366 0.613999
vt 0.637381 0.564757
vt 0.811133 0.575294
vt 0.172384 0.956114
vt -0.000000 0.932390
vt 0.000000 0.756731
vt 0.172384 0.780455
vt 0.645929 0.394514
vt 0.645929 0.219098
vt 0.735534 0.218887
vt 0.735534 0.394303
vt 0.902011 0.674718
vt 0.902011 0.624536
vt 0.991621 0.624536
vt 0.991621 0.825263
vt 0.446325 0.849455
vt 0.356715 1.000000
vt 0.356715 0.799273
vt 0.446325 0.799273
vt 0.806118 0.411131
vt 0.650969 0.000000
vt 0.826385 -0.000000
vt 0.821345 0.043744
vt 0.645929 0.043744
vt 0.811133 0.611387
vt 0.811133 0.437316
vt 0.939515 0.400594
vt 0.939515 0.574665
vt 0.735534 0.392896
vt 0.735534 0.218887
vt 0.825144 0.218926
vt 0.825144 0.392936
vt 0.902011 0.775081
vt 0.902011 0.825263
vt 0.812401 0.825263
vt 0.826385 0.150545
vt 0.915995 -0.000000
vt 0.915995 0.200727
vt 0.826385 0.200727
vt 0.646821 0.218887
vt 0.822236 0.218887
s 0
usemtl body
f 1/1/1 33/2/1 2/3/1
f 2/3/2 33/2/2 3/4/2
f 3/4/3 33/2/3 4/5/3
f 4/5/4 33/2/4 5/6/4
f 5/6/5 33/2/5 6/7/5
f 6/8/6 33/9/6 7/10/6
f 7/10/7 33/9/7 8/11/7
f 8/11/8 33/9/8 9/12/8
f 9/12/9 33/9/9 10/13/9
f 10/13/10 33/9/10 11/14/10
f 11/14/11 33/9/11 12/15/11
f 12/15/12 33/9/12 13/16/12
f 13/16/13 33/9/13 14/17/13
f 14/17/14 33/9/14 15/18/14
f 15/18/15 33/9/15 16/19/15
f 16/20/16 33/21/16 17/22/16
f 17/22/17 33/21/17 18/23/17
f 18/23/18 33/21/18 19/24/18
f 19/24/19 33/21/19 20/25/19
f 20/25/20 33/21/20 21/26/20
f 21/26/21 33/21/21 22/27/21
f 22/27/22 33/21/22 23/28/22
f 23/28/23 33/21/23 24/29/23
f 24/29/24 33/21/24 25/30/24
f 25/30/25 33/21/25 26/31/25
f 26/32/26 33/33/26 27/34/26
f 27/35/27 33/2/27 28/36/27
f 28/36/28 33/2/28 29/37/28
f 29/37/29 33/2/29 30/38/29
f 30/38/30 33/2/30 31/39/30
f 1/40/31 2/41/31 3/42/31
f 1/40/31 3/42/31 4/43/31
f 1/40/31 4/43/31 5/44/31
f 1/40/31 5/44/31 6/45/31
f 1/40/31 6/45/31 7/46/31
f 1/40/31 7/46/31 8/47/31
f 1/40/31 8/47/31 9/48/31
f 1/40/31 9/48/31 10/49/31
f 1/40/31 10/49/31 11/50/31
f 1/40/31 11/50/31 12/51/31
f 1/40/31 12/51/31 13/52/31
f 1/40/31 13/52/31 14/53/31
f 1/40/31 14/53/31 15/54/31
f 1/40/31 15/54/31 16/55/31
f 1/40/31 16/55/31 17/56/31
f 1/40/31 17/56/31 18/57/31
f 1/40/31 18/57/31 19/58/31
f 1/40/31 19/58/31 20/59/31
f 1/40/31 20/59/31 21/60/31
f 1/40/31 21/60/31 22/61/31
f 1/40/31 22/61/31 23/62/31
f 1/40/31 23/62/31 24/63/31
f 1/40/31 24/63/31 25/64/31
f 1/40/31 25/64/31 26/65/31
f 1/40/31 26/65/31 27/66/31
f 1/40/31 27/66/31 28/67/31
f 1/40/31 28/67/31 29/68/31
f 1/40/31 29/68/31 30/69/31
f 1/40/31 30/69/31 31/70/31
f 1/40/31 31/70/31 32/71/31
f 31/39/32 33/2/32 32/72/32
f 32/72/33 33/2/33 1/1/33
usemtl cutter
f 34/73/34 35/74/34 40/75/34 41/76/34
f 38/77/35 39/78/35 37/79/35 36/80/35
f 36/81/36 37/82/36 35/83/36 34/84/36
f 40/85/37 35/86/37 37/87/37 39/88/37
f 41/89/31 38/88/31 36/87/31 34/90/31
f 38/91/38 41/76/38 40/75/38 39/92/38
f 42/93/39 43/94/39 48/95/39 49/96/39
f 46/97/40 47/98/40 45/99/40 44/100/40
f 44/101/41 45/102/41 43/103/41 42/104/41
f 48/105/37 43/106/37 45/107/37 47/108/37
f 49/109/31 46/110/31 44/111/31 42/112/31
f 46/113/42 49/96/42 48/95/42 47/9/42
f 50/114/43 51/115/43 56/116/43 57/117/43
f 54/118/44 55/119/44 53/120/44 52/121/44
f 52/122/45 53/123/45 51/124/45 50/125/45
f 56/126/37 51/127/37 53/128/37 55/74/37
f 57/129/31 54/130/31 52/131/31 50/132/31
f 54/133/46 57/117/46 56/116/46 55/134/46

# Reversed faces (double-sided)
vn -0.087800 -0.445500 0.891000
vn -0.259900 -0.445500 0.856700
vn -0.422000 -0.445500 0.789600
vn -0.568000 -0.445500 0.692100
vn -0.692100 -0.445500 0.568000
vn -0.789600 -0.445500 0.422000
vn -0.856700 -0.445500 0.259900
vn -0.891000 -0.445500 0.087800
vn -0.891000 -0.445500 -0.087800
vn -0.856700 -0.445500 -0.259900
vn -0.789600 -0.445500 -0.422000
vn -0.692100 -0.445500 -0.568000
vn -0.568000 -0.445500 -0.692100
vn -0.422000 -0.445500 -0.789600
vn -0.259900 -0.445500 -0.856700
vn -0.087800 -0.445500 -0.891000
vn 0.087800 -0.445500 -0.891000
vn 0.259900 -0.445500 -0.856700
vn 0.422000 -0.445500 -0.789600
vn 0.568000 -0.445500 -0.692100
vn 0.692100 -0.445500 -0.568000
vn 0.789600 -0.445500 -0.422000
vn 0.856700 -0.445500 -0.259900
vn 0.891000 -0.445500 -0.087800
vn 0.891000 -0.445500 0.087800
vn 0.856700 -0.445500 0.259900
vn 0.789600 -0.445500 0.422000
vn 0.692100 -0.445500 0.568000
vn 0.568000 -0.445500 0.692100
vn 0.422000 -0.445500 0.789600
vn 0.000000 1.000000 0.000000
vn 0.000000 1.000000 0.000000
vn 0.000000 1.000000 0.000000
vn 0.000000 1.000000 0.000000
vn 0.000000 1.000000 0.000000
vn 0.000000 1.000000 0.000000
vn 0.000000 1.000000 0.000000
vn 0.000000 1.000000 0.000000
vn 0.000000 1.000000 0.000000
vn 0.000000 1.000000 0.000000
vn 0.000000 1.000000 0.000000
vn 0.000000 1.000000 0.000000
vn 0.000000 1.000000 0.000000
vn 0.000000 1.000000 0.000000
vn 0.000000 1.000000 0.000000
vn 0.000000 1.000000 0.000000
vn 0.000000 1.000000 0.000000
vn 0.000000 1.000000 0.000000
vn 0.000000 1.000000 0.000000
vn 0.000000 1.000000 0.000000
vn 0.000000 1.000000 0.000000
vn 0.000000 1.000000 0.000000
vn 0.000000 1.000000 0.000000
vn 0.000000 1.000000 0.000000
vn 0.000000 1.000000 0.000000
vn 0.000000 1.000000 0.000000
vn 0.000000 1.000000 0.000000
vn 0.000000 1.000000 0.000000
vn 0.000000 1.000000 0.000000
vn 0.000000 1.000000 0.000000
vn 0.259900 -0.445500 0.856700
vn 0.087800 -0.445500 0.891000
vn 0.500000 0.000000 0.866000
vn -0.500000 0.000000 -0.866000
vn 0.866000 0.000000 -0.500000
vn 0.000000 -1.000000 0.000000
vn 0.000000 1.000000 0.000000
vn -0.013300 0.000000 0.999900
vn 0.500000 0.000000 -0.866000
vn -0.500000 0.000000 0.866000
vn -0.866000 0.000000 -0.500000
vn 0.000000 -1.000000 0.000000
vn 0.000000 1.000000 0.000000
vn 0.872600 0.000000 -0.488400
vn -1.000000 0.000000 0.000000
vn 1.000000 0.000000 0.000000
vn 0.000000 0.000000 1.000000
vn 0.000000 -1.000000 0.000000
vn 0.000000 1.000000 0.000000
vn -0.859300 0.000000 -0.511500
usemtl body
f 2/3/47 33/2/47 1/1/47
f 3/4/48 33/2/48 2/3/48
f 4/5/49 33/2/49 3/4/49
f 5/6/50 33/2/50 4/5/50
f 6/7/51 33/2/51 5/6/51
f 7/10/52 33/9/52 6/8/52
f 8/11/53 33/9/53 7/10/53
f 9/12/54 33/9/54 8/11/54
f 10/13/55 33/9/55 9/12/55
f 11/14/56 33/9/56 10/13/56
f 12/15/57 33/9/57 11/14/57
f 13/16/58 33/9/58 12/15/58
f 14/17/59 33/9/59 13/16/59
f 15/18/60 33/9/60 14/17/60
f 16/19/61 33/9/61 15/18/61
f 17/22/62 33/21/62 16/20/62
f 18/23/63 33/21/63 17/22/63
f 19/24/64 33/21/64 18/23/64
f 20/25/65 33/21/65 19/24/65
f 21/26/66 33/21/66 20/25/66
f 22/27/67 33/21/67 21/26/67
f 23/28/68 33/21/68 22/27/68
f 24/29/69 33/21/69 23/28/69
f 25/30/70 33/21/70 24/29/70
f 26/31/71 33/21/71 25/30/71
f 27/34/72 33/33/72 26/32/72
f 28/36/73 33/2/73 27/35/73
f 29/37/74 33/2/74 28/36/74
f 30/38/75 33/2/75 29/37/75
f 31/39/76 33/2/76 30/38/76
f 3/42/77 2/41/77 1/40/77
f 4/43/78 3/42/78 1/40/78
f 5/44/79 4/43/79 1/40/79
f 6/45/80 5/44/80 1/40/80
f 7/46/81 6/45/81 1/40/81
f 8/47/82 7/46/82 1/40/82
f 9/48/83 8/47/83 1/40/83
f 10/49/84 9/48/84 1/40/84
f 11/50/85 10/49/85 1/40/85
f 12/51/86 11/50/86 1/40/86
f 13/52/87 12/51/87 1/40/87
f 14/53/88 13/52/88 1/40/88
f 15/54/89 14/53/89 1/40/89
f 16/55/90 15/54/90 1/40/90
f 17/56/91 16/55/91 1/40/91
f 18/57/92 17/56/92 1/40/92
f 19/58/93 18/57/93 1/40/93
f 20/59/94 19/58/94 1/40/94
f 21/60/95 20/59/95 1/40/95
f 22/61/96 21/60/96 1/40/96
f 23/62/97 22/61/97 1/40/97
f 24/63/98 23/62/98 1/40/98
f 25/64/99 24/63/99 1/40/99
f 26/65/100 25/64/100 1/40/100
f 27/66/101 26/65/101 1/40/101
f 28/67/102 27/66/102 1/40/102
f 29/68/103 28/67/103 1/40/103
f 30/69/104 29/68/104 1/40/104
f 31/70/105 30/69/105 1/40/105
f 32/71/106 31/70/106 1/40/106
f 32/72/107 33/2/107 31/39/107
f 1/1/108 33/2/108 32/72/108
usemtl cutter
f 41/76/109 40/75/109 35/74/109 34/73/109
f 36/80/110 37/79/110 39/78/110 38/77/110
f 34/84/111 35/83/111 37/82/111 36/81/111
f 39/88/112 37/87/112 35/86/112 40/85/112
f 34/90/113 36/87/113 38/88/113 41/89/113
f 39/92/114 40/75/114 41/76/114 38/91/114
f 49/96/115 48/95/115 43/94/115 42/93/115
f 44/100/116 45/99/116 47/98/116 46/97/116
f 42/104/117 43/103/117 45/102/117 44/101/117
f 47/108/118 45/107/118 43/106/118 48/105/118
f 42/112/119 44/111/119 46/110/119 49/109/119
f 47/9/120 48/95/120 49/96/120 46/113/120
f 57/117/121 56/116/121 51/115/121 50/114/121
f 52/121/122 53/120/122 55/119/122 54/118/122
f 50/125/123 51/124/123 53/123/123 52/122/123
f 55/74/124 53/128/124 51/127/124 56/126/124
f 50/132/125 52/131/125 54/130/125 57/129/125
f 55/134/126 56/116/126 57/117/126 54/133/126
